ISO-10303-21;
HEADER;
/* Generated by software containing ST-Developer
 * from STEP Tools, Inc. (www.steptools.com) 
 */
/* OPTION: using custom renumber hook */

FILE_DESCRIPTION(
/* description */ ('STEP AP242 Edition 2',
'CAx-IF Rec.Pracs.---Representation and Presentation of Product Manufa
cturing Information (PMI)---4.0---2014-10-13',
'CAx-IF Rec.Pracs.---3D Tessellated Geometry---0.4---2014-09-14','2;1',
'CAx-IF Rec.Pracs.---User Defined Attributes---1.5---2016-08-15'),
/* implementation_level */ '2;1');

FILE_NAME(
/* name */ 'Part Studio 9',
/* time_stamp */ '2026-09-06T10:33:53Z',
/* author */ (''),
/* organization */ (''),
/* preprocessor_version */ 'ST-DEVELOPER v20',
/* originating_system */ 'ONSHAPE BY PTC INC, 1.220',
/* authorisation */ '  ');

FILE_SCHEMA (('AP242_MANAGED_MODEL_BASED_3D_ENGINEERING_MIM_LF { 1 0 10303 442 3 1 4 }'));
ENDSEC;

DATA;
#10=SHAPE_REPRESENTATION_RELATIONSHIP('','',#406,#11);
#11=ADVANCED_BREP_SHAPE_REPRESENTATION('',(#404),#584);
#12=CIRCLE('',#411,0.006);
#13=CIRCLE('',#412,0.006);
#14=CIRCLE('',#418,0.00600181635135838);
#15=CIRCLE('',#419,0.00600181635135838);
#16=CYLINDRICAL_SURFACE('',#410,0.006);
#17=CYLINDRICAL_SURFACE('',#417,0.00600181635135838);
#18=ORIENTED_EDGE('',*,*,#96,.F.);
#19=ORIENTED_EDGE('',*,*,#97,.F.);
#20=ORIENTED_EDGE('',*,*,#98,.T.);
#21=ORIENTED_EDGE('',*,*,#99,.T.);
#22=ORIENTED_EDGE('',*,*,#100,.T.);
#23=ORIENTED_EDGE('',*,*,#101,.F.);
#24=ORIENTED_EDGE('',*,*,#102,.F.);
#25=ORIENTED_EDGE('',*,*,#97,.T.);
#26=ORIENTED_EDGE('',*,*,#103,.T.);
#27=ORIENTED_EDGE('',*,*,#104,.F.);
#28=ORIENTED_EDGE('',*,*,#105,.F.);
#29=ORIENTED_EDGE('',*,*,#101,.T.);
#30=ORIENTED_EDGE('',*,*,#106,.T.);
#31=ORIENTED_EDGE('',*,*,#107,.F.);
#32=ORIENTED_EDGE('',*,*,#108,.F.);
#33=ORIENTED_EDGE('',*,*,#104,.T.);
#34=ORIENTED_EDGE('',*,*,#109,.T.);
#35=ORIENTED_EDGE('',*,*,#110,.F.);
#36=ORIENTED_EDGE('',*,*,#111,.F.);
#37=ORIENTED_EDGE('',*,*,#107,.T.);
#38=ORIENTED_EDGE('',*,*,#112,.F.);
#39=ORIENTED_EDGE('',*,*,#113,.F.);
#40=ORIENTED_EDGE('',*,*,#114,.T.);
#41=ORIENTED_EDGE('',*,*,#110,.T.);
#42=ORIENTED_EDGE('',*,*,#115,.T.);
#43=ORIENTED_EDGE('',*,*,#116,.F.);
#44=ORIENTED_EDGE('',*,*,#117,.F.);
#45=ORIENTED_EDGE('',*,*,#113,.T.);
#46=ORIENTED_EDGE('',*,*,#118,.F.);
#47=ORIENTED_EDGE('',*,*,#119,.F.);
#48=ORIENTED_EDGE('',*,*,#120,.T.);
#49=ORIENTED_EDGE('',*,*,#116,.T.);
#50=ORIENTED_EDGE('',*,*,#121,.F.);
#51=ORIENTED_EDGE('',*,*,#122,.F.);
#52=ORIENTED_EDGE('',*,*,#123,.T.);
#53=ORIENTED_EDGE('',*,*,#119,.T.);
#54=ORIENTED_EDGE('',*,*,#124,.F.);
#55=ORIENTED_EDGE('',*,*,#125,.F.);
#56=ORIENTED_EDGE('',*,*,#126,.T.);
#57=ORIENTED_EDGE('',*,*,#122,.T.);
#58=ORIENTED_EDGE('',*,*,#127,.F.);
#59=ORIENTED_EDGE('',*,*,#128,.F.);
#60=ORIENTED_EDGE('',*,*,#129,.T.);
#61=ORIENTED_EDGE('',*,*,#125,.T.);
#62=ORIENTED_EDGE('',*,*,#130,.T.);
#63=ORIENTED_EDGE('',*,*,#131,.F.);
#64=ORIENTED_EDGE('',*,*,#132,.F.);
#65=ORIENTED_EDGE('',*,*,#128,.T.);
#66=ORIENTED_EDGE('',*,*,#133,.T.);
#67=ORIENTED_EDGE('',*,*,#99,.F.);
#68=ORIENTED_EDGE('',*,*,#134,.F.);
#69=ORIENTED_EDGE('',*,*,#131,.T.);
#70=ORIENTED_EDGE('',*,*,#98,.F.);
#71=ORIENTED_EDGE('',*,*,#102,.T.);
#72=ORIENTED_EDGE('',*,*,#105,.T.);
#73=ORIENTED_EDGE('',*,*,#108,.T.);
#74=ORIENTED_EDGE('',*,*,#111,.T.);
#75=ORIENTED_EDGE('',*,*,#114,.F.);
#76=ORIENTED_EDGE('',*,*,#117,.T.);
#77=ORIENTED_EDGE('',*,*,#120,.F.);
#78=ORIENTED_EDGE('',*,*,#123,.F.);
#79=ORIENTED_EDGE('',*,*,#126,.F.);
#80=ORIENTED_EDGE('',*,*,#129,.F.);
#81=ORIENTED_EDGE('',*,*,#132,.T.);
#82=ORIENTED_EDGE('',*,*,#134,.T.);
#83=ORIENTED_EDGE('',*,*,#96,.T.);
#84=ORIENTED_EDGE('',*,*,#133,.F.);
#85=ORIENTED_EDGE('',*,*,#130,.F.);
#86=ORIENTED_EDGE('',*,*,#127,.T.);
#87=ORIENTED_EDGE('',*,*,#124,.T.);
#88=ORIENTED_EDGE('',*,*,#121,.T.);
#89=ORIENTED_EDGE('',*,*,#118,.T.);
#90=ORIENTED_EDGE('',*,*,#115,.F.);
#91=ORIENTED_EDGE('',*,*,#112,.T.);
#92=ORIENTED_EDGE('',*,*,#109,.F.);
#93=ORIENTED_EDGE('',*,*,#106,.F.);
#94=ORIENTED_EDGE('',*,*,#103,.F.);
#95=ORIENTED_EDGE('',*,*,#100,.F.);
#96=EDGE_CURVE('',#135,#136,#161,.T.);
#97=EDGE_CURVE('',#137,#135,#162,.T.);
#98=EDGE_CURVE('',#137,#138,#163,.T.);
#99=EDGE_CURVE('',#138,#136,#164,.T.);
#100=EDGE_CURVE('',#135,#139,#165,.T.);
#101=EDGE_CURVE('',#140,#139,#166,.T.);
#102=EDGE_CURVE('',#137,#140,#167,.T.);
#103=EDGE_CURVE('',#139,#141,#12,.T.);
#104=EDGE_CURVE('',#142,#141,#168,.T.);
#105=EDGE_CURVE('',#140,#142,#13,.T.);
#106=EDGE_CURVE('',#141,#143,#169,.T.);
#107=EDGE_CURVE('',#144,#143,#170,.T.);
#108=EDGE_CURVE('',#142,#144,#171,.T.);
#109=EDGE_CURVE('',#143,#145,#172,.T.);
#110=EDGE_CURVE('',#146,#145,#173,.T.);
#111=EDGE_CURVE('',#144,#146,#174,.T.);
#112=EDGE_CURVE('',#147,#145,#175,.T.);
#113=EDGE_CURVE('',#148,#147,#176,.T.);
#114=EDGE_CURVE('',#148,#146,#177,.T.);
#115=EDGE_CURVE('',#147,#149,#178,.T.);
#116=EDGE_CURVE('',#150,#149,#179,.T.);
#117=EDGE_CURVE('',#148,#150,#180,.T.);
#118=EDGE_CURVE('',#151,#149,#14,.T.);
#119=EDGE_CURVE('',#152,#151,#181,.T.);
#120=EDGE_CURVE('',#152,#150,#15,.T.);
#121=EDGE_CURVE('',#153,#151,#182,.T.);
#122=EDGE_CURVE('',#154,#153,#183,.T.);
#123=EDGE_CURVE('',#154,#152,#184,.T.);
#124=EDGE_CURVE('',#155,#153,#185,.T.);
#125=EDGE_CURVE('',#156,#155,#186,.T.);
#126=EDGE_CURVE('',#156,#154,#187,.T.);
#127=EDGE_CURVE('',#157,#155,#188,.T.);
#128=EDGE_CURVE('',#158,#157,#189,.T.);
#129=EDGE_CURVE('',#158,#156,#190,.T.);
#130=EDGE_CURVE('',#157,#159,#191,.T.);
#131=EDGE_CURVE('',#160,#159,#192,.T.);
#132=EDGE_CURVE('',#158,#160,#193,.T.);
#133=EDGE_CURVE('',#159,#136,#194,.T.);
#134=EDGE_CURVE('',#160,#138,#195,.T.);
#135=VERTEX_POINT('',#505);
#136=VERTEX_POINT('',#506);
#137=VERTEX_POINT('',#508);
#138=VERTEX_POINT('',#510);
#139=VERTEX_POINT('',#514);
#140=VERTEX_POINT('',#516);
#141=VERTEX_POINT('',#520);
#142=VERTEX_POINT('',#522);
#143=VERTEX_POINT('',#526);
#144=VERTEX_POINT('',#528);
#145=VERTEX_POINT('',#532);
#146=VERTEX_POINT('',#534);
#147=VERTEX_POINT('',#538);
#148=VERTEX_POINT('',#540);
#149=VERTEX_POINT('',#544);
#150=VERTEX_POINT('',#546);
#151=VERTEX_POINT('',#550);
#152=VERTEX_POINT('',#552);
#153=VERTEX_POINT('',#556);
#154=VERTEX_POINT('',#558);
#155=VERTEX_POINT('',#562);
#156=VERTEX_POINT('',#564);
#157=VERTEX_POINT('',#568);
#158=VERTEX_POINT('',#570);
#159=VERTEX_POINT('',#574);
#160=VERTEX_POINT('',#576);
#161=LINE('',#504,#196);
#162=LINE('',#507,#197);
#163=LINE('',#509,#198);
#164=LINE('',#511,#199);
#165=LINE('',#513,#200);
#166=LINE('',#515,#201);
#167=LINE('',#517,#202);
#168=LINE('',#521,#203);
#169=LINE('',#525,#204);
#170=LINE('',#527,#205);
#171=LINE('',#529,#206);
#172=LINE('',#531,#207);
#173=LINE('',#533,#208);
#174=LINE('',#535,#209);
#175=LINE('',#537,#210);
#176=LINE('',#539,#211);
#177=LINE('',#541,#212);
#178=LINE('',#543,#213);
#179=LINE('',#545,#214);
#180=LINE('',#547,#215);
#181=LINE('',#551,#216);
#182=LINE('',#555,#217);
#183=LINE('',#557,#218);
#184=LINE('',#559,#219);
#185=LINE('',#561,#220);
#186=LINE('',#563,#221);
#187=LINE('',#565,#222);
#188=LINE('',#567,#223);
#189=LINE('',#569,#224);
#190=LINE('',#571,#225);
#191=LINE('',#573,#226);
#192=LINE('',#575,#227);
#193=LINE('',#577,#228);
#194=LINE('',#579,#229);
#195=LINE('',#580,#230);
#196=VECTOR('',#431,1.);
#197=VECTOR('',#432,1.);
#198=VECTOR('',#433,1.);
#199=VECTOR('',#434,1.);
#200=VECTOR('',#437,1.);
#201=VECTOR('',#438,1.);
#202=VECTOR('',#439,1.);
#203=VECTOR('',#444,1.);
#204=VECTOR('',#449,1.);
#205=VECTOR('',#450,1.);
#206=VECTOR('',#451,1.);
#207=VECTOR('',#454,1.);
#208=VECTOR('',#455,1.);
#209=VECTOR('',#456,1.);
#210=VECTOR('',#459,1.);
#211=VECTOR('',#460,1.);
#212=VECTOR('',#461,1.);
#213=VECTOR('',#464,1.);
#214=VECTOR('',#465,1.);
#215=VECTOR('',#466,1.);
#216=VECTOR('',#471,1.);
#217=VECTOR('',#476,1.);
#218=VECTOR('',#477,1.);
#219=VECTOR('',#478,1.);
#220=VECTOR('',#481,1.);
#221=VECTOR('',#482,1.);
#222=VECTOR('',#483,1.);
#223=VECTOR('',#486,1.);
#224=VECTOR('',#487,1.);
#225=VECTOR('',#488,1.);
#226=VECTOR('',#491,1.);
#227=VECTOR('',#492,1.);
#228=VECTOR('',#493,1.);
#229=VECTOR('',#496,1.);
#230=VECTOR('',#497,1.);
#231=EDGE_LOOP('',(#18,#19,#20,#21));
#232=EDGE_LOOP('',(#22,#23,#24,#25));
#233=EDGE_LOOP('',(#26,#27,#28,#29));
#234=EDGE_LOOP('',(#30,#31,#32,#33));
#235=EDGE_LOOP('',(#34,#35,#36,#37));
#236=EDGE_LOOP('',(#38,#39,#40,#41));
#237=EDGE_LOOP('',(#42,#43,#44,#45));
#238=EDGE_LOOP('',(#46,#47,#48,#49));
#239=EDGE_LOOP('',(#50,#51,#52,#53));
#240=EDGE_LOOP('',(#54,#55,#56,#57));
#241=EDGE_LOOP('',(#58,#59,#60,#61));
#242=EDGE_LOOP('',(#62,#63,#64,#65));
#243=EDGE_LOOP('',(#66,#67,#68,#69));
#244=EDGE_LOOP('',(#70,#71,#72,#73,#74,#75,#76,#77,#78,#79,#80,#81,#82));
#245=EDGE_LOOP('',(#83,#84,#85,#86,#87,#88,#89,#90,#91,#92,#93,#94,#95));
#246=FACE_BOUND('',#231,.T.);
#247=FACE_BOUND('',#232,.T.);
#248=FACE_BOUND('',#233,.T.);
#249=FACE_BOUND('',#234,.T.);
#250=FACE_BOUND('',#235,.T.);
#251=FACE_BOUND('',#236,.T.);
#252=FACE_BOUND('',#237,.T.);
#253=FACE_BOUND('',#238,.T.);
#254=FACE_BOUND('',#239,.T.);
#255=FACE_BOUND('',#240,.T.);
#256=FACE_BOUND('',#241,.T.);
#257=FACE_BOUND('',#242,.T.);
#258=FACE_BOUND('',#243,.T.);
#259=FACE_BOUND('',#244,.T.);
#260=FACE_BOUND('',#245,.T.);
#261=PLANE('',#408);
#262=PLANE('',#409);
#263=PLANE('',#413);
#264=PLANE('',#414);
#265=PLANE('',#415);
#266=PLANE('',#416);
#267=PLANE('',#420);
#268=PLANE('',#421);
#269=PLANE('',#422);
#270=PLANE('',#423);
#271=PLANE('',#424);
#272=PLANE('',#425);
#273=PLANE('',#426);
#274=OVER_RIDING_STYLED_ITEM('',(#307),#289,#305);
#275=OVER_RIDING_STYLED_ITEM('',(#308),#290,#305);
#276=OVER_RIDING_STYLED_ITEM('',(#309),#291,#305);
#277=OVER_RIDING_STYLED_ITEM('',(#310),#292,#305);
#278=OVER_RIDING_STYLED_ITEM('',(#311),#293,#305);
#279=OVER_RIDING_STYLED_ITEM('',(#312),#294,#305);
#280=OVER_RIDING_STYLED_ITEM('',(#313),#295,#305);
#281=OVER_RIDING_STYLED_ITEM('',(#314),#296,#305);
#282=OVER_RIDING_STYLED_ITEM('',(#315),#297,#305);
#283=OVER_RIDING_STYLED_ITEM('',(#316),#298,#305);
#284=OVER_RIDING_STYLED_ITEM('',(#317),#299,#305);
#285=OVER_RIDING_STYLED_ITEM('',(#318),#300,#305);
#286=OVER_RIDING_STYLED_ITEM('',(#319),#301,#305);
#287=OVER_RIDING_STYLED_ITEM('',(#320),#302,#305);
#288=OVER_RIDING_STYLED_ITEM('',(#321),#303,#305);
#289=ADVANCED_FACE('Face appearance 1',(#246),#261,.T.);
#290=ADVANCED_FACE('Face appearance 1',(#247),#262,.F.);
#291=ADVANCED_FACE('Face appearance 1',(#248),#16,.T.);
#292=ADVANCED_FACE('Face appearance 1',(#249),#263,.F.);
#293=ADVANCED_FACE('Face appearance 1',(#250),#264,.F.);
#294=ADVANCED_FACE('Face appearance 1',(#251),#265,.T.);
#295=ADVANCED_FACE('Face appearance 1',(#252),#266,.F.);
#296=ADVANCED_FACE('Face appearance 1',(#253),#17,.F.);
#297=ADVANCED_FACE('Face appearance 1',(#254),#267,.T.);
#298=ADVANCED_FACE('Face appearance 1',(#255),#268,.T.);
#299=ADVANCED_FACE('Face appearance 1',(#256),#269,.T.);
#300=ADVANCED_FACE('Face appearance 1',(#257),#270,.F.);
#301=ADVANCED_FACE('Face appearance 1',(#258),#271,.F.);
#302=ADVANCED_FACE('Face appearance 1',(#259),#272,.T.);
#303=ADVANCED_FACE('Face appearance 1',(#260),#273,.F.);
#304=CLOSED_SHELL('',(#289,#290,#291,#292,#293,#294,#295,#296,#297,#298,
#299,#300,#301,#302,#303));
#305=STYLED_ITEM('',(#306),#404);
#306=PRESENTATION_STYLE_ASSIGNMENT((#322));
#307=PRESENTATION_STYLE_ASSIGNMENT((#323));
#308=PRESENTATION_STYLE_ASSIGNMENT((#324));
#309=PRESENTATION_STYLE_ASSIGNMENT((#325));
#310=PRESENTATION_STYLE_ASSIGNMENT((#326));
#311=PRESENTATION_STYLE_ASSIGNMENT((#327));
#312=PRESENTATION_STYLE_ASSIGNMENT((#328));
#313=PRESENTATION_STYLE_ASSIGNMENT((#329));
#314=PRESENTATION_STYLE_ASSIGNMENT((#330));
#315=PRESENTATION_STYLE_ASSIGNMENT((#331));
#316=PRESENTATION_STYLE_ASSIGNMENT((#332));
#317=PRESENTATION_STYLE_ASSIGNMENT((#333));
#318=PRESENTATION_STYLE_ASSIGNMENT((#334));
#319=PRESENTATION_STYLE_ASSIGNMENT((#335));
#320=PRESENTATION_STYLE_ASSIGNMENT((#336));
#321=PRESENTATION_STYLE_ASSIGNMENT((#337));
#322=SURFACE_STYLE_USAGE(.BOTH.,#338);
#323=SURFACE_STYLE_USAGE(.BOTH.,#339);
#324=SURFACE_STYLE_USAGE(.BOTH.,#340);
#325=SURFACE_STYLE_USAGE(.BOTH.,#341);
#326=SURFACE_STYLE_USAGE(.BOTH.,#342);
#327=SURFACE_STYLE_USAGE(.BOTH.,#343);
#328=SURFACE_STYLE_USAGE(.BOTH.,#344);
#329=SURFACE_STYLE_USAGE(.BOTH.,#345);
#330=SURFACE_STYLE_USAGE(.BOTH.,#346);
#331=SURFACE_STYLE_USAGE(.BOTH.,#347);
#332=SURFACE_STYLE_USAGE(.BOTH.,#348);
#333=SURFACE_STYLE_USAGE(.BOTH.,#349);
#334=SURFACE_STYLE_USAGE(.BOTH.,#350);
#335=SURFACE_STYLE_USAGE(.BOTH.,#351);
#336=SURFACE_STYLE_USAGE(.BOTH.,#352);
#337=SURFACE_STYLE_USAGE(.BOTH.,#353);
#338=SURFACE_SIDE_STYLE('',(#354));
#339=SURFACE_SIDE_STYLE('',(#355));
#340=SURFACE_SIDE_STYLE('',(#356));
#341=SURFACE_SIDE_STYLE('',(#357));
#342=SURFACE_SIDE_STYLE('',(#358));
#343=SURFACE_SIDE_STYLE('',(#359));
#344=SURFACE_SIDE_STYLE('',(#360));
#345=SURFACE_SIDE_STYLE('',(#361));
#346=SURFACE_SIDE_STYLE('',(#362));
#347=SURFACE_SIDE_STYLE('',(#363));
#348=SURFACE_SIDE_STYLE('',(#364));
#349=SURFACE_SIDE_STYLE('',(#365));
#350=SURFACE_SIDE_STYLE('',(#366));
#351=SURFACE_SIDE_STYLE('',(#367));
#352=SURFACE_SIDE_STYLE('',(#368));
#353=SURFACE_SIDE_STYLE('',(#369));
#354=SURFACE_STYLE_FILL_AREA(#370);
#355=SURFACE_STYLE_FILL_AREA(#371);
#356=SURFACE_STYLE_FILL_AREA(#372);
#357=SURFACE_STYLE_FILL_AREA(#373);
#358=SURFACE_STYLE_FILL_AREA(#374);
#359=SURFACE_STYLE_FILL_AREA(#375);
#360=SURFACE_STYLE_FILL_AREA(#376);
#361=SURFACE_STYLE_FILL_AREA(#377);
#362=SURFACE_STYLE_FILL_AREA(#378);
#363=SURFACE_STYLE_FILL_AREA(#379);
#364=SURFACE_STYLE_FILL_AREA(#380);
#365=SURFACE_STYLE_FILL_AREA(#381);
#366=SURFACE_STYLE_FILL_AREA(#382);
#367=SURFACE_STYLE_FILL_AREA(#383);
#368=SURFACE_STYLE_FILL_AREA(#384);
#369=SURFACE_STYLE_FILL_AREA(#385);
#370=FILL_AREA_STYLE('',(#386));
#371=FILL_AREA_STYLE('',(#387));
#372=FILL_AREA_STYLE('',(#388));
#373=FILL_AREA_STYLE('',(#389));
#374=FILL_AREA_STYLE('',(#390));
#375=FILL_AREA_STYLE('',(#391));
#376=FILL_AREA_STYLE('',(#392));
#377=FILL_AREA_STYLE('',(#393));
#378=FILL_AREA_STYLE('',(#394));
#379=FILL_AREA_STYLE('',(#395));
#380=FILL_AREA_STYLE('',(#396));
#381=FILL_AREA_STYLE('',(#397));
#382=FILL_AREA_STYLE('',(#398));
#383=FILL_AREA_STYLE('',(#399));
#384=FILL_AREA_STYLE('',(#400));
#385=FILL_AREA_STYLE('',(#401));
#386=FILL_AREA_STYLE_COLOUR('',#402);
#387=FILL_AREA_STYLE_COLOUR('',#403);
#388=FILL_AREA_STYLE_COLOUR('',#403);
#389=FILL_AREA_STYLE_COLOUR('',#403);
#390=FILL_AREA_STYLE_COLOUR('',#403);
#391=FILL_AREA_STYLE_COLOUR('',#403);
#392=FILL_AREA_STYLE_COLOUR('',#403);
#393=FILL_AREA_STYLE_COLOUR('',#403);
#394=FILL_AREA_STYLE_COLOUR('',#403);
#395=FILL_AREA_STYLE_COLOUR('',#403);
#396=FILL_AREA_STYLE_COLOUR('',#403);
#397=FILL_AREA_STYLE_COLOUR('',#403);
#398=FILL_AREA_STYLE_COLOUR('',#403);
#399=FILL_AREA_STYLE_COLOUR('',#403);
#400=FILL_AREA_STYLE_COLOUR('',#403);
#401=FILL_AREA_STYLE_COLOUR('',#403);
#402=COLOUR_RGB('',0.615686274509804,0.811764705882353,0.929411764705882);
#403=COLOUR_RGB('',0.650980392156863,0.415686274509804,0.247058823529412);
#404=MANIFOLD_SOLID_BREP('Part 1',#304);
#405=SHAPE_DEFINITION_REPRESENTATION(#589,#406);
#406=SHAPE_REPRESENTATION('Part 1',(#407),#584);
#407=AXIS2_PLACEMENT_3D('',#502,#427,#428);
#408=AXIS2_PLACEMENT_3D('',#503,#429,#430);
#409=AXIS2_PLACEMENT_3D('',#512,#435,#436);
#410=AXIS2_PLACEMENT_3D('',#518,#440,#441);
#411=AXIS2_PLACEMENT_3D('',#519,#442,#443);
#412=AXIS2_PLACEMENT_3D('',#523,#445,#446);
#413=AXIS2_PLACEMENT_3D('',#524,#447,#448);
#414=AXIS2_PLACEMENT_3D('',#530,#452,#453);
#415=AXIS2_PLACEMENT_3D('',#536,#457,#458);
#416=AXIS2_PLACEMENT_3D('',#542,#462,#463);
#417=AXIS2_PLACEMENT_3D('',#548,#467,#468);
#418=AXIS2_PLACEMENT_3D('',#549,#469,#470);
#419=AXIS2_PLACEMENT_3D('',#553,#472,#473);
#420=AXIS2_PLACEMENT_3D('',#554,#474,#475);
#421=AXIS2_PLACEMENT_3D('',#560,#479,#480);
#422=AXIS2_PLACEMENT_3D('',#566,#484,#485);
#423=AXIS2_PLACEMENT_3D('',#572,#489,#490);
#424=AXIS2_PLACEMENT_3D('',#578,#494,#495);
#425=AXIS2_PLACEMENT_3D('',#581,#498,#499);
#426=AXIS2_PLACEMENT_3D('',#582,#500,#501);
#427=DIRECTION('',(0.,0.,1.));
#428=DIRECTION('',(1.,0.,0.));
#429=DIRECTION('',(-1.,0.,1.22990095074309E-16));
#430=DIRECTION('',(1.22990095074309E-16,0.,1.));
#431=DIRECTION('',(1.22990095074309E-16,0.,1.));
#432=DIRECTION('',(0.,1.,0.));
#433=DIRECTION('',(1.22990095074309E-16,0.,1.));
#434=DIRECTION('',(0.,1.,0.));
#435=DIRECTION('',(1.318751556455E-16,0.,-1.));
#436=DIRECTION('',(-1.,0.,-1.318751556455E-16));
#437=DIRECTION('',(-1.,0.,-1.318751556455E-16));
#438=DIRECTION('',(0.,1.,0.));
#439=DIRECTION('',(-1.,0.,-1.318751556455E-16));
#440=DIRECTION('',(0.,1.,0.));
#441=DIRECTION('',(0.,0.,1.));
#442=DIRECTION('',(0.,-1.,0.));
#443=DIRECTION('',(0.,0.,-1.));
#444=DIRECTION('',(0.,1.,0.));
#445=DIRECTION('',(0.,-1.,0.));
#446=DIRECTION('',(0.,0.,-1.));
#447=DIRECTION('',(1.,0.,0.));
#448=DIRECTION('',(0.,0.,-1.));
#449=DIRECTION('',(0.,0.,-1.));
#450=DIRECTION('',(0.,1.,0.));
#451=DIRECTION('',(0.,0.,-1.));
#452=DIRECTION('',(0.,0.,1.));
#453=DIRECTION('',(1.,0.,0.));
#454=DIRECTION('',(1.,0.,0.));
#455=DIRECTION('',(0.,1.,0.));
#456=DIRECTION('',(1.,0.,0.));
#457=DIRECTION('',(1.,0.,0.));
#458=DIRECTION('',(0.,0.,-1.));
#459=DIRECTION('',(0.,0.,-1.));
#460=DIRECTION('',(0.,1.,0.));
#461=DIRECTION('',(0.,0.,-1.));
#462=DIRECTION('',(0.,0.,1.));
#463=DIRECTION('',(1.,0.,0.));
#464=DIRECTION('',(1.,0.,0.));
#465=DIRECTION('',(0.,1.,0.));
#466=DIRECTION('',(1.,0.,0.));
#467=DIRECTION('',(0.,1.,0.));
#468=DIRECTION('',(0.,0.,1.));
#469=DIRECTION('',(0.,-1.,0.));
#470=DIRECTION('',(0.,0.,-1.));
#471=DIRECTION('',(0.,1.,0.));
#472=DIRECTION('',(0.,-1.,0.));
#473=DIRECTION('',(0.,0.,-1.));
#474=DIRECTION('',(1.13035847696143E-16,0.,-1.));
#475=DIRECTION('',(-1.,0.,-1.13035847696143E-16));
#476=DIRECTION('',(-1.,0.,-1.13035847696143E-16));
#477=DIRECTION('',(0.,1.,0.));
#478=DIRECTION('',(-1.,0.,-1.13035847696143E-16));
#479=DIRECTION('',(-1.,0.,1.29501225668324E-16));
#480=DIRECTION('',(1.29501225668324E-16,0.,1.));
#481=DIRECTION('',(1.29501225668324E-16,0.,1.));
#482=DIRECTION('',(0.,1.,0.));
#483=DIRECTION('',(1.29501225668324E-16,0.,1.));
#484=DIRECTION('',(0.,0.,-1.));
#485=DIRECTION('',(-1.,0.,0.));
#486=DIRECTION('',(-1.,0.,0.));
#487=DIRECTION('',(0.,1.,0.));
#488=DIRECTION('',(-1.,0.,0.));
#489=DIRECTION('',(-1.,0.,1.15648231731787E-16));
#490=DIRECTION('',(1.15648231731787E-16,0.,1.));
#491=DIRECTION('',(1.15648231731787E-16,0.,1.));
#492=DIRECTION('',(0.,1.,0.));
#493=DIRECTION('',(1.15648231731787E-16,0.,1.));
#494=DIRECTION('',(0.,0.,-1.));
#495=DIRECTION('',(-1.,0.,0.));
#496=DIRECTION('',(-1.,0.,0.));
#497=DIRECTION('',(-1.,0.,0.));
#498=DIRECTION('',(0.,-1.,0.));
#499=DIRECTION('',(1.,0.,0.));
#500=DIRECTION('',(0.,-1.,0.));
#501=DIRECTION('',(1.,0.,0.));
#502=CARTESIAN_POINT('',(0.,0.,0.));
#503=CARTESIAN_POINT('',(0.0202668266743422,-0.03,0.0158954212944651));
#504=CARTESIAN_POINT('',(0.0202668266743422,0.,0.0158954212944651));
#505=CARTESIAN_POINT('',(0.0202668266743422,0.,0.00179084258893024));
#506=CARTESIAN_POINT('',(0.0202668266743422,0.,0.03));
#507=CARTESIAN_POINT('',(0.0202668266743422,-0.03,0.00179084258893024));
#508=CARTESIAN_POINT('',(0.0202668266743422,-0.03,0.00179084258893024));
#509=CARTESIAN_POINT('',(0.0202668266743422,-0.03,0.0158954212944651));
#510=CARTESIAN_POINT('',(0.0202668266743422,-0.03,0.03));
#511=CARTESIAN_POINT('',(0.0202668266743422,-0.03,0.03));
#512=CARTESIAN_POINT('',(0.00875682667434215,-0.03,0.00179084258893024));
#513=CARTESIAN_POINT('',(0.00875682667434215,0.,0.00179084258893024));
#514=CARTESIAN_POINT('',(-0.00775317332565785,0.,0.00179084258893023));
#515=CARTESIAN_POINT('',(-0.00775317332565785,-0.03,0.00179084258893023));
#516=CARTESIAN_POINT('',(-0.00775317332565785,-0.03,0.00179084258893023));
#517=CARTESIAN_POINT('',(0.00875682667434215,-0.03,0.00179084258893024));
#518=CARTESIAN_POINT('',(-0.00775317332565785,-0.03,-0.00420915741106977));
#519=CARTESIAN_POINT('',(-0.00775317332565785,0.,-0.00420915741106977));
#520=CARTESIAN_POINT('',(-0.013745000874392,0.,-0.00389610369965582));
#521=CARTESIAN_POINT('',(-0.013745000874392,-0.03,-0.00389610369965582));
#522=CARTESIAN_POINT('',(-0.013745000874392,-0.03,-0.00389610369965582));
#523=CARTESIAN_POINT('',(-0.00775317332565785,-0.03,-0.00420915741106977));
#524=CARTESIAN_POINT('',(-0.013745000874392,-0.03,-0.0198756082542241));
#525=CARTESIAN_POINT('',(-0.013745000874392,0.,-0.0198756082542241));
#526=CARTESIAN_POINT('',(-0.013745000874392,0.,-0.03));
#527=CARTESIAN_POINT('',(-0.013745000874392,-0.03,-0.03));
#528=CARTESIAN_POINT('',(-0.013745000874392,-0.03,-0.03));
#529=CARTESIAN_POINT('',(-0.013745000874392,-0.03,-0.0198756082542241));
#530=CARTESIAN_POINT('',(-0.011245000874392,-0.03,-0.03));
#531=CARTESIAN_POINT('',(-0.011245000874392,0.,-0.03));
#532=CARTESIAN_POINT('',(-0.00874500087439203,0.,-0.03));
#533=CARTESIAN_POINT('',(-0.00874500087439203,-0.03,-0.03));
#534=CARTESIAN_POINT('',(-0.00874500087439203,-0.03,-0.03));
#535=CARTESIAN_POINT('',(-0.011245000874392,-0.03,-0.03));
#536=CARTESIAN_POINT('',(-0.00874500087439203,-0.03,-0.0198756082542241));
#537=CARTESIAN_POINT('',(-0.00874500087439203,0.,-0.0198756082542241));
#538=CARTESIAN_POINT('',(-0.00874500087439203,0.,-0.00975121650844812));
#539=CARTESIAN_POINT('',(-0.00874500087439203,-0.03,-0.00975121650844812));
#540=CARTESIAN_POINT('',(-0.00874500087439203,-0.03,-0.00975121650844812));
#541=CARTESIAN_POINT('',(-0.00874500087439203,-0.03,-0.0198756082542241));
#542=CARTESIAN_POINT('',(-0.0087378133040626,-0.03,-0.00975121650844812));
#543=CARTESIAN_POINT('',(-0.0087378133040626,0.,-0.00975121650844812));
#544=CARTESIAN_POINT('',(-0.00873062573373318,0.,-0.00975121650844812));
#545=CARTESIAN_POINT('',(-0.00873062573373318,-0.03,-0.00975121650844812));
#546=CARTESIAN_POINT('',(-0.00873062573373318,-0.03,-0.00975121650844812));
#547=CARTESIAN_POINT('',(-0.0087378133040626,-0.03,-0.00975121650844812));
#548=CARTESIAN_POINT('',(-0.00275317332565784,-0.03,-0.00921097376242814));
#549=CARTESIAN_POINT('',(-0.00275317332565784,0.,-0.00921097376242814));
#550=CARTESIAN_POINT('',(-0.00275317332565785,0.,-0.00320915741106976));
#551=CARTESIAN_POINT('',(-0.00275317332565785,-0.03,-0.00320915741106976));
#552=CARTESIAN_POINT('',(-0.00275317332565785,-0.03,-0.00320915741106976));
#553=CARTESIAN_POINT('',(-0.00275317332565784,-0.03,-0.00921097376242814));
#554=CARTESIAN_POINT('',(0.00875682667434215,-0.03,-0.00320915741106976));
#555=CARTESIAN_POINT('',(0.00875682667434215,0.,-0.00320915741106976));
#556=CARTESIAN_POINT('',(0.0202668266743422,0.,-0.00320915741106976));
#557=CARTESIAN_POINT('',(0.0202668266743422,-0.03,-0.00320915741106976));
#558=CARTESIAN_POINT('',(0.0202668266743422,-0.03,-0.00320915741106976));
#559=CARTESIAN_POINT('',(0.00875682667434215,-0.03,-0.00320915741106976));
#560=CARTESIAN_POINT('',(0.0202668266743422,-0.03,-0.0166045787055349));
#561=CARTESIAN_POINT('',(0.0202668266743422,0.,-0.0166045787055349));
#562=CARTESIAN_POINT('',(0.0202668266743422,0.,-0.03));
#563=CARTESIAN_POINT('',(0.0202668266743422,-0.03,-0.03));
#564=CARTESIAN_POINT('',(0.0202668266743422,-0.03,-0.03));
#565=CARTESIAN_POINT('',(0.0202668266743422,-0.03,-0.0166045787055349));
#566=CARTESIAN_POINT('',(0.0227668266743422,-0.03,-0.03));
#567=CARTESIAN_POINT('',(0.0227668266743422,0.,-0.03));
#568=CARTESIAN_POINT('',(0.0252668266743422,0.,-0.03));
#569=CARTESIAN_POINT('',(0.0252668266743422,-0.03,-0.03));
#570=CARTESIAN_POINT('',(0.0252668266743422,-0.03,-0.03));
#571=CARTESIAN_POINT('',(0.0227668266743422,-0.03,-0.03));
#572=CARTESIAN_POINT('',(0.0252668266743422,-0.03,0.));
#573=CARTESIAN_POINT('',(0.0252668266743422,0.,0.));
#574=CARTESIAN_POINT('',(0.0252668266743422,0.,0.03));
#575=CARTESIAN_POINT('',(0.0252668266743422,-0.03,0.03));
#576=CARTESIAN_POINT('',(0.0252668266743422,-0.03,0.03));
#577=CARTESIAN_POINT('',(0.0252668266743422,-0.03,0.));
#578=CARTESIAN_POINT('',(0.0227668266743422,-0.03,0.03));
#579=CARTESIAN_POINT('',(0.0227668266743422,0.,0.03));
#580=CARTESIAN_POINT('',(0.0227668266743422,-0.03,0.03));
#581=CARTESIAN_POINT('',(0.00576091289997506,-0.03,0.));
#582=CARTESIAN_POINT('',(0.00576091289997506,0.,0.));
#583=MECHANICAL_DESIGN_GEOMETRIC_PRESENTATION_REPRESENTATION('',(#305,#274,
#275,#276,#277,#278,#279,#280,#281,#282,#283,#284,#285,#286,#287,#288),
#584);
#584=(
GEOMETRIC_REPRESENTATION_CONTEXT(3)
GLOBAL_UNCERTAINTY_ASSIGNED_CONTEXT((#585))
GLOBAL_UNIT_ASSIGNED_CONTEXT((#588,#587,#586))
REPRESENTATION_CONTEXT('Part 1','TOP_LEVEL_ASSEMBLY_PART')
);
#585=UNCERTAINTY_MEASURE_WITH_UNIT(LENGTH_MEASURE(1.E-8),#588,
'DISTANCE_ACCURACY_VALUE','Maximum Tolerance applied to model');
#586=(
NAMED_UNIT(*)
SI_UNIT($,.STERADIAN.)
SOLID_ANGLE_UNIT()
);
#587=(
NAMED_UNIT(*)
PLANE_ANGLE_UNIT()
SI_UNIT($,.RADIAN.)
);
#588=(
LENGTH_UNIT()
NAMED_UNIT(*)
SI_UNIT($,.METRE.)
);
#589=PRODUCT_DEFINITION_SHAPE('','',#590);
#590=PRODUCT_DEFINITION('','',#592,#591);
#591=PRODUCT_DEFINITION_CONTEXT('',#598,'design');
#592=PRODUCT_DEFINITION_FORMATION_WITH_SPECIFIED_SOURCE('','',#594,
 .NOT_KNOWN.);
#593=PRODUCT_RELATED_PRODUCT_CATEGORY('','',(#594));
#594=PRODUCT('Part 1','Part 1','Part 1',(#596));
#595=PRODUCT_CATEGORY('','');
#596=PRODUCT_CONTEXT('',#598,'mechanical');
#597=APPLICATION_PROTOCOL_DEFINITION('international standard',
'ap242_managed_model_based_3d_engineering',2020,#598);
#598=APPLICATION_CONTEXT('managed model based 3d engineering');
ENDSEC;
END-ISO-10303-21;
