ISO-10303-21;
HEADER;
/* Generated by software containing ST-Developer
 * from STEP Tools, Inc. (www.steptools.com) 
 */
/* OPTION: using custom renumber hook */

FILE_DESCRIPTION(
/* description */ ('STEP AP242 Edition 2',
'CAx-IF Rec.Pracs.---Representation and Presentation of Product Manufa
cturing Information (PMI)---4.0---2014-10-13',
'CAx-IF Rec.Pracs.---3D Tessellated Geometry---0.4---2014-09-14','2;1',
'CAx-IF Rec.Pracs.---User Defined Attributes---1.5---2016-08-15'),
/* implementation_level */ '2;1');

FILE_NAME(
/* name */ 'Part Studio 4',
/* time_stamp */ '2026-09-06T10:35:17Z',
/* author */ (''),
/* organization */ (''),
/* preprocessor_version */ 'ST-DEVELOPER v20',
/* originating_system */ 'ONSHAPE BY PTC INC, 1.220',
/* authorisation */ '  ');

FILE_SCHEMA (('AP242_MANAGED_MODEL_BASED_3D_ENGINEERING_MIM_LF { 1 0 10303 442 3 1 4 }'));
ENDSEC;

DATA;
#10=SHAPE_REPRESENTATION_RELATIONSHIP('','',#529,#11);
#11=ADVANCED_BREP_SHAPE_REPRESENTATION('',(#527),#791);
#12=SPHERICAL_SURFACE('',#551,0.002);
#13=SPHERICAL_SURFACE('',#553,0.002);
#14=SPHERICAL_SURFACE('',#562,0.002);
#15=SPHERICAL_SURFACE('',#564,0.002);
#16=CIRCLE('',#545,0.002);
#17=CIRCLE('',#547,0.002);
#18=CIRCLE('',#548,0.002);
#19=CIRCLE('',#550,0.002);
#20=CIRCLE('',#552,0.002);
#21=CIRCLE('',#554,0.002);
#22=CIRCLE('',#556,0.002);
#23=CIRCLE('',#558,0.002);
#24=CIRCLE('',#559,0.002);
#25=CIRCLE('',#561,0.002);
#26=CIRCLE('',#563,0.002);
#27=CIRCLE('',#565,0.002);
#28=ELLIPSE('',#542,0.00282842712474619,0.002);
#29=ELLIPSE('',#543,0.00282842712474619,0.002);
#30=ELLIPSE('',#567,0.00282842712474619,0.002);
#31=ELLIPSE('',#569,0.00282842712474619,0.002);
#32=CYLINDRICAL_SURFACE('',#541,0.002);
#33=CYLINDRICAL_SURFACE('',#544,0.002);
#34=CYLINDRICAL_SURFACE('',#546,0.002);
#35=CYLINDRICAL_SURFACE('',#549,0.002);
#36=CYLINDRICAL_SURFACE('',#555,0.002);
#37=CYLINDRICAL_SURFACE('',#557,0.002);
#38=CYLINDRICAL_SURFACE('',#560,0.002);
#39=CYLINDRICAL_SURFACE('',#566,0.002);
#40=CYLINDRICAL_SURFACE('',#568,0.002);
#41=CYLINDRICAL_SURFACE('',#570,0.002);
#42=ORIENTED_EDGE('',*,*,#142,.T.);
#43=ORIENTED_EDGE('',*,*,#143,.T.);
#44=ORIENTED_EDGE('',*,*,#144,.F.);
#45=ORIENTED_EDGE('',*,*,#145,.F.);
#46=ORIENTED_EDGE('',*,*,#144,.T.);
#47=ORIENTED_EDGE('',*,*,#146,.T.);
#48=ORIENTED_EDGE('',*,*,#147,.F.);
#49=ORIENTED_EDGE('',*,*,#148,.F.);
#50=ORIENTED_EDGE('',*,*,#149,.F.);
#51=ORIENTED_EDGE('',*,*,#150,.F.);
#52=ORIENTED_EDGE('',*,*,#151,.T.);
#53=ORIENTED_EDGE('',*,*,#147,.T.);
#54=ORIENTED_EDGE('',*,*,#152,.F.);
#55=ORIENTED_EDGE('',*,*,#153,.T.);
#56=ORIENTED_EDGE('',*,*,#154,.T.);
#57=ORIENTED_EDGE('',*,*,#150,.T.);
#58=ORIENTED_EDGE('',*,*,#155,.T.);
#59=ORIENTED_EDGE('',*,*,#142,.F.);
#60=ORIENTED_EDGE('',*,*,#156,.T.);
#61=ORIENTED_EDGE('',*,*,#157,.T.);
#62=ORIENTED_EDGE('',*,*,#158,.T.);
#63=ORIENTED_EDGE('',*,*,#159,.T.);
#64=ORIENTED_EDGE('',*,*,#160,.T.);
#65=ORIENTED_EDGE('',*,*,#161,.T.);
#66=ORIENTED_EDGE('',*,*,#162,.T.);
#67=ORIENTED_EDGE('',*,*,#163,.T.);
#68=ORIENTED_EDGE('',*,*,#164,.T.);
#69=ORIENTED_EDGE('',*,*,#165,.T.);
#70=ORIENTED_EDGE('',*,*,#166,.T.);
#71=ORIENTED_EDGE('',*,*,#167,.T.);
#72=ORIENTED_EDGE('',*,*,#168,.T.);
#73=ORIENTED_EDGE('',*,*,#169,.T.);
#74=ORIENTED_EDGE('',*,*,#154,.F.);
#75=ORIENTED_EDGE('',*,*,#170,.T.);
#76=ORIENTED_EDGE('',*,*,#171,.T.);
#77=ORIENTED_EDGE('',*,*,#172,.T.);
#78=ORIENTED_EDGE('',*,*,#156,.F.);
#79=ORIENTED_EDGE('',*,*,#145,.T.);
#80=ORIENTED_EDGE('',*,*,#148,.T.);
#81=ORIENTED_EDGE('',*,*,#151,.F.);
#82=ORIENTED_EDGE('',*,*,#173,.T.);
#83=ORIENTED_EDGE('',*,*,#174,.T.);
#84=ORIENTED_EDGE('',*,*,#152,.T.);
#85=ORIENTED_EDGE('',*,*,#175,.T.);
#86=ORIENTED_EDGE('',*,*,#143,.F.);
#87=ORIENTED_EDGE('',*,*,#155,.F.);
#88=ORIENTED_EDGE('',*,*,#149,.T.);
#89=ORIENTED_EDGE('',*,*,#146,.F.);
#90=ORIENTED_EDGE('',*,*,#176,.F.);
#91=ORIENTED_EDGE('',*,*,#157,.F.);
#92=ORIENTED_EDGE('',*,*,#177,.F.);
#93=ORIENTED_EDGE('',*,*,#166,.F.);
#94=ORIENTED_EDGE('',*,*,#177,.T.);
#95=ORIENTED_EDGE('',*,*,#172,.F.);
#96=ORIENTED_EDGE('',*,*,#178,.F.);
#97=ORIENTED_EDGE('',*,*,#167,.F.);
#98=ORIENTED_EDGE('',*,*,#179,.F.);
#99=ORIENTED_EDGE('',*,*,#168,.F.);
#100=ORIENTED_EDGE('',*,*,#180,.F.);
#101=ORIENTED_EDGE('',*,*,#165,.F.);
#102=ORIENTED_EDGE('',*,*,#176,.T.);
#103=ORIENTED_EDGE('',*,*,#169,.F.);
#104=ORIENTED_EDGE('',*,*,#181,.F.);
#105=ORIENTED_EDGE('',*,*,#175,.F.);
#106=ORIENTED_EDGE('',*,*,#180,.T.);
#107=ORIENTED_EDGE('',*,*,#178,.T.);
#108=ORIENTED_EDGE('',*,*,#182,.F.);
#109=ORIENTED_EDGE('',*,*,#181,.T.);
#110=ORIENTED_EDGE('',*,*,#179,.T.);
#111=ORIENTED_EDGE('',*,*,#183,.F.);
#112=ORIENTED_EDGE('',*,*,#182,.T.);
#113=ORIENTED_EDGE('',*,*,#171,.F.);
#114=ORIENTED_EDGE('',*,*,#184,.F.);
#115=ORIENTED_EDGE('',*,*,#162,.F.);
#116=ORIENTED_EDGE('',*,*,#185,.F.);
#117=ORIENTED_EDGE('',*,*,#163,.F.);
#118=ORIENTED_EDGE('',*,*,#186,.F.);
#119=ORIENTED_EDGE('',*,*,#161,.F.);
#120=ORIENTED_EDGE('',*,*,#183,.T.);
#121=ORIENTED_EDGE('',*,*,#164,.F.);
#122=ORIENTED_EDGE('',*,*,#187,.F.);
#123=ORIENTED_EDGE('',*,*,#173,.F.);
#124=ORIENTED_EDGE('',*,*,#186,.T.);
#125=ORIENTED_EDGE('',*,*,#184,.T.);
#126=ORIENTED_EDGE('',*,*,#188,.F.);
#127=ORIENTED_EDGE('',*,*,#187,.T.);
#128=ORIENTED_EDGE('',*,*,#185,.T.);
#129=ORIENTED_EDGE('',*,*,#189,.F.);
#130=ORIENTED_EDGE('',*,*,#188,.T.);
#131=ORIENTED_EDGE('',*,*,#170,.F.);
#132=ORIENTED_EDGE('',*,*,#190,.F.);
#133=ORIENTED_EDGE('',*,*,#158,.F.);
#134=ORIENTED_EDGE('',*,*,#189,.T.);
#135=ORIENTED_EDGE('',*,*,#160,.F.);
#136=ORIENTED_EDGE('',*,*,#191,.F.);
#137=ORIENTED_EDGE('',*,*,#174,.F.);
#138=ORIENTED_EDGE('',*,*,#190,.T.);
#139=ORIENTED_EDGE('',*,*,#153,.F.);
#140=ORIENTED_EDGE('',*,*,#191,.T.);
#141=ORIENTED_EDGE('',*,*,#159,.F.);
#142=EDGE_CURVE('',#192,#193,#220,.T.);
#143=EDGE_CURVE('',#193,#194,#221,.T.);
#144=EDGE_CURVE('',#195,#194,#222,.T.);
#145=EDGE_CURVE('',#192,#195,#223,.T.);
#146=EDGE_CURVE('',#194,#196,#224,.T.);
#147=EDGE_CURVE('',#197,#196,#225,.T.);
#148=EDGE_CURVE('',#195,#197,#226,.T.);
#149=EDGE_CURVE('',#198,#196,#227,.T.);
#150=EDGE_CURVE('',#199,#198,#228,.T.);
#151=EDGE_CURVE('',#199,#197,#229,.T.);
#152=EDGE_CURVE('',#200,#201,#230,.T.);
#153=EDGE_CURVE('',#200,#202,#231,.F.);
#154=EDGE_CURVE('',#202,#199,#232,.T.);
#155=EDGE_CURVE('',#198,#193,#233,.T.);
#156=EDGE_CURVE('',#192,#203,#234,.T.);
#157=EDGE_CURVE('',#203,#201,#235,.T.);
#158=EDGE_CURVE('',#204,#205,#236,.F.);
#159=EDGE_CURVE('',#205,#206,#237,.T.);
#160=EDGE_CURVE('',#206,#207,#238,.T.);
#161=EDGE_CURVE('',#207,#204,#239,.F.);
#162=EDGE_CURVE('',#208,#209,#240,.T.);
#163=EDGE_CURVE('',#209,#210,#241,.T.);
#164=EDGE_CURVE('',#210,#211,#242,.F.);
#165=EDGE_CURVE('',#211,#208,#243,.F.);
#166=EDGE_CURVE('',#212,#213,#244,.F.);
#167=EDGE_CURVE('',#213,#214,#245,.T.);
#168=EDGE_CURVE('',#214,#215,#246,.T.);
#169=EDGE_CURVE('',#215,#212,#247,.F.);
#170=EDGE_CURVE('',#202,#216,#248,.T.);
#171=EDGE_CURVE('',#216,#217,#249,.F.);
#172=EDGE_CURVE('',#217,#203,#250,.F.);
#173=EDGE_CURVE('',#218,#219,#251,.T.);
#174=EDGE_CURVE('',#219,#200,#252,.F.);
#175=EDGE_CURVE('',#201,#218,#253,.T.);
#176=EDGE_CURVE('',#201,#212,#28,.F.);
#177=EDGE_CURVE('',#213,#203,#29,.T.);
#178=EDGE_CURVE('',#214,#217,#16,.T.);
#179=EDGE_CURVE('',#215,#211,#17,.T.);
#180=EDGE_CURVE('',#208,#214,#18,.T.);
#181=EDGE_CURVE('',#218,#215,#19,.T.);
#182=EDGE_CURVE('',#208,#217,#20,.F.);
#183=EDGE_CURVE('',#218,#211,#21,.F.);
#184=EDGE_CURVE('',#209,#216,#22,.T.);
#185=EDGE_CURVE('',#210,#207,#23,.T.);
#186=EDGE_CURVE('',#204,#209,#24,.T.);
#187=EDGE_CURVE('',#219,#210,#25,.T.);
#188=EDGE_CURVE('',#204,#216,#26,.F.);
#189=EDGE_CURVE('',#219,#207,#27,.F.);
#190=EDGE_CURVE('',#205,#202,#30,.T.);
#191=EDGE_CURVE('',#200,#206,#31,.F.);
#192=VERTEX_POINT('',#690);
#193=VERTEX_POINT('',#691);
#194=VERTEX_POINT('',#693);
#195=VERTEX_POINT('',#695);
#196=VERTEX_POINT('',#699);
#197=VERTEX_POINT('',#701);
#198=VERTEX_POINT('',#705);
#199=VERTEX_POINT('',#707);
#200=VERTEX_POINT('',#711);
#201=VERTEX_POINT('',#712);
#202=VERTEX_POINT('',#714);
#203=VERTEX_POINT('',#718);
#204=VERTEX_POINT('',#722);
#205=VERTEX_POINT('',#723);
#206=VERTEX_POINT('',#725);
#207=VERTEX_POINT('',#727);
#208=VERTEX_POINT('',#731);
#209=VERTEX_POINT('',#732);
#210=VERTEX_POINT('',#734);
#211=VERTEX_POINT('',#736);
#212=VERTEX_POINT('',#740);
#213=VERTEX_POINT('',#741);
#214=VERTEX_POINT('',#743);
#215=VERTEX_POINT('',#745);
#216=VERTEX_POINT('',#749);
#217=VERTEX_POINT('',#751);
#218=VERTEX_POINT('',#755);
#219=VERTEX_POINT('',#756);
#220=LINE('',#689,#254);
#221=LINE('',#692,#255);
#222=LINE('',#694,#256);
#223=LINE('',#696,#257);
#224=LINE('',#698,#258);
#225=LINE('',#700,#259);
#226=LINE('',#702,#260);
#227=LINE('',#704,#261);
#228=LINE('',#706,#262);
#229=LINE('',#708,#263);
#230=LINE('',#710,#264);
#231=LINE('',#713,#265);
#232=LINE('',#715,#266);
#233=LINE('',#716,#267);
#234=LINE('',#717,#268);
#235=LINE('',#719,#269);
#236=LINE('',#721,#270);
#237=LINE('',#724,#271);
#238=LINE('',#726,#272);
#239=LINE('',#728,#273);
#240=LINE('',#730,#274);
#241=LINE('',#733,#275);
#242=LINE('',#735,#276);
#243=LINE('',#737,#277);
#244=LINE('',#739,#278);
#245=LINE('',#742,#279);
#246=LINE('',#744,#280);
#247=LINE('',#746,#281);
#248=LINE('',#748,#282);
#249=LINE('',#750,#283);
#250=LINE('',#752,#284);
#251=LINE('',#754,#285);
#252=LINE('',#757,#286);
#253=LINE('',#758,#287);
#254=VECTOR('',#575,1.);
#255=VECTOR('',#576,1.);
#256=VECTOR('',#577,1.);
#257=VECTOR('',#578,1.);
#258=VECTOR('',#581,1.);
#259=VECTOR('',#582,1.);
#260=VECTOR('',#583,1.);
#261=VECTOR('',#586,1.);
#262=VECTOR('',#587,1.);
#263=VECTOR('',#588,1.);
#264=VECTOR('',#591,1.);
#265=VECTOR('',#592,1.);
#266=VECTOR('',#593,1.);
#267=VECTOR('',#594,1.);
#268=VECTOR('',#595,1.);
#269=VECTOR('',#596,1.);
#270=VECTOR('',#599,1.);
#271=VECTOR('',#600,1.);
#272=VECTOR('',#601,1.);
#273=VECTOR('',#602,1.);
#274=VECTOR('',#605,1.);
#275=VECTOR('',#606,1.);
#276=VECTOR('',#607,1.);
#277=VECTOR('',#608,1.);
#278=VECTOR('',#611,1.);
#279=VECTOR('',#612,1.);
#280=VECTOR('',#613,1.);
#281=VECTOR('',#614,1.);
#282=VECTOR('',#617,1.);
#283=VECTOR('',#618,1.);
#284=VECTOR('',#619,1.);
#285=VECTOR('',#622,1.);
#286=VECTOR('',#623,1.);
#287=VECTOR('',#624,1.);
#288=EDGE_LOOP('',(#42,#43,#44,#45));
#289=EDGE_LOOP('',(#46,#47,#48,#49));
#290=EDGE_LOOP('',(#50,#51,#52,#53));
#291=EDGE_LOOP('',(#54,#55,#56,#57,#58,#59,#60,#61));
#292=EDGE_LOOP('',(#62,#63,#64,#65));
#293=EDGE_LOOP('',(#66,#67,#68,#69));
#294=EDGE_LOOP('',(#70,#71,#72,#73));
#295=EDGE_LOOP('',(#74,#75,#76,#77,#78,#79,#80,#81));
#296=EDGE_LOOP('',(#82,#83,#84,#85));
#297=EDGE_LOOP('',(#86,#87,#88,#89));
#298=EDGE_LOOP('',(#90,#91,#92,#93));
#299=EDGE_LOOP('',(#94,#95,#96,#97));
#300=EDGE_LOOP('',(#98,#99,#100,#101));
#301=EDGE_LOOP('',(#102,#103,#104,#105));
#302=EDGE_LOOP('',(#106,#107,#108));
#303=EDGE_LOOP('',(#109,#110,#111));
#304=EDGE_LOOP('',(#112,#113,#114,#115));
#305=EDGE_LOOP('',(#116,#117,#118,#119));
#306=EDGE_LOOP('',(#120,#121,#122,#123));
#307=EDGE_LOOP('',(#124,#125,#126));
#308=EDGE_LOOP('',(#127,#128,#129));
#309=EDGE_LOOP('',(#130,#131,#132,#133));
#310=EDGE_LOOP('',(#134,#135,#136,#137));
#311=EDGE_LOOP('',(#138,#139,#140,#141));
#312=FACE_BOUND('',#288,.T.);
#313=FACE_BOUND('',#289,.T.);
#314=FACE_BOUND('',#290,.T.);
#315=FACE_BOUND('',#291,.T.);
#316=FACE_BOUND('',#292,.T.);
#317=FACE_BOUND('',#293,.T.);
#318=FACE_BOUND('',#294,.T.);
#319=FACE_BOUND('',#295,.T.);
#320=FACE_BOUND('',#296,.T.);
#321=FACE_BOUND('',#297,.T.);
#322=FACE_BOUND('',#298,.T.);
#323=FACE_BOUND('',#299,.T.);
#324=FACE_BOUND('',#300,.T.);
#325=FACE_BOUND('',#301,.T.);
#326=FACE_BOUND('',#302,.T.);
#327=FACE_BOUND('',#303,.T.);
#328=FACE_BOUND('',#304,.T.);
#329=FACE_BOUND('',#305,.T.);
#330=FACE_BOUND('',#306,.T.);
#331=FACE_BOUND('',#307,.T.);
#332=FACE_BOUND('',#308,.T.);
#333=FACE_BOUND('',#309,.T.);
#334=FACE_BOUND('',#310,.T.);
#335=FACE_BOUND('',#311,.T.);
#336=PLANE('',#531);
#337=PLANE('',#532);
#338=PLANE('',#533);
#339=PLANE('',#534);
#340=PLANE('',#535);
#341=PLANE('',#536);
#342=PLANE('',#537);
#343=PLANE('',#538);
#344=PLANE('',#539);
#345=PLANE('',#540);
#346=OVER_RIDING_STYLED_ITEM('',(#394),#367,#392);
#347=OVER_RIDING_STYLED_ITEM('',(#395),#368,#392);
#348=OVER_RIDING_STYLED_ITEM('',(#396),#369,#392);
#349=OVER_RIDING_STYLED_ITEM('',(#397),#370,#392);
#350=OVER_RIDING_STYLED_ITEM('',(#398),#371,#392);
#351=OVER_RIDING_STYLED_ITEM('',(#399),#372,#392);
#352=OVER_RIDING_STYLED_ITEM('',(#400),#373,#392);
#353=OVER_RIDING_STYLED_ITEM('',(#401),#374,#392);
#354=OVER_RIDING_STYLED_ITEM('',(#402),#375,#392);
#355=OVER_RIDING_STYLED_ITEM('',(#403),#376,#392);
#356=OVER_RIDING_STYLED_ITEM('',(#404),#377,#392);
#357=OVER_RIDING_STYLED_ITEM('',(#405),#378,#392);
#358=OVER_RIDING_STYLED_ITEM('',(#406),#379,#392);
#359=OVER_RIDING_STYLED_ITEM('',(#407),#380,#392);
#360=OVER_RIDING_STYLED_ITEM('',(#408),#381,#392);
#361=OVER_RIDING_STYLED_ITEM('',(#409),#383,#392);
#362=OVER_RIDING_STYLED_ITEM('',(#410),#384,#392);
#363=OVER_RIDING_STYLED_ITEM('',(#411),#386,#392);
#364=OVER_RIDING_STYLED_ITEM('',(#412),#388,#392);
#365=OVER_RIDING_STYLED_ITEM('',(#413),#389,#392);
#366=OVER_RIDING_STYLED_ITEM('',(#414),#390,#392);
#367=ADVANCED_FACE('Face appearance 1',(#312),#336,.F.);
#368=ADVANCED_FACE('Face appearance 1',(#313),#337,.F.);
#369=ADVANCED_FACE('Face appearance 1',(#314),#338,.T.);
#370=ADVANCED_FACE('Face appearance 1',(#315),#339,.T.);
#371=ADVANCED_FACE('Face appearance 1',(#316),#340,.F.);
#372=ADVANCED_FACE('Face appearance 1',(#317),#341,.T.);
#373=ADVANCED_FACE('Face appearance 1',(#318),#342,.T.);
#374=ADVANCED_FACE('Face appearance 1',(#319),#343,.T.);
#375=ADVANCED_FACE('Face appearance 1',(#320),#344,.F.);
#376=ADVANCED_FACE('Face appearance 2',(#321),#345,.T.);
#377=ADVANCED_FACE('Face appearance 2',(#322),#32,.T.);
#378=ADVANCED_FACE('Face appearance 2',(#323),#33,.T.);
#379=ADVANCED_FACE('Face appearance 2',(#324),#34,.T.);
#380=ADVANCED_FACE('Face appearance 2',(#325),#35,.T.);
#381=ADVANCED_FACE('Face appearance 2',(#326),#12,.T.);
#382=ADVANCED_FACE('',(#327),#13,.T.);
#383=ADVANCED_FACE('Face appearance 2',(#328),#36,.T.);
#384=ADVANCED_FACE('Face appearance 2',(#329),#37,.T.);
#385=ADVANCED_FACE('',(#330),#38,.T.);
#386=ADVANCED_FACE('Face appearance 2',(#331),#14,.T.);
#387=ADVANCED_FACE('',(#332),#15,.T.);
#388=ADVANCED_FACE('Face appearance 2',(#333),#39,.T.);
#389=ADVANCED_FACE('Face appearance 2',(#334),#40,.T.);
#390=ADVANCED_FACE('Face appearance 2',(#335),#41,.T.);
#391=CLOSED_SHELL('',(#367,#368,#369,#370,#371,#372,#373,#374,#375,#376,
#377,#378,#379,#380,#381,#382,#383,#384,#385,#386,#387,#388,#389,#390));
#392=STYLED_ITEM('',(#393),#527);
#393=PRESENTATION_STYLE_ASSIGNMENT((#415));
#394=PRESENTATION_STYLE_ASSIGNMENT((#416));
#395=PRESENTATION_STYLE_ASSIGNMENT((#417));
#396=PRESENTATION_STYLE_ASSIGNMENT((#418));
#397=PRESENTATION_STYLE_ASSIGNMENT((#419));
#398=PRESENTATION_STYLE_ASSIGNMENT((#420));
#399=PRESENTATION_STYLE_ASSIGNMENT((#421));
#400=PRESENTATION_STYLE_ASSIGNMENT((#422));
#401=PRESENTATION_STYLE_ASSIGNMENT((#423));
#402=PRESENTATION_STYLE_ASSIGNMENT((#424));
#403=PRESENTATION_STYLE_ASSIGNMENT((#425));
#404=PRESENTATION_STYLE_ASSIGNMENT((#426));
#405=PRESENTATION_STYLE_ASSIGNMENT((#427));
#406=PRESENTATION_STYLE_ASSIGNMENT((#428));
#407=PRESENTATION_STYLE_ASSIGNMENT((#429));
#408=PRESENTATION_STYLE_ASSIGNMENT((#430));
#409=PRESENTATION_STYLE_ASSIGNMENT((#431));
#410=PRESENTATION_STYLE_ASSIGNMENT((#432));
#411=PRESENTATION_STYLE_ASSIGNMENT((#433));
#412=PRESENTATION_STYLE_ASSIGNMENT((#434));
#413=PRESENTATION_STYLE_ASSIGNMENT((#435));
#414=PRESENTATION_STYLE_ASSIGNMENT((#436));
#415=SURFACE_STYLE_USAGE(.BOTH.,#437);
#416=SURFACE_STYLE_USAGE(.BOTH.,#438);
#417=SURFACE_STYLE_USAGE(.BOTH.,#439);
#418=SURFACE_STYLE_USAGE(.BOTH.,#440);
#419=SURFACE_STYLE_USAGE(.BOTH.,#441);
#420=SURFACE_STYLE_USAGE(.BOTH.,#442);
#421=SURFACE_STYLE_USAGE(.BOTH.,#443);
#422=SURFACE_STYLE_USAGE(.BOTH.,#444);
#423=SURFACE_STYLE_USAGE(.BOTH.,#445);
#424=SURFACE_STYLE_USAGE(.BOTH.,#446);
#425=SURFACE_STYLE_USAGE(.BOTH.,#447);
#426=SURFACE_STYLE_USAGE(.BOTH.,#448);
#427=SURFACE_STYLE_USAGE(.BOTH.,#449);
#428=SURFACE_STYLE_USAGE(.BOTH.,#450);
#429=SURFACE_STYLE_USAGE(.BOTH.,#451);
#430=SURFACE_STYLE_USAGE(.BOTH.,#452);
#431=SURFACE_STYLE_USAGE(.BOTH.,#453);
#432=SURFACE_STYLE_USAGE(.BOTH.,#454);
#433=SURFACE_STYLE_USAGE(.BOTH.,#455);
#434=SURFACE_STYLE_USAGE(.BOTH.,#456);
#435=SURFACE_STYLE_USAGE(.BOTH.,#457);
#436=SURFACE_STYLE_USAGE(.BOTH.,#458);
#437=SURFACE_SIDE_STYLE('',(#459));
#438=SURFACE_SIDE_STYLE('',(#460));
#439=SURFACE_SIDE_STYLE('',(#461));
#440=SURFACE_SIDE_STYLE('',(#462));
#441=SURFACE_SIDE_STYLE('',(#463));
#442=SURFACE_SIDE_STYLE('',(#464));
#443=SURFACE_SIDE_STYLE('',(#465));
#444=SURFACE_SIDE_STYLE('',(#466));
#445=SURFACE_SIDE_STYLE('',(#467));
#446=SURFACE_SIDE_STYLE('',(#468));
#447=SURFACE_SIDE_STYLE('',(#469));
#448=SURFACE_SIDE_STYLE('',(#470));
#449=SURFACE_SIDE_STYLE('',(#471));
#450=SURFACE_SIDE_STYLE('',(#472));
#451=SURFACE_SIDE_STYLE('',(#473));
#452=SURFACE_SIDE_STYLE('',(#474));
#453=SURFACE_SIDE_STYLE('',(#475));
#454=SURFACE_SIDE_STYLE('',(#476));
#455=SURFACE_SIDE_STYLE('',(#477));
#456=SURFACE_SIDE_STYLE('',(#478));
#457=SURFACE_SIDE_STYLE('',(#479));
#458=SURFACE_SIDE_STYLE('',(#480));
#459=SURFACE_STYLE_FILL_AREA(#481);
#460=SURFACE_STYLE_FILL_AREA(#482);
#461=SURFACE_STYLE_FILL_AREA(#483);
#462=SURFACE_STYLE_FILL_AREA(#484);
#463=SURFACE_STYLE_FILL_AREA(#485);
#464=SURFACE_STYLE_FILL_AREA(#486);
#465=SURFACE_STYLE_FILL_AREA(#487);
#466=SURFACE_STYLE_FILL_AREA(#488);
#467=SURFACE_STYLE_FILL_AREA(#489);
#468=SURFACE_STYLE_FILL_AREA(#490);
#469=SURFACE_STYLE_FILL_AREA(#491);
#470=SURFACE_STYLE_FILL_AREA(#492);
#471=SURFACE_STYLE_FILL_AREA(#493);
#472=SURFACE_STYLE_FILL_AREA(#494);
#473=SURFACE_STYLE_FILL_AREA(#495);
#474=SURFACE_STYLE_FILL_AREA(#496);
#475=SURFACE_STYLE_FILL_AREA(#497);
#476=SURFACE_STYLE_FILL_AREA(#498);
#477=SURFACE_STYLE_FILL_AREA(#499);
#478=SURFACE_STYLE_FILL_AREA(#500);
#479=SURFACE_STYLE_FILL_AREA(#501);
#480=SURFACE_STYLE_FILL_AREA(#502);
#481=FILL_AREA_STYLE('',(#503));
#482=FILL_AREA_STYLE('',(#504));
#483=FILL_AREA_STYLE('',(#505));
#484=FILL_AREA_STYLE('',(#506));
#485=FILL_AREA_STYLE('',(#507));
#486=FILL_AREA_STYLE('',(#508));
#487=FILL_AREA_STYLE('',(#509));
#488=FILL_AREA_STYLE('',(#510));
#489=FILL_AREA_STYLE('',(#511));
#490=FILL_AREA_STYLE('',(#512));
#491=FILL_AREA_STYLE('',(#513));
#492=FILL_AREA_STYLE('',(#514));
#493=FILL_AREA_STYLE('',(#515));
#494=FILL_AREA_STYLE('',(#516));
#495=FILL_AREA_STYLE('',(#517));
#496=FILL_AREA_STYLE('',(#518));
#497=FILL_AREA_STYLE('',(#519));
#498=FILL_AREA_STYLE('',(#520));
#499=FILL_AREA_STYLE('',(#521));
#500=FILL_AREA_STYLE('',(#522));
#501=FILL_AREA_STYLE('',(#523));
#502=FILL_AREA_STYLE('',(#524));
#503=FILL_AREA_STYLE_COLOUR('',#525);
#504=FILL_AREA_STYLE_COLOUR('',#526);
#505=FILL_AREA_STYLE_COLOUR('',#526);
#506=FILL_AREA_STYLE_COLOUR('',#526);
#507=FILL_AREA_STYLE_COLOUR('',#526);
#508=FILL_AREA_STYLE_COLOUR('',#526);
#509=FILL_AREA_STYLE_COLOUR('',#526);
#510=FILL_AREA_STYLE_COLOUR('',#526);
#511=FILL_AREA_STYLE_COLOUR('',#526);
#512=FILL_AREA_STYLE_COLOUR('',#526);
#513=FILL_AREA_STYLE_COLOUR('',#526);
#514=FILL_AREA_STYLE_COLOUR('',#526);
#515=FILL_AREA_STYLE_COLOUR('',#526);
#516=FILL_AREA_STYLE_COLOUR('',#526);
#517=FILL_AREA_STYLE_COLOUR('',#526);
#518=FILL_AREA_STYLE_COLOUR('',#526);
#519=FILL_AREA_STYLE_COLOUR('',#526);
#520=FILL_AREA_STYLE_COLOUR('',#526);
#521=FILL_AREA_STYLE_COLOUR('',#526);
#522=FILL_AREA_STYLE_COLOUR('',#526);
#523=FILL_AREA_STYLE_COLOUR('',#526);
#524=FILL_AREA_STYLE_COLOUR('',#526);
#525=COLOUR_RGB('',0.615686274509804,0.811764705882353,0.929411764705882);
#526=COLOUR_RGB('',0.756862745098039,0.541176470588235,0.352941176470589);
#527=MANIFOLD_SOLID_BREP('Part 1',#391);
#528=SHAPE_DEFINITION_REPRESENTATION(#796,#529);
#529=SHAPE_REPRESENTATION('Part 1',(#530),#791);
#530=AXIS2_PLACEMENT_3D('',#687,#571,#572);
#531=AXIS2_PLACEMENT_3D('',#688,#573,#574);
#532=AXIS2_PLACEMENT_3D('',#697,#579,#580);
#533=AXIS2_PLACEMENT_3D('',#703,#584,#585);
#534=AXIS2_PLACEMENT_3D('',#709,#589,#590);
#535=AXIS2_PLACEMENT_3D('',#720,#597,#598);
#536=AXIS2_PLACEMENT_3D('',#729,#603,#604);
#537=AXIS2_PLACEMENT_3D('',#738,#609,#610);
#538=AXIS2_PLACEMENT_3D('',#747,#615,#616);
#539=AXIS2_PLACEMENT_3D('',#753,#620,#621);
#540=AXIS2_PLACEMENT_3D('',#759,#625,#626);
#541=AXIS2_PLACEMENT_3D('',#760,#627,#628);
#542=AXIS2_PLACEMENT_3D('',#761,#629,#630);
#543=AXIS2_PLACEMENT_3D('',#762,#631,#632);
#544=AXIS2_PLACEMENT_3D('',#763,#633,#634);
#545=AXIS2_PLACEMENT_3D('',#764,#635,#636);
#546=AXIS2_PLACEMENT_3D('',#765,#637,#638);
#547=AXIS2_PLACEMENT_3D('',#766,#639,#640);
#548=AXIS2_PLACEMENT_3D('',#767,#641,#642);
#549=AXIS2_PLACEMENT_3D('',#768,#643,#644);
#550=AXIS2_PLACEMENT_3D('',#769,#645,#646);
#551=AXIS2_PLACEMENT_3D('',#770,#647,#648);
#552=AXIS2_PLACEMENT_3D('',#771,#649,#650);
#553=AXIS2_PLACEMENT_3D('',#772,#651,#652);
#554=AXIS2_PLACEMENT_3D('',#773,#653,#654);
#555=AXIS2_PLACEMENT_3D('',#774,#655,#656);
#556=AXIS2_PLACEMENT_3D('',#775,#657,#658);
#557=AXIS2_PLACEMENT_3D('',#776,#659,#660);
#558=AXIS2_PLACEMENT_3D('',#777,#661,#662);
#559=AXIS2_PLACEMENT_3D('',#778,#663,#664);
#560=AXIS2_PLACEMENT_3D('',#779,#665,#666);
#561=AXIS2_PLACEMENT_3D('',#780,#667,#668);
#562=AXIS2_PLACEMENT_3D('',#781,#669,#670);
#563=AXIS2_PLACEMENT_3D('',#782,#671,#672);
#564=AXIS2_PLACEMENT_3D('',#783,#673,#674);
#565=AXIS2_PLACEMENT_3D('',#784,#675,#676);
#566=AXIS2_PLACEMENT_3D('',#785,#677,#678);
#567=AXIS2_PLACEMENT_3D('',#786,#679,#680);
#568=AXIS2_PLACEMENT_3D('',#787,#681,#682);
#569=AXIS2_PLACEMENT_3D('',#788,#683,#684);
#570=AXIS2_PLACEMENT_3D('',#789,#685,#686);
#571=DIRECTION('',(0.,0.,1.));
#572=DIRECTION('',(1.,0.,0.));
#573=DIRECTION('',(-1.,0.,0.));
#574=DIRECTION('',(0.,0.,1.));
#575=DIRECTION('',(0.,1.,0.));
#576=DIRECTION('',(0.,0.,1.));
#577=DIRECTION('',(0.,1.,0.));
#578=DIRECTION('',(0.,0.,1.));
#579=DIRECTION('',(0.,0.,1.));
#580=DIRECTION('',(1.,0.,0.));
#581=DIRECTION('',(1.,0.,0.));
#582=DIRECTION('',(0.,1.,0.));
#583=DIRECTION('',(1.,0.,0.));
#584=DIRECTION('',(-1.,0.,0.));
#585=DIRECTION('',(0.,0.,1.));
#586=DIRECTION('',(0.,0.,1.));
#587=DIRECTION('',(0.,1.,0.));
#588=DIRECTION('',(0.,0.,1.));
#589=DIRECTION('',(0.,0.,-1.));
#590=DIRECTION('',(-1.,0.,0.));
#591=DIRECTION('',(-1.,0.,0.));
#592=DIRECTION('',(0.,1.,0.));
#593=DIRECTION('',(-1.,0.,0.));
#594=DIRECTION('',(-1.,0.,0.));
#595=DIRECTION('',(-1.,0.,3.46944695195361E-16));
#596=DIRECTION('',(0.,1.,0.));
#597=DIRECTION('',(-1.,0.,0.));
#598=DIRECTION('',(0.,0.,1.));
#599=DIRECTION('',(0.,0.,1.));
#600=DIRECTION('',(0.,1.,0.));
#601=DIRECTION('',(0.,0.,1.));
#602=DIRECTION('',(0.,1.,0.));
#603=DIRECTION('',(0.,0.,1.));
#604=DIRECTION('',(1.,0.,0.));
#605=DIRECTION('',(1.,0.,0.));
#606=DIRECTION('',(0.,1.,0.));
#607=DIRECTION('',(1.,0.,0.));
#608=DIRECTION('',(0.,1.,0.));
#609=DIRECTION('',(-1.,0.,-2.31296463463574E-16));
#610=DIRECTION('',(-2.31296463463574E-16,0.,1.));
#611=DIRECTION('',(0.,1.,0.));
#612=DIRECTION('',(-2.31296463463574E-16,0.,1.));
#613=DIRECTION('',(0.,1.,0.));
#614=DIRECTION('',(-2.31296463463574E-16,0.,1.));
#615=DIRECTION('',(0.,-1.,0.));
#616=DIRECTION('',(1.,0.,0.));
#617=DIRECTION('',(0.,0.,1.));
#618=DIRECTION('',(1.,0.,0.));
#619=DIRECTION('',(-2.31296463463574E-16,0.,1.));
#620=DIRECTION('',(0.,-1.,0.));
#621=DIRECTION('',(1.,0.,0.));
#622=DIRECTION('',(1.,0.,0.));
#623=DIRECTION('',(0.,0.,1.));
#624=DIRECTION('',(-2.31296463463574E-16,0.,1.));
#625=DIRECTION('',(0.,-1.,0.));
#626=DIRECTION('',(1.,0.,0.));
#627=DIRECTION('',(0.,1.,0.));
#628=DIRECTION('',(0.,0.,1.));
#629=DIRECTION('',(1.6355129777956E-16,-0.707106781186548,-0.707106781186548));
#630=DIRECTION('',(1.6355129777956E-16,0.707106781186548,-0.707106781186548));
#631=DIRECTION('',(-1.6355129777956E-16,-0.707106781186548,0.707106781186548));
#632=DIRECTION('',(-1.6355129777956E-16,0.707106781186548,0.707106781186548));
#633=DIRECTION('',(-2.31296463463574E-16,0.,1.));
#634=DIRECTION('',(1.,0.,2.31296463463574E-16));
#635=DIRECTION('',(0.,0.,1.));
#636=DIRECTION('',(1.,0.,0.));
#637=DIRECTION('',(0.,1.,0.));
#638=DIRECTION('',(0.,0.,1.));
#639=DIRECTION('',(0.,1.,0.));
#640=DIRECTION('',(0.,0.,1.));
#641=DIRECTION('',(0.,-1.,0.));
#642=DIRECTION('',(0.,0.,-1.));
#643=DIRECTION('',(2.31296463463574E-16,0.,-1.));
#644=DIRECTION('',(-1.,0.,-2.31296463463574E-16));
#645=DIRECTION('',(0.,0.,1.));
#646=DIRECTION('',(1.,0.,0.));
#647=DIRECTION('',(-1.,0.,0.));
#648=DIRECTION('',(0.,0.,1.));
#649=DIRECTION('',(-1.,0.,0.));
#650=DIRECTION('',(0.,0.,1.));
#651=DIRECTION('',(-1.,0.,0.));
#652=DIRECTION('',(0.,0.,1.));
#653=DIRECTION('',(-1.,0.,0.));
#654=DIRECTION('',(0.,0.,1.));
#655=DIRECTION('',(1.,0.,0.));
#656=DIRECTION('',(0.,0.,-1.));
#657=DIRECTION('',(1.,0.,0.));
#658=DIRECTION('',(0.,0.,-1.));
#659=DIRECTION('',(0.,-1.,0.));
#660=DIRECTION('',(0.,0.,-1.));
#661=DIRECTION('',(8.67361737988403E-16,1.,0.));
#662=DIRECTION('',(-1.,8.67361737988403E-16,0.));
#663=DIRECTION('',(0.,-1.,0.));
#664=DIRECTION('',(0.,0.,-1.));
#665=DIRECTION('',(-1.,0.,0.));
#666=DIRECTION('',(0.,0.,1.));
#667=DIRECTION('',(1.,0.,0.));
#668=DIRECTION('',(0.,0.,-1.));
#669=DIRECTION('',(0.,0.,1.));
#670=DIRECTION('',(1.,0.,0.));
#671=DIRECTION('',(0.,0.,1.));
#672=DIRECTION('',(1.,0.,0.));
#673=DIRECTION('',(0.,0.,1.));
#674=DIRECTION('',(1.,0.,0.));
#675=DIRECTION('',(0.,0.,1.));
#676=DIRECTION('',(1.,0.,0.));
#677=DIRECTION('',(0.,0.,-1.));
#678=DIRECTION('',(-1.,0.,0.));
#679=DIRECTION('',(0.,0.707106781186548,-0.707106781186548));
#680=DIRECTION('',(0.,-0.707106781186548,-0.707106781186548));
#681=DIRECTION('',(0.,0.,1.));
#682=DIRECTION('',(1.,0.,0.));
#683=DIRECTION('',(0.,0.707106781186548,0.707106781186548));
#684=DIRECTION('',(0.,-0.707106781186548,0.707106781186548));
#685=DIRECTION('',(0.,-1.,0.));
#686=DIRECTION('',(0.,0.,-1.));
#687=CARTESIAN_POINT('',(0.,0.,0.));
#688=CARTESIAN_POINT('',(-0.0276354976558685,-0.025,1.7347234759768E-18));
#689=CARTESIAN_POINT('',(-0.0276354976558685,-0.025,-0.015));
#690=CARTESIAN_POINT('',(-0.0276354976558685,-0.025,-0.015));
#691=CARTESIAN_POINT('',(-0.0276354976558685,-0.001,-0.015));
#692=CARTESIAN_POINT('',(-0.0276354976558685,-0.001,1.7347234759768E-18));
#693=CARTESIAN_POINT('',(-0.0276354976558685,-0.001,0.015));
#694=CARTESIAN_POINT('',(-0.0276354976558685,-0.025,0.015));
#695=CARTESIAN_POINT('',(-0.0276354976558685,-0.025,0.015));
#696=CARTESIAN_POINT('',(-0.0276354976558685,-0.025,1.7347234759768E-18));
#697=CARTESIAN_POINT('',(0.00128450234413147,-0.025,0.015));
#698=CARTESIAN_POINT('',(0.00128450234413147,-0.001,0.015));
#699=CARTESIAN_POINT('',(0.0302045023441315,-0.001,0.015));
#700=CARTESIAN_POINT('',(0.0302045023441315,-0.025,0.015));
#701=CARTESIAN_POINT('',(0.0302045023441315,-0.025,0.015));
#702=CARTESIAN_POINT('',(0.00128450234413147,-0.025,0.015));
#703=CARTESIAN_POINT('',(0.0302045023441315,-0.025,0.));
#704=CARTESIAN_POINT('',(0.0302045023441315,-0.001,0.));
#705=CARTESIAN_POINT('',(0.0302045023441315,-0.001,-0.015));
#706=CARTESIAN_POINT('',(0.0302045023441315,-0.025,-0.015));
#707=CARTESIAN_POINT('',(0.0302045023441315,-0.025,-0.015));
#708=CARTESIAN_POINT('',(0.0302045023441315,-0.025,0.));
#709=CARTESIAN_POINT('',(0.0327045023441314,-0.025,-0.015));
#710=CARTESIAN_POINT('',(0.0327045023441314,0.,-0.015));
#711=CARTESIAN_POINT('',(0.0332045023441314,0.,-0.015));
#712=CARTESIAN_POINT('',(-0.0306354976558685,0.,-0.015));
#713=CARTESIAN_POINT('',(0.0332045023441314,-0.025,-0.015));
#714=CARTESIAN_POINT('',(0.0332045023441314,-0.025,-0.015));
#715=CARTESIAN_POINT('',(0.0327045023441314,-0.025,-0.015));
#716=CARTESIAN_POINT('',(0.00128450234413148,-0.001,-0.015));
#717=CARTESIAN_POINT('',(-0.0301354976558685,-0.025,-0.015));
#718=CARTESIAN_POINT('',(-0.0306354976558685,-0.025,-0.015));
#719=CARTESIAN_POINT('',(-0.0306354976558685,-0.025,-0.015));
#720=CARTESIAN_POINT('',(0.0352045023441315,-0.025,0.));
#721=CARTESIAN_POINT('',(0.0352045023441315,-0.023,-0.015));
#722=CARTESIAN_POINT('',(0.0352045023441315,-0.023,0.018));
#723=CARTESIAN_POINT('',(0.0352045023441315,-0.023,-0.013));
#724=CARTESIAN_POINT('',(0.0352045023441315,0.,-0.013));
#725=CARTESIAN_POINT('',(0.0352045023441315,-0.002,-0.013));
#726=CARTESIAN_POINT('',(0.0352045023441315,-0.002,0.));
#727=CARTESIAN_POINT('',(0.0352045023441315,-0.002,0.018));
#728=CARTESIAN_POINT('',(0.0352045023441315,-0.025,0.018));
#729=CARTESIAN_POINT('',(0.00128450234413147,-0.025,0.02));
#730=CARTESIAN_POINT('',(0.00128450234413147,-0.023,0.02));
#731=CARTESIAN_POINT('',(-0.0306354976558685,-0.023,0.02));
#732=CARTESIAN_POINT('',(0.0332045023441314,-0.023,0.02));
#733=CARTESIAN_POINT('',(0.0332045023441314,0.,0.02));
#734=CARTESIAN_POINT('',(0.0332045023441314,-0.002,0.02));
#735=CARTESIAN_POINT('',(-0.0326354976558686,-0.002,0.02));
#736=CARTESIAN_POINT('',(-0.0306354976558685,-0.002,0.02));
#737=CARTESIAN_POINT('',(-0.0306354976558685,-0.025,0.02));
#738=CARTESIAN_POINT('',(-0.0326354976558686,-0.025,-1.7347234759768E-18));
#739=CARTESIAN_POINT('',(-0.0326354976558686,-0.025,-0.013));
#740=CARTESIAN_POINT('',(-0.0326354976558686,-0.002,-0.013));
#741=CARTESIAN_POINT('',(-0.0326354976558686,-0.023,-0.013));
#742=CARTESIAN_POINT('',(-0.0326354976558686,-0.023,-1.7347234759768E-18));
#743=CARTESIAN_POINT('',(-0.0326354976558686,-0.023,0.018));
#744=CARTESIAN_POINT('',(-0.0326354976558686,-0.025,0.018));
#745=CARTESIAN_POINT('',(-0.0326354976558686,-0.002,0.018));
#746=CARTESIAN_POINT('',(-0.0326354976558685,-0.002,-0.015));
#747=CARTESIAN_POINT('',(0.00128450234413147,-0.025,0.0025));
#748=CARTESIAN_POINT('',(0.0332045023441314,-0.025,0.02));
#749=CARTESIAN_POINT('',(0.0332045023441314,-0.025,0.018));
#750=CARTESIAN_POINT('',(0.00128450234413147,-0.025,0.018));
#751=CARTESIAN_POINT('',(-0.0306354976558685,-0.025,0.018));
#752=CARTESIAN_POINT('',(-0.0306354976558685,-0.025,0.0025));
#753=CARTESIAN_POINT('',(0.00128450234413147,0.,0.0025));
#754=CARTESIAN_POINT('',(0.0352045023441315,0.,0.018));
#755=CARTESIAN_POINT('',(-0.0306354976558685,0.,0.018));
#756=CARTESIAN_POINT('',(0.0332045023441314,0.,0.018));
#757=CARTESIAN_POINT('',(0.0332045023441314,0.,0.0025));
#758=CARTESIAN_POINT('',(-0.0306354976558685,0.,0.02));
#759=CARTESIAN_POINT('',(0.00128450234413148,-0.001,0.0025));
#760=CARTESIAN_POINT('',(-0.0306354976558685,-0.025,-0.013));
#761=CARTESIAN_POINT('',(-0.0306354976558685,-0.002,-0.013));
#762=CARTESIAN_POINT('',(-0.0306354976558685,-0.023,-0.013));
#763=CARTESIAN_POINT('',(-0.0306354976558685,-0.023,-1.27213054904966E-18));
#764=CARTESIAN_POINT('',(-0.0306354976558685,-0.023,0.018));
#765=CARTESIAN_POINT('',(-0.0306354976558685,-0.025,0.018));
#766=CARTESIAN_POINT('',(-0.0306354976558685,-0.002,0.018));
#767=CARTESIAN_POINT('',(-0.0306354976558685,-0.023,0.018));
#768=CARTESIAN_POINT('',(-0.0306354976558685,-0.002,0.0025));
#769=CARTESIAN_POINT('',(-0.0306354976558685,-0.002,0.018));
#770=CARTESIAN_POINT('',(-0.0306354976558685,-0.023,0.018));
#771=CARTESIAN_POINT('',(-0.0306354976558685,-0.023,0.018));
#772=CARTESIAN_POINT('',(-0.0306354976558685,-0.002,0.018));
#773=CARTESIAN_POINT('',(-0.0306354976558685,-0.002,0.018));
#774=CARTESIAN_POINT('',(0.00128450234413147,-0.023,0.018));
#775=CARTESIAN_POINT('',(0.0332045023441314,-0.023,0.018));
#776=CARTESIAN_POINT('',(0.0332045023441314,-0.025,0.018));
#777=CARTESIAN_POINT('',(0.0332045023441314,-0.002,0.018));
#778=CARTESIAN_POINT('',(0.0332045023441314,-0.023,0.018));
#779=CARTESIAN_POINT('',(0.00128450234413147,-0.002,0.018));
#780=CARTESIAN_POINT('',(0.0332045023441314,-0.002,0.018));
#781=CARTESIAN_POINT('',(0.0332045023441314,-0.023,0.018));
#782=CARTESIAN_POINT('',(0.0332045023441314,-0.023,0.018));
#783=CARTESIAN_POINT('',(0.0332045023441314,-0.002,0.018));
#784=CARTESIAN_POINT('',(0.0332045023441314,-0.002,0.018));
#785=CARTESIAN_POINT('',(0.0332045023441314,-0.023,0.0025));
#786=CARTESIAN_POINT('',(0.0332045023441314,-0.023,-0.013));
#787=CARTESIAN_POINT('',(0.0332045023441314,-0.002,0.));
#788=CARTESIAN_POINT('',(0.0332045023441314,-0.002,-0.013));
#789=CARTESIAN_POINT('',(0.0332045023441314,-0.025,-0.013));
#790=MECHANICAL_DESIGN_GEOMETRIC_PRESENTATION_REPRESENTATION('',(#392,#346,
#347,#348,#349,#350,#351,#352,#353,#354,#355,#356,#357,#358,#359,#360,#361,
#362,#363,#364,#365,#366),#791);
#791=(
GEOMETRIC_REPRESENTATION_CONTEXT(3)
GLOBAL_UNCERTAINTY_ASSIGNED_CONTEXT((#792))
GLOBAL_UNIT_ASSIGNED_CONTEXT((#795,#794,#793))
REPRESENTATION_CONTEXT('Part 1','TOP_LEVEL_ASSEMBLY_PART')
);
#792=UNCERTAINTY_MEASURE_WITH_UNIT(LENGTH_MEASURE(1.E-8),#795,
'DISTANCE_ACCURACY_VALUE','Maximum Tolerance applied to model');
#793=(
NAMED_UNIT(*)
SI_UNIT($,.STERADIAN.)
SOLID_ANGLE_UNIT()
);
#794=(
NAMED_UNIT(*)
PLANE_ANGLE_UNIT()
SI_UNIT($,.RADIAN.)
);
#795=(
LENGTH_UNIT()
NAMED_UNIT(*)
SI_UNIT($,.METRE.)
);
#796=PRODUCT_DEFINITION_SHAPE('','',#797);
#797=PRODUCT_DEFINITION('','',#799,#798);
#798=PRODUCT_DEFINITION_CONTEXT('',#805,'design');
#799=PRODUCT_DEFINITION_FORMATION_WITH_SPECIFIED_SOURCE('','',#801,
 .NOT_KNOWN.);
#800=PRODUCT_RELATED_PRODUCT_CATEGORY('','',(#801));
#801=PRODUCT('Part 1','Part 1','Part 1',(#803));
#802=PRODUCT_CATEGORY('','');
#803=PRODUCT_CONTEXT('',#805,'mechanical');
#804=APPLICATION_PROTOCOL_DEFINITION('international standard',
'ap242_managed_model_based_3d_engineering',2020,#805);
#805=APPLICATION_CONTEXT('managed model based 3d engineering');
ENDSEC;
END-ISO-10303-21;
