ISO-10303-21;
HEADER;
/* Generated by software containing ST-Developer
 * from STEP Tools, Inc. (www.steptools.com) 
 */
/* OPTION: using custom renumber hook */

FILE_DESCRIPTION(
/* description */ ('STEP AP242 Edition 2',
'CAx-IF Rec.Pracs.---Representation and Presentation of Product Manufa
cturing Information (PMI)---4.0---2014-10-13',
'CAx-IF Rec.Pracs.---3D Tessellated Geometry---0.4---2014-09-14','2;1',
'CAx-IF Rec.Pracs.---User Defined Attributes---1.5---2016-08-15'),
/* implementation_level */ '2;1');

FILE_NAME(
/* name */ 'Part Studio 1',
/* time_stamp */ '2026-09-06T10:32:41Z',
/* author */ (''),
/* organization */ (''),
/* preprocessor_version */ 'ST-DEVELOPER v20',
/* originating_system */ 'ONSHAPE BY PTC INC, 1.220',
/* authorisation */ '  ');

FILE_SCHEMA (('AP242_MANAGED_MODEL_BASED_3D_ENGINEERING_MIM_LF { 1 0 10303 442 3 1 4 }'));
ENDSEC;

DATA;
#10=SHAPE_REPRESENTATION_RELATIONSHIP('','',#256,#11);
#11=ADVANCED_BREP_SHAPE_REPRESENTATION('',(#254),#366);
#12=ORIENTED_EDGE('',*,*,#60,.T.);
#13=ORIENTED_EDGE('',*,*,#61,.T.);
#14=ORIENTED_EDGE('',*,*,#62,.T.);
#15=ORIENTED_EDGE('',*,*,#63,.F.);
#16=ORIENTED_EDGE('',*,*,#64,.T.);
#17=ORIENTED_EDGE('',*,*,#65,.T.);
#18=ORIENTED_EDGE('',*,*,#66,.F.);
#19=ORIENTED_EDGE('',*,*,#67,.F.);
#20=ORIENTED_EDGE('',*,*,#68,.F.);
#21=ORIENTED_EDGE('',*,*,#67,.T.);
#22=ORIENTED_EDGE('',*,*,#69,.T.);
#23=ORIENTED_EDGE('',*,*,#70,.F.);
#24=ORIENTED_EDGE('',*,*,#65,.F.);
#25=ORIENTED_EDGE('',*,*,#71,.T.);
#26=ORIENTED_EDGE('',*,*,#72,.T.);
#27=ORIENTED_EDGE('',*,*,#73,.F.);
#28=ORIENTED_EDGE('',*,*,#74,.F.);
#29=ORIENTED_EDGE('',*,*,#75,.F.);
#30=ORIENTED_EDGE('',*,*,#76,.T.);
#31=ORIENTED_EDGE('',*,*,#62,.F.);
#32=ORIENTED_EDGE('',*,*,#77,.F.);
#33=ORIENTED_EDGE('',*,*,#70,.T.);
#34=ORIENTED_EDGE('',*,*,#78,.T.);
#35=ORIENTED_EDGE('',*,*,#72,.F.);
#36=ORIENTED_EDGE('',*,*,#66,.T.);
#37=ORIENTED_EDGE('',*,*,#73,.T.);
#38=ORIENTED_EDGE('',*,*,#78,.F.);
#39=ORIENTED_EDGE('',*,*,#69,.F.);
#40=ORIENTED_EDGE('',*,*,#79,.F.);
#41=ORIENTED_EDGE('',*,*,#80,.T.);
#42=ORIENTED_EDGE('',*,*,#63,.T.);
#43=ORIENTED_EDGE('',*,*,#76,.F.);
#44=ORIENTED_EDGE('',*,*,#80,.F.);
#45=ORIENTED_EDGE('',*,*,#81,.T.);
#46=ORIENTED_EDGE('',*,*,#82,.T.);
#47=ORIENTED_EDGE('',*,*,#60,.F.);
#48=ORIENTED_EDGE('',*,*,#68,.T.);
#49=ORIENTED_EDGE('',*,*,#77,.T.);
#50=ORIENTED_EDGE('',*,*,#71,.F.);
#51=ORIENTED_EDGE('',*,*,#64,.F.);
#52=ORIENTED_EDGE('',*,*,#75,.T.);
#53=ORIENTED_EDGE('',*,*,#83,.T.);
#54=ORIENTED_EDGE('',*,*,#81,.F.);
#55=ORIENTED_EDGE('',*,*,#79,.T.);
#56=ORIENTED_EDGE('',*,*,#74,.T.);
#57=ORIENTED_EDGE('',*,*,#61,.F.);
#58=ORIENTED_EDGE('',*,*,#82,.F.);
#59=ORIENTED_EDGE('',*,*,#83,.F.);
#60=EDGE_CURVE('',#84,#85,#100,.T.);
#61=EDGE_CURVE('',#85,#86,#101,.T.);
#62=EDGE_CURVE('',#86,#87,#102,.T.);
#63=EDGE_CURVE('',#88,#87,#103,.T.);
#64=EDGE_CURVE('',#88,#89,#104,.T.);
#65=EDGE_CURVE('',#89,#90,#105,.T.);
#66=EDGE_CURVE('',#91,#90,#106,.T.);
#67=EDGE_CURVE('',#84,#91,#107,.T.);
#68=EDGE_CURVE('',#84,#92,#108,.T.);
#69=EDGE_CURVE('',#91,#93,#109,.T.);
#70=EDGE_CURVE('',#92,#93,#110,.T.);
#71=EDGE_CURVE('',#89,#94,#111,.T.);
#72=EDGE_CURVE('',#94,#95,#112,.T.);
#73=EDGE_CURVE('',#90,#95,#113,.T.);
#74=EDGE_CURVE('',#96,#86,#114,.T.);
#75=EDGE_CURVE('',#97,#96,#115,.T.);
#76=EDGE_CURVE('',#97,#87,#116,.T.);
#77=EDGE_CURVE('',#92,#94,#117,.T.);
#78=EDGE_CURVE('',#93,#95,#118,.T.);
#79=EDGE_CURVE('',#98,#97,#119,.T.);
#80=EDGE_CURVE('',#98,#88,#120,.T.);
#81=EDGE_CURVE('',#98,#99,#121,.T.);
#82=EDGE_CURVE('',#99,#85,#122,.T.);
#83=EDGE_CURVE('',#96,#99,#123,.T.);
#84=VERTEX_POINT('',#317);
#85=VERTEX_POINT('',#318);
#86=VERTEX_POINT('',#320);
#87=VERTEX_POINT('',#322);
#88=VERTEX_POINT('',#324);
#89=VERTEX_POINT('',#326);
#90=VERTEX_POINT('',#328);
#91=VERTEX_POINT('',#330);
#92=VERTEX_POINT('',#334);
#93=VERTEX_POINT('',#336);
#94=VERTEX_POINT('',#340);
#95=VERTEX_POINT('',#342);
#96=VERTEX_POINT('',#346);
#97=VERTEX_POINT('',#348);
#98=VERTEX_POINT('',#356);
#99=VERTEX_POINT('',#360);
#100=LINE('',#316,#124);
#101=LINE('',#319,#125);
#102=LINE('',#321,#126);
#103=LINE('',#323,#127);
#104=LINE('',#325,#128);
#105=LINE('',#327,#129);
#106=LINE('',#329,#130);
#107=LINE('',#331,#131);
#108=LINE('',#333,#132);
#109=LINE('',#335,#133);
#110=LINE('',#337,#134);
#111=LINE('',#339,#135);
#112=LINE('',#341,#136);
#113=LINE('',#343,#137);
#114=LINE('',#345,#138);
#115=LINE('',#347,#139);
#116=LINE('',#349,#140);
#117=LINE('',#351,#141);
#118=LINE('',#352,#142);
#119=LINE('',#355,#143);
#120=LINE('',#357,#144);
#121=LINE('',#359,#145);
#122=LINE('',#361,#146);
#123=LINE('',#363,#147);
#124=VECTOR('',#272,1.);
#125=VECTOR('',#273,1.);
#126=VECTOR('',#274,1.);
#127=VECTOR('',#275,1.);
#128=VECTOR('',#276,1.);
#129=VECTOR('',#277,1.);
#130=VECTOR('',#278,1.);
#131=VECTOR('',#279,1.);
#132=VECTOR('',#282,1.);
#133=VECTOR('',#283,1.);
#134=VECTOR('',#284,1.);
#135=VECTOR('',#287,1.);
#136=VECTOR('',#288,1.);
#137=VECTOR('',#289,1.);
#138=VECTOR('',#292,1.);
#139=VECTOR('',#293,1.);
#140=VECTOR('',#294,1.);
#141=VECTOR('',#297,1.);
#142=VECTOR('',#298,1.);
#143=VECTOR('',#303,1.);
#144=VECTOR('',#304,1.);
#145=VECTOR('',#307,1.);
#146=VECTOR('',#308,1.);
#147=VECTOR('',#311,1.);
#148=EDGE_LOOP('',(#12,#13,#14,#15,#16,#17,#18,#19));
#149=EDGE_LOOP('',(#20,#21,#22,#23));
#150=EDGE_LOOP('',(#24,#25,#26,#27));
#151=EDGE_LOOP('',(#28,#29,#30,#31));
#152=EDGE_LOOP('',(#32,#33,#34,#35));
#153=EDGE_LOOP('',(#36,#37,#38,#39));
#154=EDGE_LOOP('',(#40,#41,#42,#43));
#155=EDGE_LOOP('',(#44,#45,#46,#47,#48,#49,#50,#51));
#156=EDGE_LOOP('',(#52,#53,#54,#55));
#157=EDGE_LOOP('',(#56,#57,#58,#59));
#158=FACE_BOUND('',#148,.T.);
#159=FACE_BOUND('',#149,.T.);
#160=FACE_BOUND('',#150,.T.);
#161=FACE_BOUND('',#151,.T.);
#162=FACE_BOUND('',#152,.T.);
#163=FACE_BOUND('',#153,.T.);
#164=FACE_BOUND('',#154,.T.);
#165=FACE_BOUND('',#155,.T.);
#166=FACE_BOUND('',#156,.T.);
#167=FACE_BOUND('',#157,.T.);
#168=PLANE('',#258);
#169=PLANE('',#259);
#170=PLANE('',#260);
#171=PLANE('',#261);
#172=PLANE('',#262);
#173=PLANE('',#263);
#174=PLANE('',#264);
#175=PLANE('',#265);
#176=PLANE('',#266);
#177=PLANE('',#267);
#178=OVER_RIDING_STYLED_ITEM('',(#199),#186,#197);
#179=OVER_RIDING_STYLED_ITEM('',(#200),#187,#197);
#180=OVER_RIDING_STYLED_ITEM('',(#201),#188,#197);
#181=OVER_RIDING_STYLED_ITEM('',(#202),#189,#197);
#182=OVER_RIDING_STYLED_ITEM('',(#203),#190,#197);
#183=OVER_RIDING_STYLED_ITEM('',(#204),#191,#197);
#184=OVER_RIDING_STYLED_ITEM('',(#205),#192,#197);
#185=OVER_RIDING_STYLED_ITEM('',(#206),#193,#197);
#186=ADVANCED_FACE('Face appearance 1',(#158),#168,.T.);
#187=ADVANCED_FACE('Face appearance 1',(#159),#169,.F.);
#188=ADVANCED_FACE('Face appearance 1',(#160),#170,.T.);
#189=ADVANCED_FACE('Face appearance 1',(#161),#171,.T.);
#190=ADVANCED_FACE('Face appearance 1',(#162),#172,.F.);
#191=ADVANCED_FACE('Face appearance 1',(#163),#173,.F.);
#192=ADVANCED_FACE('Face appearance 2',(#164),#174,.T.);
#193=ADVANCED_FACE('Face appearance 2',(#165),#175,.T.);
#194=ADVANCED_FACE('',(#166),#176,.F.);
#195=ADVANCED_FACE('',(#167),#177,.F.);
#196=CLOSED_SHELL('',(#186,#187,#188,#189,#190,#191,#192,#193,#194,#195));
#197=STYLED_ITEM('',(#198),#254);
#198=PRESENTATION_STYLE_ASSIGNMENT((#207));
#199=PRESENTATION_STYLE_ASSIGNMENT((#208));
#200=PRESENTATION_STYLE_ASSIGNMENT((#209));
#201=PRESENTATION_STYLE_ASSIGNMENT((#210));
#202=PRESENTATION_STYLE_ASSIGNMENT((#211));
#203=PRESENTATION_STYLE_ASSIGNMENT((#212));
#204=PRESENTATION_STYLE_ASSIGNMENT((#213));
#205=PRESENTATION_STYLE_ASSIGNMENT((#214));
#206=PRESENTATION_STYLE_ASSIGNMENT((#215));
#207=SURFACE_STYLE_USAGE(.BOTH.,#216);
#208=SURFACE_STYLE_USAGE(.BOTH.,#217);
#209=SURFACE_STYLE_USAGE(.BOTH.,#218);
#210=SURFACE_STYLE_USAGE(.BOTH.,#219);
#211=SURFACE_STYLE_USAGE(.BOTH.,#220);
#212=SURFACE_STYLE_USAGE(.BOTH.,#221);
#213=SURFACE_STYLE_USAGE(.BOTH.,#222);
#214=SURFACE_STYLE_USAGE(.BOTH.,#223);
#215=SURFACE_STYLE_USAGE(.BOTH.,#224);
#216=SURFACE_SIDE_STYLE('',(#225));
#217=SURFACE_SIDE_STYLE('',(#226));
#218=SURFACE_SIDE_STYLE('',(#227));
#219=SURFACE_SIDE_STYLE('',(#228));
#220=SURFACE_SIDE_STYLE('',(#229));
#221=SURFACE_SIDE_STYLE('',(#230));
#222=SURFACE_SIDE_STYLE('',(#231));
#223=SURFACE_SIDE_STYLE('',(#232));
#224=SURFACE_SIDE_STYLE('',(#233));
#225=SURFACE_STYLE_FILL_AREA(#234);
#226=SURFACE_STYLE_FILL_AREA(#235);
#227=SURFACE_STYLE_FILL_AREA(#236);
#228=SURFACE_STYLE_FILL_AREA(#237);
#229=SURFACE_STYLE_FILL_AREA(#238);
#230=SURFACE_STYLE_FILL_AREA(#239);
#231=SURFACE_STYLE_FILL_AREA(#240);
#232=SURFACE_STYLE_FILL_AREA(#241);
#233=SURFACE_STYLE_FILL_AREA(#242);
#234=FILL_AREA_STYLE('',(#243));
#235=FILL_AREA_STYLE('',(#244));
#236=FILL_AREA_STYLE('',(#245));
#237=FILL_AREA_STYLE('',(#246));
#238=FILL_AREA_STYLE('',(#247));
#239=FILL_AREA_STYLE('',(#248));
#240=FILL_AREA_STYLE('',(#249));
#241=FILL_AREA_STYLE('',(#250));
#242=FILL_AREA_STYLE('',(#251));
#243=FILL_AREA_STYLE_COLOUR('',#252);
#244=FILL_AREA_STYLE_COLOUR('',#253);
#245=FILL_AREA_STYLE_COLOUR('',#253);
#246=FILL_AREA_STYLE_COLOUR('',#253);
#247=FILL_AREA_STYLE_COLOUR('',#253);
#248=FILL_AREA_STYLE_COLOUR('',#253);
#249=FILL_AREA_STYLE_COLOUR('',#253);
#250=FILL_AREA_STYLE_COLOUR('',#253);
#251=FILL_AREA_STYLE_COLOUR('',#253);
#252=COLOUR_RGB('',0.615686274509804,0.811764705882353,0.929411764705882);
#253=COLOUR_RGB('',0.172549019607843,0.223529411764706,0.286274509803921);
#254=MANIFOLD_SOLID_BREP('Part 1',#196);
#255=SHAPE_DEFINITION_REPRESENTATION(#371,#256);
#256=SHAPE_REPRESENTATION('Part 1',(#257),#366);
#257=AXIS2_PLACEMENT_3D('',#314,#268,#269);
#258=AXIS2_PLACEMENT_3D('',#315,#270,#271);
#259=AXIS2_PLACEMENT_3D('',#332,#280,#281);
#260=AXIS2_PLACEMENT_3D('',#338,#285,#286);
#261=AXIS2_PLACEMENT_3D('',#344,#290,#291);
#262=AXIS2_PLACEMENT_3D('',#350,#295,#296);
#263=AXIS2_PLACEMENT_3D('',#353,#299,#300);
#264=AXIS2_PLACEMENT_3D('',#354,#301,#302);
#265=AXIS2_PLACEMENT_3D('',#358,#305,#306);
#266=AXIS2_PLACEMENT_3D('',#362,#309,#310);
#267=AXIS2_PLACEMENT_3D('',#364,#312,#313);
#268=DIRECTION('',(0.,0.,1.));
#269=DIRECTION('',(1.,0.,0.));
#270=DIRECTION('',(9.91270557701033E-17,0.,-1.));
#271=DIRECTION('',(-1.,0.,-9.91270557701033E-17));
#272=DIRECTION('',(-1.,0.,-9.91270557701033E-17));
#273=DIRECTION('',(0.,-1.,0.));
#274=DIRECTION('',(-1.,0.,-9.91270557701033E-17));
#275=DIRECTION('',(0.,-1.,0.));
#276=DIRECTION('',(-1.,0.,-9.91270557701033E-17));
#277=DIRECTION('',(0.,1.,0.));
#278=DIRECTION('',(-1.,0.,-9.91270557701033E-17));
#279=DIRECTION('',(0.,1.,0.));
#280=DIRECTION('',(-1.,0.,0.));
#281=DIRECTION('',(0.,0.,1.));
#282=DIRECTION('',(0.,0.,1.));
#283=DIRECTION('',(0.,0.,1.));
#284=DIRECTION('',(0.,1.,0.));
#285=DIRECTION('',(-1.,0.,0.));
#286=DIRECTION('',(0.,0.,1.));
#287=DIRECTION('',(0.,0.,1.));
#288=DIRECTION('',(0.,1.,0.));
#289=DIRECTION('',(0.,0.,1.));
#290=DIRECTION('',(0.,-1.,0.));
#291=DIRECTION('',(1.,0.,0.));
#292=DIRECTION('',(1.98254111540206E-16,0.,-1.));
#293=DIRECTION('',(1.,0.,0.));
#294=DIRECTION('',(0.,0.,-1.));
#295=DIRECTION('',(1.98254111540206E-16,0.,-1.));
#296=DIRECTION('',(-1.,0.,-1.98254111540206E-16));
#297=DIRECTION('',(-1.,0.,-1.98254111540206E-16));
#298=DIRECTION('',(-1.,0.,-1.98254111540206E-16));
#299=DIRECTION('',(0.,-1.,0.));
#300=DIRECTION('',(1.,0.,0.));
#301=DIRECTION('',(-1.,0.,0.));
#302=DIRECTION('',(0.,0.,1.));
#303=DIRECTION('',(0.,-1.,0.));
#304=DIRECTION('',(0.,0.,-1.));
#305=DIRECTION('',(0.,-1.,0.));
#306=DIRECTION('',(1.,0.,0.));
#307=DIRECTION('',(1.,0.,0.));
#308=DIRECTION('',(1.98254111540206E-16,0.,-1.));
#309=DIRECTION('',(0.,0.,-1.));
#310=DIRECTION('',(-1.,0.,0.));
#311=DIRECTION('',(0.,1.,0.));
#312=DIRECTION('',(-1.,0.,-1.98254111540206E-16));
#313=DIRECTION('',(-1.98254111540206E-16,0.,1.));
#314=CARTESIAN_POINT('',(0.,0.,0.));
#315=CARTESIAN_POINT('',(0.,-0.0025,-0.07));
#316=CARTESIAN_POINT('',(0.,-0.001,-0.07));
#317=CARTESIAN_POINT('',(0.07,-0.001,-0.07));
#318=CARTESIAN_POINT('',(0.0675,-0.001,-0.07));
#319=CARTESIAN_POINT('',(0.0675,-0.001,-0.07));
#320=CARTESIAN_POINT('',(0.0675,-0.0025,-0.07));
#321=CARTESIAN_POINT('',(0.,-0.0025,-0.07));
#322=CARTESIAN_POINT('',(-0.0675,-0.0025,-0.07));
#323=CARTESIAN_POINT('',(-0.0675,-0.001,-0.07));
#324=CARTESIAN_POINT('',(-0.0675,-0.001,-0.07));
#325=CARTESIAN_POINT('',(0.,-0.001,-0.07));
#326=CARTESIAN_POINT('',(-0.07,-0.001,-0.07));
#327=CARTESIAN_POINT('',(-0.07,-0.0025,-0.07));
#328=CARTESIAN_POINT('',(-0.07,0.,-0.07));
#329=CARTESIAN_POINT('',(0.,0.,-0.07));
#330=CARTESIAN_POINT('',(0.07,0.,-0.07));
#331=CARTESIAN_POINT('',(0.07,-0.0025,-0.07));
#332=CARTESIAN_POINT('',(0.07,-0.0025,1.38777878078145E-17));
#333=CARTESIAN_POINT('',(0.07,-0.001,1.38777878078145E-17));
#334=CARTESIAN_POINT('',(0.07,-0.001,0.07));
#335=CARTESIAN_POINT('',(0.07,0.,1.38777878078145E-17));
#336=CARTESIAN_POINT('',(0.07,0.,0.07));
#337=CARTESIAN_POINT('',(0.07,-0.0025,0.07));
#338=CARTESIAN_POINT('',(-0.07,-0.0025,0.));
#339=CARTESIAN_POINT('',(-0.07,-0.001,0.));
#340=CARTESIAN_POINT('',(-0.07,-0.001,0.07));
#341=CARTESIAN_POINT('',(-0.07,-0.0025,0.07));
#342=CARTESIAN_POINT('',(-0.07,0.,0.07));
#343=CARTESIAN_POINT('',(-0.07,0.,0.));
#344=CARTESIAN_POINT('',(0.,-0.0025,0.));
#345=CARTESIAN_POINT('',(0.0675,-0.0025,0.));
#346=CARTESIAN_POINT('',(0.0675,-0.0025,0.0675));
#347=CARTESIAN_POINT('',(0.,-0.0025,0.0675));
#348=CARTESIAN_POINT('',(-0.0675,-0.0025,0.0675));
#349=CARTESIAN_POINT('',(-0.0675,-0.0025,0.));
#350=CARTESIAN_POINT('',(0.,-0.0025,0.07));
#351=CARTESIAN_POINT('',(0.,-0.001,0.07));
#352=CARTESIAN_POINT('',(0.,0.,0.07));
#353=CARTESIAN_POINT('',(0.,0.,0.));
#354=CARTESIAN_POINT('',(-0.0675,-0.001,0.));
#355=CARTESIAN_POINT('',(-0.0675,-0.001,0.0675));
#356=CARTESIAN_POINT('',(-0.0675,-0.001,0.0675));
#357=CARTESIAN_POINT('',(-0.0675,-0.001,0.));
#358=CARTESIAN_POINT('',(0.,-0.001,0.));
#359=CARTESIAN_POINT('',(0.,-0.001,0.0675));
#360=CARTESIAN_POINT('',(0.0675,-0.001,0.0675));
#361=CARTESIAN_POINT('',(0.0675,-0.001,0.));
#362=CARTESIAN_POINT('',(0.,-0.001,0.0675));
#363=CARTESIAN_POINT('',(0.0675,-0.001,0.0675));
#364=CARTESIAN_POINT('',(0.0675,-0.001,0.));
#365=MECHANICAL_DESIGN_GEOMETRIC_PRESENTATION_REPRESENTATION('',(#197,#178,
#179,#180,#181,#182,#183,#184,#185),#366);
#366=(
GEOMETRIC_REPRESENTATION_CONTEXT(3)
GLOBAL_UNCERTAINTY_ASSIGNED_CONTEXT((#367))
GLOBAL_UNIT_ASSIGNED_CONTEXT((#370,#369,#368))
REPRESENTATION_CONTEXT('Part 1','TOP_LEVEL_ASSEMBLY_PART')
);
#367=UNCERTAINTY_MEASURE_WITH_UNIT(LENGTH_MEASURE(1.E-8),#370,
'DISTANCE_ACCURACY_VALUE','Maximum Tolerance applied to model');
#368=(
NAMED_UNIT(*)
SI_UNIT($,.STERADIAN.)
SOLID_ANGLE_UNIT()
);
#369=(
NAMED_UNIT(*)
PLANE_ANGLE_UNIT()
SI_UNIT($,.RADIAN.)
);
#370=(
LENGTH_UNIT()
NAMED_UNIT(*)
SI_UNIT($,.METRE.)
);
#371=PRODUCT_DEFINITION_SHAPE('','',#372);
#372=PRODUCT_DEFINITION('','',#374,#373);
#373=PRODUCT_DEFINITION_CONTEXT('',#380,'design');
#374=PRODUCT_DEFINITION_FORMATION_WITH_SPECIFIED_SOURCE('','',#376,
 .NOT_KNOWN.);
#375=PRODUCT_RELATED_PRODUCT_CATEGORY('','',(#376));
#376=PRODUCT('Part 1','Part 1','Part 1',(#378));
#377=PRODUCT_CATEGORY('','');
#378=PRODUCT_CONTEXT('',#380,'mechanical');
#379=APPLICATION_PROTOCOL_DEFINITION('international standard',
'ap242_managed_model_based_3d_engineering',2020,#380);
#380=APPLICATION_CONTEXT('managed model based 3d engineering');
ENDSEC;
END-ISO-10303-21;
