ISO-10303-21;
HEADER;
/* Generated by software containing ST-Developer
 * from STEP Tools, Inc. (www.steptools.com) 
 */
/* OPTION: using custom renumber hook */

FILE_DESCRIPTION(
/* description */ ('STEP AP242 Edition 2',
'CAx-IF Rec.Pracs.---Representation and Presentation of Product Manufa
cturing Information (PMI)---4.0---2014-10-13',
'CAx-IF Rec.Pracs.---3D Tessellated Geometry---0.4---2014-09-14','2;1',
'CAx-IF Rec.Pracs.---User Defined Attributes---1.5---2016-08-15'),
/* implementation_level */ '2;1');

FILE_NAME(
/* name */ 'Part Studio 11',
/* time_stamp */ '2026-09-06T10:33:25Z',
/* author */ (''),
/* organization */ (''),
/* preprocessor_version */ 'ST-DEVELOPER v20',
/* originating_system */ 'ONSHAPE BY PTC INC, 1.220',
/* authorisation */ '  ');

FILE_SCHEMA (('AP242_MANAGED_MODEL_BASED_3D_ENGINEERING_MIM_LF { 1 0 10303 442 3 1 4 }'));
ENDSEC;

DATA;
#10=SHAPE_REPRESENTATION_RELATIONSHIP('','',#1261,#11);
#11=ADVANCED_BREP_SHAPE_REPRESENTATION('',(#1259),#1783);
#12=ORIENTED_EDGE('',*,*,#268,.F.);
#13=ORIENTED_EDGE('',*,*,#269,.T.);
#14=ORIENTED_EDGE('',*,*,#270,.T.);
#15=ORIENTED_EDGE('',*,*,#271,.F.);
#16=ORIENTED_EDGE('',*,*,#272,.F.);
#17=ORIENTED_EDGE('',*,*,#273,.T.);
#18=ORIENTED_EDGE('',*,*,#274,.T.);
#19=ORIENTED_EDGE('',*,*,#275,.F.);
#20=ORIENTED_EDGE('',*,*,#276,.T.);
#21=ORIENTED_EDGE('',*,*,#277,.F.);
#22=ORIENTED_EDGE('',*,*,#278,.T.);
#23=ORIENTED_EDGE('',*,*,#279,.T.);
#24=ORIENTED_EDGE('',*,*,#268,.T.);
#25=ORIENTED_EDGE('',*,*,#280,.F.);
#26=ORIENTED_EDGE('',*,*,#281,.T.);
#27=ORIENTED_EDGE('',*,*,#282,.T.);
#28=ORIENTED_EDGE('',*,*,#272,.T.);
#29=ORIENTED_EDGE('',*,*,#283,.F.);
#30=ORIENTED_EDGE('',*,*,#284,.F.);
#31=ORIENTED_EDGE('',*,*,#285,.T.);
#32=ORIENTED_EDGE('',*,*,#286,.F.);
#33=ORIENTED_EDGE('',*,*,#285,.F.);
#34=ORIENTED_EDGE('',*,*,#287,.T.);
#35=ORIENTED_EDGE('',*,*,#288,.T.);
#36=ORIENTED_EDGE('',*,*,#289,.F.);
#37=ORIENTED_EDGE('',*,*,#288,.F.);
#38=ORIENTED_EDGE('',*,*,#290,.T.);
#39=ORIENTED_EDGE('',*,*,#291,.T.);
#40=ORIENTED_EDGE('',*,*,#274,.F.);
#41=ORIENTED_EDGE('',*,*,#292,.F.);
#42=ORIENTED_EDGE('',*,*,#270,.F.);
#43=ORIENTED_EDGE('',*,*,#293,.F.);
#44=ORIENTED_EDGE('',*,*,#275,.T.);
#45=ORIENTED_EDGE('',*,*,#291,.F.);
#46=ORIENTED_EDGE('',*,*,#294,.F.);
#47=ORIENTED_EDGE('',*,*,#283,.T.);
#48=ORIENTED_EDGE('',*,*,#284,.T.);
#49=ORIENTED_EDGE('',*,*,#294,.T.);
#50=ORIENTED_EDGE('',*,*,#290,.F.);
#51=ORIENTED_EDGE('',*,*,#287,.F.);
#52=ORIENTED_EDGE('',*,*,#295,.F.);
#53=ORIENTED_EDGE('',*,*,#276,.F.);
#54=ORIENTED_EDGE('',*,*,#286,.T.);
#55=ORIENTED_EDGE('',*,*,#289,.T.);
#56=ORIENTED_EDGE('',*,*,#296,.T.);
#57=ORIENTED_EDGE('',*,*,#297,.F.);
#58=ORIENTED_EDGE('',*,*,#298,.F.);
#59=ORIENTED_EDGE('',*,*,#299,.T.);
#60=ORIENTED_EDGE('',*,*,#300,.T.);
#61=ORIENTED_EDGE('',*,*,#301,.T.);
#62=ORIENTED_EDGE('',*,*,#302,.F.);
#63=ORIENTED_EDGE('',*,*,#303,.F.);
#64=ORIENTED_EDGE('',*,*,#304,.T.);
#65=ORIENTED_EDGE('',*,*,#305,.T.);
#66=ORIENTED_EDGE('',*,*,#306,.F.);
#67=ORIENTED_EDGE('',*,*,#307,.F.);
#68=ORIENTED_EDGE('',*,*,#308,.T.);
#69=ORIENTED_EDGE('',*,*,#309,.T.);
#70=ORIENTED_EDGE('',*,*,#310,.F.);
#71=ORIENTED_EDGE('',*,*,#311,.F.);
#72=ORIENTED_EDGE('',*,*,#312,.T.);
#73=ORIENTED_EDGE('',*,*,#313,.T.);
#74=ORIENTED_EDGE('',*,*,#314,.F.);
#75=ORIENTED_EDGE('',*,*,#315,.F.);
#76=ORIENTED_EDGE('',*,*,#316,.T.);
#77=ORIENTED_EDGE('',*,*,#317,.T.);
#78=ORIENTED_EDGE('',*,*,#318,.F.);
#79=ORIENTED_EDGE('',*,*,#319,.F.);
#80=ORIENTED_EDGE('',*,*,#320,.T.);
#81=ORIENTED_EDGE('',*,*,#321,.F.);
#82=ORIENTED_EDGE('',*,*,#322,.F.);
#83=ORIENTED_EDGE('',*,*,#323,.T.);
#84=ORIENTED_EDGE('',*,*,#324,.F.);
#85=ORIENTED_EDGE('',*,*,#293,.T.);
#86=ORIENTED_EDGE('',*,*,#325,.T.);
#87=ORIENTED_EDGE('',*,*,#326,.T.);
#88=ORIENTED_EDGE('',*,*,#327,.F.);
#89=ORIENTED_EDGE('',*,*,#292,.T.);
#90=ORIENTED_EDGE('',*,*,#328,.T.);
#91=ORIENTED_EDGE('',*,*,#329,.F.);
#92=ORIENTED_EDGE('',*,*,#320,.F.);
#93=ORIENTED_EDGE('',*,*,#330,.F.);
#94=ORIENTED_EDGE('',*,*,#331,.T.);
#95=ORIENTED_EDGE('',*,*,#332,.T.);
#96=ORIENTED_EDGE('',*,*,#323,.F.);
#97=ORIENTED_EDGE('',*,*,#333,.F.);
#98=ORIENTED_EDGE('',*,*,#334,.T.);
#99=ORIENTED_EDGE('',*,*,#330,.T.);
#100=ORIENTED_EDGE('',*,*,#322,.T.);
#101=ORIENTED_EDGE('',*,*,#335,.F.);
#102=ORIENTED_EDGE('',*,*,#336,.F.);
#103=ORIENTED_EDGE('',*,*,#333,.T.);
#104=ORIENTED_EDGE('',*,*,#316,.F.);
#105=ORIENTED_EDGE('',*,*,#337,.F.);
#106=ORIENTED_EDGE('',*,*,#338,.T.);
#107=ORIENTED_EDGE('',*,*,#339,.T.);
#108=ORIENTED_EDGE('',*,*,#319,.T.);
#109=ORIENTED_EDGE('',*,*,#340,.F.);
#110=ORIENTED_EDGE('',*,*,#341,.F.);
#111=ORIENTED_EDGE('',*,*,#337,.T.);
#112=ORIENTED_EDGE('',*,*,#318,.T.);
#113=ORIENTED_EDGE('',*,*,#342,.F.);
#114=ORIENTED_EDGE('',*,*,#343,.F.);
#115=ORIENTED_EDGE('',*,*,#340,.T.);
#116=ORIENTED_EDGE('',*,*,#312,.F.);
#117=ORIENTED_EDGE('',*,*,#344,.F.);
#118=ORIENTED_EDGE('',*,*,#345,.T.);
#119=ORIENTED_EDGE('',*,*,#346,.T.);
#120=ORIENTED_EDGE('',*,*,#315,.T.);
#121=ORIENTED_EDGE('',*,*,#347,.F.);
#122=ORIENTED_EDGE('',*,*,#348,.F.);
#123=ORIENTED_EDGE('',*,*,#344,.T.);
#124=ORIENTED_EDGE('',*,*,#314,.T.);
#125=ORIENTED_EDGE('',*,*,#349,.F.);
#126=ORIENTED_EDGE('',*,*,#350,.F.);
#127=ORIENTED_EDGE('',*,*,#347,.T.);
#128=ORIENTED_EDGE('',*,*,#308,.F.);
#129=ORIENTED_EDGE('',*,*,#351,.F.);
#130=ORIENTED_EDGE('',*,*,#352,.T.);
#131=ORIENTED_EDGE('',*,*,#353,.T.);
#132=ORIENTED_EDGE('',*,*,#311,.T.);
#133=ORIENTED_EDGE('',*,*,#354,.F.);
#134=ORIENTED_EDGE('',*,*,#355,.F.);
#135=ORIENTED_EDGE('',*,*,#351,.T.);
#136=ORIENTED_EDGE('',*,*,#310,.T.);
#137=ORIENTED_EDGE('',*,*,#356,.F.);
#138=ORIENTED_EDGE('',*,*,#357,.F.);
#139=ORIENTED_EDGE('',*,*,#354,.T.);
#140=ORIENTED_EDGE('',*,*,#304,.F.);
#141=ORIENTED_EDGE('',*,*,#358,.F.);
#142=ORIENTED_EDGE('',*,*,#359,.T.);
#143=ORIENTED_EDGE('',*,*,#360,.T.);
#144=ORIENTED_EDGE('',*,*,#307,.T.);
#145=ORIENTED_EDGE('',*,*,#361,.F.);
#146=ORIENTED_EDGE('',*,*,#362,.F.);
#147=ORIENTED_EDGE('',*,*,#358,.T.);
#148=ORIENTED_EDGE('',*,*,#306,.T.);
#149=ORIENTED_EDGE('',*,*,#363,.F.);
#150=ORIENTED_EDGE('',*,*,#364,.F.);
#151=ORIENTED_EDGE('',*,*,#361,.T.);
#152=ORIENTED_EDGE('',*,*,#300,.F.);
#153=ORIENTED_EDGE('',*,*,#365,.F.);
#154=ORIENTED_EDGE('',*,*,#366,.T.);
#155=ORIENTED_EDGE('',*,*,#367,.T.);
#156=ORIENTED_EDGE('',*,*,#303,.T.);
#157=ORIENTED_EDGE('',*,*,#368,.F.);
#158=ORIENTED_EDGE('',*,*,#369,.F.);
#159=ORIENTED_EDGE('',*,*,#365,.T.);
#160=ORIENTED_EDGE('',*,*,#302,.T.);
#161=ORIENTED_EDGE('',*,*,#370,.F.);
#162=ORIENTED_EDGE('',*,*,#371,.F.);
#163=ORIENTED_EDGE('',*,*,#368,.T.);
#164=ORIENTED_EDGE('',*,*,#296,.F.);
#165=ORIENTED_EDGE('',*,*,#372,.F.);
#166=ORIENTED_EDGE('',*,*,#373,.T.);
#167=ORIENTED_EDGE('',*,*,#374,.T.);
#168=ORIENTED_EDGE('',*,*,#299,.F.);
#169=ORIENTED_EDGE('',*,*,#375,.F.);
#170=ORIENTED_EDGE('',*,*,#376,.T.);
#171=ORIENTED_EDGE('',*,*,#372,.T.);
#172=ORIENTED_EDGE('',*,*,#298,.T.);
#173=ORIENTED_EDGE('',*,*,#377,.F.);
#174=ORIENTED_EDGE('',*,*,#378,.F.);
#175=ORIENTED_EDGE('',*,*,#375,.T.);
#176=ORIENTED_EDGE('',*,*,#295,.T.);
#177=ORIENTED_EDGE('',*,*,#324,.T.);
#178=ORIENTED_EDGE('',*,*,#379,.F.);
#179=ORIENTED_EDGE('',*,*,#380,.F.);
#180=ORIENTED_EDGE('',*,*,#277,.T.);
#181=ORIENTED_EDGE('',*,*,#329,.T.);
#182=ORIENTED_EDGE('',*,*,#381,.F.);
#183=ORIENTED_EDGE('',*,*,#382,.F.);
#184=ORIENTED_EDGE('',*,*,#379,.T.);
#185=ORIENTED_EDGE('',*,*,#273,.F.);
#186=ORIENTED_EDGE('',*,*,#282,.F.);
#187=ORIENTED_EDGE('',*,*,#383,.T.);
#188=ORIENTED_EDGE('',*,*,#381,.T.);
#189=ORIENTED_EDGE('',*,*,#328,.F.);
#190=ORIENTED_EDGE('',*,*,#271,.T.);
#191=ORIENTED_EDGE('',*,*,#327,.T.);
#192=ORIENTED_EDGE('',*,*,#384,.F.);
#193=ORIENTED_EDGE('',*,*,#385,.F.);
#194=ORIENTED_EDGE('',*,*,#280,.T.);
#195=ORIENTED_EDGE('',*,*,#326,.F.);
#196=ORIENTED_EDGE('',*,*,#386,.F.);
#197=ORIENTED_EDGE('',*,*,#387,.T.);
#198=ORIENTED_EDGE('',*,*,#384,.T.);
#199=ORIENTED_EDGE('',*,*,#269,.F.);
#200=ORIENTED_EDGE('',*,*,#279,.F.);
#201=ORIENTED_EDGE('',*,*,#388,.T.);
#202=ORIENTED_EDGE('',*,*,#386,.T.);
#203=ORIENTED_EDGE('',*,*,#325,.F.);
#204=ORIENTED_EDGE('',*,*,#317,.F.);
#205=ORIENTED_EDGE('',*,*,#339,.F.);
#206=ORIENTED_EDGE('',*,*,#389,.T.);
#207=ORIENTED_EDGE('',*,*,#342,.T.);
#208=ORIENTED_EDGE('',*,*,#313,.F.);
#209=ORIENTED_EDGE('',*,*,#346,.F.);
#210=ORIENTED_EDGE('',*,*,#390,.T.);
#211=ORIENTED_EDGE('',*,*,#349,.T.);
#212=ORIENTED_EDGE('',*,*,#309,.F.);
#213=ORIENTED_EDGE('',*,*,#353,.F.);
#214=ORIENTED_EDGE('',*,*,#391,.T.);
#215=ORIENTED_EDGE('',*,*,#356,.T.);
#216=ORIENTED_EDGE('',*,*,#305,.F.);
#217=ORIENTED_EDGE('',*,*,#360,.F.);
#218=ORIENTED_EDGE('',*,*,#392,.T.);
#219=ORIENTED_EDGE('',*,*,#363,.T.);
#220=ORIENTED_EDGE('',*,*,#301,.F.);
#221=ORIENTED_EDGE('',*,*,#367,.F.);
#222=ORIENTED_EDGE('',*,*,#393,.T.);
#223=ORIENTED_EDGE('',*,*,#370,.T.);
#224=ORIENTED_EDGE('',*,*,#297,.T.);
#225=ORIENTED_EDGE('',*,*,#374,.F.);
#226=ORIENTED_EDGE('',*,*,#394,.F.);
#227=ORIENTED_EDGE('',*,*,#377,.T.);
#228=ORIENTED_EDGE('',*,*,#321,.T.);
#229=ORIENTED_EDGE('',*,*,#332,.F.);
#230=ORIENTED_EDGE('',*,*,#395,.F.);
#231=ORIENTED_EDGE('',*,*,#335,.T.);
#232=ORIENTED_EDGE('',*,*,#380,.T.);
#233=ORIENTED_EDGE('',*,*,#382,.T.);
#234=ORIENTED_EDGE('',*,*,#383,.F.);
#235=ORIENTED_EDGE('',*,*,#281,.F.);
#236=ORIENTED_EDGE('',*,*,#385,.T.);
#237=ORIENTED_EDGE('',*,*,#387,.F.);
#238=ORIENTED_EDGE('',*,*,#388,.F.);
#239=ORIENTED_EDGE('',*,*,#278,.F.);
#240=ORIENTED_EDGE('',*,*,#373,.F.);
#241=ORIENTED_EDGE('',*,*,#376,.F.);
#242=ORIENTED_EDGE('',*,*,#378,.T.);
#243=ORIENTED_EDGE('',*,*,#394,.T.);
#244=ORIENTED_EDGE('',*,*,#366,.F.);
#245=ORIENTED_EDGE('',*,*,#369,.T.);
#246=ORIENTED_EDGE('',*,*,#371,.T.);
#247=ORIENTED_EDGE('',*,*,#393,.F.);
#248=ORIENTED_EDGE('',*,*,#359,.F.);
#249=ORIENTED_EDGE('',*,*,#362,.T.);
#250=ORIENTED_EDGE('',*,*,#364,.T.);
#251=ORIENTED_EDGE('',*,*,#392,.F.);
#252=ORIENTED_EDGE('',*,*,#352,.F.);
#253=ORIENTED_EDGE('',*,*,#355,.T.);
#254=ORIENTED_EDGE('',*,*,#357,.T.);
#255=ORIENTED_EDGE('',*,*,#391,.F.);
#256=ORIENTED_EDGE('',*,*,#345,.F.);
#257=ORIENTED_EDGE('',*,*,#348,.T.);
#258=ORIENTED_EDGE('',*,*,#350,.T.);
#259=ORIENTED_EDGE('',*,*,#390,.F.);
#260=ORIENTED_EDGE('',*,*,#338,.F.);
#261=ORIENTED_EDGE('',*,*,#341,.T.);
#262=ORIENTED_EDGE('',*,*,#343,.T.);
#263=ORIENTED_EDGE('',*,*,#389,.F.);
#264=ORIENTED_EDGE('',*,*,#331,.F.);
#265=ORIENTED_EDGE('',*,*,#334,.F.);
#266=ORIENTED_EDGE('',*,*,#336,.T.);
#267=ORIENTED_EDGE('',*,*,#395,.T.);
#268=EDGE_CURVE('',#396,#397,#480,.T.);
#269=EDGE_CURVE('',#396,#398,#481,.T.);
#270=EDGE_CURVE('',#398,#399,#482,.T.);
#271=EDGE_CURVE('',#397,#399,#483,.T.);
#272=EDGE_CURVE('',#400,#401,#484,.T.);
#273=EDGE_CURVE('',#400,#402,#485,.T.);
#274=EDGE_CURVE('',#402,#403,#486,.T.);
#275=EDGE_CURVE('',#401,#403,#487,.T.);
#276=EDGE_CURVE('',#404,#405,#488,.T.);
#277=EDGE_CURVE('',#406,#405,#489,.T.);
#278=EDGE_CURVE('',#406,#407,#490,.T.);
#279=EDGE_CURVE('',#407,#396,#491,.T.);
#280=EDGE_CURVE('',#408,#397,#492,.T.);
#281=EDGE_CURVE('',#408,#409,#493,.T.);
#282=EDGE_CURVE('',#409,#400,#494,.T.);
#283=EDGE_CURVE('',#410,#401,#495,.T.);
#284=EDGE_CURVE('',#411,#410,#496,.T.);
#285=EDGE_CURVE('',#411,#404,#497,.T.);
#286=EDGE_CURVE('',#404,#412,#498,.T.);
#287=EDGE_CURVE('',#411,#413,#499,.T.);
#288=EDGE_CURVE('',#413,#412,#500,.T.);
#289=EDGE_CURVE('',#412,#414,#501,.T.);
#290=EDGE_CURVE('',#413,#415,#502,.T.);
#291=EDGE_CURVE('',#415,#403,#503,.T.);
#292=EDGE_CURVE('',#399,#402,#504,.T.);
#293=EDGE_CURVE('',#414,#398,#505,.T.);
#294=EDGE_CURVE('',#410,#415,#506,.T.);
#295=EDGE_CURVE('',#405,#414,#507,.T.);
#296=EDGE_CURVE('',#416,#417,#508,.T.);
#297=EDGE_CURVE('',#418,#417,#509,.T.);
#298=EDGE_CURVE('',#419,#418,#510,.T.);
#299=EDGE_CURVE('',#419,#416,#511,.T.);
#300=EDGE_CURVE('',#420,#421,#512,.T.);
#301=EDGE_CURVE('',#421,#422,#513,.T.);
#302=EDGE_CURVE('',#423,#422,#514,.T.);
#303=EDGE_CURVE('',#420,#423,#515,.T.);
#304=EDGE_CURVE('',#424,#425,#516,.T.);
#305=EDGE_CURVE('',#425,#426,#517,.T.);
#306=EDGE_CURVE('',#427,#426,#518,.T.);
#307=EDGE_CURVE('',#424,#427,#519,.T.);
#308=EDGE_CURVE('',#428,#429,#520,.T.);
#309=EDGE_CURVE('',#429,#430,#521,.T.);
#310=EDGE_CURVE('',#431,#430,#522,.T.);
#311=EDGE_CURVE('',#428,#431,#523,.T.);
#312=EDGE_CURVE('',#432,#433,#524,.T.);
#313=EDGE_CURVE('',#433,#434,#525,.T.);
#314=EDGE_CURVE('',#435,#434,#526,.T.);
#315=EDGE_CURVE('',#432,#435,#527,.T.);
#316=EDGE_CURVE('',#436,#437,#528,.T.);
#317=EDGE_CURVE('',#437,#438,#529,.T.);
#318=EDGE_CURVE('',#439,#438,#530,.T.);
#319=EDGE_CURVE('',#436,#439,#531,.T.);
#320=EDGE_CURVE('',#440,#441,#532,.T.);
#321=EDGE_CURVE('',#442,#441,#533,.T.);
#322=EDGE_CURVE('',#443,#442,#534,.T.);
#323=EDGE_CURVE('',#443,#440,#535,.T.);
#324=EDGE_CURVE('',#414,#444,#536,.T.);
#325=EDGE_CURVE('',#398,#445,#537,.T.);
#326=EDGE_CURVE('',#445,#446,#538,.T.);
#327=EDGE_CURVE('',#399,#446,#539,.T.);
#328=EDGE_CURVE('',#402,#447,#540,.T.);
#329=EDGE_CURVE('',#444,#447,#541,.T.);
#330=EDGE_CURVE('',#448,#440,#542,.T.);
#331=EDGE_CURVE('',#448,#449,#543,.T.);
#332=EDGE_CURVE('',#449,#441,#544,.T.);
#333=EDGE_CURVE('',#450,#443,#545,.T.);
#334=EDGE_CURVE('',#450,#448,#546,.T.);
#335=EDGE_CURVE('',#451,#442,#547,.T.);
#336=EDGE_CURVE('',#450,#451,#548,.T.);
#337=EDGE_CURVE('',#452,#436,#549,.T.);
#338=EDGE_CURVE('',#452,#453,#550,.T.);
#339=EDGE_CURVE('',#453,#437,#551,.T.);
#340=EDGE_CURVE('',#454,#439,#552,.T.);
#341=EDGE_CURVE('',#452,#454,#553,.T.);
#342=EDGE_CURVE('',#455,#438,#554,.T.);
#343=EDGE_CURVE('',#454,#455,#555,.T.);
#344=EDGE_CURVE('',#456,#432,#556,.T.);
#345=EDGE_CURVE('',#456,#457,#557,.T.);
#346=EDGE_CURVE('',#457,#433,#558,.T.);
#347=EDGE_CURVE('',#458,#435,#559,.T.);
#348=EDGE_CURVE('',#456,#458,#560,.T.);
#349=EDGE_CURVE('',#459,#434,#561,.T.);
#350=EDGE_CURVE('',#458,#459,#562,.T.);
#351=EDGE_CURVE('',#460,#428,#563,.T.);
#352=EDGE_CURVE('',#460,#461,#564,.T.);
#353=EDGE_CURVE('',#461,#429,#565,.T.);
#354=EDGE_CURVE('',#462,#431,#566,.T.);
#355=EDGE_CURVE('',#460,#462,#567,.T.);
#356=EDGE_CURVE('',#463,#430,#568,.T.);
#357=EDGE_CURVE('',#462,#463,#569,.T.);
#358=EDGE_CURVE('',#464,#424,#570,.T.);
#359=EDGE_CURVE('',#464,#465,#571,.T.);
#360=EDGE_CURVE('',#465,#425,#572,.T.);
#361=EDGE_CURVE('',#466,#427,#573,.T.);
#362=EDGE_CURVE('',#464,#466,#574,.T.);
#363=EDGE_CURVE('',#467,#426,#575,.T.);
#364=EDGE_CURVE('',#466,#467,#576,.T.);
#365=EDGE_CURVE('',#468,#420,#577,.T.);
#366=EDGE_CURVE('',#468,#469,#578,.T.);
#367=EDGE_CURVE('',#469,#421,#579,.T.);
#368=EDGE_CURVE('',#470,#423,#580,.T.);
#369=EDGE_CURVE('',#468,#470,#581,.T.);
#370=EDGE_CURVE('',#471,#422,#582,.T.);
#371=EDGE_CURVE('',#470,#471,#583,.T.);
#372=EDGE_CURVE('',#472,#416,#584,.T.);
#373=EDGE_CURVE('',#472,#473,#585,.T.);
#374=EDGE_CURVE('',#473,#417,#586,.T.);
#375=EDGE_CURVE('',#474,#419,#587,.T.);
#376=EDGE_CURVE('',#474,#472,#588,.T.);
#377=EDGE_CURVE('',#475,#418,#589,.T.);
#378=EDGE_CURVE('',#474,#475,#590,.T.);
#379=EDGE_CURVE('',#476,#444,#591,.T.);
#380=EDGE_CURVE('',#406,#476,#592,.T.);
#381=EDGE_CURVE('',#477,#447,#593,.T.);
#382=EDGE_CURVE('',#476,#477,#594,.T.);
#383=EDGE_CURVE('',#409,#477,#595,.T.);
#384=EDGE_CURVE('',#478,#446,#596,.T.);
#385=EDGE_CURVE('',#408,#478,#597,.T.);
#386=EDGE_CURVE('',#479,#445,#598,.T.);
#387=EDGE_CURVE('',#479,#478,#599,.T.);
#388=EDGE_CURVE('',#407,#479,#600,.T.);
#389=EDGE_CURVE('',#453,#455,#601,.T.);
#390=EDGE_CURVE('',#457,#459,#602,.T.);
#391=EDGE_CURVE('',#461,#463,#603,.T.);
#392=EDGE_CURVE('',#465,#467,#604,.T.);
#393=EDGE_CURVE('',#469,#471,#605,.T.);
#394=EDGE_CURVE('',#475,#473,#606,.T.);
#395=EDGE_CURVE('',#451,#449,#607,.T.);
#396=VERTEX_POINT('',#1528);
#397=VERTEX_POINT('',#1529);
#398=VERTEX_POINT('',#1531);
#399=VERTEX_POINT('',#1533);
#400=VERTEX_POINT('',#1537);
#401=VERTEX_POINT('',#1538);
#402=VERTEX_POINT('',#1540);
#403=VERTEX_POINT('',#1542);
#404=VERTEX_POINT('',#1546);
#405=VERTEX_POINT('',#1547);
#406=VERTEX_POINT('',#1549);
#407=VERTEX_POINT('',#1551);
#408=VERTEX_POINT('',#1554);
#409=VERTEX_POINT('',#1556);
#410=VERTEX_POINT('',#1559);
#411=VERTEX_POINT('',#1561);
#412=VERTEX_POINT('',#1565);
#413=VERTEX_POINT('',#1567);
#414=VERTEX_POINT('',#1571);
#415=VERTEX_POINT('',#1573);
#416=VERTEX_POINT('',#1584);
#417=VERTEX_POINT('',#1585);
#418=VERTEX_POINT('',#1587);
#419=VERTEX_POINT('',#1589);
#420=VERTEX_POINT('',#1592);
#421=VERTEX_POINT('',#1593);
#422=VERTEX_POINT('',#1595);
#423=VERTEX_POINT('',#1597);
#424=VERTEX_POINT('',#1600);
#425=VERTEX_POINT('',#1601);
#426=VERTEX_POINT('',#1603);
#427=VERTEX_POINT('',#1605);
#428=VERTEX_POINT('',#1608);
#429=VERTEX_POINT('',#1609);
#430=VERTEX_POINT('',#1611);
#431=VERTEX_POINT('',#1613);
#432=VERTEX_POINT('',#1616);
#433=VERTEX_POINT('',#1617);
#434=VERTEX_POINT('',#1619);
#435=VERTEX_POINT('',#1621);
#436=VERTEX_POINT('',#1624);
#437=VERTEX_POINT('',#1625);
#438=VERTEX_POINT('',#1627);
#439=VERTEX_POINT('',#1629);
#440=VERTEX_POINT('',#1632);
#441=VERTEX_POINT('',#1633);
#442=VERTEX_POINT('',#1635);
#443=VERTEX_POINT('',#1637);
#444=VERTEX_POINT('',#1640);
#445=VERTEX_POINT('',#1642);
#446=VERTEX_POINT('',#1644);
#447=VERTEX_POINT('',#1647);
#448=VERTEX_POINT('',#1651);
#449=VERTEX_POINT('',#1653);
#450=VERTEX_POINT('',#1657);
#451=VERTEX_POINT('',#1661);
#452=VERTEX_POINT('',#1665);
#453=VERTEX_POINT('',#1667);
#454=VERTEX_POINT('',#1671);
#455=VERTEX_POINT('',#1675);
#456=VERTEX_POINT('',#1679);
#457=VERTEX_POINT('',#1681);
#458=VERTEX_POINT('',#1685);
#459=VERTEX_POINT('',#1689);
#460=VERTEX_POINT('',#1693);
#461=VERTEX_POINT('',#1695);
#462=VERTEX_POINT('',#1699);
#463=VERTEX_POINT('',#1703);
#464=VERTEX_POINT('',#1707);
#465=VERTEX_POINT('',#1709);
#466=VERTEX_POINT('',#1713);
#467=VERTEX_POINT('',#1717);
#468=VERTEX_POINT('',#1721);
#469=VERTEX_POINT('',#1723);
#470=VERTEX_POINT('',#1727);
#471=VERTEX_POINT('',#1731);
#472=VERTEX_POINT('',#1735);
#473=VERTEX_POINT('',#1737);
#474=VERTEX_POINT('',#1741);
#475=VERTEX_POINT('',#1745);
#476=VERTEX_POINT('',#1749);
#477=VERTEX_POINT('',#1753);
#478=VERTEX_POINT('',#1759);
#479=VERTEX_POINT('',#1763);
#480=LINE('',#1527,#608);
#481=LINE('',#1530,#609);
#482=LINE('',#1532,#610);
#483=LINE('',#1534,#611);
#484=LINE('',#1536,#612);
#485=LINE('',#1539,#613);
#486=LINE('',#1541,#614);
#487=LINE('',#1543,#615);
#488=LINE('',#1545,#616);
#489=LINE('',#1548,#617);
#490=LINE('',#1550,#618);
#491=LINE('',#1552,#619);
#492=LINE('',#1553,#620);
#493=LINE('',#1555,#621);
#494=LINE('',#1557,#622);
#495=LINE('',#1558,#623);
#496=LINE('',#1560,#624);
#497=LINE('',#1562,#625);
#498=LINE('',#1564,#626);
#499=LINE('',#1566,#627);
#500=LINE('',#1568,#628);
#501=LINE('',#1570,#629);
#502=LINE('',#1572,#630);
#503=LINE('',#1574,#631);
#504=LINE('',#1575,#632);
#505=LINE('',#1576,#633);
#506=LINE('',#1578,#634);
#507=LINE('',#1581,#635);
#508=LINE('',#1583,#636);
#509=LINE('',#1586,#637);
#510=LINE('',#1588,#638);
#511=LINE('',#1590,#639);
#512=LINE('',#1591,#640);
#513=LINE('',#1594,#641);
#514=LINE('',#1596,#642);
#515=LINE('',#1598,#643);
#516=LINE('',#1599,#644);
#517=LINE('',#1602,#645);
#518=LINE('',#1604,#646);
#519=LINE('',#1606,#647);
#520=LINE('',#1607,#648);
#521=LINE('',#1610,#649);
#522=LINE('',#1612,#650);
#523=LINE('',#1614,#651);
#524=LINE('',#1615,#652);
#525=LINE('',#1618,#653);
#526=LINE('',#1620,#654);
#527=LINE('',#1622,#655);
#528=LINE('',#1623,#656);
#529=LINE('',#1626,#657);
#530=LINE('',#1628,#658);
#531=LINE('',#1630,#659);
#532=LINE('',#1631,#660);
#533=LINE('',#1634,#661);
#534=LINE('',#1636,#662);
#535=LINE('',#1638,#663);
#536=LINE('',#1639,#664);
#537=LINE('',#1641,#665);
#538=LINE('',#1643,#666);
#539=LINE('',#1645,#667);
#540=LINE('',#1646,#668);
#541=LINE('',#1648,#669);
#542=LINE('',#1650,#670);
#543=LINE('',#1652,#671);
#544=LINE('',#1654,#672);
#545=LINE('',#1656,#673);
#546=LINE('',#1658,#674);
#547=LINE('',#1660,#675);
#548=LINE('',#1662,#676);
#549=LINE('',#1664,#677);
#550=LINE('',#1666,#678);
#551=LINE('',#1668,#679);
#552=LINE('',#1670,#680);
#553=LINE('',#1672,#681);
#554=LINE('',#1674,#682);
#555=LINE('',#1676,#683);
#556=LINE('',#1678,#684);
#557=LINE('',#1680,#685);
#558=LINE('',#1682,#686);
#559=LINE('',#1684,#687);
#560=LINE('',#1686,#688);
#561=LINE('',#1688,#689);
#562=LINE('',#1690,#690);
#563=LINE('',#1692,#691);
#564=LINE('',#1694,#692);
#565=LINE('',#1696,#693);
#566=LINE('',#1698,#694);
#567=LINE('',#1700,#695);
#568=LINE('',#1702,#696);
#569=LINE('',#1704,#697);
#570=LINE('',#1706,#698);
#571=LINE('',#1708,#699);
#572=LINE('',#1710,#700);
#573=LINE('',#1712,#701);
#574=LINE('',#1714,#702);
#575=LINE('',#1716,#703);
#576=LINE('',#1718,#704);
#577=LINE('',#1720,#705);
#578=LINE('',#1722,#706);
#579=LINE('',#1724,#707);
#580=LINE('',#1726,#708);
#581=LINE('',#1728,#709);
#582=LINE('',#1730,#710);
#583=LINE('',#1732,#711);
#584=LINE('',#1734,#712);
#585=LINE('',#1736,#713);
#586=LINE('',#1738,#714);
#587=LINE('',#1740,#715);
#588=LINE('',#1742,#716);
#589=LINE('',#1744,#717);
#590=LINE('',#1746,#718);
#591=LINE('',#1748,#719);
#592=LINE('',#1750,#720);
#593=LINE('',#1752,#721);
#594=LINE('',#1754,#722);
#595=LINE('',#1756,#723);
#596=LINE('',#1758,#724);
#597=LINE('',#1760,#725);
#598=LINE('',#1762,#726);
#599=LINE('',#1764,#727);
#600=LINE('',#1766,#728);
#601=LINE('',#1768,#729);
#602=LINE('',#1770,#730);
#603=LINE('',#1772,#731);
#604=LINE('',#1774,#732);
#605=LINE('',#1776,#733);
#606=LINE('',#1778,#734);
#607=LINE('',#1780,#735);
#608=VECTOR('',#1311,1.);
#609=VECTOR('',#1312,1.);
#610=VECTOR('',#1313,1.);
#611=VECTOR('',#1314,1.);
#612=VECTOR('',#1317,1.);
#613=VECTOR('',#1318,1.);
#614=VECTOR('',#1319,1.);
#615=VECTOR('',#1320,1.);
#616=VECTOR('',#1323,1.);
#617=VECTOR('',#1324,1.);
#618=VECTOR('',#1325,1.);
#619=VECTOR('',#1326,1.);
#620=VECTOR('',#1327,1.);
#621=VECTOR('',#1328,1.);
#622=VECTOR('',#1329,1.);
#623=VECTOR('',#1330,1.);
#624=VECTOR('',#1331,1.);
#625=VECTOR('',#1332,1.);
#626=VECTOR('',#1335,1.);
#627=VECTOR('',#1336,1.);
#628=VECTOR('',#1337,1.);
#629=VECTOR('',#1340,1.);
#630=VECTOR('',#1341,1.);
#631=VECTOR('',#1342,1.);
#632=VECTOR('',#1343,1.);
#633=VECTOR('',#1344,1.);
#634=VECTOR('',#1347,1.);
#635=VECTOR('',#1352,1.);
#636=VECTOR('',#1355,1.);
#637=VECTOR('',#1356,1.);
#638=VECTOR('',#1357,1.);
#639=VECTOR('',#1358,1.);
#640=VECTOR('',#1359,1.);
#641=VECTOR('',#1360,1.);
#642=VECTOR('',#1361,1.);
#643=VECTOR('',#1362,1.);
#644=VECTOR('',#1363,1.);
#645=VECTOR('',#1364,1.);
#646=VECTOR('',#1365,1.);
#647=VECTOR('',#1366,1.);
#648=VECTOR('',#1367,1.);
#649=VECTOR('',#1368,1.);
#650=VECTOR('',#1369,1.);
#651=VECTOR('',#1370,1.);
#652=VECTOR('',#1371,1.);
#653=VECTOR('',#1372,1.);
#654=VECTOR('',#1373,1.);
#655=VECTOR('',#1374,1.);
#656=VECTOR('',#1375,1.);
#657=VECTOR('',#1376,1.);
#658=VECTOR('',#1377,1.);
#659=VECTOR('',#1378,1.);
#660=VECTOR('',#1379,1.);
#661=VECTOR('',#1380,1.);
#662=VECTOR('',#1381,1.);
#663=VECTOR('',#1382,1.);
#664=VECTOR('',#1383,1.);
#665=VECTOR('',#1384,1.);
#666=VECTOR('',#1385,1.);
#667=VECTOR('',#1386,1.);
#668=VECTOR('',#1387,1.);
#669=VECTOR('',#1388,1.);
#670=VECTOR('',#1391,1.);
#671=VECTOR('',#1392,1.);
#672=VECTOR('',#1393,1.);
#673=VECTOR('',#1396,1.);
#674=VECTOR('',#1397,1.);
#675=VECTOR('',#1400,1.);
#676=VECTOR('',#1401,1.);
#677=VECTOR('',#1404,1.);
#678=VECTOR('',#1405,1.);
#679=VECTOR('',#1406,1.);
#680=VECTOR('',#1409,1.);
#681=VECTOR('',#1410,1.);
#682=VECTOR('',#1413,1.);
#683=VECTOR('',#1414,1.);
#684=VECTOR('',#1417,1.);
#685=VECTOR('',#1418,1.);
#686=VECTOR('',#1419,1.);
#687=VECTOR('',#1422,1.);
#688=VECTOR('',#1423,1.);
#689=VECTOR('',#1426,1.);
#690=VECTOR('',#1427,1.);
#691=VECTOR('',#1430,1.);
#692=VECTOR('',#1431,1.);
#693=VECTOR('',#1432,1.);
#694=VECTOR('',#1435,1.);
#695=VECTOR('',#1436,1.);
#696=VECTOR('',#1439,1.);
#697=VECTOR('',#1440,1.);
#698=VECTOR('',#1443,1.);
#699=VECTOR('',#1444,1.);
#700=VECTOR('',#1445,1.);
#701=VECTOR('',#1448,1.);
#702=VECTOR('',#1449,1.);
#703=VECTOR('',#1452,1.);
#704=VECTOR('',#1453,1.);
#705=VECTOR('',#1456,1.);
#706=VECTOR('',#1457,1.);
#707=VECTOR('',#1458,1.);
#708=VECTOR('',#1461,1.);
#709=VECTOR('',#1462,1.);
#710=VECTOR('',#1465,1.);
#711=VECTOR('',#1466,1.);
#712=VECTOR('',#1469,1.);
#713=VECTOR('',#1470,1.);
#714=VECTOR('',#1471,1.);
#715=VECTOR('',#1474,1.);
#716=VECTOR('',#1475,1.);
#717=VECTOR('',#1478,1.);
#718=VECTOR('',#1479,1.);
#719=VECTOR('',#1482,1.);
#720=VECTOR('',#1483,1.);
#721=VECTOR('',#1486,1.);
#722=VECTOR('',#1487,1.);
#723=VECTOR('',#1490,1.);
#724=VECTOR('',#1493,1.);
#725=VECTOR('',#1494,1.);
#726=VECTOR('',#1497,1.);
#727=VECTOR('',#1498,1.);
#728=VECTOR('',#1501,1.);
#729=VECTOR('',#1504,1.);
#730=VECTOR('',#1507,1.);
#731=VECTOR('',#1510,1.);
#732=VECTOR('',#1513,1.);
#733=VECTOR('',#1516,1.);
#734=VECTOR('',#1519,1.);
#735=VECTOR('',#1522,1.);
#736=EDGE_LOOP('',(#12,#13,#14,#15));
#737=EDGE_LOOP('',(#16,#17,#18,#19));
#738=EDGE_LOOP('',(#20,#21,#22,#23,#24,#25,#26,#27,#28,#29,#30,#31));
#739=EDGE_LOOP('',(#32,#33,#34,#35));
#740=EDGE_LOOP('',(#36,#37,#38,#39,#40,#41,#42,#43));
#741=EDGE_LOOP('',(#44,#45,#46,#47));
#742=EDGE_LOOP('',(#48,#49,#50,#51));
#743=EDGE_LOOP('',(#52,#53,#54,#55));
#744=EDGE_LOOP('',(#56,#57,#58,#59));
#745=EDGE_LOOP('',(#60,#61,#62,#63));
#746=EDGE_LOOP('',(#64,#65,#66,#67));
#747=EDGE_LOOP('',(#68,#69,#70,#71));
#748=EDGE_LOOP('',(#72,#73,#74,#75));
#749=EDGE_LOOP('',(#76,#77,#78,#79));
#750=EDGE_LOOP('',(#80,#81,#82,#83));
#751=EDGE_LOOP('',(#84,#85,#86,#87,#88,#89,#90,#91));
#752=EDGE_LOOP('',(#92,#93,#94,#95));
#753=EDGE_LOOP('',(#96,#97,#98,#99));
#754=EDGE_LOOP('',(#100,#101,#102,#103));
#755=EDGE_LOOP('',(#104,#105,#106,#107));
#756=EDGE_LOOP('',(#108,#109,#110,#111));
#757=EDGE_LOOP('',(#112,#113,#114,#115));
#758=EDGE_LOOP('',(#116,#117,#118,#119));
#759=EDGE_LOOP('',(#120,#121,#122,#123));
#760=EDGE_LOOP('',(#124,#125,#126,#127));
#761=EDGE_LOOP('',(#128,#129,#130,#131));
#762=EDGE_LOOP('',(#132,#133,#134,#135));
#763=EDGE_LOOP('',(#136,#137,#138,#139));
#764=EDGE_LOOP('',(#140,#141,#142,#143));
#765=EDGE_LOOP('',(#144,#145,#146,#147));
#766=EDGE_LOOP('',(#148,#149,#150,#151));
#767=EDGE_LOOP('',(#152,#153,#154,#155));
#768=EDGE_LOOP('',(#156,#157,#158,#159));
#769=EDGE_LOOP('',(#160,#161,#162,#163));
#770=EDGE_LOOP('',(#164,#165,#166,#167));
#771=EDGE_LOOP('',(#168,#169,#170,#171));
#772=EDGE_LOOP('',(#172,#173,#174,#175));
#773=EDGE_LOOP('',(#176,#177,#178,#179,#180));
#774=EDGE_LOOP('',(#181,#182,#183,#184));
#775=EDGE_LOOP('',(#185,#186,#187,#188,#189));
#776=EDGE_LOOP('',(#190,#191,#192,#193,#194));
#777=EDGE_LOOP('',(#195,#196,#197,#198));
#778=EDGE_LOOP('',(#199,#200,#201,#202,#203));
#779=EDGE_LOOP('',(#204,#205,#206,#207));
#780=EDGE_LOOP('',(#208,#209,#210,#211));
#781=EDGE_LOOP('',(#212,#213,#214,#215));
#782=EDGE_LOOP('',(#216,#217,#218,#219));
#783=EDGE_LOOP('',(#220,#221,#222,#223));
#784=EDGE_LOOP('',(#224,#225,#226,#227));
#785=EDGE_LOOP('',(#228,#229,#230,#231));
#786=EDGE_LOOP('',(#232,#233,#234,#235,#236,#237,#238,#239));
#787=EDGE_LOOP('',(#240,#241,#242,#243));
#788=EDGE_LOOP('',(#244,#245,#246,#247));
#789=EDGE_LOOP('',(#248,#249,#250,#251));
#790=EDGE_LOOP('',(#252,#253,#254,#255));
#791=EDGE_LOOP('',(#256,#257,#258,#259));
#792=EDGE_LOOP('',(#260,#261,#262,#263));
#793=EDGE_LOOP('',(#264,#265,#266,#267));
#794=FACE_BOUND('',#736,.T.);
#795=FACE_BOUND('',#737,.T.);
#796=FACE_BOUND('',#738,.T.);
#797=FACE_BOUND('',#739,.T.);
#798=FACE_BOUND('',#740,.T.);
#799=FACE_BOUND('',#741,.T.);
#800=FACE_BOUND('',#742,.T.);
#801=FACE_BOUND('',#743,.T.);
#802=FACE_BOUND('',#744,.T.);
#803=FACE_BOUND('',#745,.T.);
#804=FACE_BOUND('',#746,.T.);
#805=FACE_BOUND('',#747,.T.);
#806=FACE_BOUND('',#748,.T.);
#807=FACE_BOUND('',#749,.T.);
#808=FACE_BOUND('',#750,.T.);
#809=FACE_BOUND('',#751,.T.);
#810=FACE_BOUND('',#752,.T.);
#811=FACE_BOUND('',#753,.T.);
#812=FACE_BOUND('',#754,.T.);
#813=FACE_BOUND('',#755,.T.);
#814=FACE_BOUND('',#756,.T.);
#815=FACE_BOUND('',#757,.T.);
#816=FACE_BOUND('',#758,.T.);
#817=FACE_BOUND('',#759,.T.);
#818=FACE_BOUND('',#760,.T.);
#819=FACE_BOUND('',#761,.T.);
#820=FACE_BOUND('',#762,.T.);
#821=FACE_BOUND('',#763,.T.);
#822=FACE_BOUND('',#764,.T.);
#823=FACE_BOUND('',#765,.T.);
#824=FACE_BOUND('',#766,.T.);
#825=FACE_BOUND('',#767,.T.);
#826=FACE_BOUND('',#768,.T.);
#827=FACE_BOUND('',#769,.T.);
#828=FACE_BOUND('',#770,.T.);
#829=FACE_BOUND('',#771,.T.);
#830=FACE_BOUND('',#772,.T.);
#831=FACE_BOUND('',#773,.T.);
#832=FACE_BOUND('',#774,.T.);
#833=FACE_BOUND('',#775,.T.);
#834=FACE_BOUND('',#776,.T.);
#835=FACE_BOUND('',#777,.T.);
#836=FACE_BOUND('',#778,.T.);
#837=FACE_BOUND('',#779,.T.);
#838=FACE_BOUND('',#780,.T.);
#839=FACE_BOUND('',#781,.T.);
#840=FACE_BOUND('',#782,.T.);
#841=FACE_BOUND('',#783,.T.);
#842=FACE_BOUND('',#784,.T.);
#843=FACE_BOUND('',#785,.T.);
#844=FACE_BOUND('',#786,.T.);
#845=FACE_BOUND('',#787,.T.);
#846=FACE_BOUND('',#788,.T.);
#847=FACE_BOUND('',#789,.T.);
#848=FACE_BOUND('',#790,.T.);
#849=FACE_BOUND('',#791,.T.);
#850=FACE_BOUND('',#792,.T.);
#851=FACE_BOUND('',#793,.T.);
#852=PLANE('',#1263);
#853=PLANE('',#1264);
#854=PLANE('',#1265);
#855=PLANE('',#1266);
#856=PLANE('',#1267);
#857=PLANE('',#1268);
#858=PLANE('',#1269);
#859=PLANE('',#1270);
#860=PLANE('',#1271);
#861=PLANE('',#1272);
#862=PLANE('',#1273);
#863=PLANE('',#1274);
#864=PLANE('',#1275);
#865=PLANE('',#1276);
#866=PLANE('',#1277);
#867=PLANE('',#1278);
#868=PLANE('',#1279);
#869=PLANE('',#1280);
#870=PLANE('',#1281);
#871=PLANE('',#1282);
#872=PLANE('',#1283);
#873=PLANE('',#1284);
#874=PLANE('',#1285);
#875=PLANE('',#1286);
#876=PLANE('',#1287);
#877=PLANE('',#1288);
#878=PLANE('',#1289);
#879=PLANE('',#1290);
#880=PLANE('',#1291);
#881=PLANE('',#1292);
#882=PLANE('',#1293);
#883=PLANE('',#1294);
#884=PLANE('',#1295);
#885=PLANE('',#1296);
#886=PLANE('',#1297);
#887=PLANE('',#1298);
#888=PLANE('',#1299);
#889=PLANE('',#1300);
#890=PLANE('',#1301);
#891=PLANE('',#1302);
#892=PLANE('',#1303);
#893=PLANE('',#1304);
#894=PLANE('',#1305);
#895=PLANE('',#1306);
#896=OVER_RIDING_STYLED_ITEM('',(#987),#940,#985);
#897=OVER_RIDING_STYLED_ITEM('',(#988),#941,#985);
#898=OVER_RIDING_STYLED_ITEM('',(#989),#942,#985);
#899=OVER_RIDING_STYLED_ITEM('',(#990),#943,#985);
#900=OVER_RIDING_STYLED_ITEM('',(#991),#944,#985);
#901=OVER_RIDING_STYLED_ITEM('',(#992),#945,#985);
#902=OVER_RIDING_STYLED_ITEM('',(#993),#946,#985);
#903=OVER_RIDING_STYLED_ITEM('',(#994),#947,#985);
#904=OVER_RIDING_STYLED_ITEM('',(#995),#948,#985);
#905=OVER_RIDING_STYLED_ITEM('',(#996),#949,#985);
#906=OVER_RIDING_STYLED_ITEM('',(#997),#950,#985);
#907=OVER_RIDING_STYLED_ITEM('',(#998),#951,#985);
#908=OVER_RIDING_STYLED_ITEM('',(#999),#952,#985);
#909=OVER_RIDING_STYLED_ITEM('',(#1000),#953,#985);
#910=OVER_RIDING_STYLED_ITEM('',(#1001),#954,#985);
#911=OVER_RIDING_STYLED_ITEM('',(#1002),#955,#985);
#912=OVER_RIDING_STYLED_ITEM('',(#1003),#956,#985);
#913=OVER_RIDING_STYLED_ITEM('',(#1004),#957,#985);
#914=OVER_RIDING_STYLED_ITEM('',(#1005),#958,#985);
#915=OVER_RIDING_STYLED_ITEM('',(#1006),#959,#985);
#916=OVER_RIDING_STYLED_ITEM('',(#1007),#960,#985);
#917=OVER_RIDING_STYLED_ITEM('',(#1008),#961,#985);
#918=OVER_RIDING_STYLED_ITEM('',(#1009),#962,#985);
#919=OVER_RIDING_STYLED_ITEM('',(#1010),#963,#985);
#920=OVER_RIDING_STYLED_ITEM('',(#1011),#964,#985);
#921=OVER_RIDING_STYLED_ITEM('',(#1012),#965,#985);
#922=OVER_RIDING_STYLED_ITEM('',(#1013),#966,#985);
#923=OVER_RIDING_STYLED_ITEM('',(#1014),#967,#985);
#924=OVER_RIDING_STYLED_ITEM('',(#1015),#968,#985);
#925=OVER_RIDING_STYLED_ITEM('',(#1016),#969,#985);
#926=OVER_RIDING_STYLED_ITEM('',(#1017),#970,#985);
#927=OVER_RIDING_STYLED_ITEM('',(#1018),#971,#985);
#928=OVER_RIDING_STYLED_ITEM('',(#1019),#972,#985);
#929=OVER_RIDING_STYLED_ITEM('',(#1020),#973,#985);
#930=OVER_RIDING_STYLED_ITEM('',(#1021),#974,#985);
#931=OVER_RIDING_STYLED_ITEM('',(#1022),#975,#985);
#932=OVER_RIDING_STYLED_ITEM('',(#1023),#976,#985);
#933=OVER_RIDING_STYLED_ITEM('',(#1024),#977,#985);
#934=OVER_RIDING_STYLED_ITEM('',(#1025),#978,#985);
#935=OVER_RIDING_STYLED_ITEM('',(#1026),#979,#985);
#936=OVER_RIDING_STYLED_ITEM('',(#1027),#980,#985);
#937=OVER_RIDING_STYLED_ITEM('',(#1028),#981,#985);
#938=OVER_RIDING_STYLED_ITEM('',(#1029),#982,#985);
#939=OVER_RIDING_STYLED_ITEM('',(#1030),#983,#985);
#940=ADVANCED_FACE('Face appearance 2',(#794),#852,.T.);
#941=ADVANCED_FACE('Face appearance 2',(#795),#853,.T.);
#942=ADVANCED_FACE('Face appearance 2',(#796),#854,.F.);
#943=ADVANCED_FACE('Face appearance 2',(#797),#855,.T.);
#944=ADVANCED_FACE('Face appearance 2',(#798),#856,.T.);
#945=ADVANCED_FACE('Face appearance 2',(#799),#857,.F.);
#946=ADVANCED_FACE('Face appearance 2',(#800),#858,.F.);
#947=ADVANCED_FACE('Face appearance 2',(#801),#859,.T.);
#948=ADVANCED_FACE('Face appearance 1',(#802,#803,#804,#805,#806,#807,#808,
#809),#860,.F.);
#949=ADVANCED_FACE('Face appearance 1',(#810),#861,.T.);
#950=ADVANCED_FACE('Face appearance 1',(#811),#862,.T.);
#951=ADVANCED_FACE('Face appearance 1',(#812),#863,.F.);
#952=ADVANCED_FACE('Face appearance 1',(#813),#864,.T.);
#953=ADVANCED_FACE('Face appearance 1',(#814),#865,.F.);
#954=ADVANCED_FACE('Face appearance 1',(#815),#866,.F.);
#955=ADVANCED_FACE('Face appearance 1',(#816),#867,.T.);
#956=ADVANCED_FACE('Face appearance 1',(#817),#868,.F.);
#957=ADVANCED_FACE('Face appearance 1',(#818),#869,.F.);
#958=ADVANCED_FACE('Face appearance 1',(#819),#870,.T.);
#959=ADVANCED_FACE('Face appearance 1',(#820),#871,.F.);
#960=ADVANCED_FACE('Face appearance 1',(#821),#872,.F.);
#961=ADVANCED_FACE('Face appearance 1',(#822),#873,.T.);
#962=ADVANCED_FACE('Face appearance 1',(#823),#874,.F.);
#963=ADVANCED_FACE('Face appearance 1',(#824),#875,.F.);
#964=ADVANCED_FACE('Face appearance 1',(#825),#876,.T.);
#965=ADVANCED_FACE('Face appearance 1',(#826),#877,.F.);
#966=ADVANCED_FACE('Face appearance 1',(#827),#878,.F.);
#967=ADVANCED_FACE('Face appearance 1',(#828),#879,.T.);
#968=ADVANCED_FACE('Face appearance 1',(#829),#880,.T.);
#969=ADVANCED_FACE('Face appearance 1',(#830),#881,.F.);
#970=ADVANCED_FACE('Face appearance 1',(#831),#882,.F.);
#971=ADVANCED_FACE('Face appearance 1',(#832),#883,.F.);
#972=ADVANCED_FACE('Face appearance 1',(#833),#884,.T.);
#973=ADVANCED_FACE('Face appearance 1',(#834),#885,.F.);
#974=ADVANCED_FACE('Face appearance 1',(#835),#886,.T.);
#975=ADVANCED_FACE('Face appearance 1',(#836),#887,.T.);
#976=ADVANCED_FACE('Face appearance 1',(#837),#888,.T.);
#977=ADVANCED_FACE('Face appearance 1',(#838),#889,.T.);
#978=ADVANCED_FACE('Face appearance 1',(#839),#890,.T.);
#979=ADVANCED_FACE('Face appearance 1',(#840),#891,.T.);
#980=ADVANCED_FACE('Face appearance 1',(#841),#892,.T.);
#981=ADVANCED_FACE('Face appearance 1',(#842),#893,.F.);
#982=ADVANCED_FACE('Face appearance 1',(#843),#894,.F.);
#983=ADVANCED_FACE('Face appearance 1',(#844,#845,#846,#847,#848,#849,#850,
#851),#895,.T.);
#984=CLOSED_SHELL('',(#940,#941,#942,#943,#944,#945,#946,#947,#948,#949,
#950,#951,#952,#953,#954,#955,#956,#957,#958,#959,#960,#961,#962,#963,#964,
#965,#966,#967,#968,#969,#970,#971,#972,#973,#974,#975,#976,#977,#978,#979,
#980,#981,#982,#983));
#985=STYLED_ITEM('',(#986),#1259);
#986=PRESENTATION_STYLE_ASSIGNMENT((#1031));
#987=PRESENTATION_STYLE_ASSIGNMENT((#1032));
#988=PRESENTATION_STYLE_ASSIGNMENT((#1033));
#989=PRESENTATION_STYLE_ASSIGNMENT((#1034));
#990=PRESENTATION_STYLE_ASSIGNMENT((#1035));
#991=PRESENTATION_STYLE_ASSIGNMENT((#1036));
#992=PRESENTATION_STYLE_ASSIGNMENT((#1037));
#993=PRESENTATION_STYLE_ASSIGNMENT((#1038));
#994=PRESENTATION_STYLE_ASSIGNMENT((#1039));
#995=PRESENTATION_STYLE_ASSIGNMENT((#1040));
#996=PRESENTATION_STYLE_ASSIGNMENT((#1041));
#997=PRESENTATION_STYLE_ASSIGNMENT((#1042));
#998=PRESENTATION_STYLE_ASSIGNMENT((#1043));
#999=PRESENTATION_STYLE_ASSIGNMENT((#1044));
#1000=PRESENTATION_STYLE_ASSIGNMENT((#1045));
#1001=PRESENTATION_STYLE_ASSIGNMENT((#1046));
#1002=PRESENTATION_STYLE_ASSIGNMENT((#1047));
#1003=PRESENTATION_STYLE_ASSIGNMENT((#1048));
#1004=PRESENTATION_STYLE_ASSIGNMENT((#1049));
#1005=PRESENTATION_STYLE_ASSIGNMENT((#1050));
#1006=PRESENTATION_STYLE_ASSIGNMENT((#1051));
#1007=PRESENTATION_STYLE_ASSIGNMENT((#1052));
#1008=PRESENTATION_STYLE_ASSIGNMENT((#1053));
#1009=PRESENTATION_STYLE_ASSIGNMENT((#1054));
#1010=PRESENTATION_STYLE_ASSIGNMENT((#1055));
#1011=PRESENTATION_STYLE_ASSIGNMENT((#1056));
#1012=PRESENTATION_STYLE_ASSIGNMENT((#1057));
#1013=PRESENTATION_STYLE_ASSIGNMENT((#1058));
#1014=PRESENTATION_STYLE_ASSIGNMENT((#1059));
#1015=PRESENTATION_STYLE_ASSIGNMENT((#1060));
#1016=PRESENTATION_STYLE_ASSIGNMENT((#1061));
#1017=PRESENTATION_STYLE_ASSIGNMENT((#1062));
#1018=PRESENTATION_STYLE_ASSIGNMENT((#1063));
#1019=PRESENTATION_STYLE_ASSIGNMENT((#1064));
#1020=PRESENTATION_STYLE_ASSIGNMENT((#1065));
#1021=PRESENTATION_STYLE_ASSIGNMENT((#1066));
#1022=PRESENTATION_STYLE_ASSIGNMENT((#1067));
#1023=PRESENTATION_STYLE_ASSIGNMENT((#1068));
#1024=PRESENTATION_STYLE_ASSIGNMENT((#1069));
#1025=PRESENTATION_STYLE_ASSIGNMENT((#1070));
#1026=PRESENTATION_STYLE_ASSIGNMENT((#1071));
#1027=PRESENTATION_STYLE_ASSIGNMENT((#1072));
#1028=PRESENTATION_STYLE_ASSIGNMENT((#1073));
#1029=PRESENTATION_STYLE_ASSIGNMENT((#1074));
#1030=PRESENTATION_STYLE_ASSIGNMENT((#1075));
#1031=SURFACE_STYLE_USAGE(.BOTH.,#1076);
#1032=SURFACE_STYLE_USAGE(.BOTH.,#1077);
#1033=SURFACE_STYLE_USAGE(.BOTH.,#1078);
#1034=SURFACE_STYLE_USAGE(.BOTH.,#1079);
#1035=SURFACE_STYLE_USAGE(.BOTH.,#1080);
#1036=SURFACE_STYLE_USAGE(.BOTH.,#1081);
#1037=SURFACE_STYLE_USAGE(.BOTH.,#1082);
#1038=SURFACE_STYLE_USAGE(.BOTH.,#1083);
#1039=SURFACE_STYLE_USAGE(.BOTH.,#1084);
#1040=SURFACE_STYLE_USAGE(.BOTH.,#1085);
#1041=SURFACE_STYLE_USAGE(.BOTH.,#1086);
#1042=SURFACE_STYLE_USAGE(.BOTH.,#1087);
#1043=SURFACE_STYLE_USAGE(.BOTH.,#1088);
#1044=SURFACE_STYLE_USAGE(.BOTH.,#1089);
#1045=SURFACE_STYLE_USAGE(.BOTH.,#1090);
#1046=SURFACE_STYLE_USAGE(.BOTH.,#1091);
#1047=SURFACE_STYLE_USAGE(.BOTH.,#1092);
#1048=SURFACE_STYLE_USAGE(.BOTH.,#1093);
#1049=SURFACE_STYLE_USAGE(.BOTH.,#1094);
#1050=SURFACE_STYLE_USAGE(.BOTH.,#1095);
#1051=SURFACE_STYLE_USAGE(.BOTH.,#1096);
#1052=SURFACE_STYLE_USAGE(.BOTH.,#1097);
#1053=SURFACE_STYLE_USAGE(.BOTH.,#1098);
#1054=SURFACE_STYLE_USAGE(.BOTH.,#1099);
#1055=SURFACE_STYLE_USAGE(.BOTH.,#1100);
#1056=SURFACE_STYLE_USAGE(.BOTH.,#1101);
#1057=SURFACE_STYLE_USAGE(.BOTH.,#1102);
#1058=SURFACE_STYLE_USAGE(.BOTH.,#1103);
#1059=SURFACE_STYLE_USAGE(.BOTH.,#1104);
#1060=SURFACE_STYLE_USAGE(.BOTH.,#1105);
#1061=SURFACE_STYLE_USAGE(.BOTH.,#1106);
#1062=SURFACE_STYLE_USAGE(.BOTH.,#1107);
#1063=SURFACE_STYLE_USAGE(.BOTH.,#1108);
#1064=SURFACE_STYLE_USAGE(.BOTH.,#1109);
#1065=SURFACE_STYLE_USAGE(.BOTH.,#1110);
#1066=SURFACE_STYLE_USAGE(.BOTH.,#1111);
#1067=SURFACE_STYLE_USAGE(.BOTH.,#1112);
#1068=SURFACE_STYLE_USAGE(.BOTH.,#1113);
#1069=SURFACE_STYLE_USAGE(.BOTH.,#1114);
#1070=SURFACE_STYLE_USAGE(.BOTH.,#1115);
#1071=SURFACE_STYLE_USAGE(.BOTH.,#1116);
#1072=SURFACE_STYLE_USAGE(.BOTH.,#1117);
#1073=SURFACE_STYLE_USAGE(.BOTH.,#1118);
#1074=SURFACE_STYLE_USAGE(.BOTH.,#1119);
#1075=SURFACE_STYLE_USAGE(.BOTH.,#1120);
#1076=SURFACE_SIDE_STYLE('',(#1121));
#1077=SURFACE_SIDE_STYLE('',(#1122));
#1078=SURFACE_SIDE_STYLE('',(#1123));
#1079=SURFACE_SIDE_STYLE('',(#1124));
#1080=SURFACE_SIDE_STYLE('',(#1125));
#1081=SURFACE_SIDE_STYLE('',(#1126));
#1082=SURFACE_SIDE_STYLE('',(#1127));
#1083=SURFACE_SIDE_STYLE('',(#1128));
#1084=SURFACE_SIDE_STYLE('',(#1129));
#1085=SURFACE_SIDE_STYLE('',(#1130));
#1086=SURFACE_SIDE_STYLE('',(#1131));
#1087=SURFACE_SIDE_STYLE('',(#1132));
#1088=SURFACE_SIDE_STYLE('',(#1133));
#1089=SURFACE_SIDE_STYLE('',(#1134));
#1090=SURFACE_SIDE_STYLE('',(#1135));
#1091=SURFACE_SIDE_STYLE('',(#1136));
#1092=SURFACE_SIDE_STYLE('',(#1137));
#1093=SURFACE_SIDE_STYLE('',(#1138));
#1094=SURFACE_SIDE_STYLE('',(#1139));
#1095=SURFACE_SIDE_STYLE('',(#1140));
#1096=SURFACE_SIDE_STYLE('',(#1141));
#1097=SURFACE_SIDE_STYLE('',(#1142));
#1098=SURFACE_SIDE_STYLE('',(#1143));
#1099=SURFACE_SIDE_STYLE('',(#1144));
#1100=SURFACE_SIDE_STYLE('',(#1145));
#1101=SURFACE_SIDE_STYLE('',(#1146));
#1102=SURFACE_SIDE_STYLE('',(#1147));
#1103=SURFACE_SIDE_STYLE('',(#1148));
#1104=SURFACE_SIDE_STYLE('',(#1149));
#1105=SURFACE_SIDE_STYLE('',(#1150));
#1106=SURFACE_SIDE_STYLE('',(#1151));
#1107=SURFACE_SIDE_STYLE('',(#1152));
#1108=SURFACE_SIDE_STYLE('',(#1153));
#1109=SURFACE_SIDE_STYLE('',(#1154));
#1110=SURFACE_SIDE_STYLE('',(#1155));
#1111=SURFACE_SIDE_STYLE('',(#1156));
#1112=SURFACE_SIDE_STYLE('',(#1157));
#1113=SURFACE_SIDE_STYLE('',(#1158));
#1114=SURFACE_SIDE_STYLE('',(#1159));
#1115=SURFACE_SIDE_STYLE('',(#1160));
#1116=SURFACE_SIDE_STYLE('',(#1161));
#1117=SURFACE_SIDE_STYLE('',(#1162));
#1118=SURFACE_SIDE_STYLE('',(#1163));
#1119=SURFACE_SIDE_STYLE('',(#1164));
#1120=SURFACE_SIDE_STYLE('',(#1165));
#1121=SURFACE_STYLE_FILL_AREA(#1166);
#1122=SURFACE_STYLE_FILL_AREA(#1167);
#1123=SURFACE_STYLE_FILL_AREA(#1168);
#1124=SURFACE_STYLE_FILL_AREA(#1169);
#1125=SURFACE_STYLE_FILL_AREA(#1170);
#1126=SURFACE_STYLE_FILL_AREA(#1171);
#1127=SURFACE_STYLE_FILL_AREA(#1172);
#1128=SURFACE_STYLE_FILL_AREA(#1173);
#1129=SURFACE_STYLE_FILL_AREA(#1174);
#1130=SURFACE_STYLE_FILL_AREA(#1175);
#1131=SURFACE_STYLE_FILL_AREA(#1176);
#1132=SURFACE_STYLE_FILL_AREA(#1177);
#1133=SURFACE_STYLE_FILL_AREA(#1178);
#1134=SURFACE_STYLE_FILL_AREA(#1179);
#1135=SURFACE_STYLE_FILL_AREA(#1180);
#1136=SURFACE_STYLE_FILL_AREA(#1181);
#1137=SURFACE_STYLE_FILL_AREA(#1182);
#1138=SURFACE_STYLE_FILL_AREA(#1183);
#1139=SURFACE_STYLE_FILL_AREA(#1184);
#1140=SURFACE_STYLE_FILL_AREA(#1185);
#1141=SURFACE_STYLE_FILL_AREA(#1186);
#1142=SURFACE_STYLE_FILL_AREA(#1187);
#1143=SURFACE_STYLE_FILL_AREA(#1188);
#1144=SURFACE_STYLE_FILL_AREA(#1189);
#1145=SURFACE_STYLE_FILL_AREA(#1190);
#1146=SURFACE_STYLE_FILL_AREA(#1191);
#1147=SURFACE_STYLE_FILL_AREA(#1192);
#1148=SURFACE_STYLE_FILL_AREA(#1193);
#1149=SURFACE_STYLE_FILL_AREA(#1194);
#1150=SURFACE_STYLE_FILL_AREA(#1195);
#1151=SURFACE_STYLE_FILL_AREA(#1196);
#1152=SURFACE_STYLE_FILL_AREA(#1197);
#1153=SURFACE_STYLE_FILL_AREA(#1198);
#1154=SURFACE_STYLE_FILL_AREA(#1199);
#1155=SURFACE_STYLE_FILL_AREA(#1200);
#1156=SURFACE_STYLE_FILL_AREA(#1201);
#1157=SURFACE_STYLE_FILL_AREA(#1202);
#1158=SURFACE_STYLE_FILL_AREA(#1203);
#1159=SURFACE_STYLE_FILL_AREA(#1204);
#1160=SURFACE_STYLE_FILL_AREA(#1205);
#1161=SURFACE_STYLE_FILL_AREA(#1206);
#1162=SURFACE_STYLE_FILL_AREA(#1207);
#1163=SURFACE_STYLE_FILL_AREA(#1208);
#1164=SURFACE_STYLE_FILL_AREA(#1209);
#1165=SURFACE_STYLE_FILL_AREA(#1210);
#1166=FILL_AREA_STYLE('',(#1211));
#1167=FILL_AREA_STYLE('',(#1212));
#1168=FILL_AREA_STYLE('',(#1213));
#1169=FILL_AREA_STYLE('',(#1214));
#1170=FILL_AREA_STYLE('',(#1215));
#1171=FILL_AREA_STYLE('',(#1216));
#1172=FILL_AREA_STYLE('',(#1217));
#1173=FILL_AREA_STYLE('',(#1218));
#1174=FILL_AREA_STYLE('',(#1219));
#1175=FILL_AREA_STYLE('',(#1220));
#1176=FILL_AREA_STYLE('',(#1221));
#1177=FILL_AREA_STYLE('',(#1222));
#1178=FILL_AREA_STYLE('',(#1223));
#1179=FILL_AREA_STYLE('',(#1224));
#1180=FILL_AREA_STYLE('',(#1225));
#1181=FILL_AREA_STYLE('',(#1226));
#1182=FILL_AREA_STYLE('',(#1227));
#1183=FILL_AREA_STYLE('',(#1228));
#1184=FILL_AREA_STYLE('',(#1229));
#1185=FILL_AREA_STYLE('',(#1230));
#1186=FILL_AREA_STYLE('',(#1231));
#1187=FILL_AREA_STYLE('',(#1232));
#1188=FILL_AREA_STYLE('',(#1233));
#1189=FILL_AREA_STYLE('',(#1234));
#1190=FILL_AREA_STYLE('',(#1235));
#1191=FILL_AREA_STYLE('',(#1236));
#1192=FILL_AREA_STYLE('',(#1237));
#1193=FILL_AREA_STYLE('',(#1238));
#1194=FILL_AREA_STYLE('',(#1239));
#1195=FILL_AREA_STYLE('',(#1240));
#1196=FILL_AREA_STYLE('',(#1241));
#1197=FILL_AREA_STYLE('',(#1242));
#1198=FILL_AREA_STYLE('',(#1243));
#1199=FILL_AREA_STYLE('',(#1244));
#1200=FILL_AREA_STYLE('',(#1245));
#1201=FILL_AREA_STYLE('',(#1246));
#1202=FILL_AREA_STYLE('',(#1247));
#1203=FILL_AREA_STYLE('',(#1248));
#1204=FILL_AREA_STYLE('',(#1249));
#1205=FILL_AREA_STYLE('',(#1250));
#1206=FILL_AREA_STYLE('',(#1251));
#1207=FILL_AREA_STYLE('',(#1252));
#1208=FILL_AREA_STYLE('',(#1253));
#1209=FILL_AREA_STYLE('',(#1254));
#1210=FILL_AREA_STYLE('',(#1255));
#1211=FILL_AREA_STYLE_COLOUR('',#1256);
#1212=FILL_AREA_STYLE_COLOUR('',#1257);
#1213=FILL_AREA_STYLE_COLOUR('',#1257);
#1214=FILL_AREA_STYLE_COLOUR('',#1257);
#1215=FILL_AREA_STYLE_COLOUR('',#1257);
#1216=FILL_AREA_STYLE_COLOUR('',#1257);
#1217=FILL_AREA_STYLE_COLOUR('',#1257);
#1218=FILL_AREA_STYLE_COLOUR('',#1257);
#1219=FILL_AREA_STYLE_COLOUR('',#1257);
#1220=FILL_AREA_STYLE_COLOUR('',#1258);
#1221=FILL_AREA_STYLE_COLOUR('',#1258);
#1222=FILL_AREA_STYLE_COLOUR('',#1258);
#1223=FILL_AREA_STYLE_COLOUR('',#1258);
#1224=FILL_AREA_STYLE_COLOUR('',#1258);
#1225=FILL_AREA_STYLE_COLOUR('',#1258);
#1226=FILL_AREA_STYLE_COLOUR('',#1258);
#1227=FILL_AREA_STYLE_COLOUR('',#1258);
#1228=FILL_AREA_STYLE_COLOUR('',#1258);
#1229=FILL_AREA_STYLE_COLOUR('',#1258);
#1230=FILL_AREA_STYLE_COLOUR('',#1258);
#1231=FILL_AREA_STYLE_COLOUR('',#1258);
#1232=FILL_AREA_STYLE_COLOUR('',#1258);
#1233=FILL_AREA_STYLE_COLOUR('',#1258);
#1234=FILL_AREA_STYLE_COLOUR('',#1258);
#1235=FILL_AREA_STYLE_COLOUR('',#1258);
#1236=FILL_AREA_STYLE_COLOUR('',#1258);
#1237=FILL_AREA_STYLE_COLOUR('',#1258);
#1238=FILL_AREA_STYLE_COLOUR('',#1258);
#1239=FILL_AREA_STYLE_COLOUR('',#1258);
#1240=FILL_AREA_STYLE_COLOUR('',#1258);
#1241=FILL_AREA_STYLE_COLOUR('',#1258);
#1242=FILL_AREA_STYLE_COLOUR('',#1258);
#1243=FILL_AREA_STYLE_COLOUR('',#1258);
#1244=FILL_AREA_STYLE_COLOUR('',#1258);
#1245=FILL_AREA_STYLE_COLOUR('',#1258);
#1246=FILL_AREA_STYLE_COLOUR('',#1258);
#1247=FILL_AREA_STYLE_COLOUR('',#1258);
#1248=FILL_AREA_STYLE_COLOUR('',#1258);
#1249=FILL_AREA_STYLE_COLOUR('',#1258);
#1250=FILL_AREA_STYLE_COLOUR('',#1258);
#1251=FILL_AREA_STYLE_COLOUR('',#1258);
#1252=FILL_AREA_STYLE_COLOUR('',#1258);
#1253=FILL_AREA_STYLE_COLOUR('',#1258);
#1254=FILL_AREA_STYLE_COLOUR('',#1258);
#1255=FILL_AREA_STYLE_COLOUR('',#1258);
#1256=COLOUR_RGB('',0.615686274509804,0.811764705882353,0.929411764705882);
#1257=COLOUR_RGB('',0.172549019607843,0.223529411764706,0.286274509803921);
#1258=COLOUR_RGB('',0.419607843137255,0.258823529411765,0.149019607843137);
#1259=MANIFOLD_SOLID_BREP('Part 1',#984);
#1260=SHAPE_DEFINITION_REPRESENTATION(#1788,#1261);
#1261=SHAPE_REPRESENTATION('Part 1',(#1262),#1783);
#1262=AXIS2_PLACEMENT_3D('',#1525,#1307,#1308);
#1263=AXIS2_PLACEMENT_3D('',#1526,#1309,#1310);
#1264=AXIS2_PLACEMENT_3D('',#1535,#1315,#1316);
#1265=AXIS2_PLACEMENT_3D('',#1544,#1321,#1322);
#1266=AXIS2_PLACEMENT_3D('',#1563,#1333,#1334);
#1267=AXIS2_PLACEMENT_3D('',#1569,#1338,#1339);
#1268=AXIS2_PLACEMENT_3D('',#1577,#1345,#1346);
#1269=AXIS2_PLACEMENT_3D('',#1579,#1348,#1349);
#1270=AXIS2_PLACEMENT_3D('',#1580,#1350,#1351);
#1271=AXIS2_PLACEMENT_3D('',#1582,#1353,#1354);
#1272=AXIS2_PLACEMENT_3D('',#1649,#1389,#1390);
#1273=AXIS2_PLACEMENT_3D('',#1655,#1394,#1395);
#1274=AXIS2_PLACEMENT_3D('',#1659,#1398,#1399);
#1275=AXIS2_PLACEMENT_3D('',#1663,#1402,#1403);
#1276=AXIS2_PLACEMENT_3D('',#1669,#1407,#1408);
#1277=AXIS2_PLACEMENT_3D('',#1673,#1411,#1412);
#1278=AXIS2_PLACEMENT_3D('',#1677,#1415,#1416);
#1279=AXIS2_PLACEMENT_3D('',#1683,#1420,#1421);
#1280=AXIS2_PLACEMENT_3D('',#1687,#1424,#1425);
#1281=AXIS2_PLACEMENT_3D('',#1691,#1428,#1429);
#1282=AXIS2_PLACEMENT_3D('',#1697,#1433,#1434);
#1283=AXIS2_PLACEMENT_3D('',#1701,#1437,#1438);
#1284=AXIS2_PLACEMENT_3D('',#1705,#1441,#1442);
#1285=AXIS2_PLACEMENT_3D('',#1711,#1446,#1447);
#1286=AXIS2_PLACEMENT_3D('',#1715,#1450,#1451);
#1287=AXIS2_PLACEMENT_3D('',#1719,#1454,#1455);
#1288=AXIS2_PLACEMENT_3D('',#1725,#1459,#1460);
#1289=AXIS2_PLACEMENT_3D('',#1729,#1463,#1464);
#1290=AXIS2_PLACEMENT_3D('',#1733,#1467,#1468);
#1291=AXIS2_PLACEMENT_3D('',#1739,#1472,#1473);
#1292=AXIS2_PLACEMENT_3D('',#1743,#1476,#1477);
#1293=AXIS2_PLACEMENT_3D('',#1747,#1480,#1481);
#1294=AXIS2_PLACEMENT_3D('',#1751,#1484,#1485);
#1295=AXIS2_PLACEMENT_3D('',#1755,#1488,#1489);
#1296=AXIS2_PLACEMENT_3D('',#1757,#1491,#1492);
#1297=AXIS2_PLACEMENT_3D('',#1761,#1495,#1496);
#1298=AXIS2_PLACEMENT_3D('',#1765,#1499,#1500);
#1299=AXIS2_PLACEMENT_3D('',#1767,#1502,#1503);
#1300=AXIS2_PLACEMENT_3D('',#1769,#1505,#1506);
#1301=AXIS2_PLACEMENT_3D('',#1771,#1508,#1509);
#1302=AXIS2_PLACEMENT_3D('',#1773,#1511,#1512);
#1303=AXIS2_PLACEMENT_3D('',#1775,#1514,#1515);
#1304=AXIS2_PLACEMENT_3D('',#1777,#1517,#1518);
#1305=AXIS2_PLACEMENT_3D('',#1779,#1520,#1521);
#1306=AXIS2_PLACEMENT_3D('',#1781,#1523,#1524);
#1307=DIRECTION('',(0.,0.,1.));
#1308=DIRECTION('',(1.,0.,0.));
#1309=DIRECTION('',(0.,-1.,0.));
#1310=DIRECTION('',(1.,0.,0.));
#1311=DIRECTION('',(1.,0.,0.));
#1312=DIRECTION('',(0.,0.,-1.));
#1313=DIRECTION('',(1.,0.,0.));
#1314=DIRECTION('',(0.,0.,-1.));
#1315=DIRECTION('',(0.,-1.,0.));
#1316=DIRECTION('',(1.,0.,0.));
#1317=DIRECTION('',(1.,0.,0.));
#1318=DIRECTION('',(0.,0.,-1.));
#1319=DIRECTION('',(1.,0.,0.));
#1320=DIRECTION('',(0.,0.,-1.));
#1321=DIRECTION('',(0.,0.,-1.));
#1322=DIRECTION('',(-1.,0.,0.));
#1323=DIRECTION('',(1.,0.,0.));
#1324=DIRECTION('',(0.,1.,0.));
#1325=DIRECTION('',(1.,0.,0.));
#1326=DIRECTION('',(0.,1.,0.));
#1327=DIRECTION('',(0.,1.,0.));
#1328=DIRECTION('',(1.,0.,0.));
#1329=DIRECTION('',(0.,1.,0.));
#1330=DIRECTION('',(0.,-1.,0.));
#1331=DIRECTION('',(1.,0.,0.));
#1332=DIRECTION('',(0.,-1.,0.));
#1333=DIRECTION('',(-1.,0.,0.));
#1334=DIRECTION('',(0.,0.,1.));
#1335=DIRECTION('',(0.,0.,-1.));
#1336=DIRECTION('',(0.,0.,-1.));
#1337=DIRECTION('',(0.,-1.,0.));
#1338=DIRECTION('',(0.,0.,-1.));
#1339=DIRECTION('',(-1.,0.,0.));
#1340=DIRECTION('',(1.,0.,0.));
#1341=DIRECTION('',(1.,0.,0.));
#1342=DIRECTION('',(0.,-1.,0.));
#1343=DIRECTION('',(1.,0.,0.));
#1344=DIRECTION('',(1.,0.,0.));
#1345=DIRECTION('',(-1.,0.,0.));
#1346=DIRECTION('',(0.,0.,1.));
#1347=DIRECTION('',(0.,0.,-1.));
#1348=DIRECTION('',(0.,-1.,0.));
#1349=DIRECTION('',(1.,0.,0.));
#1350=DIRECTION('',(0.,-1.,0.));
#1351=DIRECTION('',(1.,0.,0.));
#1352=DIRECTION('',(0.,0.,-1.));
#1353=DIRECTION('',(0.,-1.,0.));
#1354=DIRECTION('',(1.,0.,0.));
#1355=DIRECTION('',(1.,0.,0.));
#1356=DIRECTION('',(0.,0.,-1.));
#1357=DIRECTION('',(1.,0.,0.));
#1358=DIRECTION('',(0.,0.,-1.));
#1359=DIRECTION('',(0.,0.,-1.));
#1360=DIRECTION('',(1.,0.,0.));
#1361=DIRECTION('',(0.,0.,-1.));
#1362=DIRECTION('',(1.,0.,0.));
#1363=DIRECTION('',(0.,0.,-1.));
#1364=DIRECTION('',(1.,0.,0.));
#1365=DIRECTION('',(0.,0.,-1.));
#1366=DIRECTION('',(1.,0.,0.));
#1367=DIRECTION('',(0.,0.,-1.));
#1368=DIRECTION('',(1.,0.,0.));
#1369=DIRECTION('',(0.,0.,-1.));
#1370=DIRECTION('',(1.,0.,0.));
#1371=DIRECTION('',(0.,0.,-1.));
#1372=DIRECTION('',(1.,0.,0.));
#1373=DIRECTION('',(0.,0.,-1.));
#1374=DIRECTION('',(1.,0.,0.));
#1375=DIRECTION('',(0.,0.,-1.));
#1376=DIRECTION('',(1.,0.,0.));
#1377=DIRECTION('',(0.,0.,-1.));
#1378=DIRECTION('',(1.,0.,0.));
#1379=DIRECTION('',(1.,0.,0.));
#1380=DIRECTION('',(0.,0.,-1.));
#1381=DIRECTION('',(1.,0.,0.));
#1382=DIRECTION('',(0.,0.,-1.));
#1383=DIRECTION('',(0.,0.,-1.));
#1384=DIRECTION('',(0.,0.,-1.));
#1385=DIRECTION('',(1.,0.,0.));
#1386=DIRECTION('',(0.,0.,-1.));
#1387=DIRECTION('',(0.,0.,-1.));
#1388=DIRECTION('',(1.,0.,0.));
#1389=DIRECTION('',(0.,0.,1.));
#1390=DIRECTION('',(1.,0.,0.));
#1391=DIRECTION('',(0.,1.,0.));
#1392=DIRECTION('',(1.,0.,0.));
#1393=DIRECTION('',(0.,1.,0.));
#1394=DIRECTION('',(1.,0.,0.));
#1395=DIRECTION('',(0.,0.,-1.));
#1396=DIRECTION('',(0.,1.,0.));
#1397=DIRECTION('',(0.,0.,-1.));
#1398=DIRECTION('',(0.,0.,1.));
#1399=DIRECTION('',(1.,0.,0.));
#1400=DIRECTION('',(0.,1.,0.));
#1401=DIRECTION('',(1.,0.,0.));
#1402=DIRECTION('',(1.,0.,0.));
#1403=DIRECTION('',(0.,0.,-1.));
#1404=DIRECTION('',(0.,1.,0.));
#1405=DIRECTION('',(0.,0.,-1.));
#1406=DIRECTION('',(0.,1.,0.));
#1407=DIRECTION('',(0.,0.,1.));
#1408=DIRECTION('',(1.,0.,0.));
#1409=DIRECTION('',(0.,1.,0.));
#1410=DIRECTION('',(1.,0.,0.));
#1411=DIRECTION('',(1.,0.,0.));
#1412=DIRECTION('',(0.,0.,-1.));
#1413=DIRECTION('',(0.,1.,0.));
#1414=DIRECTION('',(0.,0.,-1.));
#1415=DIRECTION('',(1.,0.,0.));
#1416=DIRECTION('',(0.,0.,-1.));
#1417=DIRECTION('',(0.,1.,0.));
#1418=DIRECTION('',(0.,0.,-1.));
#1419=DIRECTION('',(0.,1.,0.));
#1420=DIRECTION('',(0.,0.,1.));
#1421=DIRECTION('',(1.,0.,0.));
#1422=DIRECTION('',(0.,1.,0.));
#1423=DIRECTION('',(1.,0.,0.));
#1424=DIRECTION('',(1.,0.,0.));
#1425=DIRECTION('',(0.,0.,-1.));
#1426=DIRECTION('',(0.,1.,0.));
#1427=DIRECTION('',(0.,0.,-1.));
#1428=DIRECTION('',(1.,0.,0.));
#1429=DIRECTION('',(0.,0.,-1.));
#1430=DIRECTION('',(0.,1.,0.));
#1431=DIRECTION('',(0.,0.,-1.));
#1432=DIRECTION('',(0.,1.,0.));
#1433=DIRECTION('',(0.,0.,1.));
#1434=DIRECTION('',(1.,0.,0.));
#1435=DIRECTION('',(0.,1.,0.));
#1436=DIRECTION('',(1.,0.,0.));
#1437=DIRECTION('',(1.,0.,0.));
#1438=DIRECTION('',(0.,0.,-1.));
#1439=DIRECTION('',(0.,1.,0.));
#1440=DIRECTION('',(0.,0.,-1.));
#1441=DIRECTION('',(1.,0.,0.));
#1442=DIRECTION('',(0.,0.,-1.));
#1443=DIRECTION('',(0.,1.,0.));
#1444=DIRECTION('',(0.,0.,-1.));
#1445=DIRECTION('',(0.,1.,0.));
#1446=DIRECTION('',(0.,0.,1.));
#1447=DIRECTION('',(1.,0.,0.));
#1448=DIRECTION('',(0.,1.,0.));
#1449=DIRECTION('',(1.,0.,0.));
#1450=DIRECTION('',(1.,0.,0.));
#1451=DIRECTION('',(0.,0.,-1.));
#1452=DIRECTION('',(0.,1.,0.));
#1453=DIRECTION('',(0.,0.,-1.));
#1454=DIRECTION('',(1.,0.,0.));
#1455=DIRECTION('',(0.,0.,-1.));
#1456=DIRECTION('',(0.,1.,0.));
#1457=DIRECTION('',(0.,0.,-1.));
#1458=DIRECTION('',(0.,1.,0.));
#1459=DIRECTION('',(0.,0.,1.));
#1460=DIRECTION('',(1.,0.,0.));
#1461=DIRECTION('',(0.,1.,0.));
#1462=DIRECTION('',(1.,0.,0.));
#1463=DIRECTION('',(1.,0.,0.));
#1464=DIRECTION('',(0.,0.,-1.));
#1465=DIRECTION('',(0.,1.,0.));
#1466=DIRECTION('',(0.,0.,-1.));
#1467=DIRECTION('',(0.,0.,1.));
#1468=DIRECTION('',(1.,0.,0.));
#1469=DIRECTION('',(0.,1.,0.));
#1470=DIRECTION('',(1.,0.,0.));
#1471=DIRECTION('',(0.,1.,0.));
#1472=DIRECTION('',(1.,0.,0.));
#1473=DIRECTION('',(0.,0.,-1.));
#1474=DIRECTION('',(0.,1.,0.));
#1475=DIRECTION('',(0.,0.,-1.));
#1476=DIRECTION('',(0.,0.,1.));
#1477=DIRECTION('',(1.,0.,0.));
#1478=DIRECTION('',(0.,1.,0.));
#1479=DIRECTION('',(1.,0.,0.));
#1480=DIRECTION('',(1.,0.,0.));
#1481=DIRECTION('',(0.,0.,-1.));
#1482=DIRECTION('',(0.,1.,0.));
#1483=DIRECTION('',(0.,0.,-1.));
#1484=DIRECTION('',(0.,0.,1.));
#1485=DIRECTION('',(1.,0.,0.));
#1486=DIRECTION('',(0.,1.,0.));
#1487=DIRECTION('',(1.,0.,0.));
#1488=DIRECTION('',(1.,0.,0.));
#1489=DIRECTION('',(0.,0.,-1.));
#1490=DIRECTION('',(0.,0.,-1.));
#1491=DIRECTION('',(1.,0.,0.));
#1492=DIRECTION('',(0.,0.,-1.));
#1493=DIRECTION('',(0.,1.,0.));
#1494=DIRECTION('',(0.,0.,-1.));
#1495=DIRECTION('',(0.,0.,1.));
#1496=DIRECTION('',(1.,0.,0.));
#1497=DIRECTION('',(0.,1.,0.));
#1498=DIRECTION('',(1.,0.,0.));
#1499=DIRECTION('',(1.,0.,0.));
#1500=DIRECTION('',(0.,0.,-1.));
#1501=DIRECTION('',(0.,0.,-1.));
#1502=DIRECTION('',(0.,0.,1.));
#1503=DIRECTION('',(1.,0.,0.));
#1504=DIRECTION('',(1.,0.,0.));
#1505=DIRECTION('',(0.,0.,1.));
#1506=DIRECTION('',(1.,0.,0.));
#1507=DIRECTION('',(1.,0.,0.));
#1508=DIRECTION('',(0.,0.,1.));
#1509=DIRECTION('',(1.,0.,0.));
#1510=DIRECTION('',(1.,0.,0.));
#1511=DIRECTION('',(0.,0.,1.));
#1512=DIRECTION('',(1.,0.,0.));
#1513=DIRECTION('',(1.,0.,0.));
#1514=DIRECTION('',(0.,0.,1.));
#1515=DIRECTION('',(1.,0.,0.));
#1516=DIRECTION('',(1.,0.,0.));
#1517=DIRECTION('',(1.,0.,0.));
#1518=DIRECTION('',(0.,0.,-1.));
#1519=DIRECTION('',(0.,0.,-1.));
#1520=DIRECTION('',(1.,0.,0.));
#1521=DIRECTION('',(0.,0.,-1.));
#1522=DIRECTION('',(0.,0.,-1.));
#1523=DIRECTION('',(0.,-1.,0.));
#1524=DIRECTION('',(1.,0.,0.));
#1525=CARTESIAN_POINT('',(0.,0.,0.));
#1526=CARTESIAN_POINT('',(-0.0129335764795542,0.,0.0389755070209503));
#1527=CARTESIAN_POINT('',(-0.0129335764795542,0.,0.0418468602001667));
#1528=CARTESIAN_POINT('',(0.0197748895734548,0.,0.0418468602001667));
#1529=CARTESIAN_POINT('',(0.0360042788088321,0.,0.0418468602001667));
#1530=CARTESIAN_POINT('',(0.0197748895734548,0.,0.036603519693017));
#1531=CARTESIAN_POINT('',(0.0197748895734548,0.,0.0361041538417339));
#1532=CARTESIAN_POINT('',(-0.0129335764795542,0.,0.0361041538417339));
#1533=CARTESIAN_POINT('',(0.0360042788088321,0.,0.0361041538417339));
#1534=CARTESIAN_POINT('',(0.0360042788088321,0.,0.036603519693017));
#1535=CARTESIAN_POINT('',(-0.0129335764795542,0.,0.0389755070209503));
#1536=CARTESIAN_POINT('',(-0.0129335764795542,0.,0.0418468602001667));
#1537=CARTESIAN_POINT('',(0.0427457205951214,0.,0.0418468602001667));
#1538=CARTESIAN_POINT('',(0.0474896989762783,0.,0.0418468602001667));
#1539=CARTESIAN_POINT('',(0.0427457205951214,0.,-0.00496869347989559));
#1540=CARTESIAN_POINT('',(0.0427457205951214,0.,0.0361041538417339));
#1541=CARTESIAN_POINT('',(-0.0129335764795542,0.,0.0361041538417339));
#1542=CARTESIAN_POINT('',(0.0474896989762783,0.,0.0361041538417339));
#1543=CARTESIAN_POINT('',(0.0474896989762783,0.,0.0389755070209503));
#1544=CARTESIAN_POINT('',(-0.0129335764795542,0.05,0.0418468602001667));
#1545=CARTESIAN_POINT('',(-0.0129335764795542,0.,0.0418468602001667));
#1546=CARTESIAN_POINT('',(-0.0733568519353867,0.,0.0418468602001667));
#1547=CARTESIAN_POINT('',(0.014281865209341,0.,0.0418468602001667));
#1548=CARTESIAN_POINT('',(0.014281865209341,-0.002,0.0418468602001667));
#1549=CARTESIAN_POINT('',(0.014281865209341,-0.002,0.0418468602001667));
#1550=CARTESIAN_POINT('',(-0.0129335764795542,-0.002,0.0418468602001667));
#1551=CARTESIAN_POINT('',(0.0197748895734548,-0.002,0.0418468602001667));
#1552=CARTESIAN_POINT('',(0.0197748895734548,-0.002,0.0418468602001667));
#1553=CARTESIAN_POINT('',(0.0360042788088321,-0.002,0.0418468602001667));
#1554=CARTESIAN_POINT('',(0.0360042788088321,-0.002,0.0418468602001667));
#1555=CARTESIAN_POINT('',(-0.0129335764795542,-0.002,0.0418468602001667));
#1556=CARTESIAN_POINT('',(0.0427457205951214,-0.002,0.0418468602001667));
#1557=CARTESIAN_POINT('',(0.0427457205951214,-0.002,0.0418468602001667));
#1558=CARTESIAN_POINT('',(0.0474896989762783,0.05,0.0418468602001667));
#1559=CARTESIAN_POINT('',(0.0474896989762783,0.05,0.0418468602001667));
#1560=CARTESIAN_POINT('',(-0.0129335764795542,0.05,0.0418468602001667));
#1561=CARTESIAN_POINT('',(-0.0733568519353867,0.05,0.0418468602001667));
#1562=CARTESIAN_POINT('',(-0.0733568519353867,0.05,0.0418468602001667));
#1563=CARTESIAN_POINT('',(-0.0733568519353867,0.05,0.0389755070209503));
#1564=CARTESIAN_POINT('',(-0.0733568519353867,0.,0.0389755070209503));
#1565=CARTESIAN_POINT('',(-0.0733568519353867,0.,0.0361041538417339));
#1566=CARTESIAN_POINT('',(-0.0733568519353867,0.05,0.0389755070209503));
#1567=CARTESIAN_POINT('',(-0.0733568519353867,0.05,0.0361041538417339));
#1568=CARTESIAN_POINT('',(-0.0733568519353867,0.05,0.0361041538417339));
#1569=CARTESIAN_POINT('',(-0.0129335764795542,0.05,0.0361041538417339));
#1570=CARTESIAN_POINT('',(-0.0129335764795542,0.,0.0361041538417339));
#1571=CARTESIAN_POINT('',(0.014281865209341,0.,0.0361041538417339));
#1572=CARTESIAN_POINT('',(-0.0129335764795542,0.05,0.0361041538417339));
#1573=CARTESIAN_POINT('',(0.0474896989762783,0.05,0.0361041538417339));
#1574=CARTESIAN_POINT('',(0.0474896989762783,0.05,0.0361041538417339));
#1575=CARTESIAN_POINT('',(-0.0129335764795542,0.,0.0361041538417339));
#1576=CARTESIAN_POINT('',(-0.0129335764795542,0.,0.0361041538417339));
#1577=CARTESIAN_POINT('',(0.0474896989762783,0.05,0.0389755070209503));
#1578=CARTESIAN_POINT('',(0.0474896989762783,0.05,0.0389755070209503));
#1579=CARTESIAN_POINT('',(-0.0129335764795542,0.05,0.0389755070209503));
#1580=CARTESIAN_POINT('',(-0.0129335764795542,0.,0.0389755070209503));
#1581=CARTESIAN_POINT('',(0.014281865209341,0.,-0.00496869347989559));
#1582=CARTESIAN_POINT('',(-0.0129335764795542,0.,-0.00496869347989559));
#1583=CARTESIAN_POINT('',(0.0278895841911435,0.,-0.047040268778801));
#1584=CARTESIAN_POINT('',(0.0197748895734548,0.,-0.047040268778801));
#1585=CARTESIAN_POINT('',(0.0360042788088321,0.,-0.047040268778801));
#1586=CARTESIAN_POINT('',(0.0360042788088321,0.,-0.0450428053736687));
#1587=CARTESIAN_POINT('',(0.0360042788088321,0.,-0.0430453419685364));
#1588=CARTESIAN_POINT('',(0.0278895841911435,0.,-0.0430453419685364));
#1589=CARTESIAN_POINT('',(0.0197748895734548,0.,-0.0430453419685364));
#1590=CARTESIAN_POINT('',(0.0197748895734548,0.,-0.0450428053736687));
#1591=CARTESIAN_POINT('',(0.0197748895734548,0.,0.0238696904852987));
#1592=CARTESIAN_POINT('',(0.0197748895734548,0.,0.0268658865243196));
#1593=CARTESIAN_POINT('',(0.0197748895734548,0.,0.0208734944462776));
#1594=CARTESIAN_POINT('',(0.0278895841911435,0.,0.0208734944462776));
#1595=CARTESIAN_POINT('',(0.0360042788088321,0.,0.0208734944462776));
#1596=CARTESIAN_POINT('',(0.0360042788088321,0.,0.0238696904852987));
#1597=CARTESIAN_POINT('',(0.0360042788088321,0.,0.0268658865243196));
#1598=CARTESIAN_POINT('',(0.0278895841911435,0.,0.0268658865243196));
#1599=CARTESIAN_POINT('',(0.0197748895734548,0.,-0.0339319128543139));
#1600=CARTESIAN_POINT('',(0.0197748895734548,0.,-0.0300618261098862));
#1601=CARTESIAN_POINT('',(0.0197748895734548,0.,-0.0378019995987416));
#1602=CARTESIAN_POINT('',(0.0278895841911435,0.,-0.0378019995987416));
#1603=CARTESIAN_POINT('',(0.0360042788088321,0.,-0.0378019995987416));
#1604=CARTESIAN_POINT('',(0.0360042788088321,0.,-0.0339319128543139));
#1605=CARTESIAN_POINT('',(0.0360042788088321,0.,-0.0300618261098862));
#1606=CARTESIAN_POINT('',(0.0278895841911435,0.,-0.0300618261098862));
#1607=CARTESIAN_POINT('',(0.0197748895734548,0.,-0.0214477656409145));
#1608=CARTESIAN_POINT('',(0.0197748895734548,0.,-0.0183267295360565));
#1609=CARTESIAN_POINT('',(0.0197748895734548,0.,-0.0245688017457724));
#1610=CARTESIAN_POINT('',(0.0278895841911435,0.,-0.0245688017457724));
#1611=CARTESIAN_POINT('',(0.0360042788088321,0.,-0.0245688017457724));
#1612=CARTESIAN_POINT('',(0.0360042788088321,0.,-0.0214477656409145));
#1613=CARTESIAN_POINT('',(0.0360042788088321,0.,-0.0183267295360565));
#1614=CARTESIAN_POINT('',(0.0278895841911435,0.,-0.0183267295360565));
#1615=CARTESIAN_POINT('',(0.0197748895734548,0.,-0.00927572324872017));
#1616=CARTESIAN_POINT('',(0.0197748895734548,0.,-0.00496869347989559));
#1617=CARTESIAN_POINT('',(0.0197748895734548,0.,-0.0135827530175447));
#1618=CARTESIAN_POINT('',(0.0278895841911435,0.,-0.0135827530175447));
#1619=CARTESIAN_POINT('',(0.0360042788088321,0.,-0.0135827530175447));
#1620=CARTESIAN_POINT('',(0.0360042788088321,0.,-0.00927572324872017));
#1621=CARTESIAN_POINT('',(0.0360042788088321,0.,-0.00496869347989559));
#1622=CARTESIAN_POINT('',(0.0278895841911435,0.,-0.00496869347989559));
#1623=CARTESIAN_POINT('',(0.0197748895734548,0.,0.00219720997847616));
#1624=CARTESIAN_POINT('',(0.0197748895734548,0.,0.00439441995695234));
#1625=CARTESIAN_POINT('',(0.0197748895734548,0.,0.));
#1626=CARTESIAN_POINT('',(0.0278895841911435,0.,0.));
#1627=CARTESIAN_POINT('',(0.0360042788088321,0.,0.));
#1628=CARTESIAN_POINT('',(0.0360042788088321,0.,0.00219720997847616));
#1629=CARTESIAN_POINT('',(0.0360042788088321,0.,0.00439441995695234));
#1630=CARTESIAN_POINT('',(0.0278895841911435,0.,0.00439441995695234));
#1631=CARTESIAN_POINT('',(0.0278895841911435,0.,0.00988744478672743));
#1632=CARTESIAN_POINT('',(0.0197748895734548,0.,0.00988744478672743));
#1633=CARTESIAN_POINT('',(0.0360042788088321,0.,0.00988744478672743));
#1634=CARTESIAN_POINT('',(0.0360042788088321,0.,0.0123842745088041));
#1635=CARTESIAN_POINT('',(0.0360042788088321,0.,0.0148811042308807));
#1636=CARTESIAN_POINT('',(0.0278895841911435,0.,0.0148811042308807));
#1637=CARTESIAN_POINT('',(0.0197748895734548,0.,0.0148811042308807));
#1638=CARTESIAN_POINT('',(0.0197748895734548,0.,0.0123842745088041));
#1639=CARTESIAN_POINT('',(0.014281865209341,0.,-0.00496869347989559));
#1640=CARTESIAN_POINT('',(0.014281865209341,0.,-0.0517842471599579));
#1641=CARTESIAN_POINT('',(0.0197748895734548,0.,0.036603519693017));
#1642=CARTESIAN_POINT('',(0.0197748895734548,0.,0.0313601791858673));
#1643=CARTESIAN_POINT('',(0.0278895841911435,0.,0.0313601791858673));
#1644=CARTESIAN_POINT('',(0.0360042788088321,0.,0.0313601791858673));
#1645=CARTESIAN_POINT('',(0.0360042788088321,0.,0.036603519693017));
#1646=CARTESIAN_POINT('',(0.0427457205951214,0.,-0.00496869347989559));
#1647=CARTESIAN_POINT('',(0.0427457205951214,0.,-0.0517842471599579));
#1648=CARTESIAN_POINT('',(0.0278895841911435,0.,-0.0517842471599579));
#1649=CARTESIAN_POINT('',(0.0278895841911435,-0.002,0.00988744478672743));
#1650=CARTESIAN_POINT('',(0.0197748895734548,-0.002,0.00988744478672743));
#1651=CARTESIAN_POINT('',(0.0197748895734548,-0.002,0.00988744478672743));
#1652=CARTESIAN_POINT('',(0.0278895841911435,-0.002,0.00988744478672743));
#1653=CARTESIAN_POINT('',(0.0360042788088321,-0.002,0.00988744478672743));
#1654=CARTESIAN_POINT('',(0.0360042788088321,-0.002,0.00988744478672743));
#1655=CARTESIAN_POINT('',(0.0197748895734548,-0.002,0.0123842745088041));
#1656=CARTESIAN_POINT('',(0.0197748895734548,-0.002,0.0148811042308807));
#1657=CARTESIAN_POINT('',(0.0197748895734548,-0.002,0.0148811042308807));
#1658=CARTESIAN_POINT('',(0.0197748895734548,-0.002,0.0123842745088041));
#1659=CARTESIAN_POINT('',(0.0278895841911435,-0.002,0.0148811042308807));
#1660=CARTESIAN_POINT('',(0.0360042788088321,-0.002,0.0148811042308807));
#1661=CARTESIAN_POINT('',(0.0360042788088321,-0.002,0.0148811042308807));
#1662=CARTESIAN_POINT('',(0.0278895841911435,-0.002,0.0148811042308807));
#1663=CARTESIAN_POINT('',(0.0197748895734548,-0.002,0.00219720997847616));
#1664=CARTESIAN_POINT('',(0.0197748895734548,-0.002,0.00439441995695234));
#1665=CARTESIAN_POINT('',(0.0197748895734548,-0.002,0.00439441995695234));
#1666=CARTESIAN_POINT('',(0.0197748895734548,-0.002,0.00219720997847616));
#1667=CARTESIAN_POINT('',(0.0197748895734548,-0.002,0.));
#1668=CARTESIAN_POINT('',(0.0197748895734548,-0.002,0.));
#1669=CARTESIAN_POINT('',(0.0278895841911435,-0.002,0.00439441995695234));
#1670=CARTESIAN_POINT('',(0.0360042788088321,-0.002,0.00439441995695234));
#1671=CARTESIAN_POINT('',(0.0360042788088321,-0.002,0.00439441995695234));
#1672=CARTESIAN_POINT('',(0.0278895841911435,-0.002,0.00439441995695234));
#1673=CARTESIAN_POINT('',(0.0360042788088321,-0.002,0.00219720997847616));
#1674=CARTESIAN_POINT('',(0.0360042788088321,-0.002,0.));
#1675=CARTESIAN_POINT('',(0.0360042788088321,-0.002,0.));
#1676=CARTESIAN_POINT('',(0.0360042788088321,-0.002,0.00219720997847616));
#1677=CARTESIAN_POINT('',(0.0197748895734548,-0.002,-0.00927572324872017));
#1678=CARTESIAN_POINT('',(0.0197748895734548,-0.002,-0.00496869347989559));
#1679=CARTESIAN_POINT('',(0.0197748895734548,-0.002,-0.00496869347989559));
#1680=CARTESIAN_POINT('',(0.0197748895734548,-0.002,-0.00927572324872017));
#1681=CARTESIAN_POINT('',(0.0197748895734548,-0.002,-0.0135827530175447));
#1682=CARTESIAN_POINT('',(0.0197748895734548,-0.002,-0.0135827530175447));
#1683=CARTESIAN_POINT('',(0.0278895841911435,-0.002,-0.00496869347989559));
#1684=CARTESIAN_POINT('',(0.0360042788088321,-0.002,-0.00496869347989559));
#1685=CARTESIAN_POINT('',(0.0360042788088321,-0.002,-0.00496869347989559));
#1686=CARTESIAN_POINT('',(0.0278895841911435,-0.002,-0.00496869347989559));
#1687=CARTESIAN_POINT('',(0.0360042788088321,-0.002,-0.00927572324872017));
#1688=CARTESIAN_POINT('',(0.0360042788088321,-0.002,-0.0135827530175447));
#1689=CARTESIAN_POINT('',(0.0360042788088321,-0.002,-0.0135827530175447));
#1690=CARTESIAN_POINT('',(0.0360042788088321,-0.002,-0.00927572324872017));
#1691=CARTESIAN_POINT('',(0.0197748895734548,-0.002,-0.0214477656409145));
#1692=CARTESIAN_POINT('',(0.0197748895734548,-0.002,-0.0183267295360565));
#1693=CARTESIAN_POINT('',(0.0197748895734548,-0.002,-0.0183267295360565));
#1694=CARTESIAN_POINT('',(0.0197748895734548,-0.002,-0.0214477656409145));
#1695=CARTESIAN_POINT('',(0.0197748895734548,-0.002,-0.0245688017457724));
#1696=CARTESIAN_POINT('',(0.0197748895734548,-0.002,-0.0245688017457724));
#1697=CARTESIAN_POINT('',(0.0278895841911435,-0.002,-0.0183267295360565));
#1698=CARTESIAN_POINT('',(0.0360042788088321,-0.002,-0.0183267295360565));
#1699=CARTESIAN_POINT('',(0.0360042788088321,-0.002,-0.0183267295360565));
#1700=CARTESIAN_POINT('',(0.0278895841911435,-0.002,-0.0183267295360565));
#1701=CARTESIAN_POINT('',(0.0360042788088321,-0.002,-0.0214477656409145));
#1702=CARTESIAN_POINT('',(0.0360042788088321,-0.002,-0.0245688017457724));
#1703=CARTESIAN_POINT('',(0.0360042788088321,-0.002,-0.0245688017457724));
#1704=CARTESIAN_POINT('',(0.0360042788088321,-0.002,-0.0214477656409145));
#1705=CARTESIAN_POINT('',(0.0197748895734548,-0.002,-0.0339319128543139));
#1706=CARTESIAN_POINT('',(0.0197748895734548,-0.002,-0.0300618261098862));
#1707=CARTESIAN_POINT('',(0.0197748895734548,-0.002,-0.0300618261098862));
#1708=CARTESIAN_POINT('',(0.0197748895734548,-0.002,-0.0339319128543139));
#1709=CARTESIAN_POINT('',(0.0197748895734548,-0.002,-0.0378019995987416));
#1710=CARTESIAN_POINT('',(0.0197748895734548,-0.002,-0.0378019995987416));
#1711=CARTESIAN_POINT('',(0.0278895841911435,-0.002,-0.0300618261098862));
#1712=CARTESIAN_POINT('',(0.0360042788088321,-0.002,-0.0300618261098862));
#1713=CARTESIAN_POINT('',(0.0360042788088321,-0.002,-0.0300618261098862));
#1714=CARTESIAN_POINT('',(0.0278895841911435,-0.002,-0.0300618261098862));
#1715=CARTESIAN_POINT('',(0.0360042788088321,-0.002,-0.0339319128543139));
#1716=CARTESIAN_POINT('',(0.0360042788088321,-0.002,-0.0378019995987416));
#1717=CARTESIAN_POINT('',(0.0360042788088321,-0.002,-0.0378019995987416));
#1718=CARTESIAN_POINT('',(0.0360042788088321,-0.002,-0.0339319128543139));
#1719=CARTESIAN_POINT('',(0.0197748895734548,-0.002,0.0238696904852987));
#1720=CARTESIAN_POINT('',(0.0197748895734548,-0.002,0.0268658865243196));
#1721=CARTESIAN_POINT('',(0.0197748895734548,-0.002,0.0268658865243196));
#1722=CARTESIAN_POINT('',(0.0197748895734548,-0.002,0.0238696904852987));
#1723=CARTESIAN_POINT('',(0.0197748895734548,-0.002,0.0208734944462776));
#1724=CARTESIAN_POINT('',(0.0197748895734548,-0.002,0.0208734944462776));
#1725=CARTESIAN_POINT('',(0.0278895841911435,-0.002,0.0268658865243196));
#1726=CARTESIAN_POINT('',(0.0360042788088321,-0.002,0.0268658865243196));
#1727=CARTESIAN_POINT('',(0.0360042788088321,-0.002,0.0268658865243196));
#1728=CARTESIAN_POINT('',(0.0278895841911435,-0.002,0.0268658865243196));
#1729=CARTESIAN_POINT('',(0.0360042788088321,-0.002,0.0238696904852987));
#1730=CARTESIAN_POINT('',(0.0360042788088321,-0.002,0.0208734944462776));
#1731=CARTESIAN_POINT('',(0.0360042788088321,-0.002,0.0208734944462776));
#1732=CARTESIAN_POINT('',(0.0360042788088321,-0.002,0.0238696904852987));
#1733=CARTESIAN_POINT('',(0.0278895841911435,-0.002,-0.047040268778801));
#1734=CARTESIAN_POINT('',(0.0197748895734548,-0.002,-0.047040268778801));
#1735=CARTESIAN_POINT('',(0.0197748895734548,-0.002,-0.047040268778801));
#1736=CARTESIAN_POINT('',(0.0278895841911435,-0.002,-0.047040268778801));
#1737=CARTESIAN_POINT('',(0.0360042788088321,-0.002,-0.047040268778801));
#1738=CARTESIAN_POINT('',(0.0360042788088321,-0.002,-0.047040268778801));
#1739=CARTESIAN_POINT('',(0.0197748895734548,-0.002,-0.0450428053736687));
#1740=CARTESIAN_POINT('',(0.0197748895734548,-0.002,-0.0430453419685364));
#1741=CARTESIAN_POINT('',(0.0197748895734548,-0.002,-0.0430453419685364));
#1742=CARTESIAN_POINT('',(0.0197748895734548,-0.002,-0.0450428053736687));
#1743=CARTESIAN_POINT('',(0.0278895841911435,-0.002,-0.0430453419685364));
#1744=CARTESIAN_POINT('',(0.0360042788088321,-0.002,-0.0430453419685364));
#1745=CARTESIAN_POINT('',(0.0360042788088321,-0.002,-0.0430453419685364));
#1746=CARTESIAN_POINT('',(0.0278895841911435,-0.002,-0.0430453419685364));
#1747=CARTESIAN_POINT('',(0.014281865209341,-0.002,-0.00496869347989559));
#1748=CARTESIAN_POINT('',(0.014281865209341,-0.002,-0.0517842471599579));
#1749=CARTESIAN_POINT('',(0.014281865209341,-0.002,-0.0517842471599579));
#1750=CARTESIAN_POINT('',(0.014281865209341,-0.002,-0.00496869347989559));
#1751=CARTESIAN_POINT('',(0.0278895841911435,-0.002,-0.0517842471599579));
#1752=CARTESIAN_POINT('',(0.0427457205951214,-0.002,-0.0517842471599579));
#1753=CARTESIAN_POINT('',(0.0427457205951214,-0.002,-0.0517842471599579));
#1754=CARTESIAN_POINT('',(0.0278895841911435,-0.002,-0.0517842471599579));
#1755=CARTESIAN_POINT('',(0.0427457205951214,-0.002,-0.00496869347989559));
#1756=CARTESIAN_POINT('',(0.0427457205951214,-0.002,-0.00496869347989559));
#1757=CARTESIAN_POINT('',(0.0360042788088321,-0.002,0.036603519693017));
#1758=CARTESIAN_POINT('',(0.0360042788088321,-0.002,0.0313601791858673));
#1759=CARTESIAN_POINT('',(0.0360042788088321,-0.002,0.0313601791858673));
#1760=CARTESIAN_POINT('',(0.0360042788088321,-0.002,0.036603519693017));
#1761=CARTESIAN_POINT('',(0.0278895841911435,-0.002,0.0313601791858673));
#1762=CARTESIAN_POINT('',(0.0197748895734548,-0.002,0.0313601791858673));
#1763=CARTESIAN_POINT('',(0.0197748895734548,-0.002,0.0313601791858673));
#1764=CARTESIAN_POINT('',(0.0278895841911435,-0.002,0.0313601791858673));
#1765=CARTESIAN_POINT('',(0.0197748895734548,-0.002,0.036603519693017));
#1766=CARTESIAN_POINT('',(0.0197748895734548,-0.002,0.036603519693017));
#1767=CARTESIAN_POINT('',(0.0278895841911435,-0.002,0.));
#1768=CARTESIAN_POINT('',(0.0278895841911435,-0.002,0.));
#1769=CARTESIAN_POINT('',(0.0278895841911435,-0.002,-0.0135827530175447));
#1770=CARTESIAN_POINT('',(0.0278895841911435,-0.002,-0.0135827530175447));
#1771=CARTESIAN_POINT('',(0.0278895841911435,-0.002,-0.0245688017457724));
#1772=CARTESIAN_POINT('',(0.0278895841911435,-0.002,-0.0245688017457724));
#1773=CARTESIAN_POINT('',(0.0278895841911435,-0.002,-0.0378019995987416));
#1774=CARTESIAN_POINT('',(0.0278895841911435,-0.002,-0.0378019995987416));
#1775=CARTESIAN_POINT('',(0.0278895841911435,-0.002,0.0208734944462776));
#1776=CARTESIAN_POINT('',(0.0278895841911435,-0.002,0.0208734944462776));
#1777=CARTESIAN_POINT('',(0.0360042788088321,-0.002,-0.0450428053736687));
#1778=CARTESIAN_POINT('',(0.0360042788088321,-0.002,-0.0450428053736687));
#1779=CARTESIAN_POINT('',(0.0360042788088321,-0.002,0.0123842745088041));
#1780=CARTESIAN_POINT('',(0.0360042788088321,-0.002,0.0123842745088041));
#1781=CARTESIAN_POINT('',(-0.0129335764795542,-0.002,-0.00496869347989559));
#1782=MECHANICAL_DESIGN_GEOMETRIC_PRESENTATION_REPRESENTATION('',(#985,
#896,#897,#898,#899,#900,#901,#902,#903,#904,#905,#906,#907,#908,#909,#910,
#911,#912,#913,#914,#915,#916,#917,#918,#919,#920,#921,#922,#923,#924,#925,
#926,#927,#928,#929,#930,#931,#932,#933,#934,#935,#936,#937,#938,#939),
#1783);
#1783=(
GEOMETRIC_REPRESENTATION_CONTEXT(3)
GLOBAL_UNCERTAINTY_ASSIGNED_CONTEXT((#1784))
GLOBAL_UNIT_ASSIGNED_CONTEXT((#1787,#1786,#1785))
REPRESENTATION_CONTEXT('Part 1','TOP_LEVEL_ASSEMBLY_PART')
);
#1784=UNCERTAINTY_MEASURE_WITH_UNIT(LENGTH_MEASURE(1.E-8),#1787,
'DISTANCE_ACCURACY_VALUE','Maximum Tolerance applied to model');
#1785=(
NAMED_UNIT(*)
SI_UNIT($,.STERADIAN.)
SOLID_ANGLE_UNIT()
);
#1786=(
NAMED_UNIT(*)
PLANE_ANGLE_UNIT()
SI_UNIT($,.RADIAN.)
);
#1787=(
LENGTH_UNIT()
NAMED_UNIT(*)
SI_UNIT($,.METRE.)
);
#1788=PRODUCT_DEFINITION_SHAPE('','',#1789);
#1789=PRODUCT_DEFINITION('','',#1791,#1790);
#1790=PRODUCT_DEFINITION_CONTEXT('',#1797,'design');
#1791=PRODUCT_DEFINITION_FORMATION_WITH_SPECIFIED_SOURCE('','',#1793,
 .NOT_KNOWN.);
#1792=PRODUCT_RELATED_PRODUCT_CATEGORY('','',(#1793));
#1793=PRODUCT('Part 1','Part 1','Part 1',(#1795));
#1794=PRODUCT_CATEGORY('','');
#1795=PRODUCT_CONTEXT('',#1797,'mechanical');
#1796=APPLICATION_PROTOCOL_DEFINITION('international standard',
'ap242_managed_model_based_3d_engineering',2020,#1797);
#1797=APPLICATION_CONTEXT('managed model based 3d engineering');
ENDSEC;
END-ISO-10303-21;
