ISO-10303-21;
HEADER;
/* Generated by software containing ST-Developer
 * from STEP Tools, Inc. (www.steptools.com) 
 */
/* OPTION: using custom renumber hook */

FILE_DESCRIPTION(
/* description */ ('STEP AP242 Edition 2',
'CAx-IF Rec.Pracs.---Representation and Presentation of Product Manufa
cturing Information (PMI)---4.0---2014-10-13',
'CAx-IF Rec.Pracs.---3D Tessellated Geometry---0.4---2014-09-14','2;1',
'CAx-IF Rec.Pracs.---User Defined Attributes---1.5---2016-08-15'),
/* implementation_level */ '2;1');

FILE_NAME(
/* name */ 'Part Studio 5',
/* time_stamp */ '2026-09-06T10:35:45Z',
/* author */ (''),
/* organization */ (''),
/* preprocessor_version */ 'ST-DEVELOPER v20',
/* originating_system */ 'ONSHAPE BY PTC INC, 1.220',
/* authorisation */ '  ');

FILE_SCHEMA (('AP242_MANAGED_MODEL_BASED_3D_ENGINEERING_MIM_LF { 1 0 10303 442 3 1 4 }'));
ENDSEC;

DATA;
#10=TOROIDAL_SURFACE('',#762,0.0002,0.0001);
#11=SPHERICAL_SURFACE('',#748,0.0001);
#12=ELLIPSE('',#733,0.000141421356237309,0.0001);
#13=ELLIPSE('',#741,0.000141421356237309,0.0001);
#14=ELLIPSE('',#751,0.000141421356237309,0.0001);
#15=ELLIPSE('',#753,0.000141421356237309,0.0001);
#16=ELLIPSE('',#755,0.000141421356237309,0.0001);
#17=CYLINDRICAL_SURFACE('',#731,0.0001);
#18=CYLINDRICAL_SURFACE('',#739,0.0001);
#19=CYLINDRICAL_SURFACE('',#743,0.0001);
#20=CYLINDRICAL_SURFACE('',#750,0.0001);
#21=CYLINDRICAL_SURFACE('',#752,0.0001);
#22=CYLINDRICAL_SURFACE('',#754,0.0001);
#23=CYLINDRICAL_SURFACE('',#756,0.0001);
#24=CYLINDRICAL_SURFACE('',#758,0.0001);
#25=CYLINDRICAL_SURFACE('',#760,0.0003);
#26=CIRCLE('',#729,0.0002);
#27=CIRCLE('',#732,0.0001);
#28=CIRCLE('',#736,0.0003);
#29=CIRCLE('',#740,0.0001);
#30=CIRCLE('',#742,0.0001);
#31=CIRCLE('',#744,0.0001);
#32=CIRCLE('',#749,0.0001);
#33=CIRCLE('',#757,0.0001);
#34=CIRCLE('',#759,0.0001);
#35=CIRCLE('',#761,0.0003);
#36=SHAPE_REPRESENTATION_RELATIONSHIP('','',#713,#38);
#37=SHAPE_REPRESENTATION_RELATIONSHIP('','',#714,#39);
#38=ADVANCED_BREP_SHAPE_REPRESENTATION('',(#709),#1057);
#39=ADVANCED_BREP_SHAPE_REPRESENTATION('',(#710),#1058);
#40=ORIENTED_EDGE('',*,*,#176,.F.);
#41=ORIENTED_EDGE('',*,*,#177,.T.);
#42=ORIENTED_EDGE('',*,*,#178,.T.);
#43=ORIENTED_EDGE('',*,*,#179,.F.);
#44=ORIENTED_EDGE('',*,*,#180,.F.);
#45=ORIENTED_EDGE('',*,*,#181,.T.);
#46=ORIENTED_EDGE('',*,*,#182,.T.);
#47=ORIENTED_EDGE('',*,*,#183,.F.);
#48=ORIENTED_EDGE('',*,*,#184,.F.);
#49=ORIENTED_EDGE('',*,*,#185,.F.);
#50=ORIENTED_EDGE('',*,*,#176,.T.);
#51=ORIENTED_EDGE('',*,*,#186,.T.);
#52=ORIENTED_EDGE('',*,*,#187,.T.);
#53=ORIENTED_EDGE('',*,*,#188,.F.);
#54=ORIENTED_EDGE('',*,*,#177,.F.);
#55=ORIENTED_EDGE('',*,*,#185,.T.);
#56=ORIENTED_EDGE('',*,*,#189,.T.);
#57=ORIENTED_EDGE('',*,*,#190,.F.);
#58=ORIENTED_EDGE('',*,*,#178,.F.);
#59=ORIENTED_EDGE('',*,*,#188,.T.);
#60=ORIENTED_EDGE('',*,*,#191,.F.);
#61=ORIENTED_EDGE('',*,*,#186,.F.);
#62=ORIENTED_EDGE('',*,*,#179,.T.);
#63=ORIENTED_EDGE('',*,*,#190,.T.);
#64=ORIENTED_EDGE('',*,*,#184,.T.);
#65=ORIENTED_EDGE('',*,*,#191,.T.);
#66=ORIENTED_EDGE('',*,*,#189,.F.);
#67=ORIENTED_EDGE('',*,*,#187,.F.);
#68=ORIENTED_EDGE('',*,*,#181,.F.);
#69=ORIENTED_EDGE('',*,*,#192,.F.);
#70=ORIENTED_EDGE('',*,*,#193,.T.);
#71=ORIENTED_EDGE('',*,*,#194,.T.);
#72=ORIENTED_EDGE('',*,*,#180,.T.);
#73=ORIENTED_EDGE('',*,*,#195,.F.);
#74=ORIENTED_EDGE('',*,*,#196,.F.);
#75=ORIENTED_EDGE('',*,*,#192,.T.);
#76=ORIENTED_EDGE('',*,*,#183,.T.);
#77=ORIENTED_EDGE('',*,*,#197,.F.);
#78=ORIENTED_EDGE('',*,*,#198,.F.);
#79=ORIENTED_EDGE('',*,*,#195,.T.);
#80=ORIENTED_EDGE('',*,*,#182,.F.);
#81=ORIENTED_EDGE('',*,*,#194,.F.);
#82=ORIENTED_EDGE('',*,*,#199,.T.);
#83=ORIENTED_EDGE('',*,*,#197,.T.);
#84=ORIENTED_EDGE('',*,*,#193,.F.);
#85=ORIENTED_EDGE('',*,*,#196,.T.);
#86=ORIENTED_EDGE('',*,*,#198,.T.);
#87=ORIENTED_EDGE('',*,*,#199,.F.);
#88=ORIENTED_EDGE('',*,*,#200,.F.);
#89=ORIENTED_EDGE('',*,*,#201,.T.);
#90=ORIENTED_EDGE('',*,*,#202,.T.);
#91=ORIENTED_EDGE('',*,*,#203,.T.);
#92=ORIENTED_EDGE('',*,*,#204,.T.);
#93=ORIENTED_EDGE('',*,*,#205,.T.);
#94=ORIENTED_EDGE('',*,*,#206,.T.);
#95=ORIENTED_EDGE('',*,*,#207,.T.);
#96=ORIENTED_EDGE('',*,*,#208,.T.);
#97=ORIENTED_EDGE('',*,*,#209,.T.);
#98=ORIENTED_EDGE('',*,*,#210,.T.);
#99=ORIENTED_EDGE('',*,*,#207,.F.);
#100=ORIENTED_EDGE('',*,*,#211,.T.);
#101=ORIENTED_EDGE('',*,*,#204,.F.);
#102=ORIENTED_EDGE('',*,*,#212,.T.);
#103=ORIENTED_EDGE('',*,*,#213,.T.);
#104=ORIENTED_EDGE('',*,*,#214,.T.);
#105=ORIENTED_EDGE('',*,*,#215,.F.);
#106=ORIENTED_EDGE('',*,*,#216,.T.);
#107=ORIENTED_EDGE('',*,*,#217,.F.);
#108=ORIENTED_EDGE('',*,*,#215,.T.);
#109=ORIENTED_EDGE('',*,*,#218,.T.);
#110=ORIENTED_EDGE('',*,*,#219,.T.);
#111=ORIENTED_EDGE('',*,*,#220,.F.);
#112=ORIENTED_EDGE('',*,*,#221,.T.);
#113=ORIENTED_EDGE('',*,*,#222,.T.);
#114=ORIENTED_EDGE('',*,*,#223,.T.);
#115=ORIENTED_EDGE('',*,*,#224,.T.);
#116=ORIENTED_EDGE('',*,*,#220,.T.);
#117=ORIENTED_EDGE('',*,*,#219,.F.);
#118=ORIENTED_EDGE('',*,*,#225,.T.);
#119=ORIENTED_EDGE('',*,*,#226,.T.);
#120=ORIENTED_EDGE('',*,*,#222,.F.);
#121=ORIENTED_EDGE('',*,*,#227,.F.);
#122=ORIENTED_EDGE('',*,*,#228,.F.);
#123=ORIENTED_EDGE('',*,*,#221,.F.);
#124=ORIENTED_EDGE('',*,*,#229,.F.);
#125=ORIENTED_EDGE('',*,*,#209,.F.);
#126=ORIENTED_EDGE('',*,*,#230,.T.);
#127=ORIENTED_EDGE('',*,*,#224,.F.);
#128=ORIENTED_EDGE('',*,*,#231,.T.);
#129=ORIENTED_EDGE('',*,*,#210,.F.);
#130=ORIENTED_EDGE('',*,*,#229,.T.);
#131=ORIENTED_EDGE('',*,*,#228,.T.);
#132=ORIENTED_EDGE('',*,*,#227,.T.);
#133=ORIENTED_EDGE('',*,*,#232,.T.);
#134=ORIENTED_EDGE('',*,*,#233,.T.);
#135=ORIENTED_EDGE('',*,*,#216,.F.);
#136=ORIENTED_EDGE('',*,*,#234,.F.);
#137=ORIENTED_EDGE('',*,*,#235,.T.);
#138=ORIENTED_EDGE('',*,*,#217,.T.);
#139=ORIENTED_EDGE('',*,*,#233,.F.);
#140=ORIENTED_EDGE('',*,*,#208,.F.);
#141=ORIENTED_EDGE('',*,*,#236,.T.);
#142=ORIENTED_EDGE('',*,*,#234,.T.);
#143=ORIENTED_EDGE('',*,*,#232,.F.);
#144=ORIENTED_EDGE('',*,*,#230,.F.);
#145=ORIENTED_EDGE('',*,*,#211,.F.);
#146=ORIENTED_EDGE('',*,*,#231,.F.);
#147=ORIENTED_EDGE('',*,*,#237,.F.);
#148=ORIENTED_EDGE('',*,*,#212,.F.);
#149=ORIENTED_EDGE('',*,*,#203,.F.);
#150=ORIENTED_EDGE('',*,*,#238,.F.);
#151=ORIENTED_EDGE('',*,*,#236,.F.);
#152=ORIENTED_EDGE('',*,*,#237,.T.);
#153=ORIENTED_EDGE('',*,*,#223,.F.);
#154=ORIENTED_EDGE('',*,*,#239,.F.);
#155=ORIENTED_EDGE('',*,*,#205,.F.);
#156=ORIENTED_EDGE('',*,*,#238,.T.);
#157=ORIENTED_EDGE('',*,*,#202,.F.);
#158=ORIENTED_EDGE('',*,*,#240,.F.);
#159=ORIENTED_EDGE('',*,*,#235,.F.);
#160=ORIENTED_EDGE('',*,*,#226,.F.);
#161=ORIENTED_EDGE('',*,*,#241,.T.);
#162=ORIENTED_EDGE('',*,*,#206,.F.);
#163=ORIENTED_EDGE('',*,*,#239,.T.);
#164=ORIENTED_EDGE('',*,*,#201,.F.);
#165=ORIENTED_EDGE('',*,*,#242,.T.);
#166=ORIENTED_EDGE('',*,*,#213,.F.);
#167=ORIENTED_EDGE('',*,*,#240,.T.);
#168=ORIENTED_EDGE('',*,*,#218,.F.);
#169=ORIENTED_EDGE('',*,*,#214,.F.);
#170=ORIENTED_EDGE('',*,*,#243,.F.);
#171=ORIENTED_EDGE('',*,*,#225,.F.);
#172=ORIENTED_EDGE('',*,*,#241,.F.);
#173=ORIENTED_EDGE('',*,*,#243,.T.);
#174=ORIENTED_EDGE('',*,*,#242,.F.);
#175=ORIENTED_EDGE('',*,*,#200,.T.);
#176=EDGE_CURVE('',#244,#245,#286,.T.);
#177=EDGE_CURVE('',#244,#246,#287,.T.);
#178=EDGE_CURVE('',#246,#247,#288,.T.);
#179=EDGE_CURVE('',#245,#247,#289,.T.);
#180=EDGE_CURVE('',#248,#249,#290,.T.);
#181=EDGE_CURVE('',#248,#250,#291,.T.);
#182=EDGE_CURVE('',#250,#251,#292,.T.);
#183=EDGE_CURVE('',#249,#251,#293,.T.);
#184=EDGE_CURVE('',#252,#253,#294,.T.);
#185=EDGE_CURVE('',#244,#252,#295,.T.);
#186=EDGE_CURVE('',#245,#253,#296,.T.);
#187=EDGE_CURVE('',#252,#254,#297,.T.);
#188=EDGE_CURVE('',#246,#254,#298,.T.);
#189=EDGE_CURVE('',#254,#255,#299,.T.);
#190=EDGE_CURVE('',#247,#255,#300,.T.);
#191=EDGE_CURVE('',#253,#255,#301,.T.);
#192=EDGE_CURVE('',#256,#248,#302,.T.);
#193=EDGE_CURVE('',#256,#257,#303,.T.);
#194=EDGE_CURVE('',#257,#250,#304,.T.);
#195=EDGE_CURVE('',#258,#249,#305,.T.);
#196=EDGE_CURVE('',#256,#258,#306,.T.);
#197=EDGE_CURVE('',#259,#251,#307,.T.);
#198=EDGE_CURVE('',#258,#259,#308,.T.);
#199=EDGE_CURVE('',#257,#259,#309,.T.);
#200=EDGE_CURVE('',#260,#261,#26,.F.);
#201=EDGE_CURVE('',#260,#262,#310,.F.);
#202=EDGE_CURVE('',#262,#263,#311,.F.);
#203=EDGE_CURVE('',#263,#264,#312,.F.);
#204=EDGE_CURVE('',#264,#265,#313,.T.);
#205=EDGE_CURVE('',#265,#266,#314,.T.);
#206=EDGE_CURVE('',#266,#261,#315,.F.);
#207=EDGE_CURVE('',#267,#268,#316,.F.);
#208=EDGE_CURVE('',#268,#269,#317,.T.);
#209=EDGE_CURVE('',#269,#270,#318,.T.);
#210=EDGE_CURVE('',#270,#267,#319,.T.);
#211=EDGE_CURVE('',#267,#265,#27,.F.);
#212=EDGE_CURVE('',#264,#268,#12,.T.);
#213=EDGE_CURVE('',#271,#272,#320,.T.);
#214=EDGE_CURVE('',#272,#273,#321,.F.);
#215=EDGE_CURVE('',#274,#273,#322,.T.);
#216=EDGE_CURVE('',#274,#275,#323,.T.);
#217=EDGE_CURVE('',#271,#275,#324,.T.);
#218=EDGE_CURVE('',#273,#276,#28,.F.);
#219=EDGE_CURVE('',#276,#277,#325,.T.);
#220=EDGE_CURVE('',#278,#277,#326,.T.);
#221=EDGE_CURVE('',#278,#274,#327,.F.);
#222=EDGE_CURVE('',#277,#279,#328,.T.);
#223=EDGE_CURVE('',#279,#280,#329,.F.);
#224=EDGE_CURVE('',#280,#278,#330,.F.);
#225=EDGE_CURVE('',#276,#281,#331,.T.);
#226=EDGE_CURVE('',#281,#279,#332,.T.);
#227=EDGE_CURVE('',#282,#283,#333,.F.);
#228=EDGE_CURVE('',#274,#282,#29,.F.);
#229=EDGE_CURVE('',#270,#278,#13,.F.);
#230=EDGE_CURVE('',#269,#283,#30,.F.);
#231=EDGE_CURVE('',#280,#267,#31,.T.);
#232=EDGE_CURVE('',#283,#284,#334,.T.);
#233=EDGE_CURVE('',#284,#275,#335,.T.);
#234=EDGE_CURVE('',#285,#284,#336,.T.);
#235=EDGE_CURVE('',#285,#271,#337,.T.);
#236=EDGE_CURVE('',#268,#285,#338,.T.);
#237=EDGE_CURVE('',#265,#280,#32,.T.);
#238=EDGE_CURVE('',#285,#263,#14,.F.);
#239=EDGE_CURVE('',#266,#279,#15,.T.);
#240=EDGE_CURVE('',#271,#262,#16,.F.);
#241=EDGE_CURVE('',#281,#261,#33,.T.);
#242=EDGE_CURVE('',#260,#272,#34,.T.);
#243=EDGE_CURVE('',#281,#272,#35,.T.);
#244=VERTEX_POINT('',#915);
#245=VERTEX_POINT('',#916);
#246=VERTEX_POINT('',#918);
#247=VERTEX_POINT('',#920);
#248=VERTEX_POINT('',#923);
#249=VERTEX_POINT('',#924);
#250=VERTEX_POINT('',#926);
#251=VERTEX_POINT('',#928);
#252=VERTEX_POINT('',#932);
#253=VERTEX_POINT('',#933);
#254=VERTEX_POINT('',#938);
#255=VERTEX_POINT('',#942);
#256=VERTEX_POINT('',#949);
#257=VERTEX_POINT('',#951);
#258=VERTEX_POINT('',#955);
#259=VERTEX_POINT('',#959);
#260=VERTEX_POINT('',#967);
#261=VERTEX_POINT('',#968);
#262=VERTEX_POINT('',#970);
#263=VERTEX_POINT('',#972);
#264=VERTEX_POINT('',#974);
#265=VERTEX_POINT('',#976);
#266=VERTEX_POINT('',#978);
#267=VERTEX_POINT('',#982);
#268=VERTEX_POINT('',#983);
#269=VERTEX_POINT('',#985);
#270=VERTEX_POINT('',#987);
#271=VERTEX_POINT('',#994);
#272=VERTEX_POINT('',#995);
#273=VERTEX_POINT('',#997);
#274=VERTEX_POINT('',#999);
#275=VERTEX_POINT('',#1001);
#276=VERTEX_POINT('',#1005);
#277=VERTEX_POINT('',#1007);
#278=VERTEX_POINT('',#1009);
#279=VERTEX_POINT('',#1013);
#280=VERTEX_POINT('',#1015);
#281=VERTEX_POINT('',#1019);
#282=VERTEX_POINT('',#1023);
#283=VERTEX_POINT('',#1024);
#284=VERTEX_POINT('',#1032);
#285=VERTEX_POINT('',#1036);
#286=LINE('',#914,#339);
#287=LINE('',#917,#340);
#288=LINE('',#919,#341);
#289=LINE('',#921,#342);
#290=LINE('',#922,#343);
#291=LINE('',#925,#344);
#292=LINE('',#927,#345);
#293=LINE('',#929,#346);
#294=LINE('',#931,#347);
#295=LINE('',#934,#348);
#296=LINE('',#935,#349);
#297=LINE('',#937,#350);
#298=LINE('',#939,#351);
#299=LINE('',#941,#352);
#300=LINE('',#943,#353);
#301=LINE('',#945,#354);
#302=LINE('',#948,#355);
#303=LINE('',#950,#356);
#304=LINE('',#952,#357);
#305=LINE('',#954,#358);
#306=LINE('',#956,#359);
#307=LINE('',#958,#360);
#308=LINE('',#960,#361);
#309=LINE('',#962,#362);
#310=LINE('',#969,#363);
#311=LINE('',#971,#364);
#312=LINE('',#973,#365);
#313=LINE('',#975,#366);
#314=LINE('',#977,#367);
#315=LINE('',#979,#368);
#316=LINE('',#981,#369);
#317=LINE('',#984,#370);
#318=LINE('',#986,#371);
#319=LINE('',#988,#372);
#320=LINE('',#993,#373);
#321=LINE('',#996,#374);
#322=LINE('',#998,#375);
#323=LINE('',#1000,#376);
#324=LINE('',#1002,#377);
#325=LINE('',#1006,#378);
#326=LINE('',#1008,#379);
#327=LINE('',#1010,#380);
#328=LINE('',#1012,#381);
#329=LINE('',#1014,#382);
#330=LINE('',#1016,#383);
#331=LINE('',#1018,#384);
#332=LINE('',#1020,#385);
#333=LINE('',#1022,#386);
#334=LINE('',#1031,#387);
#335=LINE('',#1033,#388);
#336=LINE('',#1035,#389);
#337=LINE('',#1037,#390);
#338=LINE('',#1039,#391);
#339=VECTOR('',#767,1.);
#340=VECTOR('',#768,1.);
#341=VECTOR('',#769,1.);
#342=VECTOR('',#770,1.);
#343=VECTOR('',#771,1.);
#344=VECTOR('',#772,1.);
#345=VECTOR('',#773,1.);
#346=VECTOR('',#774,1.);
#347=VECTOR('',#777,1.);
#348=VECTOR('',#778,1.);
#349=VECTOR('',#779,1.);
#350=VECTOR('',#782,1.);
#351=VECTOR('',#783,1.);
#352=VECTOR('',#786,1.);
#353=VECTOR('',#787,1.);
#354=VECTOR('',#790,1.);
#355=VECTOR('',#795,1.);
#356=VECTOR('',#796,1.);
#357=VECTOR('',#797,1.);
#358=VECTOR('',#800,1.);
#359=VECTOR('',#801,1.);
#360=VECTOR('',#804,1.);
#361=VECTOR('',#805,1.);
#362=VECTOR('',#808,1.);
#363=VECTOR('',#817,1.);
#364=VECTOR('',#818,1.);
#365=VECTOR('',#819,1.);
#366=VECTOR('',#820,1.);
#367=VECTOR('',#821,1.);
#368=VECTOR('',#822,1.);
#369=VECTOR('',#825,1.);
#370=VECTOR('',#826,1.);
#371=VECTOR('',#827,1.);
#372=VECTOR('',#828,1.);
#373=VECTOR('',#837,1.);
#374=VECTOR('',#838,1.);
#375=VECTOR('',#839,1.);
#376=VECTOR('',#840,1.);
#377=VECTOR('',#841,1.);
#378=VECTOR('',#846,1.);
#379=VECTOR('',#847,1.);
#380=VECTOR('',#848,1.);
#381=VECTOR('',#851,1.);
#382=VECTOR('',#852,1.);
#383=VECTOR('',#853,1.);
#384=VECTOR('',#856,1.);
#385=VECTOR('',#857,1.);
#386=VECTOR('',#860,1.);
#387=VECTOR('',#873,1.);
#388=VECTOR('',#874,1.);
#389=VECTOR('',#877,1.);
#390=VECTOR('',#878,1.);
#391=VECTOR('',#881,1.);
#392=EDGE_LOOP('',(#40,#41,#42,#43));
#393=EDGE_LOOP('',(#44,#45,#46,#47));
#394=EDGE_LOOP('',(#48,#49,#50,#51));
#395=EDGE_LOOP('',(#52,#53,#54,#55));
#396=EDGE_LOOP('',(#56,#57,#58,#59));
#397=EDGE_LOOP('',(#60,#61,#62,#63));
#398=EDGE_LOOP('',(#64,#65,#66,#67));
#399=EDGE_LOOP('',(#68,#69,#70,#71));
#400=EDGE_LOOP('',(#72,#73,#74,#75));
#401=EDGE_LOOP('',(#76,#77,#78,#79));
#402=EDGE_LOOP('',(#80,#81,#82,#83));
#403=EDGE_LOOP('',(#84,#85,#86,#87));
#404=EDGE_LOOP('',(#88,#89,#90,#91,#92,#93,#94));
#405=EDGE_LOOP('',(#95,#96,#97,#98));
#406=EDGE_LOOP('',(#99,#100,#101,#102));
#407=EDGE_LOOP('',(#103,#104,#105,#106,#107));
#408=EDGE_LOOP('',(#108,#109,#110,#111,#112));
#409=EDGE_LOOP('',(#113,#114,#115,#116));
#410=EDGE_LOOP('',(#117,#118,#119,#120));
#411=EDGE_LOOP('',(#121,#122,#123,#124,#125,#126));
#412=EDGE_LOOP('',(#127,#128,#129,#130));
#413=EDGE_LOOP('',(#131,#132,#133,#134,#135));
#414=EDGE_LOOP('',(#136,#137,#138,#139));
#415=EDGE_LOOP('',(#140,#141,#142,#143,#144));
#416=EDGE_LOOP('',(#145,#146,#147));
#417=EDGE_LOOP('',(#148,#149,#150,#151));
#418=EDGE_LOOP('',(#152,#153,#154,#155));
#419=EDGE_LOOP('',(#156,#157,#158,#159));
#420=EDGE_LOOP('',(#160,#161,#162,#163));
#421=EDGE_LOOP('',(#164,#165,#166,#167));
#422=EDGE_LOOP('',(#168,#169,#170,#171));
#423=EDGE_LOOP('',(#172,#173,#174,#175));
#424=FACE_BOUND('',#392,.T.);
#425=FACE_BOUND('',#393,.T.);
#426=FACE_BOUND('',#394,.T.);
#427=FACE_BOUND('',#395,.T.);
#428=FACE_BOUND('',#396,.T.);
#429=FACE_BOUND('',#397,.T.);
#430=FACE_BOUND('',#398,.T.);
#431=FACE_BOUND('',#399,.T.);
#432=FACE_BOUND('',#400,.T.);
#433=FACE_BOUND('',#401,.T.);
#434=FACE_BOUND('',#402,.T.);
#435=FACE_BOUND('',#403,.T.);
#436=FACE_BOUND('',#404,.T.);
#437=FACE_BOUND('',#405,.T.);
#438=FACE_BOUND('',#406,.T.);
#439=FACE_BOUND('',#407,.T.);
#440=FACE_BOUND('',#408,.T.);
#441=FACE_BOUND('',#409,.T.);
#442=FACE_BOUND('',#410,.T.);
#443=FACE_BOUND('',#411,.T.);
#444=FACE_BOUND('',#412,.T.);
#445=FACE_BOUND('',#413,.T.);
#446=FACE_BOUND('',#414,.T.);
#447=FACE_BOUND('',#415,.T.);
#448=FACE_BOUND('',#416,.T.);
#449=FACE_BOUND('',#417,.T.);
#450=FACE_BOUND('',#418,.T.);
#451=FACE_BOUND('',#419,.T.);
#452=FACE_BOUND('',#420,.T.);
#453=FACE_BOUND('',#421,.T.);
#454=FACE_BOUND('',#422,.T.);
#455=FACE_BOUND('',#423,.T.);
#456=PLANE('',#716);
#457=PLANE('',#717);
#458=PLANE('',#718);
#459=PLANE('',#719);
#460=PLANE('',#720);
#461=PLANE('',#721);
#462=PLANE('',#722);
#463=PLANE('',#723);
#464=PLANE('',#724);
#465=PLANE('',#725);
#466=PLANE('',#726);
#467=PLANE('',#728);
#468=PLANE('',#730);
#469=PLANE('',#734);
#470=PLANE('',#735);
#471=PLANE('',#737);
#472=PLANE('',#738);
#473=PLANE('',#745);
#474=PLANE('',#746);
#475=PLANE('',#747);
#476=OVER_RIDING_STYLED_ITEM('',(#540),#504,#537);
#477=OVER_RIDING_STYLED_ITEM('',(#541),#506,#537);
#478=OVER_RIDING_STYLED_ITEM('',(#542),#507,#537);
#479=OVER_RIDING_STYLED_ITEM('',(#543),#508,#537);
#480=OVER_RIDING_STYLED_ITEM('',(#544),#509,#537);
#481=OVER_RIDING_STYLED_ITEM('',(#545),#514,#537);
#482=OVER_RIDING_STYLED_ITEM('',(#547),#515,#538);
#483=OVER_RIDING_STYLED_ITEM('',(#548),#516,#538);
#484=OVER_RIDING_STYLED_ITEM('',(#549),#517,#538);
#485=OVER_RIDING_STYLED_ITEM('',(#550),#518,#538);
#486=OVER_RIDING_STYLED_ITEM('',(#551),#519,#538);
#487=OVER_RIDING_STYLED_ITEM('',(#552),#520,#538);
#488=OVER_RIDING_STYLED_ITEM('',(#553),#521,#538);
#489=OVER_RIDING_STYLED_ITEM('',(#554),#522,#538);
#490=OVER_RIDING_STYLED_ITEM('',(#555),#523,#538);
#491=OVER_RIDING_STYLED_ITEM('',(#556),#524,#538);
#492=OVER_RIDING_STYLED_ITEM('',(#557),#525,#538);
#493=OVER_RIDING_STYLED_ITEM('',(#558),#526,#538);
#494=OVER_RIDING_STYLED_ITEM('',(#559),#527,#538);
#495=OVER_RIDING_STYLED_ITEM('',(#560),#528,#538);
#496=OVER_RIDING_STYLED_ITEM('',(#561),#529,#538);
#497=OVER_RIDING_STYLED_ITEM('',(#562),#530,#538);
#498=OVER_RIDING_STYLED_ITEM('',(#563),#531,#538);
#499=OVER_RIDING_STYLED_ITEM('',(#564),#532,#538);
#500=OVER_RIDING_STYLED_ITEM('',(#565),#533,#538);
#501=OVER_RIDING_STYLED_ITEM('',(#566),#534,#538);
#502=DRAUGHTING_PRE_DEFINED_COLOUR('white');
#503=DRAUGHTING_PRE_DEFINED_COLOUR('black');
#504=ADVANCED_FACE('Face appearance 2',(#424,#425),#456,.T.);
#505=ADVANCED_FACE('',(#426),#457,.T.);
#506=ADVANCED_FACE('Face appearance 2',(#427),#458,.F.);
#507=ADVANCED_FACE('Face appearance 2',(#428),#459,.F.);
#508=ADVANCED_FACE('Face appearance 2',(#429),#460,.T.);
#509=ADVANCED_FACE('Face appearance 2',(#430),#461,.F.);
#510=ADVANCED_FACE('',(#431),#462,.T.);
#511=ADVANCED_FACE('',(#432),#463,.F.);
#512=ADVANCED_FACE('',(#433),#464,.F.);
#513=ADVANCED_FACE('',(#434),#465,.T.);
#514=ADVANCED_FACE('Face appearance 1',(#435),#466,.T.);
#515=ADVANCED_FACE('Face appearance 2',(#436),#467,.T.);
#516=ADVANCED_FACE('Face appearance 2',(#437),#468,.T.);
#517=ADVANCED_FACE('Face appearance 2',(#438),#17,.T.);
#518=ADVANCED_FACE('Face appearance 2',(#439),#469,.T.);
#519=ADVANCED_FACE('Face appearance 2',(#440),#470,.F.);
#520=ADVANCED_FACE('Face appearance 2',(#441),#471,.F.);
#521=ADVANCED_FACE('Face appearance 2',(#442),#472,.F.);
#522=ADVANCED_FACE('Face appearance 2',(#443),#18,.T.);
#523=ADVANCED_FACE('Face appearance 2',(#444),#19,.T.);
#524=ADVANCED_FACE('Face appearance 2',(#445),#473,.T.);
#525=ADVANCED_FACE('Face appearance 2',(#446),#474,.F.);
#526=ADVANCED_FACE('Face appearance 2',(#447),#475,.F.);
#527=ADVANCED_FACE('Face appearance 2',(#448),#11,.T.);
#528=ADVANCED_FACE('Face appearance 2',(#449),#20,.T.);
#529=ADVANCED_FACE('Face appearance 2',(#450),#21,.T.);
#530=ADVANCED_FACE('Face appearance 2',(#451),#22,.T.);
#531=ADVANCED_FACE('Face appearance 2',(#452),#23,.T.);
#532=ADVANCED_FACE('Face appearance 2',(#453),#24,.T.);
#533=ADVANCED_FACE('Face appearance 2',(#454),#25,.T.);
#534=ADVANCED_FACE('Face appearance 2',(#455),#10,.T.);
#535=CLOSED_SHELL('',(#504,#505,#506,#507,#508,#509,#510,#511,#512,#513,
#514));
#536=CLOSED_SHELL('',(#515,#516,#517,#518,#519,#520,#521,#522,#523,#524,
#525,#526,#527,#528,#529,#530,#531,#532,#533,#534));
#537=STYLED_ITEM('',(#539),#709);
#538=STYLED_ITEM('',(#546),#710);
#539=PRESENTATION_STYLE_ASSIGNMENT((#567));
#540=PRESENTATION_STYLE_ASSIGNMENT((#568));
#541=PRESENTATION_STYLE_ASSIGNMENT((#569));
#542=PRESENTATION_STYLE_ASSIGNMENT((#570));
#543=PRESENTATION_STYLE_ASSIGNMENT((#571));
#544=PRESENTATION_STYLE_ASSIGNMENT((#572));
#545=PRESENTATION_STYLE_ASSIGNMENT((#573));
#546=PRESENTATION_STYLE_ASSIGNMENT((#574));
#547=PRESENTATION_STYLE_ASSIGNMENT((#575));
#548=PRESENTATION_STYLE_ASSIGNMENT((#576));
#549=PRESENTATION_STYLE_ASSIGNMENT((#577));
#550=PRESENTATION_STYLE_ASSIGNMENT((#578));
#551=PRESENTATION_STYLE_ASSIGNMENT((#579));
#552=PRESENTATION_STYLE_ASSIGNMENT((#580));
#553=PRESENTATION_STYLE_ASSIGNMENT((#581));
#554=PRESENTATION_STYLE_ASSIGNMENT((#582));
#555=PRESENTATION_STYLE_ASSIGNMENT((#583));
#556=PRESENTATION_STYLE_ASSIGNMENT((#584));
#557=PRESENTATION_STYLE_ASSIGNMENT((#585));
#558=PRESENTATION_STYLE_ASSIGNMENT((#586));
#559=PRESENTATION_STYLE_ASSIGNMENT((#587));
#560=PRESENTATION_STYLE_ASSIGNMENT((#588));
#561=PRESENTATION_STYLE_ASSIGNMENT((#589));
#562=PRESENTATION_STYLE_ASSIGNMENT((#590));
#563=PRESENTATION_STYLE_ASSIGNMENT((#591));
#564=PRESENTATION_STYLE_ASSIGNMENT((#592));
#565=PRESENTATION_STYLE_ASSIGNMENT((#593));
#566=PRESENTATION_STYLE_ASSIGNMENT((#594));
#567=SURFACE_STYLE_USAGE(.BOTH.,#595);
#568=SURFACE_STYLE_USAGE(.BOTH.,#596);
#569=SURFACE_STYLE_USAGE(.BOTH.,#597);
#570=SURFACE_STYLE_USAGE(.BOTH.,#598);
#571=SURFACE_STYLE_USAGE(.BOTH.,#599);
#572=SURFACE_STYLE_USAGE(.BOTH.,#600);
#573=SURFACE_STYLE_USAGE(.BOTH.,#601);
#574=SURFACE_STYLE_USAGE(.BOTH.,#602);
#575=SURFACE_STYLE_USAGE(.BOTH.,#603);
#576=SURFACE_STYLE_USAGE(.BOTH.,#604);
#577=SURFACE_STYLE_USAGE(.BOTH.,#605);
#578=SURFACE_STYLE_USAGE(.BOTH.,#606);
#579=SURFACE_STYLE_USAGE(.BOTH.,#607);
#580=SURFACE_STYLE_USAGE(.BOTH.,#608);
#581=SURFACE_STYLE_USAGE(.BOTH.,#609);
#582=SURFACE_STYLE_USAGE(.BOTH.,#610);
#583=SURFACE_STYLE_USAGE(.BOTH.,#611);
#584=SURFACE_STYLE_USAGE(.BOTH.,#612);
#585=SURFACE_STYLE_USAGE(.BOTH.,#613);
#586=SURFACE_STYLE_USAGE(.BOTH.,#614);
#587=SURFACE_STYLE_USAGE(.BOTH.,#615);
#588=SURFACE_STYLE_USAGE(.BOTH.,#616);
#589=SURFACE_STYLE_USAGE(.BOTH.,#617);
#590=SURFACE_STYLE_USAGE(.BOTH.,#618);
#591=SURFACE_STYLE_USAGE(.BOTH.,#619);
#592=SURFACE_STYLE_USAGE(.BOTH.,#620);
#593=SURFACE_STYLE_USAGE(.BOTH.,#621);
#594=SURFACE_STYLE_USAGE(.BOTH.,#622);
#595=SURFACE_SIDE_STYLE('',(#623));
#596=SURFACE_SIDE_STYLE('',(#624));
#597=SURFACE_SIDE_STYLE('',(#625));
#598=SURFACE_SIDE_STYLE('',(#626));
#599=SURFACE_SIDE_STYLE('',(#627));
#600=SURFACE_SIDE_STYLE('',(#628));
#601=SURFACE_SIDE_STYLE('',(#629));
#602=SURFACE_SIDE_STYLE('',(#630));
#603=SURFACE_SIDE_STYLE('',(#631));
#604=SURFACE_SIDE_STYLE('',(#632));
#605=SURFACE_SIDE_STYLE('',(#633));
#606=SURFACE_SIDE_STYLE('',(#634));
#607=SURFACE_SIDE_STYLE('',(#635));
#608=SURFACE_SIDE_STYLE('',(#636));
#609=SURFACE_SIDE_STYLE('',(#637));
#610=SURFACE_SIDE_STYLE('',(#638));
#611=SURFACE_SIDE_STYLE('',(#639));
#612=SURFACE_SIDE_STYLE('',(#640));
#613=SURFACE_SIDE_STYLE('',(#641));
#614=SURFACE_SIDE_STYLE('',(#642));
#615=SURFACE_SIDE_STYLE('',(#643));
#616=SURFACE_SIDE_STYLE('',(#644));
#617=SURFACE_SIDE_STYLE('',(#645));
#618=SURFACE_SIDE_STYLE('',(#646));
#619=SURFACE_SIDE_STYLE('',(#647));
#620=SURFACE_SIDE_STYLE('',(#648));
#621=SURFACE_SIDE_STYLE('',(#649));
#622=SURFACE_SIDE_STYLE('',(#650));
#623=SURFACE_STYLE_FILL_AREA(#651);
#624=SURFACE_STYLE_FILL_AREA(#652);
#625=SURFACE_STYLE_FILL_AREA(#653);
#626=SURFACE_STYLE_FILL_AREA(#654);
#627=SURFACE_STYLE_FILL_AREA(#655);
#628=SURFACE_STYLE_FILL_AREA(#656);
#629=SURFACE_STYLE_FILL_AREA(#657);
#630=SURFACE_STYLE_FILL_AREA(#658);
#631=SURFACE_STYLE_FILL_AREA(#659);
#632=SURFACE_STYLE_FILL_AREA(#660);
#633=SURFACE_STYLE_FILL_AREA(#661);
#634=SURFACE_STYLE_FILL_AREA(#662);
#635=SURFACE_STYLE_FILL_AREA(#663);
#636=SURFACE_STYLE_FILL_AREA(#664);
#637=SURFACE_STYLE_FILL_AREA(#665);
#638=SURFACE_STYLE_FILL_AREA(#666);
#639=SURFACE_STYLE_FILL_AREA(#667);
#640=SURFACE_STYLE_FILL_AREA(#668);
#641=SURFACE_STYLE_FILL_AREA(#669);
#642=SURFACE_STYLE_FILL_AREA(#670);
#643=SURFACE_STYLE_FILL_AREA(#671);
#644=SURFACE_STYLE_FILL_AREA(#672);
#645=SURFACE_STYLE_FILL_AREA(#673);
#646=SURFACE_STYLE_FILL_AREA(#674);
#647=SURFACE_STYLE_FILL_AREA(#675);
#648=SURFACE_STYLE_FILL_AREA(#676);
#649=SURFACE_STYLE_FILL_AREA(#677);
#650=SURFACE_STYLE_FILL_AREA(#678);
#651=FILL_AREA_STYLE('',(#679));
#652=FILL_AREA_STYLE('',(#680));
#653=FILL_AREA_STYLE('',(#681));
#654=FILL_AREA_STYLE('',(#682));
#655=FILL_AREA_STYLE('',(#683));
#656=FILL_AREA_STYLE('',(#684));
#657=FILL_AREA_STYLE('',(#685));
#658=FILL_AREA_STYLE('',(#686));
#659=FILL_AREA_STYLE('',(#687));
#660=FILL_AREA_STYLE('',(#688));
#661=FILL_AREA_STYLE('',(#689));
#662=FILL_AREA_STYLE('',(#690));
#663=FILL_AREA_STYLE('',(#691));
#664=FILL_AREA_STYLE('',(#692));
#665=FILL_AREA_STYLE('',(#693));
#666=FILL_AREA_STYLE('',(#694));
#667=FILL_AREA_STYLE('',(#695));
#668=FILL_AREA_STYLE('',(#696));
#669=FILL_AREA_STYLE('',(#697));
#670=FILL_AREA_STYLE('',(#698));
#671=FILL_AREA_STYLE('',(#699));
#672=FILL_AREA_STYLE('',(#700));
#673=FILL_AREA_STYLE('',(#701));
#674=FILL_AREA_STYLE('',(#702));
#675=FILL_AREA_STYLE('',(#703));
#676=FILL_AREA_STYLE('',(#704));
#677=FILL_AREA_STYLE('',(#705));
#678=FILL_AREA_STYLE('',(#706));
#679=FILL_AREA_STYLE_COLOUR('',#707);
#680=FILL_AREA_STYLE_COLOUR('',#502);
#681=FILL_AREA_STYLE_COLOUR('',#502);
#682=FILL_AREA_STYLE_COLOUR('',#502);
#683=FILL_AREA_STYLE_COLOUR('',#502);
#684=FILL_AREA_STYLE_COLOUR('',#502);
#685=FILL_AREA_STYLE_COLOUR('',#503);
#686=FILL_AREA_STYLE_COLOUR('',#708);
#687=FILL_AREA_STYLE_COLOUR('',#502);
#688=FILL_AREA_STYLE_COLOUR('',#502);
#689=FILL_AREA_STYLE_COLOUR('',#502);
#690=FILL_AREA_STYLE_COLOUR('',#502);
#691=FILL_AREA_STYLE_COLOUR('',#502);
#692=FILL_AREA_STYLE_COLOUR('',#502);
#693=FILL_AREA_STYLE_COLOUR('',#502);
#694=FILL_AREA_STYLE_COLOUR('',#502);
#695=FILL_AREA_STYLE_COLOUR('',#502);
#696=FILL_AREA_STYLE_COLOUR('',#502);
#697=FILL_AREA_STYLE_COLOUR('',#502);
#698=FILL_AREA_STYLE_COLOUR('',#502);
#699=FILL_AREA_STYLE_COLOUR('',#502);
#700=FILL_AREA_STYLE_COLOUR('',#502);
#701=FILL_AREA_STYLE_COLOUR('',#502);
#702=FILL_AREA_STYLE_COLOUR('',#502);
#703=FILL_AREA_STYLE_COLOUR('',#502);
#704=FILL_AREA_STYLE_COLOUR('',#502);
#705=FILL_AREA_STYLE_COLOUR('',#502);
#706=FILL_AREA_STYLE_COLOUR('',#502);
#707=COLOUR_RGB('',0.615686274509804,0.811764705882353,0.929411764705882);
#708=COLOUR_RGB('',0.647058823529412,0.647058823529412,0.647058823529412);
#709=MANIFOLD_SOLID_BREP('Part 1',#535);
#710=MANIFOLD_SOLID_BREP('Part 2',#536);
#711=SHAPE_DEFINITION_REPRESENTATION(#1067,#713);
#712=SHAPE_DEFINITION_REPRESENTATION(#1068,#714);
#713=SHAPE_REPRESENTATION('Part 1',(#715),#1057);
#714=SHAPE_REPRESENTATION('Part 2',(#727),#1058);
#715=AXIS2_PLACEMENT_3D('',#912,#763,#764);
#716=AXIS2_PLACEMENT_3D('',#913,#765,#766);
#717=AXIS2_PLACEMENT_3D('',#930,#775,#776);
#718=AXIS2_PLACEMENT_3D('',#936,#780,#781);
#719=AXIS2_PLACEMENT_3D('',#940,#784,#785);
#720=AXIS2_PLACEMENT_3D('',#944,#788,#789);
#721=AXIS2_PLACEMENT_3D('',#946,#791,#792);
#722=AXIS2_PLACEMENT_3D('',#947,#793,#794);
#723=AXIS2_PLACEMENT_3D('',#953,#798,#799);
#724=AXIS2_PLACEMENT_3D('',#957,#802,#803);
#725=AXIS2_PLACEMENT_3D('',#961,#806,#807);
#726=AXIS2_PLACEMENT_3D('',#963,#809,#810);
#727=AXIS2_PLACEMENT_3D('',#964,#811,#812);
#728=AXIS2_PLACEMENT_3D('',#965,#813,#814);
#729=AXIS2_PLACEMENT_3D('',#966,#815,#816);
#730=AXIS2_PLACEMENT_3D('',#980,#823,#824);
#731=AXIS2_PLACEMENT_3D('',#989,#829,#830);
#732=AXIS2_PLACEMENT_3D('',#990,#831,#832);
#733=AXIS2_PLACEMENT_3D('',#991,#833,#834);
#734=AXIS2_PLACEMENT_3D('',#992,#835,#836);
#735=AXIS2_PLACEMENT_3D('',#1003,#842,#843);
#736=AXIS2_PLACEMENT_3D('',#1004,#844,#845);
#737=AXIS2_PLACEMENT_3D('',#1011,#849,#850);
#738=AXIS2_PLACEMENT_3D('',#1017,#854,#855);
#739=AXIS2_PLACEMENT_3D('',#1021,#858,#859);
#740=AXIS2_PLACEMENT_3D('',#1025,#861,#862);
#741=AXIS2_PLACEMENT_3D('',#1026,#863,#864);
#742=AXIS2_PLACEMENT_3D('',#1027,#865,#866);
#743=AXIS2_PLACEMENT_3D('',#1028,#867,#868);
#744=AXIS2_PLACEMENT_3D('',#1029,#869,#870);
#745=AXIS2_PLACEMENT_3D('',#1030,#871,#872);
#746=AXIS2_PLACEMENT_3D('',#1034,#875,#876);
#747=AXIS2_PLACEMENT_3D('',#1038,#879,#880);
#748=AXIS2_PLACEMENT_3D('',#1040,#882,#883);
#749=AXIS2_PLACEMENT_3D('',#1041,#884,#885);
#750=AXIS2_PLACEMENT_3D('',#1042,#886,#887);
#751=AXIS2_PLACEMENT_3D('',#1043,#888,#889);
#752=AXIS2_PLACEMENT_3D('',#1044,#890,#891);
#753=AXIS2_PLACEMENT_3D('',#1045,#892,#893);
#754=AXIS2_PLACEMENT_3D('',#1046,#894,#895);
#755=AXIS2_PLACEMENT_3D('',#1047,#896,#897);
#756=AXIS2_PLACEMENT_3D('',#1048,#898,#899);
#757=AXIS2_PLACEMENT_3D('',#1049,#900,#901);
#758=AXIS2_PLACEMENT_3D('',#1050,#902,#903);
#759=AXIS2_PLACEMENT_3D('',#1051,#904,#905);
#760=AXIS2_PLACEMENT_3D('',#1052,#906,#907);
#761=AXIS2_PLACEMENT_3D('',#1053,#908,#909);
#762=AXIS2_PLACEMENT_3D('',#1054,#910,#911);
#763=DIRECTION('',(0.,0.,1.));
#764=DIRECTION('',(1.,0.,0.));
#765=DIRECTION('',(0.,-1.,0.));
#766=DIRECTION('',(1.,0.,0.));
#767=DIRECTION('',(-1.,0.,1.59092800907604E-16));
#768=DIRECTION('',(0.,0.,1.));
#769=DIRECTION('',(-1.,0.,0.));
#770=DIRECTION('',(0.,0.,1.));
#771=DIRECTION('',(0.,0.,-1.));
#772=DIRECTION('',(1.,0.,0.));
#773=DIRECTION('',(0.,0.,-1.));
#774=DIRECTION('',(1.,0.,0.));
#775=DIRECTION('',(-1.59092800907604E-16,0.,-1.));
#776=DIRECTION('',(-1.,0.,1.59092800907604E-16));
#777=DIRECTION('',(-1.,0.,1.59092800907604E-16));
#778=DIRECTION('',(0.,1.,0.));
#779=DIRECTION('',(0.,1.,0.));
#780=DIRECTION('',(-1.,0.,0.));
#781=DIRECTION('',(0.,0.,1.));
#782=DIRECTION('',(0.,0.,1.));
#783=DIRECTION('',(0.,1.,0.));
#784=DIRECTION('',(0.,0.,-1.));
#785=DIRECTION('',(-1.,0.,0.));
#786=DIRECTION('',(-1.,0.,0.));
#787=DIRECTION('',(0.,1.,0.));
#788=DIRECTION('',(-1.,0.,0.));
#789=DIRECTION('',(0.,0.,1.));
#790=DIRECTION('',(0.,0.,1.));
#791=DIRECTION('',(0.,-1.,0.));
#792=DIRECTION('',(1.,0.,0.));
#793=DIRECTION('',(0.,0.,-1.));
#794=DIRECTION('',(-1.,0.,0.));
#795=DIRECTION('',(0.,-1.,0.));
#796=DIRECTION('',(1.,0.,0.));
#797=DIRECTION('',(0.,-1.,0.));
#798=DIRECTION('',(-1.,0.,0.));
#799=DIRECTION('',(0.,0.,1.));
#800=DIRECTION('',(0.,-1.,0.));
#801=DIRECTION('',(0.,0.,-1.));
#802=DIRECTION('',(0.,0.,-1.));
#803=DIRECTION('',(-1.,0.,0.));
#804=DIRECTION('',(0.,-1.,0.));
#805=DIRECTION('',(1.,0.,0.));
#806=DIRECTION('',(-1.,0.,0.));
#807=DIRECTION('',(0.,0.,1.));
#808=DIRECTION('',(0.,0.,-1.));
#809=DIRECTION('',(0.,-1.,0.));
#810=DIRECTION('',(1.,0.,0.));
#811=DIRECTION('',(0.,0.,1.));
#812=DIRECTION('',(1.,0.,0.));
#813=DIRECTION('',(-1.,0.,0.));
#814=DIRECTION('',(0.,0.,1.));
#815=DIRECTION('',(-1.,0.,0.));
#816=DIRECTION('',(0.,0.,1.));
#817=DIRECTION('',(0.,1.,0.));
#818=DIRECTION('',(0.,0.,-1.));
#819=DIRECTION('',(0.,-1.,0.));
#820=DIRECTION('',(0.,0.,1.));
#821=DIRECTION('',(0.,1.,0.));
#822=DIRECTION('',(0.,0.,1.));
#823=DIRECTION('',(0.,-1.,0.));
#824=DIRECTION('',(1.,0.,0.));
#825=DIRECTION('',(0.,0.,1.));
#826=DIRECTION('',(1.,0.,0.));
#827=DIRECTION('',(0.,0.,1.));
#828=DIRECTION('',(-1.,0.,0.));
#829=DIRECTION('',(0.,0.,1.));
#830=DIRECTION('',(1.,0.,0.));
#831=DIRECTION('',(0.,0.,1.));
#832=DIRECTION('',(1.,0.,0.));
#833=DIRECTION('',(0.,0.707106781186548,0.707106781186548));
#834=DIRECTION('',(0.,0.707106781186548,-0.707106781186548));
#835=DIRECTION('',(0.,0.,-1.));
#836=DIRECTION('',(-1.,0.,0.));
#837=DIRECTION('',(0.,1.,0.));
#838=DIRECTION('',(-1.,0.,0.));
#839=DIRECTION('',(0.,1.,0.));
#840=DIRECTION('',(0.,-1.,0.));
#841=DIRECTION('',(1.,0.,0.));
#842=DIRECTION('',(-1.,0.,0.));
#843=DIRECTION('',(0.,0.,1.));
#844=DIRECTION('',(-1.,0.,0.));
#845=DIRECTION('',(0.,0.,1.));
#846=DIRECTION('',(0.,0.,1.));
#847=DIRECTION('',(0.,1.,0.));
#848=DIRECTION('',(0.,0.,1.));
#849=DIRECTION('',(0.,0.,-1.));
#850=DIRECTION('',(-1.,0.,0.));
#851=DIRECTION('',(-1.,0.,0.));
#852=DIRECTION('',(0.,1.,0.));
#853=DIRECTION('',(-1.,0.,0.));
#854=DIRECTION('',(0.,-1.,0.));
#855=DIRECTION('',(1.,0.,0.));
#856=DIRECTION('',(-1.,0.,0.));
#857=DIRECTION('',(0.,0.,1.));
#858=DIRECTION('',(0.,0.,-1.));
#859=DIRECTION('',(-1.,0.,0.));
#860=DIRECTION('',(0.,0.,-1.));
#861=DIRECTION('',(1.,0.,0.));
#862=DIRECTION('',(0.,0.,-1.));
#863=DIRECTION('',(0.707106781186548,0.,-0.707106781186548));
#864=DIRECTION('',(0.707106781186548,0.,0.707106781186548));
#865=DIRECTION('',(0.,0.,-1.));
#866=DIRECTION('',(-1.,0.,0.));
#867=DIRECTION('',(1.,0.,0.));
#868=DIRECTION('',(0.,0.,-1.));
#869=DIRECTION('',(1.,0.,0.));
#870=DIRECTION('',(0.,0.,-1.));
#871=DIRECTION('',(1.,0.,0.));
#872=DIRECTION('',(0.,0.,-1.));
#873=DIRECTION('',(0.,-1.,0.));
#874=DIRECTION('',(0.,0.,-1.));
#875=DIRECTION('',(0.,1.,0.));
#876=DIRECTION('',(0.,0.,1.));
#877=DIRECTION('',(1.,0.,0.));
#878=DIRECTION('',(0.,0.,-1.));
#879=DIRECTION('',(0.,0.,-1.));
#880=DIRECTION('',(1.,0.,0.));
#881=DIRECTION('',(0.,-1.,0.));
#882=DIRECTION('',(0.,0.,1.));
#883=DIRECTION('',(1.,0.,0.));
#884=DIRECTION('',(0.,1.,0.));
#885=DIRECTION('',(0.,0.,1.));
#886=DIRECTION('',(0.,1.,0.));
#887=DIRECTION('',(0.,0.,1.));
#888=DIRECTION('',(0.,0.707106781186548,0.707106781186548));
#889=DIRECTION('',(0.,-0.707106781186548,0.707106781186548));
#890=DIRECTION('',(0.,-1.,0.));
#891=DIRECTION('',(0.,0.,-1.));
#892=DIRECTION('',(0.,0.707106781186548,-0.707106781186548));
#893=DIRECTION('',(0.,-0.707106781186548,-0.707106781186548));
#894=DIRECTION('',(0.,0.,1.));
#895=DIRECTION('',(1.,0.,0.));
#896=DIRECTION('',(0.,-0.707106781186548,0.707106781186548));
#897=DIRECTION('',(0.,0.707106781186548,0.707106781186548));
#898=DIRECTION('',(0.,0.,-1.));
#899=DIRECTION('',(-1.,0.,0.));
#900=DIRECTION('',(0.,0.,1.));
#901=DIRECTION('',(1.,0.,0.));
#902=DIRECTION('',(0.,1.,0.));
#903=DIRECTION('',(0.,0.,1.));
#904=DIRECTION('',(0.,-1.,0.));
#905=DIRECTION('',(0.,0.,-1.));
#906=DIRECTION('',(1.,0.,0.));
#907=DIRECTION('',(0.,0.,-1.));
#908=DIRECTION('',(-1.,0.,0.));
#909=DIRECTION('',(0.,0.,1.));
#910=DIRECTION('',(-1.,0.,0.));
#911=DIRECTION('',(0.,0.,1.));
#912=CARTESIAN_POINT('',(0.,0.,0.));
#913=CARTESIAN_POINT('',(0.,-0.0005,0.0108744474127889));
#914=CARTESIAN_POINT('',(-1.7347234759768E-18,-0.0005,0.00858601089566946));
#915=CARTESIAN_POINT('',(0.0109038464725017,-0.0005,0.00858601089566946));
#916=CARTESIAN_POINT('',(-0.0109038464725018,-0.0005,0.00858601089566946));
#917=CARTESIAN_POINT('',(0.0109038464725018,-0.0005,0.0151485111564398));
#918=CARTESIAN_POINT('',(0.0109038464725018,-0.0005,0.0217110114172101));
#919=CARTESIAN_POINT('',(1.7347234759768E-18,-0.0005,0.0217110114172101));
#920=CARTESIAN_POINT('',(-0.0109038464725018,-0.0005,0.0217110114172101));
#921=CARTESIAN_POINT('',(-0.0109038464725018,-0.0005,0.0151485111564398));
#922=CARTESIAN_POINT('',(-0.010456420481205,-0.0005,0.0157846487127245));
#923=CARTESIAN_POINT('',(-0.010456420481205,-0.0005,0.0211482308804989));
#924=CARTESIAN_POINT('',(-0.010456420481205,-0.0005,0.01042106654495));
#925=CARTESIAN_POINT('',(-4.47612255811691E-5,-0.0005,0.0211482308804989));
#926=CARTESIAN_POINT('',(0.0103668980300426,-0.0005,0.0211482308804989));
#927=CARTESIAN_POINT('',(0.0103668980300426,-0.0005,0.0157846487127245));
#928=CARTESIAN_POINT('',(0.0103668980300426,-0.0005,0.01042106654495));
#929=CARTESIAN_POINT('',(-4.47612255811691E-5,-0.0005,0.01042106654495));
#930=CARTESIAN_POINT('',(-1.7347234759768E-18,-0.0005,0.00858601089566946));
#931=CARTESIAN_POINT('',(-1.7347234759768E-18,0.,0.00858601089566946));
#932=CARTESIAN_POINT('',(0.0109038464725017,0.,0.00858601089566946));
#933=CARTESIAN_POINT('',(-0.0109038464725018,0.,0.00858601089566946));
#934=CARTESIAN_POINT('',(0.0109038464725017,-0.0005,0.00858601089566946));
#935=CARTESIAN_POINT('',(-0.0109038464725018,-0.0005,0.00858601089566946));
#936=CARTESIAN_POINT('',(0.0109038464725018,-0.0005,0.0151485111564398));
#937=CARTESIAN_POINT('',(0.0109038464725018,0.,0.0151485111564398));
#938=CARTESIAN_POINT('',(0.0109038464725018,0.,0.0217110114172101));
#939=CARTESIAN_POINT('',(0.0109038464725018,-0.0005,0.0217110114172101));
#940=CARTESIAN_POINT('',(1.7347234759768E-18,-0.0005,0.0217110114172101));
#941=CARTESIAN_POINT('',(1.7347234759768E-18,0.,0.0217110114172101));
#942=CARTESIAN_POINT('',(-0.0109038464725018,0.,0.0217110114172101));
#943=CARTESIAN_POINT('',(-0.0109038464725018,-0.0005,0.0217110114172101));
#944=CARTESIAN_POINT('',(-0.0109038464725018,-0.0005,0.0151485111564398));
#945=CARTESIAN_POINT('',(-0.0109038464725018,0.,0.0151485111564398));
#946=CARTESIAN_POINT('',(0.,0.,0.0108744474127889));
#947=CARTESIAN_POINT('',(-4.47612255811691E-5,-0.0004,0.0211482308804989));
#948=CARTESIAN_POINT('',(-0.010456420481205,-0.0004,0.0211482308804989));
#949=CARTESIAN_POINT('',(-0.010456420481205,-0.0004,0.0211482308804989));
#950=CARTESIAN_POINT('',(-4.47612255811691E-5,-0.0004,0.0211482308804989));
#951=CARTESIAN_POINT('',(0.0103668980300426,-0.0004,0.0211482308804989));
#952=CARTESIAN_POINT('',(0.0103668980300426,-0.0004,0.0211482308804989));
#953=CARTESIAN_POINT('',(-0.010456420481205,-0.0004,0.0157846487127245));
#954=CARTESIAN_POINT('',(-0.010456420481205,-0.0004,0.01042106654495));
#955=CARTESIAN_POINT('',(-0.010456420481205,-0.0004,0.01042106654495));
#956=CARTESIAN_POINT('',(-0.010456420481205,-0.0004,0.0157846487127245));
#957=CARTESIAN_POINT('',(-4.47612255811691E-5,-0.0004,0.01042106654495));
#958=CARTESIAN_POINT('',(0.0103668980300426,-0.0004,0.01042106654495));
#959=CARTESIAN_POINT('',(0.0103668980300426,-0.0004,0.01042106654495));
#960=CARTESIAN_POINT('',(-4.47612255811691E-5,-0.0004,0.01042106654495));
#961=CARTESIAN_POINT('',(0.0103668980300426,-0.0004,0.0157846487127245));
#962=CARTESIAN_POINT('',(0.0103668980300426,-0.0004,0.0157846487127245));
#963=CARTESIAN_POINT('',(-4.47612255811691E-5,-0.0004,0.0105930571444333));
#964=CARTESIAN_POINT('',(0.,0.,0.));
#965=CARTESIAN_POINT('',(-0.00231277104467154,-0.0005,0.00429514516144991));
#966=CARTESIAN_POINT('',(-0.00231277104467154,-0.0003,0.000337883408367634));
#967=CARTESIAN_POINT('',(-0.00231277104467154,-0.0003,0.000137883408367634));
#968=CARTESIAN_POINT('',(-0.00231277104467154,-0.0001,0.000337883408367634));
#969=CARTESIAN_POINT('',(-0.00231277104467154,-0.0005,0.000137883408367634));
#970=CARTESIAN_POINT('',(-0.00231277104467154,-0.00684263561502756,0.000137883408367634));
#971=CARTESIAN_POINT('',(-0.00231277104467154,-0.00684263561502756,0.000537883408367634));
#972=CARTESIAN_POINT('',(-0.00231277104467154,-0.00684263561502756,0.000437883408367634));
#973=CARTESIAN_POINT('',(-0.00231277104467154,-0.0004,0.000437883408367634));
#974=CARTESIAN_POINT('',(-0.00231277104467154,-0.0004,0.000437883408367634));
#975=CARTESIAN_POINT('',(-0.00231277104467154,-0.0004,0.00429514516144991));
#976=CARTESIAN_POINT('',(-0.00231277104467154,-0.0004,0.00845240691453219));
#977=CARTESIAN_POINT('',(-0.00231277104467154,0.,0.00845240691453219));
#978=CARTESIAN_POINT('',(-0.00231277104467154,-0.0001,0.00845240691453219));
#979=CARTESIAN_POINT('',(-0.00231277104467154,-0.0001,3.78834083676338E-5));
#980=CARTESIAN_POINT('',(0.,-0.0005,0.0108744474127889));
#981=CARTESIAN_POINT('',(-0.00221277104467153,-0.0005,0.0108744474127889));
#982=CARTESIAN_POINT('',(-0.00221277104467153,-0.0005,0.00845240691453219));
#983=CARTESIAN_POINT('',(-0.00221277104467153,-0.0005,0.000537883408367634));
#984=CARTESIAN_POINT('',(0.,-0.0005,0.000537883408367634));
#985=CARTESIAN_POINT('',(0.00221277104467153,-0.0005,0.000537883408367634));
#986=CARTESIAN_POINT('',(0.00221277104467153,-0.0005,0.00855240691453219));
#987=CARTESIAN_POINT('',(0.00221277104467153,-0.0005,0.00845240691453219));
#988=CARTESIAN_POINT('',(-0.00231277104467154,-0.0005,0.00845240691453219));
#989=CARTESIAN_POINT('',(-0.00221277104467153,-0.0004,0.00429514516144991));
#990=CARTESIAN_POINT('',(-0.00221277104467153,-0.0004,0.00845240691453219));
#991=CARTESIAN_POINT('',(-0.00221277104467153,-0.0004,0.000437883408367634));
#992=CARTESIAN_POINT('',(4.33680868994202E-19,-0.0005,3.78834083676338E-5));
#993=CARTESIAN_POINT('',(-0.00221277104467153,-0.0005,3.78834083676338E-5));
#994=CARTESIAN_POINT('',(-0.00221277104467153,-0.00694263561502756,3.78834083676338E-5));
#995=CARTESIAN_POINT('',(-0.00221277104467153,-0.0003,3.78834083676338E-5));
#996=CARTESIAN_POINT('',(0.00231277104467154,-0.0003,3.78834083676338E-5));
#997=CARTESIAN_POINT('',(0.00231277104467154,-0.0003,3.78834083676338E-5));
#998=CARTESIAN_POINT('',(0.00231277104467154,-0.0005,3.78834083676338E-5));
#999=CARTESIAN_POINT('',(0.00230927918553644,-0.0004,3.78834083676338E-5));
#1000=CARTESIAN_POINT('',(0.00230578732640135,-0.00367131780751378,3.78834083676338E-5));
#1001=CARTESIAN_POINT('',(0.00230578732640135,-0.00694263561502756,3.78834083676338E-5));
#1002=CARTESIAN_POINT('',(-3.49185913509423E-6,-0.00694263561502756,3.78834083676338E-5));
#1003=CARTESIAN_POINT('',(0.00231277104467154,-0.0005,0.00429514516144991));
#1004=CARTESIAN_POINT('',(0.00231277104467154,-0.0003,0.000337883408367634));
#1005=CARTESIAN_POINT('',(0.00231277104467154,0.,0.000337883408367634));
#1006=CARTESIAN_POINT('',(0.00231277104467154,0.,0.00429514516144991));
#1007=CARTESIAN_POINT('',(0.00231277104467154,0.,0.00855240691453219));
#1008=CARTESIAN_POINT('',(0.00231277104467154,-0.0005,0.00855240691453219));
#1009=CARTESIAN_POINT('',(0.00231277104467154,-0.0004,0.00855240691453219));
#1010=CARTESIAN_POINT('',(0.00231277104467154,-0.0004,3.78834083676338E-5));
#1011=CARTESIAN_POINT('',(4.33680868994202E-19,-0.0005,0.00855240691453219));
#1012=CARTESIAN_POINT('',(4.33680868994202E-19,0.,0.00855240691453219));
#1013=CARTESIAN_POINT('',(-0.00221277104467153,0.,0.00855240691453219));
#1014=CARTESIAN_POINT('',(-0.00221277104467153,-0.0004,0.00855240691453219));
#1015=CARTESIAN_POINT('',(-0.00221277104467153,-0.0004,0.00855240691453219));
#1016=CARTESIAN_POINT('',(0.00231277104467154,-0.0004,0.00855240691453219));
#1017=CARTESIAN_POINT('',(0.,0.,0.0108744474127889));
#1018=CARTESIAN_POINT('',(-0.00221277104467153,0.,0.000337883408367634));
#1019=CARTESIAN_POINT('',(-0.00221277104467153,0.,0.000337883408367634));
#1020=CARTESIAN_POINT('',(-0.00221277104467153,0.,0.00855240691453219));
#1021=CARTESIAN_POINT('',(0.00221277104467153,-0.0004,0.0108744474127889));
#1022=CARTESIAN_POINT('',(0.00230578732640135,-0.000436714729103731,0.0108744474127889));
#1023=CARTESIAN_POINT('',(0.00230578732640135,-0.000436714729103731,4.48671266378222E-5));
#1024=CARTESIAN_POINT('',(0.00230578732640135,-0.000436714729103731,0.000537883408367634));
#1025=CARTESIAN_POINT('',(0.00230578732640135,-0.0004,0.000137883408367634));
#1026=CARTESIAN_POINT('',(0.00221277104467153,-0.0004,0.00845240691453219));
#1027=CARTESIAN_POINT('',(0.00221277104467153,-0.0004,0.000537883408367634));
#1028=CARTESIAN_POINT('',(0.,-0.0004,0.00845240691453219));
#1029=CARTESIAN_POINT('',(-0.00221277104467153,-0.0004,0.00845240691453219));
#1030=CARTESIAN_POINT('',(0.00230578732640135,-0.00367131780751378,0.000537883408367634));
#1031=CARTESIAN_POINT('',(0.00230578732640135,-0.00367131780751378,0.000537883408367634));
#1032=CARTESIAN_POINT('',(0.00230578732640135,-0.00694263561502756,0.000537883408367634));
#1033=CARTESIAN_POINT('',(0.00230578732640135,-0.00694263561502756,0.000537883408367634));
#1034=CARTESIAN_POINT('',(-3.49185913509423E-6,-0.00694263561502756,0.000537883408367634));
#1035=CARTESIAN_POINT('',(-3.49185913509423E-6,-0.00694263561502756,0.000537883408367634));
#1036=CARTESIAN_POINT('',(-0.00221277104467153,-0.00694263561502756,0.000537883408367634));
#1037=CARTESIAN_POINT('',(-0.00221277104467153,-0.00694263561502756,3.78834083676338E-5));
#1038=CARTESIAN_POINT('',(0.,-0.00347131780751378,0.000537883408367634));
#1039=CARTESIAN_POINT('',(-0.00221277104467153,-0.00694263561502756,0.000537883408367634));
#1040=CARTESIAN_POINT('',(-0.00221277104467153,-0.0004,0.00845240691453219));
#1041=CARTESIAN_POINT('',(-0.00221277104467153,-0.0004,0.00845240691453219));
#1042=CARTESIAN_POINT('',(-0.00221277104467153,-0.00347131780751378,0.000437883408367634));
#1043=CARTESIAN_POINT('',(-0.00221277104467153,-0.00684263561502756,0.000437883408367634));
#1044=CARTESIAN_POINT('',(-0.00221277104467153,-0.0005,0.00845240691453219));
#1045=CARTESIAN_POINT('',(-0.00221277104467153,-0.0001,0.00845240691453219));
#1046=CARTESIAN_POINT('',(-0.00221277104467153,-0.00684263561502756,0.000537883408367634));
#1047=CARTESIAN_POINT('',(-0.00221277104467153,-0.00684263561502756,0.000137883408367634));
#1048=CARTESIAN_POINT('',(-0.00221277104467153,-0.0001,0.0108744474127889));
#1049=CARTESIAN_POINT('',(-0.00221277104467153,-0.0001,0.000337883408367634));
#1050=CARTESIAN_POINT('',(-0.00221277104467153,-0.0005,0.000137883408367634));
#1051=CARTESIAN_POINT('',(-0.00221277104467153,-0.0003,0.000137883408367634));
#1052=CARTESIAN_POINT('',(0.,-0.0003,0.000337883408367634));
#1053=CARTESIAN_POINT('',(-0.00221277104467153,-0.0003,0.000337883408367634));
#1054=CARTESIAN_POINT('',(-0.00221277104467153,-0.0003,0.000337883408367634));
#1055=MECHANICAL_DESIGN_GEOMETRIC_PRESENTATION_REPRESENTATION('',(#537,
#476,#477,#478,#479,#480,#481),#1057);
#1056=MECHANICAL_DESIGN_GEOMETRIC_PRESENTATION_REPRESENTATION('',(#538,
#482,#483,#484,#485,#486,#487,#488,#489,#490,#491,#492,#493,#494,#495,#496,
#497,#498,#499,#500,#501),#1058);
#1057=(
GEOMETRIC_REPRESENTATION_CONTEXT(3)
GLOBAL_UNCERTAINTY_ASSIGNED_CONTEXT((#1059))
GLOBAL_UNIT_ASSIGNED_CONTEXT((#1065,#1063,#1061))
REPRESENTATION_CONTEXT('Part 1','TOP_LEVEL_ASSEMBLY_PART')
);
#1058=(
GEOMETRIC_REPRESENTATION_CONTEXT(3)
GLOBAL_UNCERTAINTY_ASSIGNED_CONTEXT((#1060))
GLOBAL_UNIT_ASSIGNED_CONTEXT((#1066,#1064,#1062))
REPRESENTATION_CONTEXT('Part 2','TOP_LEVEL_ASSEMBLY_PART')
);
#1059=UNCERTAINTY_MEASURE_WITH_UNIT(LENGTH_MEASURE(1.E-8),#1065,
'DISTANCE_ACCURACY_VALUE','Maximum Tolerance applied to model');
#1060=UNCERTAINTY_MEASURE_WITH_UNIT(LENGTH_MEASURE(2.69837182701889E-5),
#1066,'DISTANCE_ACCURACY_VALUE','Maximum Tolerance applied to model');
#1061=(
NAMED_UNIT(*)
SI_UNIT($,.STERADIAN.)
SOLID_ANGLE_UNIT()
);
#1062=(
NAMED_UNIT(*)
SI_UNIT($,.STERADIAN.)
SOLID_ANGLE_UNIT()
);
#1063=(
NAMED_UNIT(*)
PLANE_ANGLE_UNIT()
SI_UNIT($,.RADIAN.)
);
#1064=(
NAMED_UNIT(*)
PLANE_ANGLE_UNIT()
SI_UNIT($,.RADIAN.)
);
#1065=(
LENGTH_UNIT()
NAMED_UNIT(*)
SI_UNIT($,.METRE.)
);
#1066=(
LENGTH_UNIT()
NAMED_UNIT(*)
SI_UNIT($,.METRE.)
);
#1067=PRODUCT_DEFINITION_SHAPE('','',#1069);
#1068=PRODUCT_DEFINITION_SHAPE('','',#1070);
#1069=PRODUCT_DEFINITION('','',#1073,#1071);
#1070=PRODUCT_DEFINITION('','',#1074,#1072);
#1071=PRODUCT_DEFINITION_CONTEXT('',#1085,'design');
#1072=PRODUCT_DEFINITION_CONTEXT('',#1086,'design');
#1073=PRODUCT_DEFINITION_FORMATION_WITH_SPECIFIED_SOURCE('','',#1077,
 .NOT_KNOWN.);
#1074=PRODUCT_DEFINITION_FORMATION_WITH_SPECIFIED_SOURCE('','',#1078,
 .NOT_KNOWN.);
#1075=PRODUCT_RELATED_PRODUCT_CATEGORY('','',(#1077));
#1076=PRODUCT_RELATED_PRODUCT_CATEGORY('','',(#1078));
#1077=PRODUCT('Part 1','Part 1','Part 1',(#1081));
#1078=PRODUCT('Part 2','Part 2','Part 2',(#1082));
#1079=PRODUCT_CATEGORY('','');
#1080=PRODUCT_CATEGORY('','');
#1081=PRODUCT_CONTEXT('',#1085,'mechanical');
#1082=PRODUCT_CONTEXT('',#1086,'mechanical');
#1083=APPLICATION_PROTOCOL_DEFINITION('international standard',
'ap242_managed_model_based_3d_engineering',2020,#1085);
#1084=APPLICATION_PROTOCOL_DEFINITION('international standard',
'ap242_managed_model_based_3d_engineering',2020,#1086);
#1085=APPLICATION_CONTEXT('managed model based 3d engineering');
#1086=APPLICATION_CONTEXT('managed model based 3d engineering');
ENDSEC;
END-ISO-10303-21;
