ISO-10303-21;
HEADER;
/* Generated by software containing ST-Developer
 * from STEP Tools, Inc. (www.steptools.com) 
 */
/* OPTION: using custom renumber hook */

FILE_DESCRIPTION(
/* description */ ('STEP AP242 Edition 2',
'CAx-IF Rec.Pracs.---Representation and Presentation of Product Manufa
cturing Information (PMI)---4.0---2014-10-13',
'CAx-IF Rec.Pracs.---3D Tessellated Geometry---0.4---2014-09-14','2;1',
'CAx-IF Rec.Pracs.---User Defined Attributes---1.5---2016-08-15'),
/* implementation_level */ '2;1');

FILE_NAME(
/* name */ 'Part Studio 1 Copy 1',
/* time_stamp */ '2026-09-06T10:33:01Z',
/* author */ (''),
/* organization */ (''),
/* preprocessor_version */ 'ST-DEVELOPER v20',
/* originating_system */ 'ONSHAPE BY PTC INC, 1.220',
/* authorisation */ '  ');

FILE_SCHEMA (('AP242_MANAGED_MODEL_BASED_3D_ENGINEERING_MIM_LF { 1 0 10303 442 3 1 4 }'));
ENDSEC;

DATA;
#10=SHAPE_REPRESENTATION_RELATIONSHIP('','',#557,#12);
#11=SHAPE_REPRESENTATION_RELATIONSHIP('','',#558,#13);
#12=ADVANCED_BREP_SHAPE_REPRESENTATION('',(#553),#827);
#13=ADVANCED_BREP_SHAPE_REPRESENTATION('',(#554),#828);
#14=OVER_RIDING_STYLED_ITEM('',(#443),#419,#440);
#15=OVER_RIDING_STYLED_ITEM('',(#445),#420,#441);
#16=OVER_RIDING_STYLED_ITEM('',(#446),#421,#441);
#17=OVER_RIDING_STYLED_ITEM('',(#447),#422,#441);
#18=OVER_RIDING_STYLED_ITEM('',(#448),#423,#441);
#19=OVER_RIDING_STYLED_ITEM('',(#449),#424,#441);
#20=OVER_RIDING_STYLED_ITEM('',(#450),#425,#441);
#21=OVER_RIDING_STYLED_ITEM('',(#451),#426,#441);
#22=OVER_RIDING_STYLED_ITEM('',(#452),#427,#441);
#23=OVER_RIDING_STYLED_ITEM('',(#453),#431,#441);
#24=OVER_RIDING_STYLED_ITEM('',(#454),#432,#441);
#25=OVER_RIDING_STYLED_ITEM('',(#455),#433,#441);
#26=OVER_RIDING_STYLED_ITEM('',(#456),#434,#441);
#27=OVER_RIDING_STYLED_ITEM('',(#457),#435,#441);
#28=OVER_RIDING_STYLED_ITEM('',(#458),#436,#441);
#29=OVER_RIDING_STYLED_ITEM('',(#459),#437,#441);
#30=CIRCLE('',#562,0.0696983541614607);
#31=CIRCLE('',#563,0.0696983541614607);
#32=CIRCLE('',#568,0.07);
#33=CIRCLE('',#569,0.07);
#34=CIRCLE('',#580,0.07);
#35=CIRCLE('',#581,0.07);
#36=CIRCLE('',#585,0.07);
#37=CIRCLE('',#589,0.07);
#38=CYLINDRICAL_SURFACE('',#561,0.0696983541614607);
#39=CYLINDRICAL_SURFACE('',#584,0.07);
#40=CYLINDRICAL_SURFACE('',#588,0.07);
#41=ORIENTED_EDGE('',*,*,#157,.T.);
#42=ORIENTED_EDGE('',*,*,#158,.F.);
#43=ORIENTED_EDGE('',*,*,#159,.F.);
#44=ORIENTED_EDGE('',*,*,#160,.T.);
#45=ORIENTED_EDGE('',*,*,#161,.T.);
#46=ORIENTED_EDGE('',*,*,#160,.F.);
#47=ORIENTED_EDGE('',*,*,#162,.F.);
#48=ORIENTED_EDGE('',*,*,#158,.T.);
#49=ORIENTED_EDGE('',*,*,#159,.T.);
#50=ORIENTED_EDGE('',*,*,#162,.T.);
#51=ORIENTED_EDGE('',*,*,#157,.F.);
#52=ORIENTED_EDGE('',*,*,#161,.F.);
#53=ORIENTED_EDGE('',*,*,#163,.F.);
#54=ORIENTED_EDGE('',*,*,#164,.T.);
#55=ORIENTED_EDGE('',*,*,#165,.T.);
#56=ORIENTED_EDGE('',*,*,#166,.F.);
#57=ORIENTED_EDGE('',*,*,#167,.T.);
#58=ORIENTED_EDGE('',*,*,#168,.F.);
#59=ORIENTED_EDGE('',*,*,#169,.F.);
#60=ORIENTED_EDGE('',*,*,#170,.F.);
#61=ORIENTED_EDGE('',*,*,#171,.T.);
#62=ORIENTED_EDGE('',*,*,#172,.T.);
#63=ORIENTED_EDGE('',*,*,#173,.T.);
#64=ORIENTED_EDGE('',*,*,#174,.F.);
#65=ORIENTED_EDGE('',*,*,#175,.T.);
#66=ORIENTED_EDGE('',*,*,#176,.T.);
#67=ORIENTED_EDGE('',*,*,#177,.F.);
#68=ORIENTED_EDGE('',*,*,#178,.T.);
#69=ORIENTED_EDGE('',*,*,#179,.F.);
#70=ORIENTED_EDGE('',*,*,#167,.F.);
#71=ORIENTED_EDGE('',*,*,#180,.F.);
#72=ORIENTED_EDGE('',*,*,#181,.F.);
#73=ORIENTED_EDGE('',*,*,#182,.F.);
#74=ORIENTED_EDGE('',*,*,#183,.F.);
#75=ORIENTED_EDGE('',*,*,#184,.F.);
#76=ORIENTED_EDGE('',*,*,#183,.T.);
#77=ORIENTED_EDGE('',*,*,#185,.T.);
#78=ORIENTED_EDGE('',*,*,#186,.F.);
#79=ORIENTED_EDGE('',*,*,#176,.F.);
#80=ORIENTED_EDGE('',*,*,#187,.T.);
#81=ORIENTED_EDGE('',*,*,#188,.T.);
#82=ORIENTED_EDGE('',*,*,#189,.F.);
#83=ORIENTED_EDGE('',*,*,#190,.F.);
#84=ORIENTED_EDGE('',*,*,#191,.F.);
#85=ORIENTED_EDGE('',*,*,#192,.T.);
#86=ORIENTED_EDGE('',*,*,#173,.F.);
#87=ORIENTED_EDGE('',*,*,#193,.F.);
#88=ORIENTED_EDGE('',*,*,#186,.T.);
#89=ORIENTED_EDGE('',*,*,#194,.T.);
#90=ORIENTED_EDGE('',*,*,#195,.T.);
#91=ORIENTED_EDGE('',*,*,#163,.T.);
#92=ORIENTED_EDGE('',*,*,#196,.F.);
#93=ORIENTED_EDGE('',*,*,#197,.T.);
#94=ORIENTED_EDGE('',*,*,#188,.F.);
#95=ORIENTED_EDGE('',*,*,#198,.F.);
#96=ORIENTED_EDGE('',*,*,#199,.T.);
#97=ORIENTED_EDGE('',*,*,#174,.T.);
#98=ORIENTED_EDGE('',*,*,#192,.F.);
#99=ORIENTED_EDGE('',*,*,#199,.F.);
#100=ORIENTED_EDGE('',*,*,#200,.T.);
#101=ORIENTED_EDGE('',*,*,#201,.T.);
#102=ORIENTED_EDGE('',*,*,#171,.F.);
#103=ORIENTED_EDGE('',*,*,#184,.T.);
#104=ORIENTED_EDGE('',*,*,#193,.T.);
#105=ORIENTED_EDGE('',*,*,#187,.F.);
#106=ORIENTED_EDGE('',*,*,#175,.F.);
#107=ORIENTED_EDGE('',*,*,#191,.T.);
#108=ORIENTED_EDGE('',*,*,#202,.T.);
#109=ORIENTED_EDGE('',*,*,#200,.F.);
#110=ORIENTED_EDGE('',*,*,#198,.T.);
#111=ORIENTED_EDGE('',*,*,#190,.T.);
#112=ORIENTED_EDGE('',*,*,#172,.F.);
#113=ORIENTED_EDGE('',*,*,#201,.F.);
#114=ORIENTED_EDGE('',*,*,#202,.F.);
#115=ORIENTED_EDGE('',*,*,#203,.T.);
#116=ORIENTED_EDGE('',*,*,#180,.T.);
#117=ORIENTED_EDGE('',*,*,#204,.F.);
#118=ORIENTED_EDGE('',*,*,#179,.T.);
#119=ORIENTED_EDGE('',*,*,#164,.F.);
#120=ORIENTED_EDGE('',*,*,#195,.F.);
#121=ORIENTED_EDGE('',*,*,#205,.T.);
#122=ORIENTED_EDGE('',*,*,#206,.T.);
#123=ORIENTED_EDGE('',*,*,#165,.F.);
#124=ORIENTED_EDGE('',*,*,#206,.F.);
#125=ORIENTED_EDGE('',*,*,#207,.T.);
#126=ORIENTED_EDGE('',*,*,#208,.T.);
#127=ORIENTED_EDGE('',*,*,#168,.T.);
#128=ORIENTED_EDGE('',*,*,#204,.T.);
#129=ORIENTED_EDGE('',*,*,#166,.T.);
#130=ORIENTED_EDGE('',*,*,#208,.F.);
#131=ORIENTED_EDGE('',*,*,#209,.F.);
#132=ORIENTED_EDGE('',*,*,#210,.T.);
#133=ORIENTED_EDGE('',*,*,#169,.T.);
#134=ORIENTED_EDGE('',*,*,#210,.F.);
#135=ORIENTED_EDGE('',*,*,#211,.F.);
#136=ORIENTED_EDGE('',*,*,#212,.T.);
#137=ORIENTED_EDGE('',*,*,#170,.T.);
#138=ORIENTED_EDGE('',*,*,#212,.F.);
#139=ORIENTED_EDGE('',*,*,#213,.F.);
#140=ORIENTED_EDGE('',*,*,#196,.T.);
#141=ORIENTED_EDGE('',*,*,#203,.F.);
#142=ORIENTED_EDGE('',*,*,#178,.F.);
#143=ORIENTED_EDGE('',*,*,#214,.T.);
#144=ORIENTED_EDGE('',*,*,#181,.T.);
#145=ORIENTED_EDGE('',*,*,#205,.F.);
#146=ORIENTED_EDGE('',*,*,#194,.F.);
#147=ORIENTED_EDGE('',*,*,#185,.F.);
#148=ORIENTED_EDGE('',*,*,#182,.T.);
#149=ORIENTED_EDGE('',*,*,#214,.F.);
#150=ORIENTED_EDGE('',*,*,#177,.T.);
#151=ORIENTED_EDGE('',*,*,#189,.T.);
#152=ORIENTED_EDGE('',*,*,#197,.F.);
#153=ORIENTED_EDGE('',*,*,#213,.T.);
#154=ORIENTED_EDGE('',*,*,#211,.T.);
#155=ORIENTED_EDGE('',*,*,#209,.T.);
#156=ORIENTED_EDGE('',*,*,#207,.F.);
#157=EDGE_CURVE('',#215,#216,#253,.T.);
#158=EDGE_CURVE('',#217,#216,#254,.T.);
#159=EDGE_CURVE('',#218,#217,#255,.T.);
#160=EDGE_CURVE('',#218,#215,#256,.T.);
#161=EDGE_CURVE('',#216,#215,#30,.T.);
#162=EDGE_CURVE('',#217,#218,#31,.T.);
#163=EDGE_CURVE('',#219,#220,#257,.T.);
#164=EDGE_CURVE('',#219,#221,#258,.T.);
#165=EDGE_CURVE('',#221,#222,#259,.T.);
#166=EDGE_CURVE('',#223,#222,#32,.T.);
#167=EDGE_CURVE('',#223,#224,#260,.T.);
#168=EDGE_CURVE('',#225,#224,#33,.T.);
#169=EDGE_CURVE('',#226,#225,#261,.T.);
#170=EDGE_CURVE('',#220,#226,#262,.T.);
#171=EDGE_CURVE('',#227,#228,#263,.T.);
#172=EDGE_CURVE('',#228,#229,#264,.T.);
#173=EDGE_CURVE('',#229,#230,#265,.T.);
#174=EDGE_CURVE('',#231,#230,#266,.T.);
#175=EDGE_CURVE('',#231,#232,#267,.T.);
#176=EDGE_CURVE('',#232,#233,#268,.T.);
#177=EDGE_CURVE('',#234,#233,#269,.T.);
#178=EDGE_CURVE('',#234,#235,#270,.T.);
#179=EDGE_CURVE('',#224,#235,#271,.T.);
#180=EDGE_CURVE('',#236,#223,#272,.T.);
#181=EDGE_CURVE('',#237,#236,#273,.T.);
#182=EDGE_CURVE('',#238,#237,#274,.T.);
#183=EDGE_CURVE('',#227,#238,#275,.T.);
#184=EDGE_CURVE('',#227,#239,#276,.T.);
#185=EDGE_CURVE('',#238,#240,#277,.T.);
#186=EDGE_CURVE('',#239,#240,#278,.T.);
#187=EDGE_CURVE('',#232,#241,#279,.T.);
#188=EDGE_CURVE('',#241,#242,#280,.T.);
#189=EDGE_CURVE('',#233,#242,#281,.T.);
#190=EDGE_CURVE('',#243,#229,#282,.T.);
#191=EDGE_CURVE('',#244,#243,#283,.T.);
#192=EDGE_CURVE('',#244,#230,#284,.T.);
#193=EDGE_CURVE('',#239,#241,#285,.T.);
#194=EDGE_CURVE('',#240,#245,#286,.T.);
#195=EDGE_CURVE('',#245,#219,#287,.T.);
#196=EDGE_CURVE('',#246,#220,#288,.T.);
#197=EDGE_CURVE('',#246,#242,#289,.T.);
#198=EDGE_CURVE('',#247,#244,#290,.T.);
#199=EDGE_CURVE('',#247,#231,#291,.T.);
#200=EDGE_CURVE('',#247,#248,#292,.T.);
#201=EDGE_CURVE('',#248,#228,#293,.T.);
#202=EDGE_CURVE('',#243,#248,#294,.T.);
#203=EDGE_CURVE('',#235,#236,#34,.T.);
#204=EDGE_CURVE('',#224,#223,#35,.T.);
#205=EDGE_CURVE('',#245,#249,#295,.T.);
#206=EDGE_CURVE('',#249,#221,#296,.T.);
#207=EDGE_CURVE('',#249,#250,#297,.T.);
#208=EDGE_CURVE('',#250,#222,#298,.T.);
#209=EDGE_CURVE('',#251,#250,#36,.T.);
#210=EDGE_CURVE('',#251,#225,#299,.T.);
#211=EDGE_CURVE('',#252,#251,#300,.T.);
#212=EDGE_CURVE('',#252,#226,#301,.T.);
#213=EDGE_CURVE('',#246,#252,#302,.T.);
#214=EDGE_CURVE('',#234,#237,#37,.T.);
#215=VERTEX_POINT('',#708);
#216=VERTEX_POINT('',#709);
#217=VERTEX_POINT('',#711);
#218=VERTEX_POINT('',#713);
#219=VERTEX_POINT('',#723);
#220=VERTEX_POINT('',#724);
#221=VERTEX_POINT('',#726);
#222=VERTEX_POINT('',#728);
#223=VERTEX_POINT('',#730);
#224=VERTEX_POINT('',#732);
#225=VERTEX_POINT('',#734);
#226=VERTEX_POINT('',#736);
#227=VERTEX_POINT('',#740);
#228=VERTEX_POINT('',#741);
#229=VERTEX_POINT('',#743);
#230=VERTEX_POINT('',#745);
#231=VERTEX_POINT('',#747);
#232=VERTEX_POINT('',#749);
#233=VERTEX_POINT('',#751);
#234=VERTEX_POINT('',#753);
#235=VERTEX_POINT('',#755);
#236=VERTEX_POINT('',#758);
#237=VERTEX_POINT('',#760);
#238=VERTEX_POINT('',#762);
#239=VERTEX_POINT('',#766);
#240=VERTEX_POINT('',#768);
#241=VERTEX_POINT('',#772);
#242=VERTEX_POINT('',#774);
#243=VERTEX_POINT('',#778);
#244=VERTEX_POINT('',#780);
#245=VERTEX_POINT('',#785);
#246=VERTEX_POINT('',#788);
#247=VERTEX_POINT('',#792);
#248=VERTEX_POINT('',#796);
#249=VERTEX_POINT('',#806);
#250=VERTEX_POINT('',#810);
#251=VERTEX_POINT('',#814);
#252=VERTEX_POINT('',#818);
#253=LINE('',#707,#303);
#254=LINE('',#710,#304);
#255=LINE('',#712,#305);
#256=LINE('',#714,#306);
#257=LINE('',#722,#307);
#258=LINE('',#725,#308);
#259=LINE('',#727,#309);
#260=LINE('',#731,#310);
#261=LINE('',#735,#311);
#262=LINE('',#737,#312);
#263=LINE('',#739,#313);
#264=LINE('',#742,#314);
#265=LINE('',#744,#315);
#266=LINE('',#746,#316);
#267=LINE('',#748,#317);
#268=LINE('',#750,#318);
#269=LINE('',#752,#319);
#270=LINE('',#754,#320);
#271=LINE('',#756,#321);
#272=LINE('',#757,#322);
#273=LINE('',#759,#323);
#274=LINE('',#761,#324);
#275=LINE('',#763,#325);
#276=LINE('',#765,#326);
#277=LINE('',#767,#327);
#278=LINE('',#769,#328);
#279=LINE('',#771,#329);
#280=LINE('',#773,#330);
#281=LINE('',#775,#331);
#282=LINE('',#777,#332);
#283=LINE('',#779,#333);
#284=LINE('',#781,#334);
#285=LINE('',#783,#335);
#286=LINE('',#784,#336);
#287=LINE('',#786,#337);
#288=LINE('',#787,#338);
#289=LINE('',#789,#339);
#290=LINE('',#791,#340);
#291=LINE('',#793,#341);
#292=LINE('',#795,#342);
#293=LINE('',#797,#343);
#294=LINE('',#799,#344);
#295=LINE('',#805,#345);
#296=LINE('',#807,#346);
#297=LINE('',#809,#347);
#298=LINE('',#811,#348);
#299=LINE('',#815,#349);
#300=LINE('',#817,#350);
#301=LINE('',#819,#351);
#302=LINE('',#821,#352);
#303=VECTOR('',#595,1.);
#304=VECTOR('',#596,1.);
#305=VECTOR('',#597,1.);
#306=VECTOR('',#598,1.);
#307=VECTOR('',#613,1.);
#308=VECTOR('',#614,1.);
#309=VECTOR('',#615,1.);
#310=VECTOR('',#618,1.);
#311=VECTOR('',#621,1.);
#312=VECTOR('',#622,1.);
#313=VECTOR('',#625,1.);
#314=VECTOR('',#626,1.);
#315=VECTOR('',#627,1.);
#316=VECTOR('',#628,1.);
#317=VECTOR('',#629,1.);
#318=VECTOR('',#630,1.);
#319=VECTOR('',#631,1.);
#320=VECTOR('',#632,1.);
#321=VECTOR('',#633,1.);
#322=VECTOR('',#634,1.);
#323=VECTOR('',#635,1.);
#324=VECTOR('',#636,1.);
#325=VECTOR('',#637,1.);
#326=VECTOR('',#640,1.);
#327=VECTOR('',#641,1.);
#328=VECTOR('',#642,1.);
#329=VECTOR('',#645,1.);
#330=VECTOR('',#646,1.);
#331=VECTOR('',#647,1.);
#332=VECTOR('',#650,1.);
#333=VECTOR('',#651,1.);
#334=VECTOR('',#652,1.);
#335=VECTOR('',#655,1.);
#336=VECTOR('',#656,1.);
#337=VECTOR('',#657,1.);
#338=VECTOR('',#658,1.);
#339=VECTOR('',#659,1.);
#340=VECTOR('',#662,1.);
#341=VECTOR('',#663,1.);
#342=VECTOR('',#666,1.);
#343=VECTOR('',#667,1.);
#344=VECTOR('',#670,1.);
#345=VECTOR('',#681,1.);
#346=VECTOR('',#682,1.);
#347=VECTOR('',#685,1.);
#348=VECTOR('',#686,1.);
#349=VECTOR('',#691,1.);
#350=VECTOR('',#694,1.);
#351=VECTOR('',#695,1.);
#352=VECTOR('',#698,1.);
#353=EDGE_LOOP('',(#41,#42,#43,#44));
#354=EDGE_LOOP('',(#45,#46,#47,#48));
#355=EDGE_LOOP('',(#49,#50));
#356=EDGE_LOOP('',(#51,#52));
#357=EDGE_LOOP('',(#53,#54,#55,#56,#57,#58,#59,#60));
#358=EDGE_LOOP('',(#61,#62,#63,#64,#65,#66,#67,#68,#69,#70,#71,#72,#73,
#74));
#359=EDGE_LOOP('',(#75,#76,#77,#78));
#360=EDGE_LOOP('',(#79,#80,#81,#82));
#361=EDGE_LOOP('',(#83,#84,#85,#86));
#362=EDGE_LOOP('',(#87,#88,#89,#90,#91,#92,#93,#94));
#363=EDGE_LOOP('',(#95,#96,#97,#98));
#364=EDGE_LOOP('',(#99,#100,#101,#102,#103,#104,#105,#106));
#365=EDGE_LOOP('',(#107,#108,#109,#110));
#366=EDGE_LOOP('',(#111,#112,#113,#114));
#367=EDGE_LOOP('',(#115,#116,#117,#118));
#368=EDGE_LOOP('',(#119,#120,#121,#122));
#369=EDGE_LOOP('',(#123,#124,#125,#126));
#370=EDGE_LOOP('',(#127,#128,#129,#130,#131,#132));
#371=EDGE_LOOP('',(#133,#134,#135,#136));
#372=EDGE_LOOP('',(#137,#138,#139,#140));
#373=EDGE_LOOP('',(#141,#142,#143,#144));
#374=EDGE_LOOP('',(#145,#146,#147,#148,#149,#150,#151,#152,#153,#154,#155,
#156));
#375=FACE_BOUND('',#353,.T.);
#376=FACE_BOUND('',#354,.T.);
#377=FACE_BOUND('',#355,.T.);
#378=FACE_BOUND('',#356,.T.);
#379=FACE_BOUND('',#357,.T.);
#380=FACE_BOUND('',#358,.T.);
#381=FACE_BOUND('',#359,.T.);
#382=FACE_BOUND('',#360,.T.);
#383=FACE_BOUND('',#361,.T.);
#384=FACE_BOUND('',#362,.T.);
#385=FACE_BOUND('',#363,.T.);
#386=FACE_BOUND('',#364,.T.);
#387=FACE_BOUND('',#365,.T.);
#388=FACE_BOUND('',#366,.T.);
#389=FACE_BOUND('',#367,.T.);
#390=FACE_BOUND('',#368,.T.);
#391=FACE_BOUND('',#369,.T.);
#392=FACE_BOUND('',#370,.T.);
#393=FACE_BOUND('',#371,.T.);
#394=FACE_BOUND('',#372,.T.);
#395=FACE_BOUND('',#373,.T.);
#396=FACE_BOUND('',#374,.T.);
#397=PLANE('',#560);
#398=PLANE('',#564);
#399=PLANE('',#565);
#400=PLANE('',#567);
#401=PLANE('',#570);
#402=PLANE('',#571);
#403=PLANE('',#572);
#404=PLANE('',#573);
#405=PLANE('',#574);
#406=PLANE('',#575);
#407=PLANE('',#576);
#408=PLANE('',#577);
#409=PLANE('',#578);
#410=PLANE('',#579);
#411=PLANE('',#582);
#412=PLANE('',#583);
#413=PLANE('',#586);
#414=PLANE('',#587);
#415=PLANE('',#590);
#416=ADVANCED_FACE('',(#375),#397,.F.);
#417=ADVANCED_FACE('',(#376),#38,.T.);
#418=ADVANCED_FACE('',(#377),#398,.T.);
#419=ADVANCED_FACE('Face appearance 7',(#378),#399,.F.);
#420=ADVANCED_FACE('Face appearance 1',(#379),#400,.F.);
#421=ADVANCED_FACE('Face appearance 7',(#380),#401,.T.);
#422=ADVANCED_FACE('Face appearance 7',(#381),#402,.F.);
#423=ADVANCED_FACE('Face appearance 7',(#382),#403,.T.);
#424=ADVANCED_FACE('Face appearance 1',(#383),#404,.T.);
#425=ADVANCED_FACE('Face appearance 1',(#384),#405,.F.);
#426=ADVANCED_FACE('Face appearance 6',(#385),#406,.T.);
#427=ADVANCED_FACE('Face appearance 6',(#386),#407,.T.);
#428=ADVANCED_FACE('',(#387),#408,.F.);
#429=ADVANCED_FACE('',(#388),#409,.F.);
#430=ADVANCED_FACE('',(#389),#410,.T.);
#431=ADVANCED_FACE('Face appearance 4',(#390),#411,.T.);
#432=ADVANCED_FACE('Face appearance 4',(#391),#412,.T.);
#433=ADVANCED_FACE('Face appearance 3',(#392),#39,.F.);
#434=ADVANCED_FACE('Face appearance 4',(#393),#413,.F.);
#435=ADVANCED_FACE('Face appearance 4',(#394),#414,.F.);
#436=ADVANCED_FACE('Face appearance 7',(#395),#40,.T.);
#437=ADVANCED_FACE('Face appearance 7',(#396),#415,.F.);
#438=CLOSED_SHELL('',(#416,#417,#418,#419));
#439=CLOSED_SHELL('',(#420,#421,#422,#423,#424,#425,#426,#427,#428,#429,
#430,#431,#432,#433,#434,#435,#436,#437));
#440=STYLED_ITEM('',(#442),#553);
#441=STYLED_ITEM('',(#444),#554);
#442=PRESENTATION_STYLE_ASSIGNMENT((#460));
#443=PRESENTATION_STYLE_ASSIGNMENT((#461));
#444=PRESENTATION_STYLE_ASSIGNMENT((#462));
#445=PRESENTATION_STYLE_ASSIGNMENT((#463));
#446=PRESENTATION_STYLE_ASSIGNMENT((#464));
#447=PRESENTATION_STYLE_ASSIGNMENT((#465));
#448=PRESENTATION_STYLE_ASSIGNMENT((#466));
#449=PRESENTATION_STYLE_ASSIGNMENT((#467));
#450=PRESENTATION_STYLE_ASSIGNMENT((#468));
#451=PRESENTATION_STYLE_ASSIGNMENT((#469));
#452=PRESENTATION_STYLE_ASSIGNMENT((#470));
#453=PRESENTATION_STYLE_ASSIGNMENT((#471));
#454=PRESENTATION_STYLE_ASSIGNMENT((#472));
#455=PRESENTATION_STYLE_ASSIGNMENT((#473));
#456=PRESENTATION_STYLE_ASSIGNMENT((#474));
#457=PRESENTATION_STYLE_ASSIGNMENT((#475));
#458=PRESENTATION_STYLE_ASSIGNMENT((#476));
#459=PRESENTATION_STYLE_ASSIGNMENT((#477));
#460=SURFACE_STYLE_USAGE(.BOTH.,#478);
#461=SURFACE_STYLE_USAGE(.BOTH.,#479);
#462=SURFACE_STYLE_USAGE(.BOTH.,#480);
#463=SURFACE_STYLE_USAGE(.BOTH.,#481);
#464=SURFACE_STYLE_USAGE(.BOTH.,#482);
#465=SURFACE_STYLE_USAGE(.BOTH.,#483);
#466=SURFACE_STYLE_USAGE(.BOTH.,#484);
#467=SURFACE_STYLE_USAGE(.BOTH.,#485);
#468=SURFACE_STYLE_USAGE(.BOTH.,#486);
#469=SURFACE_STYLE_USAGE(.BOTH.,#487);
#470=SURFACE_STYLE_USAGE(.BOTH.,#488);
#471=SURFACE_STYLE_USAGE(.BOTH.,#489);
#472=SURFACE_STYLE_USAGE(.BOTH.,#490);
#473=SURFACE_STYLE_USAGE(.BOTH.,#491);
#474=SURFACE_STYLE_USAGE(.BOTH.,#492);
#475=SURFACE_STYLE_USAGE(.BOTH.,#493);
#476=SURFACE_STYLE_USAGE(.BOTH.,#494);
#477=SURFACE_STYLE_USAGE(.BOTH.,#495);
#478=SURFACE_SIDE_STYLE('',(#496));
#479=SURFACE_SIDE_STYLE('',(#497));
#480=SURFACE_SIDE_STYLE('',(#498));
#481=SURFACE_SIDE_STYLE('',(#499));
#482=SURFACE_SIDE_STYLE('',(#500));
#483=SURFACE_SIDE_STYLE('',(#501));
#484=SURFACE_SIDE_STYLE('',(#502));
#485=SURFACE_SIDE_STYLE('',(#503));
#486=SURFACE_SIDE_STYLE('',(#504));
#487=SURFACE_SIDE_STYLE('',(#505));
#488=SURFACE_SIDE_STYLE('',(#506));
#489=SURFACE_SIDE_STYLE('',(#507));
#490=SURFACE_SIDE_STYLE('',(#508));
#491=SURFACE_SIDE_STYLE('',(#509));
#492=SURFACE_SIDE_STYLE('',(#510));
#493=SURFACE_SIDE_STYLE('',(#511));
#494=SURFACE_SIDE_STYLE('',(#512));
#495=SURFACE_SIDE_STYLE('',(#513));
#496=SURFACE_STYLE_FILL_AREA(#514);
#497=SURFACE_STYLE_FILL_AREA(#515);
#498=SURFACE_STYLE_FILL_AREA(#516);
#499=SURFACE_STYLE_FILL_AREA(#517);
#500=SURFACE_STYLE_FILL_AREA(#518);
#501=SURFACE_STYLE_FILL_AREA(#519);
#502=SURFACE_STYLE_FILL_AREA(#520);
#503=SURFACE_STYLE_FILL_AREA(#521);
#504=SURFACE_STYLE_FILL_AREA(#522);
#505=SURFACE_STYLE_FILL_AREA(#523);
#506=SURFACE_STYLE_FILL_AREA(#524);
#507=SURFACE_STYLE_FILL_AREA(#525);
#508=SURFACE_STYLE_FILL_AREA(#526);
#509=SURFACE_STYLE_FILL_AREA(#527);
#510=SURFACE_STYLE_FILL_AREA(#528);
#511=SURFACE_STYLE_FILL_AREA(#529);
#512=SURFACE_STYLE_FILL_AREA(#530);
#513=SURFACE_STYLE_FILL_AREA(#531);
#514=FILL_AREA_STYLE('',(#532));
#515=FILL_AREA_STYLE('',(#533));
#516=FILL_AREA_STYLE('',(#534));
#517=FILL_AREA_STYLE('',(#535));
#518=FILL_AREA_STYLE('',(#536));
#519=FILL_AREA_STYLE('',(#537));
#520=FILL_AREA_STYLE('',(#538));
#521=FILL_AREA_STYLE('',(#539));
#522=FILL_AREA_STYLE('',(#540));
#523=FILL_AREA_STYLE('',(#541));
#524=FILL_AREA_STYLE('',(#542));
#525=FILL_AREA_STYLE('',(#543));
#526=FILL_AREA_STYLE('',(#544));
#527=FILL_AREA_STYLE('',(#545));
#528=FILL_AREA_STYLE('',(#546));
#529=FILL_AREA_STYLE('',(#547));
#530=FILL_AREA_STYLE('',(#548));
#531=FILL_AREA_STYLE('',(#549));
#532=FILL_AREA_STYLE_COLOUR('',#550);
#533=FILL_AREA_STYLE_COLOUR('',#551);
#534=FILL_AREA_STYLE_COLOUR('',#552);
#535=FILL_AREA_STYLE_COLOUR('',#550);
#536=FILL_AREA_STYLE_COLOUR('',#551);
#537=FILL_AREA_STYLE_COLOUR('',#551);
#538=FILL_AREA_STYLE_COLOUR('',#551);
#539=FILL_AREA_STYLE_COLOUR('',#550);
#540=FILL_AREA_STYLE_COLOUR('',#550);
#541=FILL_AREA_STYLE_COLOUR('',#550);
#542=FILL_AREA_STYLE_COLOUR('',#550);
#543=FILL_AREA_STYLE_COLOUR('',#550);
#544=FILL_AREA_STYLE_COLOUR('',#550);
#545=FILL_AREA_STYLE_COLOUR('',#550);
#546=FILL_AREA_STYLE_COLOUR('',#550);
#547=FILL_AREA_STYLE_COLOUR('',#550);
#548=FILL_AREA_STYLE_COLOUR('',#551);
#549=FILL_AREA_STYLE_COLOUR('',#551);
#550=COLOUR_RGB('',0.172549019607843,0.223529411764706,0.286274509803921);
#551=COLOUR_RGB('',0.376470588235294,0.450980392156863,0.545098039215686);
#552=COLOUR_RGB('',0.615686274509804,0.811764705882353,0.929411764705882);
#553=MANIFOLD_SOLID_BREP('Part 2',#438);
#554=MANIFOLD_SOLID_BREP('Part 1',#439);
#555=SHAPE_DEFINITION_REPRESENTATION(#837,#557);
#556=SHAPE_DEFINITION_REPRESENTATION(#838,#558);
#557=SHAPE_REPRESENTATION('Part 2',(#559),#827);
#558=SHAPE_REPRESENTATION('Part 1',(#566),#828);
#559=AXIS2_PLACEMENT_3D('',#705,#591,#592);
#560=AXIS2_PLACEMENT_3D('',#706,#593,#594);
#561=AXIS2_PLACEMENT_3D('',#715,#599,#600);
#562=AXIS2_PLACEMENT_3D('',#716,#601,#602);
#563=AXIS2_PLACEMENT_3D('',#717,#603,#604);
#564=AXIS2_PLACEMENT_3D('',#718,#605,#606);
#565=AXIS2_PLACEMENT_3D('',#719,#607,#608);
#566=AXIS2_PLACEMENT_3D('',#720,#609,#610);
#567=AXIS2_PLACEMENT_3D('',#721,#611,#612);
#568=AXIS2_PLACEMENT_3D('',#729,#616,#617);
#569=AXIS2_PLACEMENT_3D('',#733,#619,#620);
#570=AXIS2_PLACEMENT_3D('',#738,#623,#624);
#571=AXIS2_PLACEMENT_3D('',#764,#638,#639);
#572=AXIS2_PLACEMENT_3D('',#770,#643,#644);
#573=AXIS2_PLACEMENT_3D('',#776,#648,#649);
#574=AXIS2_PLACEMENT_3D('',#782,#653,#654);
#575=AXIS2_PLACEMENT_3D('',#790,#660,#661);
#576=AXIS2_PLACEMENT_3D('',#794,#664,#665);
#577=AXIS2_PLACEMENT_3D('',#798,#668,#669);
#578=AXIS2_PLACEMENT_3D('',#800,#671,#672);
#579=AXIS2_PLACEMENT_3D('',#801,#673,#674);
#580=AXIS2_PLACEMENT_3D('',#802,#675,#676);
#581=AXIS2_PLACEMENT_3D('',#803,#677,#678);
#582=AXIS2_PLACEMENT_3D('',#804,#679,#680);
#583=AXIS2_PLACEMENT_3D('',#808,#683,#684);
#584=AXIS2_PLACEMENT_3D('',#812,#687,#688);
#585=AXIS2_PLACEMENT_3D('',#813,#689,#690);
#586=AXIS2_PLACEMENT_3D('',#816,#692,#693);
#587=AXIS2_PLACEMENT_3D('',#820,#696,#697);
#588=AXIS2_PLACEMENT_3D('',#822,#699,#700);
#589=AXIS2_PLACEMENT_3D('',#823,#701,#702);
#590=AXIS2_PLACEMENT_3D('',#824,#703,#704);
#591=DIRECTION('',(0.,0.,1.));
#592=DIRECTION('',(1.,0.,0.));
#593=DIRECTION('',(9.91270557701033E-17,0.,-1.));
#594=DIRECTION('',(-1.,0.,-9.91270557701033E-17));
#595=DIRECTION('',(-1.,0.,-9.91270557701033E-17));
#596=DIRECTION('',(0.,1.,0.));
#597=DIRECTION('',(-1.,0.,-9.91270557701033E-17));
#598=DIRECTION('',(0.,1.,0.));
#599=DIRECTION('',(0.,1.,0.));
#600=DIRECTION('',(0.,0.,1.));
#601=DIRECTION('',(0.,-1.,0.));
#602=DIRECTION('',(0.,0.,-1.));
#603=DIRECTION('',(0.,-1.,0.));
#604=DIRECTION('',(0.,0.,-1.));
#605=DIRECTION('',(0.,-1.,0.));
#606=DIRECTION('',(1.,0.,0.));
#607=DIRECTION('',(0.,-1.,0.));
#608=DIRECTION('',(1.,0.,0.));
#609=DIRECTION('',(0.,0.,1.));
#610=DIRECTION('',(1.,0.,0.));
#611=DIRECTION('',(0.,-1.,0.));
#612=DIRECTION('',(1.,0.,0.));
#613=DIRECTION('',(-1.,0.,-1.98254111540206E-16));
#614=DIRECTION('',(3.02788097625043E-16,0.,-1.));
#615=DIRECTION('',(-1.,0.,0.));
#616=DIRECTION('',(0.,-1.,0.));
#617=DIRECTION('',(0.,0.,-1.));
#618=DIRECTION('',(-1.,0.,-9.91270557701033E-17));
#619=DIRECTION('',(0.,-1.,0.));
#620=DIRECTION('',(0.,0.,-1.));
#621=DIRECTION('',(1.,0.,0.));
#622=DIRECTION('',(0.,0.,-1.));
#623=DIRECTION('',(9.91270557701033E-17,0.,-1.));
#624=DIRECTION('',(-1.,0.,-9.91270557701033E-17));
#625=DIRECTION('',(-1.,0.,-9.91270557701033E-17));
#626=DIRECTION('',(0.,-1.,0.));
#627=DIRECTION('',(-1.,0.,-9.91270557701033E-17));
#628=DIRECTION('',(0.,-1.,0.));
#629=DIRECTION('',(-1.,0.,-9.91270557701033E-17));
#630=DIRECTION('',(0.,1.,0.));
#631=DIRECTION('',(-1.,0.,-9.91270557701033E-17));
#632=DIRECTION('',(0.,-1.,0.));
#633=DIRECTION('',(-1.,0.,-9.91270557701033E-17));
#634=DIRECTION('',(-1.,0.,-9.91270557701033E-17));
#635=DIRECTION('',(0.,-1.,0.));
#636=DIRECTION('',(-1.,0.,-9.91270557701033E-17));
#637=DIRECTION('',(0.,1.,0.));
#638=DIRECTION('',(-1.,0.,0.));
#639=DIRECTION('',(0.,0.,1.));
#640=DIRECTION('',(0.,0.,1.));
#641=DIRECTION('',(0.,0.,1.));
#642=DIRECTION('',(0.,1.,0.));
#643=DIRECTION('',(-1.,0.,0.));
#644=DIRECTION('',(0.,0.,1.));
#645=DIRECTION('',(0.,0.,1.));
#646=DIRECTION('',(0.,1.,0.));
#647=DIRECTION('',(0.,0.,1.));
#648=DIRECTION('',(0.,-1.,0.));
#649=DIRECTION('',(1.,0.,0.));
#650=DIRECTION('',(1.98254111540206E-16,0.,-1.));
#651=DIRECTION('',(1.,0.,0.));
#652=DIRECTION('',(0.,0.,-1.));
#653=DIRECTION('',(1.98254111540206E-16,0.,-1.));
#654=DIRECTION('',(-1.,0.,-1.98254111540206E-16));
#655=DIRECTION('',(-1.,0.,-1.98254111540206E-16));
#656=DIRECTION('',(-1.,0.,-1.98254111540206E-16));
#657=DIRECTION('',(0.,-1.,0.));
#658=DIRECTION('',(0.,-1.,0.));
#659=DIRECTION('',(-1.,0.,-1.98254111540206E-16));
#660=DIRECTION('',(-1.,0.,0.));
#661=DIRECTION('',(0.,0.,1.));
#662=DIRECTION('',(0.,-1.,0.));
#663=DIRECTION('',(0.,0.,-1.));
#664=DIRECTION('',(0.,-1.,0.));
#665=DIRECTION('',(1.,0.,0.));
#666=DIRECTION('',(1.,0.,0.));
#667=DIRECTION('',(1.98254111540206E-16,0.,-1.));
#668=DIRECTION('',(0.,0.,-1.));
#669=DIRECTION('',(-1.,0.,0.));
#670=DIRECTION('',(0.,1.,0.));
#671=DIRECTION('',(-1.,0.,-1.98254111540206E-16));
#672=DIRECTION('',(-1.98254111540206E-16,0.,1.));
#673=DIRECTION('',(0.,-1.,0.));
#674=DIRECTION('',(1.,0.,0.));
#675=DIRECTION('',(0.,-1.,0.));
#676=DIRECTION('',(0.,0.,-1.));
#677=DIRECTION('',(0.,-1.,0.));
#678=DIRECTION('',(0.,0.,-1.));
#679=DIRECTION('',(-1.,0.,-3.02788097625043E-16));
#680=DIRECTION('',(-3.02788097625043E-16,0.,1.));
#681=DIRECTION('',(3.02788097625043E-16,0.,-1.));
#682=DIRECTION('',(0.,-1.,0.));
#683=DIRECTION('',(0.,0.,1.));
#684=DIRECTION('',(1.,0.,0.));
#685=DIRECTION('',(-1.,0.,0.));
#686=DIRECTION('',(0.,-1.,0.));
#687=DIRECTION('',(0.,-1.,0.));
#688=DIRECTION('',(0.,0.,-1.));
#689=DIRECTION('',(0.,-1.,0.));
#690=DIRECTION('',(0.,0.,-1.));
#691=DIRECTION('',(0.,-1.,0.));
#692=DIRECTION('',(0.,0.,-1.));
#693=DIRECTION('',(-1.,0.,0.));
#694=DIRECTION('',(1.,0.,0.));
#695=DIRECTION('',(0.,-1.,0.));
#696=DIRECTION('',(-1.,0.,0.));
#697=DIRECTION('',(0.,0.,1.));
#698=DIRECTION('',(0.,0.,-1.));
#699=DIRECTION('',(0.,-1.,0.));
#700=DIRECTION('',(0.,0.,-1.));
#701=DIRECTION('',(0.,-1.,0.));
#702=DIRECTION('',(0.,0.,-1.));
#703=DIRECTION('',(0.,-1.,0.));
#704=DIRECTION('',(1.,0.,0.));
#705=CARTESIAN_POINT('',(0.,0.,0.));
#706=CARTESIAN_POINT('',(0.,-0.0025,-0.07));
#707=CARTESIAN_POINT('',(0.,0.,-0.07));
#708=CARTESIAN_POINT('',(0.055598477824696,0.,-0.07));
#709=CARTESIAN_POINT('',(-0.0556773178187281,0.,-0.07));
#710=CARTESIAN_POINT('',(-0.0556773178187281,-0.0025,-0.07));
#711=CARTESIAN_POINT('',(-0.0556773178187281,-0.0025,-0.07));
#712=CARTESIAN_POINT('',(0.,-0.0025,-0.07));
#713=CARTESIAN_POINT('',(0.055598477824696,-0.0025,-0.07));
#714=CARTESIAN_POINT('',(0.055598477824696,-0.0025,-0.07));
#715=CARTESIAN_POINT('',(-3.94199970161005E-5,-0.0025,-0.0280204228368468));
#716=CARTESIAN_POINT('',(-3.94199970161005E-5,0.,-0.0280204228368468));
#717=CARTESIAN_POINT('',(-3.94199970161005E-5,-0.0025,-0.0280204228368468));
#718=CARTESIAN_POINT('',(0.,-0.0025,-0.0138593884991537));
#719=CARTESIAN_POINT('',(0.,0.,-0.0138593884991537));
#720=CARTESIAN_POINT('',(0.,0.,0.));
#721=CARTESIAN_POINT('',(0.,0.,0.));
#722=CARTESIAN_POINT('',(0.,0.,0.07));
#723=CARTESIAN_POINT('',(0.0674211600059677,0.,0.07));
#724=CARTESIAN_POINT('',(-0.0675,0.,0.07));
#725=CARTESIAN_POINT('',(0.0674211600059677,0.,0.00125000000000001));
#726=CARTESIAN_POINT('',(0.0674211600059678,0.,-0.0675));
#727=CARTESIAN_POINT('',(0.0624211600059678,0.,-0.0675));
#728=CARTESIAN_POINT('',(0.0574211600059678,0.,-0.0675));
#729=CARTESIAN_POINT('',(-3.9419997016104E-5,0.,-0.0275214839479916));
#730=CARTESIAN_POINT('',(0.055598477824696,0.,-0.07));
#731=CARTESIAN_POINT('',(0.,0.,-0.07));
#732=CARTESIAN_POINT('',(-0.0556773178187282,0.,-0.07));
#733=CARTESIAN_POINT('',(-3.9419997016104E-5,0.,-0.0275214839479916));
#734=CARTESIAN_POINT('',(-0.0575,0.,-0.0675));
#735=CARTESIAN_POINT('',(-0.0625,0.,-0.0675));
#736=CARTESIAN_POINT('',(-0.0675,0.,-0.0675));
#737=CARTESIAN_POINT('',(-0.0675,0.,0.00125));
#738=CARTESIAN_POINT('',(0.,-0.0025,-0.07));
#739=CARTESIAN_POINT('',(0.,-0.001,-0.07));
#740=CARTESIAN_POINT('',(0.07,-0.001,-0.07));
#741=CARTESIAN_POINT('',(0.0675,-0.001,-0.07));
#742=CARTESIAN_POINT('',(0.0675,-0.001,-0.07));
#743=CARTESIAN_POINT('',(0.0675,-0.0025,-0.07));
#744=CARTESIAN_POINT('',(0.,-0.0025,-0.07));
#745=CARTESIAN_POINT('',(-0.0675,-0.0025,-0.07));
#746=CARTESIAN_POINT('',(-0.0675,-0.001,-0.07));
#747=CARTESIAN_POINT('',(-0.0675,-0.001,-0.07));
#748=CARTESIAN_POINT('',(0.,-0.001,-0.07));
#749=CARTESIAN_POINT('',(-0.07,-0.001,-0.07));
#750=CARTESIAN_POINT('',(-0.07,-0.0025,-0.07));
#751=CARTESIAN_POINT('',(-0.07,0.03,-0.07));
#752=CARTESIAN_POINT('',(0.,0.03,-0.07));
#753=CARTESIAN_POINT('',(-0.0575,0.03,-0.07));
#754=CARTESIAN_POINT('',(-0.0575,0.03,-0.07));
#755=CARTESIAN_POINT('',(-0.0575,0.,-0.07));
#756=CARTESIAN_POINT('',(0.,0.,-0.07));
#757=CARTESIAN_POINT('',(0.,0.,-0.07));
#758=CARTESIAN_POINT('',(0.0574211600059678,0.,-0.07));
#759=CARTESIAN_POINT('',(0.0574211600059678,0.03,-0.07));
#760=CARTESIAN_POINT('',(0.0574211600059678,0.03,-0.07));
#761=CARTESIAN_POINT('',(0.,0.03,-0.07));
#762=CARTESIAN_POINT('',(0.07,0.03,-0.07));
#763=CARTESIAN_POINT('',(0.07,-0.0025,-0.07));
#764=CARTESIAN_POINT('',(0.07,-0.0025,1.38777878078145E-17));
#765=CARTESIAN_POINT('',(0.07,-0.001,1.38777878078145E-17));
#766=CARTESIAN_POINT('',(0.07,-0.001,0.07));
#767=CARTESIAN_POINT('',(0.07,0.03,1.38777878078145E-17));
#768=CARTESIAN_POINT('',(0.07,0.03,0.07));
#769=CARTESIAN_POINT('',(0.07,-0.0025,0.07));
#770=CARTESIAN_POINT('',(-0.07,-0.0025,0.));
#771=CARTESIAN_POINT('',(-0.07,-0.001,0.));
#772=CARTESIAN_POINT('',(-0.07,-0.001,0.07));
#773=CARTESIAN_POINT('',(-0.07,-0.0025,0.07));
#774=CARTESIAN_POINT('',(-0.07,0.03,0.07));
#775=CARTESIAN_POINT('',(-0.07,0.03,0.));
#776=CARTESIAN_POINT('',(0.,-0.0025,0.));
#777=CARTESIAN_POINT('',(0.0675,-0.0025,0.));
#778=CARTESIAN_POINT('',(0.0675,-0.0025,0.0675));
#779=CARTESIAN_POINT('',(0.,-0.0025,0.0675));
#780=CARTESIAN_POINT('',(-0.0675,-0.0025,0.0675));
#781=CARTESIAN_POINT('',(-0.0675,-0.0025,0.));
#782=CARTESIAN_POINT('',(0.,-0.0025,0.07));
#783=CARTESIAN_POINT('',(0.,-0.001,0.07));
#784=CARTESIAN_POINT('',(0.,0.03,0.07));
#785=CARTESIAN_POINT('',(0.0674211600059677,0.03,0.07));
#786=CARTESIAN_POINT('',(0.0674211600059677,0.03,0.07));
#787=CARTESIAN_POINT('',(-0.0675,0.03,0.07));
#788=CARTESIAN_POINT('',(-0.0675,0.03,0.07));
#789=CARTESIAN_POINT('',(0.,0.03,0.07));
#790=CARTESIAN_POINT('',(-0.0675,-0.001,0.));
#791=CARTESIAN_POINT('',(-0.0675,-0.001,0.0675));
#792=CARTESIAN_POINT('',(-0.0675,-0.001,0.0675));
#793=CARTESIAN_POINT('',(-0.0675,-0.001,0.));
#794=CARTESIAN_POINT('',(0.,-0.001,0.));
#795=CARTESIAN_POINT('',(0.,-0.001,0.0675));
#796=CARTESIAN_POINT('',(0.0675,-0.001,0.0675));
#797=CARTESIAN_POINT('',(0.0675,-0.001,0.));
#798=CARTESIAN_POINT('',(0.,-0.001,0.0675));
#799=CARTESIAN_POINT('',(0.0675,-0.001,0.0675));
#800=CARTESIAN_POINT('',(0.0675,-0.001,0.));
#801=CARTESIAN_POINT('',(0.,0.,-0.0150107419739958));
#802=CARTESIAN_POINT('',(-3.94199970161352E-5,0.,-0.0300214839479916));
#803=CARTESIAN_POINT('',(-3.9419997016104E-5,0.,-0.0275214839479916));
#804=CARTESIAN_POINT('',(0.0674211600059677,0.03,0.00125000000000001));
#805=CARTESIAN_POINT('',(0.0674211600059677,0.03,0.00125000000000001));
#806=CARTESIAN_POINT('',(0.0674211600059678,0.03,-0.0675));
#807=CARTESIAN_POINT('',(0.0674211600059678,0.03,-0.0675));
#808=CARTESIAN_POINT('',(0.0624211600059678,0.03,-0.0675));
#809=CARTESIAN_POINT('',(0.0624211600059678,0.03,-0.0675));
#810=CARTESIAN_POINT('',(0.0574211600059678,0.03,-0.0675));
#811=CARTESIAN_POINT('',(0.0574211600059678,0.03,-0.0675));
#812=CARTESIAN_POINT('',(-3.9419997016104E-5,0.03,-0.0275214839479916));
#813=CARTESIAN_POINT('',(-3.9419997016104E-5,0.03,-0.0275214839479916));
#814=CARTESIAN_POINT('',(-0.0575,0.03,-0.0675));
#815=CARTESIAN_POINT('',(-0.0575,0.03,-0.0675));
#816=CARTESIAN_POINT('',(-0.0625,0.03,-0.0675));
#817=CARTESIAN_POINT('',(-0.0625,0.03,-0.0675));
#818=CARTESIAN_POINT('',(-0.0675,0.03,-0.0675));
#819=CARTESIAN_POINT('',(-0.0675,0.03,-0.0675));
#820=CARTESIAN_POINT('',(-0.0675,0.03,0.00125));
#821=CARTESIAN_POINT('',(-0.0675,0.03,0.00125));
#822=CARTESIAN_POINT('',(-3.94199970161352E-5,0.03,-0.0300214839479916));
#823=CARTESIAN_POINT('',(-3.94199970161352E-5,0.03,-0.0300214839479916));
#824=CARTESIAN_POINT('',(0.,0.03,-0.0150107419739958));
#825=MECHANICAL_DESIGN_GEOMETRIC_PRESENTATION_REPRESENTATION('',(#440,#14),
#827);
#826=MECHANICAL_DESIGN_GEOMETRIC_PRESENTATION_REPRESENTATION('',(#441,#15,
#16,#17,#18,#19,#20,#21,#22,#23,#24,#25,#26,#27,#28,#29),#828);
#827=(
GEOMETRIC_REPRESENTATION_CONTEXT(3)
GLOBAL_UNCERTAINTY_ASSIGNED_CONTEXT((#829))
GLOBAL_UNIT_ASSIGNED_CONTEXT((#835,#833,#831))
REPRESENTATION_CONTEXT('Part 2','TOP_LEVEL_ASSEMBLY_PART')
);
#828=(
GEOMETRIC_REPRESENTATION_CONTEXT(3)
GLOBAL_UNCERTAINTY_ASSIGNED_CONTEXT((#830))
GLOBAL_UNIT_ASSIGNED_CONTEXT((#836,#834,#832))
REPRESENTATION_CONTEXT('Part 1','TOP_LEVEL_ASSEMBLY_PART')
);
#829=UNCERTAINTY_MEASURE_WITH_UNIT(LENGTH_MEASURE(1.E-8),#835,
'DISTANCE_ACCURACY_VALUE','Maximum Tolerance applied to model');
#830=UNCERTAINTY_MEASURE_WITH_UNIT(LENGTH_MEASURE(1.E-8),#836,
'DISTANCE_ACCURACY_VALUE','Maximum Tolerance applied to model');
#831=(
NAMED_UNIT(*)
SI_UNIT($,.STERADIAN.)
SOLID_ANGLE_UNIT()
);
#832=(
NAMED_UNIT(*)
SI_UNIT($,.STERADIAN.)
SOLID_ANGLE_UNIT()
);
#833=(
NAMED_UNIT(*)
PLANE_ANGLE_UNIT()
SI_UNIT($,.RADIAN.)
);
#834=(
NAMED_UNIT(*)
PLANE_ANGLE_UNIT()
SI_UNIT($,.RADIAN.)
);
#835=(
LENGTH_UNIT()
NAMED_UNIT(*)
SI_UNIT($,.METRE.)
);
#836=(
LENGTH_UNIT()
NAMED_UNIT(*)
SI_UNIT($,.METRE.)
);
#837=PRODUCT_DEFINITION_SHAPE('','',#839);
#838=PRODUCT_DEFINITION_SHAPE('','',#840);
#839=PRODUCT_DEFINITION('','',#843,#841);
#840=PRODUCT_DEFINITION('','',#844,#842);
#841=PRODUCT_DEFINITION_CONTEXT('',#855,'design');
#842=PRODUCT_DEFINITION_CONTEXT('',#856,'design');
#843=PRODUCT_DEFINITION_FORMATION_WITH_SPECIFIED_SOURCE('','',#847,
 .NOT_KNOWN.);
#844=PRODUCT_DEFINITION_FORMATION_WITH_SPECIFIED_SOURCE('','',#848,
 .NOT_KNOWN.);
#845=PRODUCT_RELATED_PRODUCT_CATEGORY('','',(#847));
#846=PRODUCT_RELATED_PRODUCT_CATEGORY('','',(#848));
#847=PRODUCT('Part 2','Part 2','Part 2',(#851));
#848=PRODUCT('Part 1','Part 1','Part 1',(#852));
#849=PRODUCT_CATEGORY('','');
#850=PRODUCT_CATEGORY('','');
#851=PRODUCT_CONTEXT('',#855,'mechanical');
#852=PRODUCT_CONTEXT('',#856,'mechanical');
#853=APPLICATION_PROTOCOL_DEFINITION('international standard',
'ap242_managed_model_based_3d_engineering',2020,#855);
#854=APPLICATION_PROTOCOL_DEFINITION('international standard',
'ap242_managed_model_based_3d_engineering',2020,#856);
#855=APPLICATION_CONTEXT('managed model based 3d engineering');
#856=APPLICATION_CONTEXT('managed model based 3d engineering');
ENDSEC;
END-ISO-10303-21;
