ISO-10303-21;
HEADER;
/* Generated by software containing ST-Developer
 * from STEP Tools, Inc. (www.steptools.com) 
 */
/* OPTION: using custom renumber hook */

FILE_DESCRIPTION(
/* description */ ('STEP AP242 Edition 2',
'CAx-IF Rec.Pracs.---Representation and Presentation of Product Manufa
cturing Information (PMI)---4.0---2014-10-13',
'CAx-IF Rec.Pracs.---3D Tessellated Geometry---0.4---2014-09-14','2;1',
'CAx-IF Rec.Pracs.---User Defined Attributes---1.5---2016-08-15'),
/* implementation_level */ '2;1');

FILE_NAME(
/* name */ 'Part Studio 15',
/* time_stamp */ '2026-09-06T10:36:18Z',
/* author */ (''),
/* organization */ (''),
/* preprocessor_version */ 'ST-DEVELOPER v20',
/* originating_system */ 'ONSHAPE BY PTC INC, 1.220',
/* authorisation */ '  ');

FILE_SCHEMA (('AP242_MANAGED_MODEL_BASED_3D_ENGINEERING_MIM_LF { 1 0 10303 442 3 1 4 }'));
ENDSEC;

DATA;
#10=SHAPE_REPRESENTATION_RELATIONSHIP('','',#496,#11);
#11=ADVANCED_BREP_SHAPE_REPRESENTATION('',(#494),#754);
#12=SPHERICAL_SURFACE('',#529,0.003);
#13=SPHERICAL_SURFACE('',#531,0.003);
#14=SPHERICAL_SURFACE('',#533,0.003);
#15=SPHERICAL_SURFACE('',#541,0.003);
#16=ELLIPSE('',#522,0.00424264068711928,0.003);
#17=ELLIPSE('',#540,0.00424264068711928,0.003);
#18=CYLINDRICAL_SURFACE('',#508,0.003);
#19=CYLINDRICAL_SURFACE('',#510,0.003);
#20=CYLINDRICAL_SURFACE('',#512,0.003);
#21=CYLINDRICAL_SURFACE('',#514,0.003);
#22=CYLINDRICAL_SURFACE('',#518,0.003);
#23=CYLINDRICAL_SURFACE('',#521,0.003);
#24=CYLINDRICAL_SURFACE('',#524,0.003);
#25=CYLINDRICAL_SURFACE('',#526,0.003);
#26=CYLINDRICAL_SURFACE('',#535,0.003);
#27=CYLINDRICAL_SURFACE('',#537,0.003);
#28=CYLINDRICAL_SURFACE('',#539,0.003);
#29=CYLINDRICAL_SURFACE('',#543,0.003);
#30=LINE('',#669,#51);
#31=LINE('',#672,#52);
#32=LINE('',#674,#53);
#33=LINE('',#676,#54);
#34=LINE('',#678,#55);
#35=LINE('',#681,#56);
#36=LINE('',#683,#57);
#37=LINE('',#685,#58);
#38=LINE('',#687,#59);
#39=LINE('',#690,#60);
#40=LINE('',#692,#61);
#41=LINE('',#694,#62);
#42=LINE('',#698,#63);
#43=LINE('',#700,#64);
#44=LINE('',#704,#65);
#45=LINE('',#706,#66);
#46=LINE('',#710,#67);
#47=LINE('',#714,#68);
#48=LINE('',#721,#69);
#49=LINE('',#724,#70);
#50=LINE('',#726,#71);
#51=VECTOR('',#556,1.);
#52=VECTOR('',#557,1.);
#53=VECTOR('',#558,1.);
#54=VECTOR('',#559,1.);
#55=VECTOR('',#562,1.);
#56=VECTOR('',#563,1.);
#57=VECTOR('',#564,1.);
#58=VECTOR('',#565,1.);
#59=VECTOR('',#568,1.);
#60=VECTOR('',#569,1.);
#61=VECTOR('',#570,1.);
#62=VECTOR('',#571,1.);
#63=VECTOR('',#576,1.);
#64=VECTOR('',#577,1.);
#65=VECTOR('',#582,1.);
#66=VECTOR('',#583,1.);
#67=VECTOR('',#588,1.);
#68=VECTOR('',#593,1.);
#69=VECTOR('',#604,1.);
#70=VECTOR('',#605,1.);
#71=VECTOR('',#606,1.);
#72=ORIENTED_EDGE('',*,*,#162,.F.);
#73=ORIENTED_EDGE('',*,*,#163,.F.);
#74=ORIENTED_EDGE('',*,*,#164,.F.);
#75=ORIENTED_EDGE('',*,*,#165,.F.);
#76=ORIENTED_EDGE('',*,*,#166,.T.);
#77=ORIENTED_EDGE('',*,*,#167,.T.);
#78=ORIENTED_EDGE('',*,*,#168,.F.);
#79=ORIENTED_EDGE('',*,*,#169,.T.);
#80=ORIENTED_EDGE('',*,*,#170,.T.);
#81=ORIENTED_EDGE('',*,*,#171,.T.);
#82=ORIENTED_EDGE('',*,*,#172,.T.);
#83=ORIENTED_EDGE('',*,*,#173,.T.);
#84=ORIENTED_EDGE('',*,*,#174,.T.);
#85=ORIENTED_EDGE('',*,*,#175,.T.);
#86=ORIENTED_EDGE('',*,*,#176,.T.);
#87=ORIENTED_EDGE('',*,*,#177,.T.);
#88=ORIENTED_EDGE('',*,*,#168,.T.);
#89=ORIENTED_EDGE('',*,*,#178,.T.);
#90=ORIENTED_EDGE('',*,*,#179,.T.);
#91=ORIENTED_EDGE('',*,*,#180,.T.);
#92=ORIENTED_EDGE('',*,*,#181,.T.);
#93=ORIENTED_EDGE('',*,*,#182,.F.);
#94=ORIENTED_EDGE('',*,*,#162,.T.);
#95=ORIENTED_EDGE('',*,*,#183,.F.);
#96=ORIENTED_EDGE('',*,*,#184,.F.);
#97=ORIENTED_EDGE('',*,*,#183,.T.);
#98=ORIENTED_EDGE('',*,*,#165,.T.);
#99=ORIENTED_EDGE('',*,*,#185,.F.);
#100=ORIENTED_EDGE('',*,*,#186,.F.);
#101=ORIENTED_EDGE('',*,*,#187,.F.);
#102=ORIENTED_EDGE('',*,*,#163,.T.);
#103=ORIENTED_EDGE('',*,*,#182,.T.);
#104=ORIENTED_EDGE('',*,*,#188,.F.);
#105=ORIENTED_EDGE('',*,*,#185,.T.);
#106=ORIENTED_EDGE('',*,*,#164,.T.);
#107=ORIENTED_EDGE('',*,*,#187,.T.);
#108=ORIENTED_EDGE('',*,*,#189,.F.);
#109=ORIENTED_EDGE('',*,*,#186,.T.);
#110=ORIENTED_EDGE('',*,*,#189,.T.);
#111=ORIENTED_EDGE('',*,*,#188,.T.);
#112=ORIENTED_EDGE('',*,*,#184,.T.);
#113=ORIENTED_EDGE('',*,*,#190,.T.);
#114=ORIENTED_EDGE('',*,*,#191,.T.);
#115=ORIENTED_EDGE('',*,*,#192,.T.);
#116=ORIENTED_EDGE('',*,*,#193,.F.);
#117=ORIENTED_EDGE('',*,*,#177,.F.);
#118=ORIENTED_EDGE('',*,*,#194,.F.);
#119=ORIENTED_EDGE('',*,*,#191,.F.);
#120=ORIENTED_EDGE('',*,*,#169,.F.);
#121=ORIENTED_EDGE('',*,*,#181,.F.);
#122=ORIENTED_EDGE('',*,*,#195,.F.);
#123=ORIENTED_EDGE('',*,*,#174,.F.);
#124=ORIENTED_EDGE('',*,*,#196,.F.);
#125=ORIENTED_EDGE('',*,*,#195,.T.);
#126=ORIENTED_EDGE('',*,*,#180,.F.);
#127=ORIENTED_EDGE('',*,*,#197,.F.);
#128=ORIENTED_EDGE('',*,*,#175,.F.);
#129=ORIENTED_EDGE('',*,*,#198,.F.);
#130=ORIENTED_EDGE('',*,*,#176,.F.);
#131=ORIENTED_EDGE('',*,*,#199,.F.);
#132=ORIENTED_EDGE('',*,*,#172,.F.);
#133=ORIENTED_EDGE('',*,*,#194,.T.);
#134=ORIENTED_EDGE('',*,*,#198,.T.);
#135=ORIENTED_EDGE('',*,*,#200,.F.);
#136=ORIENTED_EDGE('',*,*,#196,.T.);
#137=ORIENTED_EDGE('',*,*,#193,.T.);
#138=ORIENTED_EDGE('',*,*,#201,.F.);
#139=ORIENTED_EDGE('',*,*,#199,.T.);
#140=ORIENTED_EDGE('',*,*,#197,.T.);
#141=ORIENTED_EDGE('',*,*,#202,.F.);
#142=ORIENTED_EDGE('',*,*,#200,.T.);
#143=ORIENTED_EDGE('',*,*,#171,.F.);
#144=ORIENTED_EDGE('',*,*,#203,.F.);
#145=ORIENTED_EDGE('',*,*,#192,.F.);
#146=ORIENTED_EDGE('',*,*,#201,.T.);
#147=ORIENTED_EDGE('',*,*,#190,.F.);
#148=ORIENTED_EDGE('',*,*,#204,.F.);
#149=ORIENTED_EDGE('',*,*,#166,.F.);
#150=ORIENTED_EDGE('',*,*,#202,.T.);
#151=ORIENTED_EDGE('',*,*,#179,.F.);
#152=ORIENTED_EDGE('',*,*,#205,.F.);
#153=ORIENTED_EDGE('',*,*,#173,.F.);
#154=ORIENTED_EDGE('',*,*,#204,.T.);
#155=ORIENTED_EDGE('',*,*,#203,.T.);
#156=ORIENTED_EDGE('',*,*,#206,.F.);
#157=ORIENTED_EDGE('',*,*,#178,.F.);
#158=ORIENTED_EDGE('',*,*,#167,.F.);
#159=ORIENTED_EDGE('',*,*,#206,.T.);
#160=ORIENTED_EDGE('',*,*,#170,.F.);
#161=ORIENTED_EDGE('',*,*,#205,.T.);
#162=EDGE_CURVE('',#207,#208,#233,.F.);
#163=EDGE_CURVE('',#209,#207,#234,.F.);
#164=EDGE_CURVE('',#210,#209,#235,.F.);
#165=EDGE_CURVE('',#208,#210,#236,.F.);
#166=EDGE_CURVE('',#211,#212,#30,.T.);
#167=EDGE_CURVE('',#212,#213,#31,.F.);
#168=EDGE_CURVE('',#214,#213,#32,.T.);
#169=EDGE_CURVE('',#214,#211,#33,.T.);
#170=EDGE_CURVE('',#215,#216,#34,.T.);
#171=EDGE_CURVE('',#216,#217,#35,.T.);
#172=EDGE_CURVE('',#217,#218,#36,.F.);
#173=EDGE_CURVE('',#218,#215,#37,.F.);
#174=EDGE_CURVE('',#219,#220,#38,.F.);
#175=EDGE_CURVE('',#220,#221,#39,.F.);
#176=EDGE_CURVE('',#221,#222,#40,.T.);
#177=EDGE_CURVE('',#222,#219,#41,.T.);
#178=EDGE_CURVE('',#213,#223,#237,.T.);
#179=EDGE_CURVE('',#223,#224,#42,.T.);
#180=EDGE_CURVE('',#224,#225,#43,.T.);
#181=EDGE_CURVE('',#225,#214,#238,.T.);
#182=EDGE_CURVE('',#207,#226,#44,.T.);
#183=EDGE_CURVE('',#227,#208,#45,.F.);
#184=EDGE_CURVE('',#226,#227,#239,.T.);
#185=EDGE_CURVE('',#228,#210,#46,.T.);
#186=EDGE_CURVE('',#227,#228,#240,.T.);
#187=EDGE_CURVE('',#209,#229,#47,.F.);
#188=EDGE_CURVE('',#229,#226,#241,.T.);
#189=EDGE_CURVE('',#228,#229,#242,.T.);
#190=EDGE_CURVE('',#230,#231,#48,.F.);
#191=EDGE_CURVE('',#231,#232,#49,.F.);
#192=EDGE_CURVE('',#232,#230,#50,.F.);
#193=EDGE_CURVE('',#219,#231,#243,.T.);
#194=EDGE_CURVE('',#232,#222,#244,.T.);
#195=EDGE_CURVE('',#220,#225,#16,.T.);
#196=EDGE_CURVE('',#211,#219,#245,.T.);
#197=EDGE_CURVE('',#221,#224,#246,.T.);
#198=EDGE_CURVE('',#222,#217,#247,.T.);
#199=EDGE_CURVE('',#218,#221,#248,.T.);
#200=EDGE_CURVE('',#232,#217,#249,.F.);
#201=EDGE_CURVE('',#211,#231,#250,.F.);
#202=EDGE_CURVE('',#218,#224,#251,.F.);
#203=EDGE_CURVE('',#230,#216,#252,.T.);
#204=EDGE_CURVE('',#212,#230,#253,.T.);
#205=EDGE_CURVE('',#215,#223,#17,.T.);
#206=EDGE_CURVE('',#212,#216,#254,.F.);
#207=VERTEX_POINT('',#662);
#208=VERTEX_POINT('',#663);
#209=VERTEX_POINT('',#665);
#210=VERTEX_POINT('',#667);
#211=VERTEX_POINT('',#670);
#212=VERTEX_POINT('',#671);
#213=VERTEX_POINT('',#673);
#214=VERTEX_POINT('',#675);
#215=VERTEX_POINT('',#679);
#216=VERTEX_POINT('',#680);
#217=VERTEX_POINT('',#682);
#218=VERTEX_POINT('',#684);
#219=VERTEX_POINT('',#688);
#220=VERTEX_POINT('',#689);
#221=VERTEX_POINT('',#691);
#222=VERTEX_POINT('',#693);
#223=VERTEX_POINT('',#697);
#224=VERTEX_POINT('',#699);
#225=VERTEX_POINT('',#701);
#226=VERTEX_POINT('',#705);
#227=VERTEX_POINT('',#707);
#228=VERTEX_POINT('',#711);
#229=VERTEX_POINT('',#715);
#230=VERTEX_POINT('',#722);
#231=VERTEX_POINT('',#723);
#232=VERTEX_POINT('',#725);
#233=CIRCLE('',#499,0.003);
#234=CIRCLE('',#500,0.003);
#235=CIRCLE('',#501,0.003);
#236=CIRCLE('',#502,0.003);
#237=CIRCLE('',#506,0.003);
#238=CIRCLE('',#507,0.003);
#239=CIRCLE('',#509,0.003);
#240=CIRCLE('',#511,0.003);
#241=CIRCLE('',#513,0.003);
#242=CIRCLE('',#515,0.003);
#243=CIRCLE('',#519,0.003);
#244=CIRCLE('',#520,0.003);
#245=CIRCLE('',#523,0.003);
#246=CIRCLE('',#525,0.003);
#247=CIRCLE('',#527,0.003);
#248=CIRCLE('',#528,0.003);
#249=CIRCLE('',#530,0.003);
#250=CIRCLE('',#532,0.003);
#251=CIRCLE('',#534,0.003);
#252=CIRCLE('',#536,0.003);
#253=CIRCLE('',#538,0.003);
#254=CIRCLE('',#542,0.003);
#255=EDGE_LOOP('',(#72,#73,#74,#75));
#256=EDGE_LOOP('',(#76,#77,#78,#79));
#257=EDGE_LOOP('',(#80,#81,#82,#83));
#258=EDGE_LOOP('',(#84,#85,#86,#87));
#259=EDGE_LOOP('',(#88,#89,#90,#91,#92));
#260=EDGE_LOOP('',(#93,#94,#95,#96));
#261=EDGE_LOOP('',(#97,#98,#99,#100));
#262=EDGE_LOOP('',(#101,#102,#103,#104));
#263=EDGE_LOOP('',(#105,#106,#107,#108));
#264=EDGE_LOOP('',(#109,#110,#111,#112));
#265=EDGE_LOOP('',(#113,#114,#115));
#266=EDGE_LOOP('',(#116,#117,#118,#119));
#267=EDGE_LOOP('',(#120,#121,#122,#123,#124));
#268=EDGE_LOOP('',(#125,#126,#127,#128));
#269=EDGE_LOOP('',(#129,#130,#131,#132));
#270=EDGE_LOOP('',(#133,#134,#135));
#271=EDGE_LOOP('',(#136,#137,#138));
#272=EDGE_LOOP('',(#139,#140,#141));
#273=EDGE_LOOP('',(#142,#143,#144,#145));
#274=EDGE_LOOP('',(#146,#147,#148,#149));
#275=EDGE_LOOP('',(#150,#151,#152,#153));
#276=EDGE_LOOP('',(#154,#155,#156));
#277=EDGE_LOOP('',(#157,#158,#159,#160,#161));
#278=FACE_BOUND('',#255,.T.);
#279=FACE_BOUND('',#256,.T.);
#280=FACE_BOUND('',#257,.T.);
#281=FACE_BOUND('',#258,.T.);
#282=FACE_BOUND('',#259,.T.);
#283=FACE_BOUND('',#260,.T.);
#284=FACE_BOUND('',#261,.T.);
#285=FACE_BOUND('',#262,.T.);
#286=FACE_BOUND('',#263,.T.);
#287=FACE_BOUND('',#264,.T.);
#288=FACE_BOUND('',#265,.T.);
#289=FACE_BOUND('',#266,.T.);
#290=FACE_BOUND('',#267,.T.);
#291=FACE_BOUND('',#268,.T.);
#292=FACE_BOUND('',#269,.T.);
#293=FACE_BOUND('',#270,.T.);
#294=FACE_BOUND('',#271,.T.);
#295=FACE_BOUND('',#272,.T.);
#296=FACE_BOUND('',#273,.T.);
#297=FACE_BOUND('',#274,.T.);
#298=FACE_BOUND('',#275,.T.);
#299=FACE_BOUND('',#276,.T.);
#300=FACE_BOUND('',#277,.T.);
#301=PLANE('',#498);
#302=PLANE('',#503);
#303=PLANE('',#504);
#304=PLANE('',#505);
#305=PLANE('',#516);
#306=PLANE('',#517);
#307=OVER_RIDING_STYLED_ITEM('',(#356),#331,#354);
#308=OVER_RIDING_STYLED_ITEM('',(#357),#332,#354);
#309=OVER_RIDING_STYLED_ITEM('',(#358),#333,#354);
#310=OVER_RIDING_STYLED_ITEM('',(#359),#334,#354);
#311=OVER_RIDING_STYLED_ITEM('',(#360),#335,#354);
#312=OVER_RIDING_STYLED_ITEM('',(#361),#336,#354);
#313=OVER_RIDING_STYLED_ITEM('',(#362),#337,#354);
#314=OVER_RIDING_STYLED_ITEM('',(#363),#338,#354);
#315=OVER_RIDING_STYLED_ITEM('',(#364),#339,#354);
#316=OVER_RIDING_STYLED_ITEM('',(#365),#340,#354);
#317=OVER_RIDING_STYLED_ITEM('',(#366),#341,#354);
#318=OVER_RIDING_STYLED_ITEM('',(#367),#342,#354);
#319=OVER_RIDING_STYLED_ITEM('',(#368),#343,#354);
#320=OVER_RIDING_STYLED_ITEM('',(#369),#344,#354);
#321=OVER_RIDING_STYLED_ITEM('',(#370),#345,#354);
#322=OVER_RIDING_STYLED_ITEM('',(#371),#346,#354);
#323=OVER_RIDING_STYLED_ITEM('',(#372),#347,#354);
#324=OVER_RIDING_STYLED_ITEM('',(#373),#348,#354);
#325=OVER_RIDING_STYLED_ITEM('',(#374),#349,#354);
#326=OVER_RIDING_STYLED_ITEM('',(#375),#350,#354);
#327=OVER_RIDING_STYLED_ITEM('',(#376),#351,#354);
#328=OVER_RIDING_STYLED_ITEM('',(#377),#352,#354);
#329=DRAUGHTING_PRE_DEFINED_COLOUR('red');
#330=DRAUGHTING_PRE_DEFINED_COLOUR('white');
#331=ADVANCED_FACE('Face appearance 1',(#278,#279),#301,.F.);
#332=ADVANCED_FACE('Face appearance 1',(#280),#302,.F.);
#333=ADVANCED_FACE('Face appearance 1',(#281),#303,.F.);
#334=ADVANCED_FACE('Face appearance 1',(#282),#304,.T.);
#335=ADVANCED_FACE('Face appearance 2',(#283),#18,.T.);
#336=ADVANCED_FACE('Face appearance 2',(#284),#19,.T.);
#337=ADVANCED_FACE('Face appearance 2',(#285),#20,.T.);
#338=ADVANCED_FACE('Face appearance 2',(#286),#21,.T.);
#339=ADVANCED_FACE('Face appearance 2',(#287),#305,.T.);
#340=ADVANCED_FACE('Face appearance 1',(#288),#306,.F.);
#341=ADVANCED_FACE('Face appearance 1',(#289),#22,.T.);
#342=ADVANCED_FACE('Face appearance 1',(#290),#23,.T.);
#343=ADVANCED_FACE('Face appearance 1',(#291),#24,.T.);
#344=ADVANCED_FACE('Face appearance 1',(#292),#25,.T.);
#345=ADVANCED_FACE('Face appearance 1',(#293),#12,.T.);
#346=ADVANCED_FACE('Face appearance 1',(#294),#13,.T.);
#347=ADVANCED_FACE('Face appearance 1',(#295),#14,.T.);
#348=ADVANCED_FACE('Face appearance 1',(#296),#26,.T.);
#349=ADVANCED_FACE('Face appearance 1',(#297),#27,.T.);
#350=ADVANCED_FACE('Face appearance 1',(#298),#28,.T.);
#351=ADVANCED_FACE('Face appearance 1',(#299),#15,.T.);
#352=ADVANCED_FACE('Face appearance 1',(#300),#29,.T.);
#353=CLOSED_SHELL('',(#331,#332,#333,#334,#335,#336,#337,#338,#339,#340,
#341,#342,#343,#344,#345,#346,#347,#348,#349,#350,#351,#352));
#354=STYLED_ITEM('',(#355),#494);
#355=PRESENTATION_STYLE_ASSIGNMENT((#378));
#356=PRESENTATION_STYLE_ASSIGNMENT((#379));
#357=PRESENTATION_STYLE_ASSIGNMENT((#380));
#358=PRESENTATION_STYLE_ASSIGNMENT((#381));
#359=PRESENTATION_STYLE_ASSIGNMENT((#382));
#360=PRESENTATION_STYLE_ASSIGNMENT((#383));
#361=PRESENTATION_STYLE_ASSIGNMENT((#384));
#362=PRESENTATION_STYLE_ASSIGNMENT((#385));
#363=PRESENTATION_STYLE_ASSIGNMENT((#386));
#364=PRESENTATION_STYLE_ASSIGNMENT((#387));
#365=PRESENTATION_STYLE_ASSIGNMENT((#388));
#366=PRESENTATION_STYLE_ASSIGNMENT((#389));
#367=PRESENTATION_STYLE_ASSIGNMENT((#390));
#368=PRESENTATION_STYLE_ASSIGNMENT((#391));
#369=PRESENTATION_STYLE_ASSIGNMENT((#392));
#370=PRESENTATION_STYLE_ASSIGNMENT((#393));
#371=PRESENTATION_STYLE_ASSIGNMENT((#394));
#372=PRESENTATION_STYLE_ASSIGNMENT((#395));
#373=PRESENTATION_STYLE_ASSIGNMENT((#396));
#374=PRESENTATION_STYLE_ASSIGNMENT((#397));
#375=PRESENTATION_STYLE_ASSIGNMENT((#398));
#376=PRESENTATION_STYLE_ASSIGNMENT((#399));
#377=PRESENTATION_STYLE_ASSIGNMENT((#400));
#378=SURFACE_STYLE_USAGE(.BOTH.,#401);
#379=SURFACE_STYLE_USAGE(.BOTH.,#402);
#380=SURFACE_STYLE_USAGE(.BOTH.,#403);
#381=SURFACE_STYLE_USAGE(.BOTH.,#404);
#382=SURFACE_STYLE_USAGE(.BOTH.,#405);
#383=SURFACE_STYLE_USAGE(.BOTH.,#406);
#384=SURFACE_STYLE_USAGE(.BOTH.,#407);
#385=SURFACE_STYLE_USAGE(.BOTH.,#408);
#386=SURFACE_STYLE_USAGE(.BOTH.,#409);
#387=SURFACE_STYLE_USAGE(.BOTH.,#410);
#388=SURFACE_STYLE_USAGE(.BOTH.,#411);
#389=SURFACE_STYLE_USAGE(.BOTH.,#412);
#390=SURFACE_STYLE_USAGE(.BOTH.,#413);
#391=SURFACE_STYLE_USAGE(.BOTH.,#414);
#392=SURFACE_STYLE_USAGE(.BOTH.,#415);
#393=SURFACE_STYLE_USAGE(.BOTH.,#416);
#394=SURFACE_STYLE_USAGE(.BOTH.,#417);
#395=SURFACE_STYLE_USAGE(.BOTH.,#418);
#396=SURFACE_STYLE_USAGE(.BOTH.,#419);
#397=SURFACE_STYLE_USAGE(.BOTH.,#420);
#398=SURFACE_STYLE_USAGE(.BOTH.,#421);
#399=SURFACE_STYLE_USAGE(.BOTH.,#422);
#400=SURFACE_STYLE_USAGE(.BOTH.,#423);
#401=SURFACE_SIDE_STYLE('',(#424));
#402=SURFACE_SIDE_STYLE('',(#425));
#403=SURFACE_SIDE_STYLE('',(#426));
#404=SURFACE_SIDE_STYLE('',(#427));
#405=SURFACE_SIDE_STYLE('',(#428));
#406=SURFACE_SIDE_STYLE('',(#429));
#407=SURFACE_SIDE_STYLE('',(#430));
#408=SURFACE_SIDE_STYLE('',(#431));
#409=SURFACE_SIDE_STYLE('',(#432));
#410=SURFACE_SIDE_STYLE('',(#433));
#411=SURFACE_SIDE_STYLE('',(#434));
#412=SURFACE_SIDE_STYLE('',(#435));
#413=SURFACE_SIDE_STYLE('',(#436));
#414=SURFACE_SIDE_STYLE('',(#437));
#415=SURFACE_SIDE_STYLE('',(#438));
#416=SURFACE_SIDE_STYLE('',(#439));
#417=SURFACE_SIDE_STYLE('',(#440));
#418=SURFACE_SIDE_STYLE('',(#441));
#419=SURFACE_SIDE_STYLE('',(#442));
#420=SURFACE_SIDE_STYLE('',(#443));
#421=SURFACE_SIDE_STYLE('',(#444));
#422=SURFACE_SIDE_STYLE('',(#445));
#423=SURFACE_SIDE_STYLE('',(#446));
#424=SURFACE_STYLE_FILL_AREA(#447);
#425=SURFACE_STYLE_FILL_AREA(#448);
#426=SURFACE_STYLE_FILL_AREA(#449);
#427=SURFACE_STYLE_FILL_AREA(#450);
#428=SURFACE_STYLE_FILL_AREA(#451);
#429=SURFACE_STYLE_FILL_AREA(#452);
#430=SURFACE_STYLE_FILL_AREA(#453);
#431=SURFACE_STYLE_FILL_AREA(#454);
#432=SURFACE_STYLE_FILL_AREA(#455);
#433=SURFACE_STYLE_FILL_AREA(#456);
#434=SURFACE_STYLE_FILL_AREA(#457);
#435=SURFACE_STYLE_FILL_AREA(#458);
#436=SURFACE_STYLE_FILL_AREA(#459);
#437=SURFACE_STYLE_FILL_AREA(#460);
#438=SURFACE_STYLE_FILL_AREA(#461);
#439=SURFACE_STYLE_FILL_AREA(#462);
#440=SURFACE_STYLE_FILL_AREA(#463);
#441=SURFACE_STYLE_FILL_AREA(#464);
#442=SURFACE_STYLE_FILL_AREA(#465);
#443=SURFACE_STYLE_FILL_AREA(#466);
#444=SURFACE_STYLE_FILL_AREA(#467);
#445=SURFACE_STYLE_FILL_AREA(#468);
#446=SURFACE_STYLE_FILL_AREA(#469);
#447=FILL_AREA_STYLE('',(#470));
#448=FILL_AREA_STYLE('',(#471));
#449=FILL_AREA_STYLE('',(#472));
#450=FILL_AREA_STYLE('',(#473));
#451=FILL_AREA_STYLE('',(#474));
#452=FILL_AREA_STYLE('',(#475));
#453=FILL_AREA_STYLE('',(#476));
#454=FILL_AREA_STYLE('',(#477));
#455=FILL_AREA_STYLE('',(#478));
#456=FILL_AREA_STYLE('',(#479));
#457=FILL_AREA_STYLE('',(#480));
#458=FILL_AREA_STYLE('',(#481));
#459=FILL_AREA_STYLE('',(#482));
#460=FILL_AREA_STYLE('',(#483));
#461=FILL_AREA_STYLE('',(#484));
#462=FILL_AREA_STYLE('',(#485));
#463=FILL_AREA_STYLE('',(#486));
#464=FILL_AREA_STYLE('',(#487));
#465=FILL_AREA_STYLE('',(#488));
#466=FILL_AREA_STYLE('',(#489));
#467=FILL_AREA_STYLE('',(#490));
#468=FILL_AREA_STYLE('',(#491));
#469=FILL_AREA_STYLE('',(#492));
#470=FILL_AREA_STYLE_COLOUR('',#493);
#471=FILL_AREA_STYLE_COLOUR('',#329);
#472=FILL_AREA_STYLE_COLOUR('',#329);
#473=FILL_AREA_STYLE_COLOUR('',#329);
#474=FILL_AREA_STYLE_COLOUR('',#329);
#475=FILL_AREA_STYLE_COLOUR('',#330);
#476=FILL_AREA_STYLE_COLOUR('',#330);
#477=FILL_AREA_STYLE_COLOUR('',#330);
#478=FILL_AREA_STYLE_COLOUR('',#330);
#479=FILL_AREA_STYLE_COLOUR('',#330);
#480=FILL_AREA_STYLE_COLOUR('',#329);
#481=FILL_AREA_STYLE_COLOUR('',#329);
#482=FILL_AREA_STYLE_COLOUR('',#329);
#483=FILL_AREA_STYLE_COLOUR('',#329);
#484=FILL_AREA_STYLE_COLOUR('',#329);
#485=FILL_AREA_STYLE_COLOUR('',#329);
#486=FILL_AREA_STYLE_COLOUR('',#329);
#487=FILL_AREA_STYLE_COLOUR('',#329);
#488=FILL_AREA_STYLE_COLOUR('',#329);
#489=FILL_AREA_STYLE_COLOUR('',#329);
#490=FILL_AREA_STYLE_COLOUR('',#329);
#491=FILL_AREA_STYLE_COLOUR('',#329);
#492=FILL_AREA_STYLE_COLOUR('',#329);
#493=COLOUR_RGB('',0.615686274509804,0.811764705882353,0.929411764705882);
#494=MANIFOLD_SOLID_BREP('Part 1',#353);
#495=SHAPE_DEFINITION_REPRESENTATION(#759,#496);
#496=SHAPE_REPRESENTATION('Part 1',(#497),#754);
#497=AXIS2_PLACEMENT_3D('',#659,#544,#545);
#498=AXIS2_PLACEMENT_3D('',#660,#546,#547);
#499=AXIS2_PLACEMENT_3D('',#661,#548,#549);
#500=AXIS2_PLACEMENT_3D('',#664,#550,#551);
#501=AXIS2_PLACEMENT_3D('',#666,#552,#553);
#502=AXIS2_PLACEMENT_3D('',#668,#554,#555);
#503=AXIS2_PLACEMENT_3D('',#677,#560,#561);
#504=AXIS2_PLACEMENT_3D('',#686,#566,#567);
#505=AXIS2_PLACEMENT_3D('',#695,#572,#573);
#506=AXIS2_PLACEMENT_3D('',#696,#574,#575);
#507=AXIS2_PLACEMENT_3D('',#702,#578,#579);
#508=AXIS2_PLACEMENT_3D('',#703,#580,#581);
#509=AXIS2_PLACEMENT_3D('',#708,#584,#585);
#510=AXIS2_PLACEMENT_3D('',#709,#586,#587);
#511=AXIS2_PLACEMENT_3D('',#712,#589,#590);
#512=AXIS2_PLACEMENT_3D('',#713,#591,#592);
#513=AXIS2_PLACEMENT_3D('',#716,#594,#595);
#514=AXIS2_PLACEMENT_3D('',#717,#596,#597);
#515=AXIS2_PLACEMENT_3D('',#718,#598,#599);
#516=AXIS2_PLACEMENT_3D('',#719,#600,#601);
#517=AXIS2_PLACEMENT_3D('',#720,#602,#603);
#518=AXIS2_PLACEMENT_3D('',#727,#607,#608);
#519=AXIS2_PLACEMENT_3D('',#728,#609,#610);
#520=AXIS2_PLACEMENT_3D('',#729,#611,#612);
#521=AXIS2_PLACEMENT_3D('',#730,#613,#614);
#522=AXIS2_PLACEMENT_3D('',#731,#615,#616);
#523=AXIS2_PLACEMENT_3D('',#732,#617,#618);
#524=AXIS2_PLACEMENT_3D('',#733,#619,#620);
#525=AXIS2_PLACEMENT_3D('',#734,#621,#622);
#526=AXIS2_PLACEMENT_3D('',#735,#623,#624);
#527=AXIS2_PLACEMENT_3D('',#736,#625,#626);
#528=AXIS2_PLACEMENT_3D('',#737,#627,#628);
#529=AXIS2_PLACEMENT_3D('',#738,#629,#630);
#530=AXIS2_PLACEMENT_3D('',#739,#631,#632);
#531=AXIS2_PLACEMENT_3D('',#740,#633,#634);
#532=AXIS2_PLACEMENT_3D('',#741,#635,#636);
#533=AXIS2_PLACEMENT_3D('',#742,#637,#638);
#534=AXIS2_PLACEMENT_3D('',#743,#639,#640);
#535=AXIS2_PLACEMENT_3D('',#744,#641,#642);
#536=AXIS2_PLACEMENT_3D('',#745,#643,#644);
#537=AXIS2_PLACEMENT_3D('',#746,#645,#646);
#538=AXIS2_PLACEMENT_3D('',#747,#647,#648);
#539=AXIS2_PLACEMENT_3D('',#748,#649,#650);
#540=AXIS2_PLACEMENT_3D('',#749,#651,#652);
#541=AXIS2_PLACEMENT_3D('',#750,#653,#654);
#542=AXIS2_PLACEMENT_3D('',#751,#655,#656);
#543=AXIS2_PLACEMENT_3D('',#752,#657,#658);
#544=DIRECTION('',(0.,0.,1.));
#545=DIRECTION('',(1.,0.,0.));
#546=DIRECTION('',(3.38724076327814E-16,0.,1.));
#547=DIRECTION('',(1.,0.,-3.38724076327814E-16));
#548=DIRECTION('',(3.38724076327814E-16,0.,1.));
#549=DIRECTION('',(1.,0.,-3.38724076327814E-16));
#550=DIRECTION('',(3.38724076327814E-16,0.,1.));
#551=DIRECTION('',(1.,0.,-3.38724076327814E-16));
#552=DIRECTION('',(3.38724076327814E-16,0.,1.));
#553=DIRECTION('',(1.,0.,-3.38724076327814E-16));
#554=DIRECTION('',(3.38724076327814E-16,0.,1.));
#555=DIRECTION('',(1.,0.,-3.38724076327814E-16));
#556=DIRECTION('',(1.,0.,-3.38724076327814E-16));
#557=DIRECTION('',(0.,1.,0.));
#558=DIRECTION('',(1.,0.,-3.38724076327814E-16));
#559=DIRECTION('',(0.,1.,0.));
#560=DIRECTION('',(-0.423552836527974,0.,-0.905871400734733));
#561=DIRECTION('',(-0.905871400734733,0.,0.423552836527974));
#562=DIRECTION('',(0.,1.,0.));
#563=DIRECTION('',(-0.905871400734733,0.,0.423552836527974));
#564=DIRECTION('',(0.,1.,0.));
#565=DIRECTION('',(-0.905871400734733,0.,0.423552836527974));
#566=DIRECTION('',(0.401275509282087,0.,-0.915957403840594));
#567=DIRECTION('',(-0.915957403840594,0.,-0.401275509282087));
#568=DIRECTION('',(0.,1.,0.));
#569=DIRECTION('',(-0.915957403840594,0.,-0.401275509282087));
#570=DIRECTION('',(0.,1.,0.));
#571=DIRECTION('',(-0.915957403840594,0.,-0.401275509282087));
#572=DIRECTION('',(0.,-1.,0.));
#573=DIRECTION('',(1.,0.,0.));
#574=DIRECTION('',(0.,-1.,0.));
#575=DIRECTION('',(0.,0.,-1.));
#576=DIRECTION('',(-0.905871400734733,0.,0.423552836527974));
#577=DIRECTION('',(-0.915957403840594,0.,-0.401275509282087));
#578=DIRECTION('',(0.,-1.,0.));
#579=DIRECTION('',(0.,0.,-1.));
#580=DIRECTION('',(0.,0.,-1.));
#581=DIRECTION('',(-1.,0.,0.));
#582=DIRECTION('',(0.,0.,-1.));
#583=DIRECTION('',(0.,0.,-1.));
#584=DIRECTION('',(0.,0.,-1.));
#585=DIRECTION('',(-1.,0.,0.));
#586=DIRECTION('',(0.,0.,1.));
#587=DIRECTION('',(1.,0.,0.));
#588=DIRECTION('',(0.,0.,1.));
#589=DIRECTION('',(0.,0.,-1.));
#590=DIRECTION('',(-1.,0.,0.));
#591=DIRECTION('',(0.,0.,1.));
#592=DIRECTION('',(1.,0.,0.));
#593=DIRECTION('',(0.,0.,1.));
#594=DIRECTION('',(0.,0.,-1.));
#595=DIRECTION('',(-1.,0.,0.));
#596=DIRECTION('',(0.,0.,-1.));
#597=DIRECTION('',(-1.,0.,0.));
#598=DIRECTION('',(0.,0.,-1.));
#599=DIRECTION('',(-1.,0.,0.));
#600=DIRECTION('',(0.,0.,-1.));
#601=DIRECTION('',(-1.,0.,0.));
#602=DIRECTION('',(0.,-1.,0.));
#603=DIRECTION('',(1.,0.,0.));
#604=DIRECTION('',(1.,0.,-3.38724076327814E-16));
#605=DIRECTION('',(-0.915957403840594,0.,-0.401275509282087));
#606=DIRECTION('',(-0.905871400734733,0.,0.423552836527974));
#607=DIRECTION('',(-0.915957403840594,0.,-0.401275509282087));
#608=DIRECTION('',(-0.401275509282087,0.,0.915957403840594));
#609=DIRECTION('',(-0.915957403840594,1.05928854095803E-15,-0.401275509282087));
#610=DIRECTION('',(-0.401275509282087,0.,0.915957403840595));
#611=DIRECTION('',(0.915957403840594,0.,0.401275509282087));
#612=DIRECTION('',(0.401275509282087,0.,-0.915957403840594));
#613=DIRECTION('',(0.,1.,0.));
#614=DIRECTION('',(0.,0.,1.));
#615=DIRECTION('',(0.647679691533709,-0.707106781186548,0.28374463373745));
#616=DIRECTION('',(0.647679691533709,0.707106781186548,0.28374463373745));
#617=DIRECTION('',(0.,1.,0.));
#618=DIRECTION('',(0.,0.,1.));
#619=DIRECTION('',(0.915957403840594,0.,0.401275509282087));
#620=DIRECTION('',(0.401275509282087,0.,-0.915957403840594));
#621=DIRECTION('',(0.915957403840594,-1.25790514238766E-15,0.401275509282087));
#622=DIRECTION('',(0.401275509282087,0.,-0.915957403840594));
#623=DIRECTION('',(0.,1.,0.));
#624=DIRECTION('',(0.,0.,1.));
#625=DIRECTION('',(0.,1.,0.));
#626=DIRECTION('',(0.,0.,1.));
#627=DIRECTION('',(0.,-1.,0.));
#628=DIRECTION('',(0.,0.,-1.));
#629=DIRECTION('',(-2.20680317191321E-15,1.,0.));
#630=DIRECTION('',(-1.,-2.20680317191321E-15,0.));
#631=DIRECTION('',(-0.905871400734733,1.25589178385204E-15,0.423552836527975));
#632=DIRECTION('',(0.423552836527975,0.,0.905871400734733));
#633=DIRECTION('',(1.15648231731787E-15,1.,0.));
#634=DIRECTION('',(-1.,1.15648231731787E-15,0.));
#635=DIRECTION('',(-1.,0.,0.));
#636=DIRECTION('',(0.,0.,1.));
#637=DIRECTION('',(-3.32036915323686E-15,-1.,0.));
#638=DIRECTION('',(1.,-3.32036915323686E-15,0.));
#639=DIRECTION('',(-0.905871400734733,0.,0.423552836527975));
#640=DIRECTION('',(0.423552836527975,0.,0.905871400734733));
#641=DIRECTION('',(-0.905871400734733,0.,0.423552836527974));
#642=DIRECTION('',(0.423552836527974,0.,0.905871400734733));
#643=DIRECTION('',(0.905871400734732,0.,-0.423552836527977));
#644=DIRECTION('',(-0.423552836527977,0.,-0.905871400734732));
#645=DIRECTION('',(1.,0.,-3.38724076327814E-16));
#646=DIRECTION('',(-3.38724076327814E-16,0.,-1.));
#647=DIRECTION('',(1.,2.31296463463574E-15,0.));
#648=DIRECTION('',(-2.31296463463574E-15,1.,0.));
#649=DIRECTION('',(0.905871400734733,0.,-0.423552836527974));
#650=DIRECTION('',(-0.423552836527974,0.,-0.905871400734733));
#651=DIRECTION('',(0.640547810342486,0.707106781186548,-0.299497082899728));
#652=DIRECTION('',(0.640547810342486,-0.707106781186548,-0.299497082899728));
#653=DIRECTION('',(-2.31296463463575E-15,1.,0.));
#654=DIRECTION('',(-1.,-2.31296463463575E-15,0.));
#655=DIRECTION('',(0.,1.,0.));
#656=DIRECTION('',(0.,0.,1.));
#657=DIRECTION('',(0.,1.,0.));
#658=DIRECTION('',(0.,0.,1.));
#659=CARTESIAN_POINT('',(0.,0.,0.));
#660=CARTESIAN_POINT('',(-0.0204853873368949,-0.03,0.030764924849777));
#661=CARTESIAN_POINT('',(-0.000702916618436575,-0.002,0.030764924849777));
#662=CARTESIAN_POINT('',(0.00225512327311324,-0.0025,0.030764924849777));
#663=CARTESIAN_POINT('',(1.0842021724855E-19,-0.00491648902407084,0.030764924849777));
#664=CARTESIAN_POINT('',(-0.000702916618436575,-0.003,0.030764924849777));
#665=CARTESIAN_POINT('',(1.0842021724855E-19,-8.35109759291584E-5,0.030764924849777));
#666=CARTESIAN_POINT('',(0.000702916618436575,-0.003,0.030764924849777));
#667=CARTESIAN_POINT('',(-0.00225512327311324,-0.0025,0.030764924849777));
#668=CARTESIAN_POINT('',(0.000702916618436575,-0.002,0.030764924849777));
#669=CARTESIAN_POINT('',(-0.0204853873368949,0.027,0.030764924849777));
#670=CARTESIAN_POINT('',(-0.0266467701468124,0.027,0.030764924849777));
#671=CARTESIAN_POINT('',(0.0248892680012861,0.027,0.030764924849777));
#672=CARTESIAN_POINT('',(0.0248892680012861,-0.03,0.030764924849777));
#673=CARTESIAN_POINT('',(0.0248892680012861,-0.03,0.030764924849777));
#674=CARTESIAN_POINT('',(-0.0204853873368949,-0.03,0.030764924849777));
#675=CARTESIAN_POINT('',(-0.0266467701468124,-0.03,0.030764924849777));
#676=CARTESIAN_POINT('',(-0.0266467701468124,-0.03,0.030764924849777));
#677=CARTESIAN_POINT('',(0.0191942219022065,-0.03,0.039739451614871));
#678=CARTESIAN_POINT('',(0.0261599265108701,-0.03,0.0364825390519813));
#679=CARTESIAN_POINT('',(0.0261599265108701,-0.027,0.0364825390519813));
#680=CARTESIAN_POINT('',(0.0261599265108701,0.027,0.0364825390519813));
#681=CARTESIAN_POINT('',(0.0191942219022065,0.027,0.039739451614871));
#682=CARTESIAN_POINT('',(0.00123039290043311,0.027,0.048138690979789));
#683=CARTESIAN_POINT('',(0.00123039290043311,-0.03,0.048138690979789));
#684=CARTESIAN_POINT('',(0.00123039290043311,-0.027,0.048138690979789));
#685=CARTESIAN_POINT('',(0.0383884438044131,-0.027,0.030764924849777));
#686=CARTESIAN_POINT('',(-0.0204853873368949,-0.03,0.039739451614871));
#687=CARTESIAN_POINT('',(-0.0278505966746586,-0.03,0.0365127970612988));
#688=CARTESIAN_POINT('',(-0.0278505966746586,0.027,0.0365127970612988));
#689=CARTESIAN_POINT('',(-0.0278505966746586,-0.027,0.0365127970612988));
#690=CARTESIAN_POINT('',(-1.34662334977749E-18,-0.027,0.0487139783799648));
#691=CARTESIAN_POINT('',(-0.00124409213699707,-0.027,0.0481689489891066));
#692=CARTESIAN_POINT('',(-0.00124409213699707,-0.03,0.0481689489891066));
#693=CARTESIAN_POINT('',(-0.00124409213699707,0.027,0.0481689489891066));
#694=CARTESIAN_POINT('',(-0.0204853873368949,0.027,0.039739451614871));
#695=CARTESIAN_POINT('',(-0.00129116543468836,-0.03,0.039739451614871));
#696=CARTESIAN_POINT('',(0.0248892680012861,-0.03,0.033764924849777));
#697=CARTESIAN_POINT('',(0.0276068822034903,-0.03,0.0324942663401931));
#698=CARTESIAN_POINT('',(-0.00127065850958393,-0.03,0.0459963641777606));
#699=CARTESIAN_POINT('',(-4.02656091508135E-5,-0.03,0.0454210767775848));
#700=CARTESIAN_POINT('',(-0.0397669481459435,-0.03,0.0280170526382553));
#701=CARTESIAN_POINT('',(-0.0293946423583341,-0.03,0.0325610983219308));
#702=CARTESIAN_POINT('',(-0.0266467701468124,-0.03,0.033764924849777));
#703=CARTESIAN_POINT('',(-0.000702916618436575,-0.002,0.));
#704=CARTESIAN_POINT('',(0.00225512327311324,-0.0025,0.));
#705=CARTESIAN_POINT('',(0.00225512327311324,-0.0025,-0.0323089733719826));
#706=CARTESIAN_POINT('',(3.25260651745652E-19,-0.00491648902407084,0.));
#707=CARTESIAN_POINT('',(2.16840434497101E-19,-0.00491648902407084,-0.0323089733719826));
#708=CARTESIAN_POINT('',(-0.000702916618436575,-0.002,-0.0323089733719826));
#709=CARTESIAN_POINT('',(0.000702916618436575,-0.002,0.));
#710=CARTESIAN_POINT('',(-0.00225512327311324,-0.0025,0.));
#711=CARTESIAN_POINT('',(-0.00225512327311324,-0.0025,-0.0323089733719826));
#712=CARTESIAN_POINT('',(0.000702916618436575,-0.002,-0.0323089733719826));
#713=CARTESIAN_POINT('',(-0.000702916618436575,-0.003,0.));
#714=CARTESIAN_POINT('',(1.0842021724855E-19,-8.35109759291584E-5,0.));
#715=CARTESIAN_POINT('',(0.,-8.35109759291589E-5,-0.0323089733719826));
#716=CARTESIAN_POINT('',(-0.000702916618436575,-0.003,-0.0323089733719826));
#717=CARTESIAN_POINT('',(0.000702916618436575,-0.003,0.));
#718=CARTESIAN_POINT('',(0.000702916618436575,-0.003,-0.0323089733719826));
#719=CARTESIAN_POINT('',(0.,-0.005,-0.0323089733719826));
#720=CARTESIAN_POINT('',(-0.00129116543468836,0.03,0.039739451614871));
#721=CARTESIAN_POINT('',(-0.00129116543468836,0.03,0.033764924849777));
#722=CARTESIAN_POINT('',(0.0248892680012861,0.03,0.033764924849777));
#723=CARTESIAN_POINT('',(-0.0266467701468124,0.03,0.033764924849777));
#724=CARTESIAN_POINT('',(-0.00317803156529302,0.03,0.0440464401113168));
#725=CARTESIAN_POINT('',(-4.02656091508093E-5,0.03,0.0454210767775848));
#726=CARTESIAN_POINT('',(0.00111319319701006,0.03,0.0448817609886424));
#727=CARTESIAN_POINT('',(-0.0192815608090487,0.027,0.0369915794033491));
#728=CARTESIAN_POINT('',(-0.0266467701468124,0.027,0.033764924849777));
#729=CARTESIAN_POINT('',(-4.02656091508093E-5,0.027,0.0454210767775848));
#730=CARTESIAN_POINT('',(-0.0266467701468124,-0.03,0.033764924849777));
#731=CARTESIAN_POINT('',(-0.0266467701468124,-0.027,0.033764924849777));
#732=CARTESIAN_POINT('',(-0.0266467701468124,0.027,0.033764924849777));
#733=CARTESIAN_POINT('',(-0.00317803156529302,-0.027,0.0440464401113168));
#734=CARTESIAN_POINT('',(-4.02656091508103E-5,-0.027,0.0454210767775848));
#735=CARTESIAN_POINT('',(-4.02656091508108E-5,-0.03,0.0454210767775848));
#736=CARTESIAN_POINT('',(-4.02656091508103E-5,0.027,0.0454210767775848));
#737=CARTESIAN_POINT('',(-4.02656091508102E-5,-0.027,0.0454210767775848));
#738=CARTESIAN_POINT('',(-4.02656091508026E-5,0.027,0.0454210767775848));
#739=CARTESIAN_POINT('',(-4.02656091508102E-5,0.027,0.0454210767775848));
#740=CARTESIAN_POINT('',(-0.0266467701468124,0.027,0.033764924849777));
#741=CARTESIAN_POINT('',(-0.0266467701468124,0.027,0.033764924849777));
#742=CARTESIAN_POINT('',(-4.0265609150804E-5,-0.027,0.0454210767775848));
#743=CARTESIAN_POINT('',(-4.02656091508135E-5,-0.027,0.0454210767775848));
#744=CARTESIAN_POINT('',(0.0179235633926226,0.027,0.0370218374126667));
#745=CARTESIAN_POINT('',(0.0248892680012861,0.027,0.033764924849777));
#746=CARTESIAN_POINT('',(-0.0204853873368949,0.027,0.033764924849777));
#747=CARTESIAN_POINT('',(0.0248892680012861,0.027,0.033764924849777));
#748=CARTESIAN_POINT('',(0.00111319319701006,-0.027,0.0448817609886424));
#749=CARTESIAN_POINT('',(0.0248892680012861,-0.027,0.033764924849777));
#750=CARTESIAN_POINT('',(0.0248892680012861,0.027,0.033764924849777));
#751=CARTESIAN_POINT('',(0.0248892680012861,0.027,0.033764924849777));
#752=CARTESIAN_POINT('',(0.0248892680012861,-0.03,0.033764924849777));
#753=MECHANICAL_DESIGN_GEOMETRIC_PRESENTATION_REPRESENTATION('',(#354,#307,
#308,#309,#310,#311,#312,#313,#314,#315,#316,#317,#318,#319,#320,#321,#322,
#323,#324,#325,#326,#327,#328),#754);
#754=(
GEOMETRIC_REPRESENTATION_CONTEXT(3)
GLOBAL_UNCERTAINTY_ASSIGNED_CONTEXT((#755))
GLOBAL_UNIT_ASSIGNED_CONTEXT((#758,#757,#756))
REPRESENTATION_CONTEXT('Part 1','TOP_LEVEL_ASSEMBLY_PART')
);
#755=UNCERTAINTY_MEASURE_WITH_UNIT(LENGTH_MEASURE(1.E-8),#758,
'DISTANCE_ACCURACY_VALUE','Maximum Tolerance applied to model');
#756=(
NAMED_UNIT(*)
SI_UNIT($,.STERADIAN.)
SOLID_ANGLE_UNIT()
);
#757=(
NAMED_UNIT(*)
PLANE_ANGLE_UNIT()
SI_UNIT($,.RADIAN.)
);
#758=(
LENGTH_UNIT()
NAMED_UNIT(*)
SI_UNIT($,.METRE.)
);
#759=PRODUCT_DEFINITION_SHAPE('','',#760);
#760=PRODUCT_DEFINITION('','',#762,#761);
#761=PRODUCT_DEFINITION_CONTEXT('',#768,'design');
#762=PRODUCT_DEFINITION_FORMATION_WITH_SPECIFIED_SOURCE('','',#764,
 .NOT_KNOWN.);
#763=PRODUCT_RELATED_PRODUCT_CATEGORY('','',(#764));
#764=PRODUCT('Part 1','Part 1','Part 1',(#766));
#765=PRODUCT_CATEGORY('','');
#766=PRODUCT_CONTEXT('',#768,'mechanical');
#767=APPLICATION_PROTOCOL_DEFINITION('international standard',
'ap242_managed_model_based_3d_engineering',2020,#768);
#768=APPLICATION_CONTEXT('managed model based 3d engineering');
ENDSEC;
END-ISO-10303-21;
